<?xml version="1.0" encoding="utf-8"?>
<!-- Generator: Adobe Illustrator 24.3.0, SVG Export Plug-In . SVG Version: 6.00 Build 0)  -->
<svg version="1.1" id="Camada_1" xmlns="http://www.w3.org/2000/svg" xmlns:xlink="http://www.w3.org/1999/xlink" x="0px" y="0px"
	 viewBox="0 0 154.5 154.5" style="enable-background:new 0 0 154.5 154.5;" xml:space="preserve">
<style type="text/css">
	.st0{fill:#365A7C;}
	.st1{fill:#0DAEA9;}
	.st2{fill:#0DAEAA;}
	.st3{fill:#375C7D;}
</style>
<g>
	<path class="st0" d="M77.2,154.5c-10.4,0-20.5-2-30.1-6.1c-9.2-3.9-17.5-9.5-24.6-16.6c-7.1-7.1-12.7-15.4-16.6-24.6
		C2,97.8,0,87.7,0,77.2c0-10.4,2-20.5,6.1-30.1C10,38,15.5,29.7,22.6,22.6C29.7,15.5,38,10,47.2,6.1C56.7,2,66.8,0,77.2,0
		c10.4,0,20.5,2,30.1,6.1c9.2,3.9,17.5,9.5,24.6,16.6c7.1,7.1,12.7,15.4,16.6,24.6c4,9.5,6.1,19.6,6.1,30.1c0,10.4-2,20.5-6.1,30.1
		c-3.9,9.2-9.5,17.5-16.6,24.6c-7.1,7.1-15.4,12.7-24.6,16.6C97.8,152.5,87.7,154.5,77.2,154.5 M77.2,2.8c-10,0-19.8,2-29,5.8
		c-8.9,3.7-16.8,9.1-23.7,16c-6.8,6.8-12.2,14.8-16,23.7c-3.9,9.2-5.8,18.9-5.8,29c0,10,2,19.8,5.8,29c3.7,8.9,9.1,16.8,16,23.7
		c6.8,6.8,14.8,12.2,23.7,16c9.2,3.9,18.9,5.8,29,5.8s19.8-2,29-5.8c8.9-3.7,16.8-9.1,23.7-16c6.8-6.8,12.2-14.8,16-23.7
		c3.9-9.2,5.8-18.9,5.8-29c0-10-2-19.8-5.8-29c-3.7-8.9-9.1-16.8-16-23.7c-6.8-6.8-14.8-12.2-23.7-16C97,4.8,87.3,2.8,77.2,2.8"/>
	<path class="st1" d="M91.1,63.8c-1.7,1.3-3.6,2.2-5.6,2.7c-2.8,0.7-5.7,0.6-8.5-0.3c1-1,2.2-1.9,3.4-2.6c0.1-0.1,0.3-0.1,0.4-0.2
		c1.2-0.6,2.4-1.1,3.6-1.4c2-0.5,4.1-0.6,6.2-0.3l2.7,0.4 M82.9,72c-1.3-0.2-2.4-0.7-3.4-1.4c-1-0.7-1.8-1.6-2.4-2.7
		c1.4,0.4,2.8,0.6,4.2,0.6c0.9,0.7,1.6,1.6,2.2,2.6l0.6,1.1L82.9,72z M71.3,70.6c-1,0.7-2.1,1.2-3.4,1.4l-1.3,0.2l0.6-1.1
		c0.6-1,1.3-1.9,2.2-2.6c1.4,0,2.8-0.2,4.2-0.6C73.1,69,72.3,69.9,71.3,70.6 M59.7,63.8l-2.2-1.6l2.7-0.4c2.1-0.3,4.2-0.2,6.2,0.3
		c1.3,0.3,2.5,0.8,3.6,1.4c0.1,0.1,0.3,0.1,0.4,0.2c1.2,0.7,2.4,1.6,3.4,2.6c-2.8,0.9-5.8,0.9-8.5,0.3C63.3,66,61.4,65.1,59.7,63.8
		 M61.8,51.4l-1.2-3.2l3,1.6c2.2,1.2,4.2,2.7,5.9,4.6c2.3,2.6,3.9,5.7,4.6,9.1l0,0.1l-0.1,0c-1-0.3-1.9-0.8-2.8-1.2
		c-0.2-0.1-0.3-0.2-0.5-0.3c-2-1.1-3.7-2.5-5.2-4.2C63.9,55.9,62.6,53.7,61.8,51.4 M76.7,63.4c0.4-1.7,0.9-3.3,1.7-4.8
		c0-0.1,0.1-0.1,0.1-0.2l0,0c0.8-1.5,1.7-2.8,2.8-4.1c1.7-1.9,3.6-3.4,5.9-4.6l3-1.6L89,51.4c-0.9,2.4-2.2,4.5-3.8,6.4
		c-1.5,1.7-3.2,3.1-5.2,4.2c-0.2,0.1-0.3,0.2-0.5,0.3C78.6,62.7,77.7,63.1,76.7,63.4L76.7,63.4L76.7,63.4z M96.2,61.5
		c-0.1-0.3-0.3-0.6-0.7-0.6l-4.7-0.7c-1.9-0.3-3.9-0.3-5.8,0.1c0.5-0.4,0.9-0.9,1.3-1.4c1.8-2,3.2-4.3,4.1-6.9l1.9-5.2
		c0.1-0.3,0-0.7-0.2-0.9c-0.3-0.2-0.6-0.3-0.9-0.1l-4.9,2.5c-2.4,1.2-4.4,2.8-6.2,4.8c0.3-1.4,0.4-2.8,0.4-4.3c0-3-0.7-6.1-2-8.9
		l-2.5-5.4c-0.1-0.3-0.4-0.5-0.7-0.5c-0.3,0-0.6,0.2-0.7,0.5l-2.5,5.4c-0.1,0.3-0.2,0.5-0.3,0.8c-0.2,0.4,0,0.9,0.4,1.1
		c0.4,0.2,0.9,0,1.1-0.4c0.1-0.2,0.2-0.5,0.3-0.7l1.8-3.9l1.8,3.9c1.2,2.5,1.8,5.4,1.8,8.2c0,2.3-0.4,4.5-1.2,6.6L77,57.7
		c-0.7,1.3-1.2,2.7-1.6,4.1c-0.4-1.5-1-2.9-1.7-4.2l-0.8-2.2c-0.8-2.1-1.2-4.3-1.2-6.6c0-0.7,0-1.3,0.1-2c0-0.4-0.3-0.8-0.7-0.9
		c-0.4,0-0.8,0.3-0.9,0.7c-0.1,0.7-0.1,1.4-0.1,2.1c0,1.4,0.1,2.9,0.4,4.2c-1.8-2-3.8-3.6-6.2-4.8l-4.9-2.5
		c-0.3-0.2-0.7-0.1-0.9,0.1c-0.3,0.2-0.3,0.6-0.2,0.9l1.9,5.2c0.9,2.5,2.3,4.9,4.1,6.9c0.4,0.5,0.9,0.9,1.3,1.4
		c-1.9-0.3-3.8-0.4-5.8-0.1l-4.7,0.7c-0.3,0-0.6,0.3-0.7,0.6c-0.1,0.3,0,0.7,0.3,0.8l3.8,2.8c1.9,1.4,4,2.4,6.2,2.9
		c0.7,0.2,1.5,0.3,2.3,0.4c-0.5,0.6-1,1.2-1.4,1.9L64.4,73c-0.2,0.3-0.1,0.6,0.1,0.9c0.2,0.2,0.4,0.3,0.7,0.3c0,0,0.1,0,0.1,0
		l2.9-0.5c1.5-0.3,2.9-0.9,4.1-1.7c0.9-0.6,1.7-1.4,2.3-2.4v5.2c0,0.4,0.4,0.8,0.8,0.8c0.4,0,0.8-0.4,0.8-0.8v-5.2
		c0.6,0.9,1.4,1.7,2.3,2.4c1.2,0.9,2.6,1.4,4.1,1.7l2.9,0.5c0,0,0.1,0,0.1,0c0.3,0,0.5-0.1,0.7-0.3c0.2-0.3,0.2-0.6,0.1-0.9L85,70.4
		c-0.4-0.7-0.8-1.4-1.4-1.9c0.8-0.1,1.5-0.2,2.3-0.4c2.2-0.6,4.3-1.5,6.2-2.9l3.8-2.8C96.1,62.1,96.3,61.8,96.2,61.5"/>
	<path class="st2" d="M75.4,75.6c-0.5,0-0.9-0.4-0.9-0.9v-5c-0.6,0.9-1.4,1.6-2.2,2.2c-1.2,0.9-2.6,1.5-4.1,1.7l-2.9,0.5
		c-0.3,0.1-0.7-0.1-0.9-0.4c-0.2-0.3-0.2-0.6-0.1-0.9l1.4-2.6c0.4-0.7,0.8-1.3,1.3-1.9c-0.7-0.1-1.4-0.2-2.1-0.4
		c-2.3-0.6-4.4-1.5-6.2-2.9l-3.8-2.8c-0.3-0.2-0.4-0.6-0.3-0.9c0.1-0.3,0.4-0.6,0.7-0.7l4.7-0.7c1.9-0.3,3.7-0.3,5.6,0
		c-0.4-0.4-0.8-0.8-1.2-1.2c-1.8-2-3.2-4.4-4.1-6.9l-1.9-5.2c-0.1-0.3,0-0.7,0.2-1c0.3-0.2,0.7-0.3,1-0.1l4.9,2.5
		c2.3,1.2,4.3,2.7,6,4.6c-0.3-1.3-0.4-2.7-0.4-4c0-0.7,0-1.4,0.1-2.1c0.1-0.5,0.5-0.8,1-0.8c0.5,0.1,0.8,0.5,0.8,1
		c-0.1,0.6-0.1,1.3-0.1,2c0,2.3,0.4,4.5,1.2,6.6l0.8,2.2c0.7,1.3,1.2,2.6,1.6,4c0.4-1.4,0.9-2.7,1.6-3.9l0.8-2.3
		c0.8-2.1,1.2-4.3,1.2-6.6c0-2.8-0.6-5.6-1.8-8.1l-1.7-3.7l-1.7,3.7c-0.1,0.2-0.2,0.5-0.3,0.7c-0.1,0.2-0.3,0.4-0.5,0.5
		c-0.2,0.1-0.5,0.1-0.7,0c-0.4-0.2-0.7-0.7-0.5-1.2c0.1-0.3,0.2-0.5,0.4-0.8l2.5-5.4c0.1-0.3,0.5-0.5,0.8-0.5c0.3,0,0.7,0.2,0.8,0.5
		l2.5,5.4c1.3,2.8,2,5.8,2,8.9c0,1.3-0.1,2.7-0.4,4c1.7-1.9,3.8-3.4,6.1-4.6l4.9-2.5c0.3-0.2,0.7-0.1,1,0.1c0.3,0.2,0.4,0.6,0.2,1
		l-1.9,5.2c-0.9,2.6-2.3,4.9-4.1,6.9c-0.4,0.4-0.8,0.8-1.2,1.2c1.8-0.3,3.7-0.3,5.6,0l4.7,0.7c0.4,0.1,0.6,0.3,0.7,0.7
		c0.1,0.3,0,0.7-0.3,0.9l-3.8,2.8c-1.9,1.4-4,2.4-6.2,2.9c-0.7,0.2-1.4,0.3-2.1,0.4c0.5,0.6,0.9,1.2,1.3,1.9l1.4,2.6
		c0.2,0.3,0.1,0.7-0.1,0.9c-0.2,0.3-0.5,0.4-0.9,0.4l-2.9-0.5c-1.5-0.3-2.9-0.9-4.1-1.7c-0.8-0.6-1.6-1.4-2.2-2.2v5
		C76.3,75.2,75.9,75.6,75.4,75.6 M74.6,69.3v5.4c0,0.4,0.3,0.7,0.7,0.7c0.4,0,0.7-0.3,0.7-0.7v-5.4l0.1,0.2c0.6,0.9,1.4,1.7,2.3,2.4
		c1.2,0.9,2.6,1.4,4,1.7l2.9,0.5c0.3,0.1,0.6-0.1,0.7-0.3c0.2-0.2,0.2-0.5,0.1-0.8l-1.4-2.6c-0.4-0.7-0.8-1.4-1.4-1.9l-0.1-0.1
		l0.1,0c0.8-0.1,1.5-0.2,2.3-0.4c2.2-0.5,4.3-1.5,6.2-2.9l3.8-2.8c0.2-0.2,0.4-0.5,0.3-0.8c-0.1-0.3-0.3-0.5-0.6-0.6l-4.7-0.7
		c-1.9-0.3-3.9-0.3-5.7,0.1l-0.2,0l0.2-0.2c0.5-0.4,0.9-0.9,1.3-1.4c1.8-2,3.2-4.3,4.1-6.9l1.9-5.2c0.1-0.3,0-0.6-0.2-0.8
		c-0.2-0.2-0.6-0.2-0.8-0.1l-4.9,2.5c-2.3,1.2-4.4,2.8-6.2,4.8l-0.2,0.2l0.1-0.3c0.3-1.4,0.4-2.8,0.4-4.2c0-3-0.7-6.1-2-8.8
		l-2.5-5.4c-0.1-0.3-0.4-0.4-0.7-0.4c-0.3,0-0.6,0.2-0.7,0.4L72.2,40c-0.1,0.3-0.2,0.5-0.3,0.8c-0.2,0.4,0,0.8,0.4,1
		c0.2,0.1,0.4,0.1,0.6,0c0.2-0.1,0.3-0.2,0.4-0.4c0.1-0.2,0.2-0.5,0.3-0.7l1.9-4l1.9,4c1.2,2.5,1.8,5.4,1.8,8.2
		c0,2.3-0.4,4.5-1.2,6.6l-0.8,2.3c-0.7,1.3-1.2,2.7-1.6,4.1l-0.1,0.2l-0.1-0.2c-0.4-1.4-1-2.9-1.7-4.2l-0.8-2.2
		c-0.8-2.1-1.2-4.4-1.2-6.6c0-0.7,0-1.3,0.1-2c0-0.4-0.3-0.8-0.7-0.8c-0.4,0-0.8,0.3-0.8,0.7c-0.1,0.7-0.1,1.4-0.1,2.1
		c0,1.4,0.1,2.8,0.4,4.2l0.1,0.3l-0.2-0.2c-1.8-1.9-3.8-3.6-6.2-4.8l-4.9-2.5c-0.3-0.1-0.6-0.1-0.8,0.1c-0.2,0.2-0.3,0.5-0.2,0.8
		l1.9,5.2c0.9,2.5,2.3,4.9,4.1,6.9c0.4,0.5,0.9,0.9,1.3,1.4l0.2,0.2l-0.2,0c-1.9-0.3-3.8-0.4-5.7-0.1l-4.7,0.7
		c-0.3,0-0.5,0.3-0.6,0.6c-0.1,0.3,0,0.6,0.3,0.8l3.8,2.8c1.9,1.4,4,2.4,6.2,2.9c0.7,0.2,1.5,0.3,2.3,0.4l0.1,0l-0.1,0.1
		c-0.5,0.6-1,1.2-1.4,1.9L64.5,73c-0.1,0.2-0.1,0.6,0,0.8c0.2,0.2,0.5,0.3,0.7,0.3l2.9-0.5c1.5-0.3,2.9-0.8,4-1.7
		c0.9-0.6,1.7-1.4,2.3-2.4L74.6,69.3z M84.3,72.4l-1.4-0.3c-1.3-0.2-2.4-0.7-3.4-1.5c-1-0.7-1.8-1.6-2.4-2.7L77,67.8l0.2,0
		c1.4,0.4,2.8,0.6,4.2,0.6l0,0l0,0c0.9,0.7,1.7,1.6,2.2,2.6L84.3,72.4z M77.3,68c0.6,1,1.4,1.8,2.3,2.5c1,0.7,2.1,1.2,3.4,1.4
		l1.1,0.2l-0.5-1c-0.6-1-1.3-1.9-2.2-2.6C79.9,68.6,78.6,68.4,77.3,68 M66.5,72.4l0.7-1.2c0.6-1.1,1.3-1.9,2.2-2.6l0,0l0,0
		c1.4,0,2.8-0.2,4.2-0.6l0.2,0L73.7,68c-0.6,1.1-1.4,2-2.4,2.7c-1,0.7-2.2,1.2-3.4,1.5L66.5,72.4z M69.5,68.6
		c-0.9,0.7-1.6,1.6-2.2,2.6l-0.5,1l1.1-0.2c1.3-0.2,2.4-0.7,3.4-1.4c0.9-0.7,1.7-1.5,2.3-2.5C72.2,68.4,70.8,68.6,69.5,68.6
		 M69.1,67c-1.3,0-2.5-0.2-3.8-0.5c-2-0.5-3.9-1.4-5.7-2.7l-2.4-1.7l2.9-0.4c2.1-0.3,4.2-0.2,6.3,0.3c1.3,0.3,2.5,0.8,3.7,1.4
		c0.1,0.1,0.3,0.1,0.4,0.2c1.2,0.7,2.4,1.6,3.4,2.6l0.1,0.1l-0.1,0C72.3,66.7,70.7,67,69.1,67 M57.6,62.2l2.1,1.5
		c1.7,1.3,3.6,2.1,5.6,2.6c2.7,0.7,5.6,0.6,8.4-0.2c-1-1-2.1-1.8-3.3-2.5c-0.1-0.1-0.3-0.1-0.4-0.2c-1.2-0.6-2.4-1.1-3.6-1.4
		c-2-0.5-4.1-0.6-6.2-0.3L57.6,62.2z M81.7,67c-1.6,0-3.2-0.2-4.8-0.7l-0.1,0l0.1-0.1c1-1,2.2-1.9,3.4-2.6c0.1-0.1,0.3-0.1,0.4-0.2
		c1.2-0.6,2.4-1.1,3.7-1.4c2-0.5,4.1-0.6,6.3-0.3l2.9,0.4l-2.4,1.7c-1.7,1.3-3.6,2.2-5.7,2.7C84.3,66.8,83,67,81.7,67 M77.1,66.2
		c2.8,0.8,5.7,0.9,8.4,0.2c2-0.5,3.9-1.4,5.6-2.6l2.1-1.5l-2.6-0.4c-2.1-0.3-4.2-0.2-6.2,0.3c-1.2,0.3-2.5,0.8-3.6,1.4
		c-0.1,0.1-0.3,0.1-0.4,0.2C79.2,64.4,78.1,65.2,77.1,66.2 M76.6,63.6l0-0.2c0.4-1.7,0.9-3.3,1.7-4.8c0-0.1,0.1-0.1,0.1-0.2l0,0
		c0.8-1.5,1.7-2.9,2.8-4.1c1.7-1.9,3.6-3.4,5.9-4.6l3.2-1.7l-1.3,3.4c-0.9,2.4-2.2,4.5-3.8,6.4C83.8,59.5,82,60.9,80,62
		c-0.2,0.1-0.3,0.2-0.5,0.3c-0.9,0.5-1.9,0.9-2.8,1.2L76.6,63.6z M90.1,48.3l-2.9,1.5c-2.2,1.2-4.2,2.7-5.8,4.6
		c-1.1,1.2-2,2.6-2.8,4.1l0,0c0,0.1-0.1,0.2-0.1,0.2c-0.7,1.5-1.3,3.1-1.7,4.7c0.9-0.3,1.9-0.7,2.7-1.2c0.2-0.1,0.3-0.2,0.5-0.3
		c2-1.1,3.7-2.5,5.2-4.2c1.7-1.9,2.9-4,3.8-6.4L90.1,48.3z M74.2,63.6L74,63.5c-1-0.3-1.9-0.8-2.8-1.2c-0.2-0.1-0.3-0.2-0.5-0.3
		c-2-1.1-3.7-2.5-5.2-4.2c-1.7-1.9-3-4-3.8-6.4L60.4,48l3.2,1.7c2.2,1.2,4.2,2.7,5.9,4.6c2.3,2.6,3.9,5.7,4.6,9.1L74.2,63.6z
		 M60.7,48.3l1.1,3c0.9,2.4,2.2,4.5,3.8,6.4c1.5,1.7,3.2,3.1,5.2,4.2c0.2,0.1,0.3,0.2,0.5,0.3c0.9,0.5,1.8,0.9,2.7,1.2
		c-0.7-3.3-2.3-6.5-4.6-9c-1.7-1.9-3.6-3.4-5.8-4.6L60.7,48.3z"/>
	<path class="st2" d="M75.4,75.7c-0.5,0-0.9-0.4-0.9-0.9V70c-0.6,0.8-1.3,1.5-2.1,2.1c-1.2,0.9-2.6,1.5-4.1,1.7l-2.9,0.5
		c-0.4,0.1-0.7-0.1-0.9-0.4c-0.2-0.3-0.2-0.7-0.1-1l1.4-2.6c0.3-0.6,0.8-1.2,1.2-1.8c-0.7-0.1-1.4-0.2-2-0.4
		c-2.3-0.6-4.4-1.5-6.3-2.9l-3.8-2.8c-0.3-0.2-0.5-0.6-0.4-1c0.1-0.4,0.4-0.7,0.8-0.7l4.7-0.7c1.8-0.3,3.6-0.3,5.4,0
		c-0.4-0.4-0.7-0.7-1-1.1c-1.8-2-3.2-4.4-4.2-6.9l-1.9-5.2c-0.1-0.4,0-0.8,0.3-1c0.3-0.3,0.7-0.3,1.1-0.1l4.9,2.5
		c2.2,1.1,4.2,2.6,5.9,4.5c-0.2-1.3-0.3-2.5-0.3-3.8c0-0.7,0-1.4,0.1-2.1c0.1-0.5,0.5-0.9,1-0.8c0.5,0.1,0.9,0.5,0.8,1
		c-0.1,0.6-0.1,1.3-0.1,2c0,2.2,0.4,4.5,1.2,6.6l0.8,2.2c0.6,1.2,1.1,2.5,1.5,3.8c0.4-1.3,0.9-2.5,1.5-3.7l0.8-2.3
		c0.8-2.1,1.2-4.3,1.2-6.6c0-2.8-0.6-5.6-1.8-8.1l-1.7-3.6l-1.7,3.6c-0.1,0.2-0.2,0.5-0.3,0.7c-0.1,0.2-0.3,0.4-0.5,0.5
		c-0.2,0.1-0.5,0.1-0.7,0c-0.2-0.1-0.4-0.3-0.5-0.5c-0.1-0.2-0.1-0.5,0-0.7c0.1-0.3,0.2-0.5,0.4-0.8l2.5-5.4
		c0.2-0.3,0.5-0.5,0.9-0.5c0.4,0,0.7,0.2,0.9,0.5l2.5,5.4c1.3,2.8,2,5.9,2,8.9c0,1.3-0.1,2.6-0.3,3.8c1.7-1.8,3.7-3.3,5.9-4.5
		l4.9-2.5c0.4-0.2,0.8-0.1,1.1,0.1c0.3,0.3,0.4,0.7,0.3,1L90.7,52c-1,2.6-2.3,4.9-4.1,6.9c-0.3,0.4-0.7,0.7-1,1.1
		c1.8-0.3,3.6-0.3,5.4,0l4.7,0.7c0.4,0.1,0.7,0.3,0.8,0.7c0.1,0.4,0,0.8-0.4,1l-3.8,2.8c-1.9,1.4-4,2.4-6.3,2.9
		c-0.7,0.2-1.3,0.3-2,0.4c0.5,0.5,0.9,1.1,1.2,1.8l1.4,2.6c0.2,0.3,0.2,0.7-0.1,1c-0.2,0.3-0.6,0.4-0.9,0.4l-2.9-0.5
		c-1.5-0.3-2.9-0.9-4.1-1.7c-0.8-0.6-1.5-1.3-2.1-2.1v4.8C76.3,75.3,75.9,75.7,75.4,75.7 M74.7,69.1v5.6c0,0.4,0.3,0.7,0.7,0.7
		c0.4,0,0.7-0.3,0.7-0.7v-5.7l0.2,0.4c0.6,0.9,1.4,1.7,2.3,2.4c1.2,0.9,2.5,1.4,4,1.7l2.9,0.5c0.3,0,0.5-0.1,0.7-0.3
		c0.2-0.2,0.2-0.5,0-0.7l-1.4-2.6c-0.4-0.7-0.8-1.3-1.4-1.9l-0.2-0.2l0.3,0c0.8-0.1,1.5-0.2,2.2-0.4c2.2-0.5,4.3-1.5,6.2-2.9
		l3.8-2.8c0.2-0.2,0.3-0.4,0.3-0.7v0C96,61.2,95.8,61,95.5,61l-4.7-0.7C88.9,60,87,60,85.1,60.3l-0.4,0.1l0.3-0.3
		c0.5-0.4,0.9-0.9,1.3-1.4c1.8-2,3.2-4.3,4.1-6.8l1.9-5.2c0.1-0.3,0-0.6-0.2-0.7c-0.2-0.2-0.5-0.2-0.8-0.1l-4.9,2.5
		c-2.3,1.2-4.4,2.8-6.2,4.8L80,53.5l0.1-0.5c0.3-1.4,0.4-2.8,0.4-4.2c0-3-0.7-6.1-2-8.8L76,34.6c-0.1-0.2-0.4-0.4-0.6-0.4
		c-0.3,0-0.5,0.2-0.6,0.4L72.2,40c-0.1,0.3-0.2,0.5-0.3,0.8c-0.1,0.2-0.1,0.4,0,0.5c0.1,0.2,0.2,0.3,0.4,0.4c0.2,0.1,0.4,0.1,0.5,0
		c0.2-0.1,0.3-0.2,0.4-0.4c0.1-0.2,0.2-0.5,0.3-0.7l1.9-4.1l1.9,4.1c1.2,2.6,1.8,5.4,1.8,8.2c0,2.3-0.4,4.5-1.2,6.7l-0.8,2.3
		c-0.7,1.3-1.2,2.7-1.6,4.1l-0.1,0.5l-0.1-0.5c-0.4-1.4-1-2.9-1.6-4.2l-0.8-2.2c-0.8-2.1-1.2-4.4-1.2-6.7c0-0.7,0-1.3,0.1-2
		c0-0.4-0.2-0.7-0.6-0.7c-0.4,0-0.7,0.2-0.7,0.6c-0.1,0.7-0.1,1.4-0.1,2.1c0,1.4,0.1,2.8,0.4,4.2l0.1,0.5l-0.3-0.4
		c-1.8-1.9-3.8-3.5-6.2-4.7l-4.9-2.5c-0.2-0.1-0.5-0.1-0.8,0.1c-0.2,0.2-0.3,0.5-0.2,0.7l1.9,5.2c0.9,2.5,2.3,4.8,4.1,6.8
		c0.4,0.5,0.8,0.9,1.3,1.4l0.3,0.3l-0.4-0.1C63.8,60,61.9,60,60,60.3L55.3,61c-0.3,0-0.5,0.2-0.6,0.5c-0.1,0.3,0,0.5,0.3,0.7
		l3.8,2.8c1.9,1.4,3.9,2.4,6.2,2.9c0.7,0.2,1.5,0.3,2.2,0.4l0.3,0l-0.2,0.2c-0.5,0.6-1,1.2-1.4,1.9l-1.4,2.6c-0.1,0.2-0.1,0.5,0,0.7
		c0.2,0.2,0.4,0.3,0.7,0.3l2.9-0.5c1.5-0.3,2.8-0.8,4-1.7c0.9-0.6,1.6-1.4,2.3-2.3L74.7,69.1z M84.4,72.5l-1.5-0.3
		c-1.3-0.2-2.5-0.7-3.5-1.5c-1-0.7-1.8-1.6-2.4-2.7l-0.2-0.3l0.3,0.1c1.4,0.4,2.8,0.6,4.2,0.6l0,0l0,0c0.9,0.7,1.7,1.6,2.2,2.7
		L84.4,72.5z M82.9,71.9l1,0.2l-0.5-0.9c-0.6-1-1.3-1.9-2.1-2.6c-1.3,0-2.6-0.2-3.9-0.5c0.6,0.9,1.3,1.7,2.2,2.3
		C80.5,71.2,81.7,71.7,82.9,71.9 M66.4,72.5l0.7-1.4c0.6-1.1,1.3-2,2.2-2.7l0,0l0,0c1.4,0,2.8-0.2,4.2-0.6l0.3-0.1L73.8,68
		c-0.6,1.1-1.4,2-2.4,2.7c-1,0.7-2.2,1.2-3.5,1.5L66.4,72.5z M69.5,68.7c-0.9,0.7-1.6,1.5-2.1,2.6l-0.5,0.9l1-0.2
		c1.2-0.2,2.4-0.7,3.4-1.4c0.9-0.6,1.6-1.4,2.2-2.3C72.1,68.5,70.8,68.6,69.5,68.7 M81.7,67c-1.6,0-3.2-0.2-4.8-0.7l-0.2-0.1
		l0.2-0.2c1-1,2.2-1.9,3.4-2.6c0.1-0.1,0.3-0.1,0.4-0.2c1.2-0.6,2.4-1.1,3.7-1.4c2.1-0.5,4.2-0.6,6.3-0.3l3.1,0.5l-2.5,1.8l-0.1-0.1
		l0.1,0.1c-1.7,1.3-3.6,2.2-5.7,2.7C84.3,66.9,83,67,81.7,67 M77.2,66.1c2.7,0.8,5.6,0.9,8.2,0.2c2-0.5,3.9-1.4,5.6-2.6l2-1.4
		l-2.4-0.4c-2.1-0.3-4.2-0.2-6.2,0.3c-1.2,0.3-2.5,0.8-3.6,1.4c-0.1,0.1-0.3,0.1-0.4,0.2C79.2,64.4,78.2,65.2,77.2,66.1 M69.1,67
		c-1.3,0-2.6-0.2-3.8-0.5c-2-0.5-4-1.4-5.7-2.7l-2.5-1.8l3.1-0.5c2.1-0.3,4.2-0.2,6.3,0.3c1.3,0.3,2.5,0.8,3.7,1.4
		c0.1,0.1,0.3,0.1,0.4,0.2c1.2,0.7,2.4,1.6,3.4,2.6l0.2,0.2l-0.2,0.1C72.3,66.8,70.7,67,69.1,67 M57.8,62.2l2,1.4
		c1.7,1.3,3.6,2.1,5.6,2.6c2.7,0.7,5.5,0.6,8.2-0.2c-1-0.9-2.1-1.7-3.2-2.4c-0.1-0.1-0.3-0.1-0.4-0.2c-1.2-0.6-2.4-1.1-3.6-1.4
		c-2-0.5-4.1-0.6-6.2-0.3L57.8,62.2z M74.3,63.7L74,63.6c-1-0.3-1.9-0.8-2.8-1.2c-0.2-0.1-0.3-0.2-0.5-0.3c-2-1.1-3.7-2.5-5.2-4.2
		c-1.7-1.9-3-4.1-3.8-6.4l-1.3-3.5l3.4,1.7c2.2,1.2,4.2,2.7,5.9,4.6c2.3,2.6,3.9,5.8,4.6,9.2L74.3,63.7z M61.9,51.3
		c0.9,2.3,2.1,4.5,3.8,6.3c1.5,1.7,3.2,3.1,5.2,4.2c0.2,0.1,0.3,0.2,0.5,0.3c0.8,0.5,1.7,0.8,2.6,1.2c-0.8-3.3-2.3-6.4-4.5-8.9
		c-1.6-1.9-3.6-3.4-5.8-4.5l-2.7-1.4L61.9,51.3z M76.5,63.7l0.1-0.3c0.4-1.7,0.9-3.3,1.7-4.8c0.1-0.1,0.1-0.1,0.1-0.2l0,0
		c0.8-1.5,1.7-2.9,2.8-4.1c1.7-1.9,3.7-3.4,5.9-4.6l3.4-1.7l-1.3,3.5c-0.9,2.4-2.2,4.5-3.8,6.4c-1.5,1.7-3.3,3.1-5.2,4.2
		c-0.2,0.1-0.3,0.2-0.5,0.3c-0.9,0.5-1.9,0.9-2.8,1.2L76.5,63.7z M90,48.4l-2.7,1.4C85,51,83,52.5,81.4,54.4c-1.1,1.2-2,2.6-2.8,4.1
		l0,0c0,0.1-0.1,0.2-0.1,0.2c-0.7,1.4-1.3,3-1.6,4.5c0.9-0.3,1.8-0.7,2.6-1.2c0.1-0.1,0.3-0.2,0.5-0.3c2-1.1,3.7-2.5,5.2-4.2
		c1.6-1.9,2.9-4,3.8-6.3L90,48.4z"/>
	<path class="st2" d="M75.4,75.8c-0.6,0-1-0.5-1-1v-4.6c-0.6,0.7-1.2,1.4-2,1.9c-1.2,0.9-2.6,1.5-4.2,1.8l-2.9,0.5
		c-0.4,0.1-0.8-0.1-1-0.4c-0.2-0.3-0.3-0.7-0.1-1.1l1.4-2.6c0.3-0.6,0.7-1.2,1.1-1.7c-0.6-0.1-1.3-0.2-1.9-0.4
		c-2.3-0.6-4.4-1.6-6.3-3l-3.8-2.8c-0.3-0.2-0.5-0.7-0.4-1.1c0.1-0.4,0.4-0.7,0.8-0.8l4.7-0.7c1.7-0.3,3.5-0.3,5.2,0
		c-0.3-0.3-0.6-0.6-0.9-0.9c-1.8-2-3.2-4.4-4.2-7l-1.9-5.2c-0.1-0.4,0-0.8,0.3-1.1c0.3-0.3,0.8-0.3,1.1-0.1l4.9,2.5
		c2.2,1.1,4.1,2.6,5.8,4.3c-0.2-1.2-0.3-2.4-0.3-3.6c0-0.7,0-1.4,0.1-2.2c0.1-0.6,0.6-1,1.1-0.9c0.6,0.1,1,0.6,0.9,1.1
		C72,47.5,72,48.2,72,48.8c0,2.2,0.4,4.4,1.2,6.5l0.8,2.2c0.6,1.1,1.1,2.3,1.5,3.6c0.4-1.2,0.9-2.4,1.4-3.5l0.8-2.3
		c0.8-2.1,1.2-4.3,1.2-6.5c0-2.8-0.6-5.6-1.8-8.1l-1.6-3.5l-1.6,3.5c-0.1,0.3-0.2,0.5-0.3,0.7c-0.1,0.3-0.3,0.4-0.6,0.5
		c-0.3,0.1-0.5,0.1-0.8,0c-0.3-0.1-0.4-0.3-0.5-0.6c-0.1-0.3-0.1-0.5,0-0.8c0.1-0.3,0.2-0.5,0.4-0.8l2.5-5.4
		c0.2-0.4,0.5-0.6,0.9-0.6c0.4,0,0.8,0.2,0.9,0.6l2.5,5.4c1.3,2.8,2,5.9,2,9c0,1.2-0.1,2.4-0.3,3.6c1.7-1.7,3.6-3.2,5.8-4.3l4.9-2.5
		c0.4-0.2,0.8-0.1,1.1,0.1c0.3,0.3,0.4,0.7,0.3,1.1L90.7,52c-1,2.6-2.4,4.9-4.2,7c-0.3,0.3-0.6,0.6-0.9,0.9c1.7-0.2,3.5-0.2,5.2,0
		l4.7,0.7c0.4,0.1,0.7,0.4,0.8,0.8c0.1,0.4-0.1,0.8-0.4,1.1l-3.8,2.8c-1.9,1.4-4,2.4-6.3,3c-0.6,0.2-1.3,0.3-1.9,0.4
		c0.4,0.5,0.8,1.1,1.1,1.7l1.4,2.6c0.2,0.3,0.2,0.8-0.1,1.1c-0.2,0.3-0.6,0.5-1,0.4l-2.9-0.5c-1.5-0.3-2.9-0.9-4.2-1.8
		c-0.7-0.5-1.4-1.2-2-1.9v4.6C76.4,75.3,76,75.8,75.4,75.8 M74.5,69.8v5c0,0.5,0.4,0.9,0.9,0.9c0.5,0,0.9-0.4,0.9-0.9v-5l0.1,0.2
		c0.6,0.8,1.3,1.5,2.1,2.1c1.2,0.9,2.6,1.5,4.1,1.7l2.9,0.5c0.3,0.1,0.7-0.1,0.9-0.4c0.2-0.3,0.2-0.6,0.1-0.9L85,70.3
		c-0.3-0.6-0.7-1.2-1.2-1.8l-0.1-0.1l0.1,0c0.7-0.1,1.4-0.2,2-0.4c2.2-0.6,4.3-1.5,6.2-2.9l3.8-2.8c0.3-0.2,0.4-0.6,0.3-0.9
		c-0.1-0.3-0.4-0.6-0.7-0.7l-4.7-0.7c-1.8-0.3-3.6-0.3-5.4,0l-0.2,0l0.2-0.2c0.4-0.3,0.7-0.7,1-1.1c1.8-2,3.2-4.4,4.1-6.9l1.9-5.2
		c0.1-0.3,0-0.7-0.2-1c-0.3-0.2-0.7-0.3-1-0.1l-4.9,2.5c-2.2,1.1-4.2,2.6-5.9,4.5l-0.2,0.2l0-0.2c0.2-1.2,0.3-2.5,0.3-3.8
		c0-3.1-0.7-6.1-2-8.9l-2.5-5.4C76,34.2,75.7,34,75.4,34c-0.3,0-0.7,0.2-0.8,0.5L72,39.9c-0.1,0.2-0.2,0.5-0.3,0.8
		c-0.1,0.2-0.1,0.5,0,0.7c0.1,0.2,0.3,0.4,0.5,0.5c0.2,0.1,0.5,0.1,0.7,0c0.2-0.1,0.4-0.3,0.5-0.5c0.1-0.2,0.2-0.5,0.3-0.7l1.8-3.7
		l1.8,3.7c1.2,2.5,1.8,5.3,1.8,8.1c0,2.3-0.4,4.5-1.2,6.6L77,57.7c-0.6,1.2-1.1,2.4-1.5,3.7l-0.1,0.2l-0.1-0.2
		c-0.4-1.3-0.9-2.6-1.5-3.8L73,55.4c-0.8-2.1-1.2-4.3-1.2-6.6c0-0.6,0-1.3,0.1-2c0-0.5-0.3-0.9-0.8-1c-0.5,0-0.9,0.3-1,0.8
		c-0.1,0.7-0.1,1.4-0.1,2.1c0,1.3,0.1,2.5,0.3,3.8l0,0.2l-0.2-0.2c-1.7-1.8-3.7-3.3-5.9-4.4l-4.9-2.5c-0.3-0.2-0.7-0.1-1,0.1
		c-0.3,0.2-0.4,0.6-0.2,1l1.9,5.2c0.9,2.6,2.3,4.9,4.1,6.9c0.3,0.4,0.7,0.7,1,1.1l0.2,0.2l-0.2,0c-1.8-0.3-3.6-0.3-5.4,0l-4.7,0.7
		c-0.4,0.1-0.6,0.3-0.7,0.7c-0.1,0.3,0,0.7,0.3,0.9l3.8,2.8c1.9,1.4,4,2.4,6.2,2.9c0.7,0.2,1.3,0.3,2,0.4l0.1,0L67,68.6
		c-0.5,0.5-0.9,1.1-1.2,1.8L64.3,73c-0.2,0.3-0.1,0.7,0.1,0.9c0.2,0.3,0.5,0.4,0.9,0.3l2.9-0.5c1.5-0.3,2.9-0.9,4.1-1.7
		c0.8-0.6,1.5-1.3,2.1-2L74.5,69.8z M75.4,75.5c-0.4,0-0.7-0.3-0.7-0.7v-5.4l-0.1,0.2c-0.6,0.9-1.4,1.7-2.3,2.4
		c-1.2,0.9-2.5,1.4-4,1.7l-2.9,0.5c-0.3,0.1-0.6-0.1-0.7-0.3c-0.2-0.2-0.2-0.5-0.1-0.8l1.4-2.6c0.4-0.7,0.8-1.4,1.4-1.9l0.1-0.1
		l-0.1,0c-0.8-0.1-1.5-0.2-2.3-0.4c-2.2-0.5-4.3-1.5-6.2-2.9L55,62.3c-0.2-0.2-0.4-0.5-0.3-0.8c0.1-0.3,0.3-0.5,0.6-0.6l4.7-0.7
		c1.9-0.3,3.8-0.3,5.7,0.1l0.2,0l-0.2-0.2c-0.5-0.5-0.9-0.9-1.3-1.4c-1.8-2-3.2-4.3-4.1-6.9l-1.9-5.2c-0.1-0.3,0-0.6,0.2-0.8
		c0.2-0.2,0.6-0.2,0.8-0.1l4.9,2.5c2.3,1.2,4.4,2.8,6.2,4.8l0.2,0.2L70.6,53c-0.3-1.4-0.4-2.8-0.4-4.2c0-0.7,0-1.4,0.1-2.1
		c0-0.2,0.1-0.4,0.3-0.5c0.2-0.1,0.3-0.2,0.5-0.2c0.4,0,0.7,0.4,0.7,0.8c-0.1,0.7-0.1,1.3-0.1,2c0,2.3,0.4,4.5,1.2,6.6l0.8,2.2
		c0.7,1.3,1.2,2.7,1.6,4.2l0.1,0.2l0.1-0.2c0.4-1.4,0.9-2.8,1.6-4.1l0.8-2.3c0.8-2.1,1.2-4.4,1.2-6.6c0-2.8-0.6-5.7-1.8-8.2l-1.9-4
		l-1.9,4c-0.1,0.2-0.2,0.5-0.3,0.7c-0.1,0.2-0.2,0.3-0.4,0.4c-0.2,0.1-0.4,0.1-0.6,0c-0.2-0.1-0.3-0.2-0.4-0.4
		c-0.1-0.2-0.1-0.4,0-0.6c0.1-0.2,0.2-0.5,0.3-0.8l2.5-5.4c0.1-0.3,0.4-0.4,0.7-0.4c0.3,0,0.6,0.2,0.7,0.4l2.5,5.4
		c1.3,2.7,2,5.8,2,8.8c0,1.4-0.1,2.9-0.4,4.2l-0.1,0.2l0.2-0.2c1.8-2,3.8-3.6,6.2-4.8l4.9-2.5c0.3-0.1,0.6-0.1,0.8,0.1
		c0.2,0.2,0.3,0.5,0.2,0.8l-1.9,5.2c-0.9,2.5-2.3,4.9-4.1,6.9c-0.4,0.5-0.9,0.9-1.3,1.4l-0.2,0.2l0.2,0c1.9-0.3,3.8-0.4,5.7-0.1
		l4.7,0.7c0.3,0,0.5,0.3,0.6,0.6l0,0c0.1,0.3,0,0.6-0.3,0.8L92,65.1c-1.9,1.4-4,2.4-6.2,2.9c-0.7,0.2-1.5,0.3-2.3,0.4l-0.1,0
		l0.1,0.1c0.5,0.6,1,1.2,1.4,1.9l1.4,2.6c0.1,0.3,0.1,0.6-0.1,0.8c-0.2,0.2-0.5,0.3-0.7,0.3l-2.9-0.5c-1.5-0.3-2.9-0.9-4-1.7
		c-0.9-0.6-1.7-1.4-2.3-2.4l-0.1-0.2v5.4C76.1,75.2,75.8,75.5,75.4,75.5 M74.8,68.9v5.9c0,0.3,0.3,0.6,0.6,0.6
		c0.3,0,0.6-0.3,0.6-0.6v-5.9l0.4,0.5c0.6,0.9,1.4,1.7,2.3,2.3c1.2,0.8,2.5,1.4,4,1.7l2.9,0.5c0.2,0,0.5-0.1,0.6-0.2
		c0.1-0.2,0.2-0.4,0-0.6l-1.4-2.6c-0.4-0.7-0.8-1.3-1.3-1.9l-0.3-0.3l0.4,0c0.8-0.1,1.5-0.2,2.2-0.4c2.2-0.5,4.3-1.5,6.1-2.9
		l3.8-2.8c0.2-0.1,0.3-0.4,0.2-0.6l0,0c-0.1-0.2-0.3-0.4-0.5-0.4l-4.7-0.7c-1.9-0.3-3.8-0.3-5.7,0.1l-0.7,0.1l0.5-0.5
		c0.5-0.4,0.9-0.9,1.3-1.4c1.8-2,3.1-4.3,4.1-6.8l1.9-5.2c0.1-0.2,0-0.5-0.2-0.7c-0.2-0.2-0.5-0.2-0.7-0.1l-4.9,2.5
		c-2.3,1.2-4.4,2.8-6.1,4.7l-0.5,0.6L80,53c0.3-1.4,0.4-2.8,0.4-4.2c0-3-0.7-6-2-8.8l-2.5-5.4c-0.1-0.2-0.3-0.3-0.5-0.3
		c-0.2,0-0.4,0.1-0.5,0.3L72.3,40c-0.1,0.3-0.2,0.5-0.3,0.8c-0.1,0.1-0.1,0.3,0,0.5c0.1,0.1,0.2,0.3,0.3,0.3c0.1,0.1,0.3,0.1,0.5,0
		c0.1-0.1,0.3-0.2,0.3-0.3c0.1-0.2,0.2-0.5,0.3-0.7l2-4.3l2,4.3c1.2,2.6,1.8,5.4,1.8,8.3c0,2.3-0.4,4.5-1.2,6.7l-0.8,2.3
		c-0.7,1.3-1.2,2.7-1.6,4.1l-0.2,0.7l-0.2-0.7c-0.4-1.4-1-2.8-1.6-4.2l-0.8-2.3c-0.8-2.1-1.2-4.4-1.2-6.7c0-0.7,0-1.3,0.1-2
		c0-0.3-0.2-0.6-0.5-0.7c-0.2,0-0.3,0-0.4,0.1c-0.1,0.1-0.2,0.3-0.2,0.4c-0.1,0.7-0.1,1.4-0.1,2.1c0,1.4,0.1,2.8,0.4,4.2l0.2,0.7
		l-0.5-0.6c-1.7-1.9-3.8-3.5-6.1-4.7l-4.9-2.5c-0.2-0.1-0.5-0.1-0.7,0.1c-0.2,0.2-0.3,0.4-0.2,0.7l1.9,5.2c0.9,2.5,2.3,4.8,4.1,6.8
		c0.4,0.5,0.8,0.9,1.3,1.4l0.5,0.5l-0.7-0.1c-1.9-0.3-3.8-0.4-5.7-0.1l-4.7,0.7c-0.2,0-0.4,0.2-0.5,0.5c-0.1,0.2,0,0.5,0.2,0.6
		l3.8,2.8c1.9,1.4,3.9,2.3,6.1,2.9c0.7,0.2,1.5,0.3,2.2,0.4l0.4,0l-0.3,0.3c-0.5,0.6-1,1.2-1.3,1.9l-1.4,2.6c-0.1,0.2-0.1,0.5,0,0.6
		c0.1,0.2,0.4,0.3,0.6,0.2l2.9-0.5c1.5-0.3,2.8-0.8,4-1.7c0.9-0.6,1.6-1.4,2.3-2.3L74.8,68.9z M84.5,72.6l-1.7-0.3
		c-1.3-0.2-2.5-0.7-3.5-1.5c-1-0.7-1.8-1.6-2.4-2.7l-0.2-0.4l0.5,0.1c1.4,0.4,2.8,0.6,4.2,0.6l0.1,0l0.1,0c0.9,0.7,1.7,1.6,2.3,2.7
		L84.5,72.6z M77,67.8l0.1,0.1c0.6,1.1,1.4,2,2.4,2.7c1,0.7,2.2,1.2,3.4,1.5l1.4,0.3l-0.7-1.2c-0.6-1-1.3-1.9-2.2-2.6l0,0l0,0
		c-1.4,0-2.8-0.2-4.2-0.6L77,67.8z M66.3,72.6l0.8-1.5c0.6-1.1,1.3-2,2.3-2.7l0.1,0l0.1,0c1.4,0,2.8-0.2,4.2-0.6l0.5-0.1L73.9,68
		c-0.6,1.1-1.4,2-2.4,2.7c-1,0.7-2.2,1.2-3.5,1.5L66.3,72.6z M69.4,68.5L69.4,68.5c-0.9,0.7-1.7,1.6-2.2,2.7l-0.7,1.2l1.4-0.3
		c1.3-0.2,2.4-0.7,3.4-1.5c1-0.7,1.8-1.6,2.4-2.7l0.1-0.1l-0.2,0C72.3,68.2,70.9,68.4,69.4,68.5L69.4,68.5z M66.8,72.2l0.5-1
		c0.6-1,1.3-1.9,2.2-2.6l0,0l0,0c1.3,0,2.6-0.2,3.9-0.5l0.2,0l-0.1,0.1c-0.6,0.9-1.3,1.7-2.2,2.4c-1,0.7-2.1,1.2-3.4,1.4L66.8,72.2z
		 M69.5,68.7c-0.9,0.7-1.6,1.5-2.1,2.5L67,72l0.8-0.2c1.2-0.2,2.4-0.7,3.3-1.4c0.8-0.6,1.5-1.3,2-2.2C72,68.5,70.8,68.7,69.5,68.7
		 M84,72.2L82.9,72c-1.3-0.2-2.4-0.7-3.4-1.4c-0.9-0.6-1.6-1.4-2.2-2.4L77.3,68l0.2,0c1.3,0.3,2.6,0.5,3.9,0.5l0,0l0,0
		c0.9,0.7,1.6,1.6,2.2,2.6L84,72.2z M82.9,71.8l0.8,0.2l-0.4-0.7c-0.5-1-1.3-1.8-2.1-2.5c-1.2,0-2.5-0.2-3.7-0.5
		c0.6,0.9,1.2,1.6,2,2.2C80.6,71.1,81.7,71.6,82.9,71.8 M81.7,67.1c-1.6,0-3.3-0.2-4.8-0.7l-0.3-0.1l0.2-0.2c1-1,2.2-1.9,3.5-2.6
		c0.1-0.1,0.3-0.1,0.4-0.2c1.2-0.6,2.4-1.1,3.7-1.4c2.1-0.5,4.2-0.6,6.3-0.3l3.2,0.5l-2.7,2l0,0c-1.7,1.3-3.6,2.1-5.7,2.6
		C84.3,67,83,67.1,81.7,67.1 M76.8,66.2l0.1,0c2.8,0.9,5.8,0.9,8.6,0.3c2-0.5,3.9-1.4,5.6-2.6l0-0.1l0.1-0.1l0,0.1l2.3-1.7l-2.9-0.4
		c-2.1-0.3-4.2-0.2-6.3,0.3c-1.3,0.3-2.5,0.8-3.7,1.4c-0.1,0.1-0.3,0.1-0.4,0.2C79.1,64.3,77.9,65.1,76.8,66.2L76.8,66.2z
		 M69.1,67.1c-1.3,0-2.6-0.2-3.8-0.5c-2.1-0.5-4-1.4-5.7-2.7L56.9,62l3.2-0.5c2.1-0.3,4.3-0.2,6.3,0.3c1.3,0.3,2.5,0.8,3.7,1.4
		c0.1,0.1,0.3,0.1,0.4,0.2C71.8,64.1,73,65,74,66l0.2,0.2l-0.3,0.1C72.3,66.9,70.7,67.1,69.1,67.1L69.1,67.1z M57.3,62.1l2.4,1.7
		c1.7,1.3,3.6,2.2,5.7,2.7c1.2,0.3,2.5,0.5,3.8,0.5h0c1.6,0,3.2-0.2,4.8-0.7l0.1,0l-0.1-0.1c-1-1-2.2-1.9-3.4-2.6
		c-0.1-0.1-0.3-0.1-0.4-0.2c-1.2-0.6-2.4-1.1-3.7-1.4c-2-0.5-4.1-0.6-6.3-0.3L57.3,62.1z M69.1,66.8c-1.3,0-2.5-0.1-3.7-0.4
		c-2-0.5-3.9-1.4-5.6-2.6l-2.1-1.5l2.6-0.4c2.1-0.3,4.2-0.2,6.2,0.3c1.3,0.3,2.5,0.8,3.6,1.4c0.1,0.1,0.3,0.1,0.4,0.2
		c1.2,0.7,2.3,1.5,3.2,2.4l0.1,0.1l-0.1,0C72.1,66.6,70.6,66.8,69.1,66.8 M58,62.3l1.8,1.3c1.7,1.2,3.6,2.1,5.6,2.6
		c2.6,0.6,5.4,0.6,8.1-0.2c-0.9-0.9-2-1.7-3.1-2.3c-0.1-0.1-0.3-0.1-0.4-0.2c-1.1-0.6-2.4-1.1-3.6-1.4c-2-0.5-4.1-0.6-6.1-0.3
		L58,62.3z M81.7,66.8c-1.5,0-3-0.2-4.5-0.6l-0.1,0l0.1-0.1c1-0.9,2.1-1.7,3.2-2.4l0.1-0.1c0.1,0,0.2-0.1,0.3-0.1
		c1.2-0.6,2.4-1.1,3.6-1.4c2-0.5,4.1-0.6,6.2-0.3l2.6,0.4l-2.1,1.5c-1.7,1.3-3.6,2.1-5.6,2.6C84.2,66.7,83,66.8,81.7,66.8
		 M77.3,66.1c2.7,0.7,5.5,0.8,8.1,0.2c2-0.5,3.9-1.4,5.6-2.6l1.8-1.3l-2.2-0.3c-2.1-0.3-4.1-0.2-6.1,0.3c-1.2,0.3-2.4,0.8-3.6,1.4
		c-0.1,0-0.2,0.1-0.2,0.1l-0.1,0.1C79.3,64.4,78.3,65.2,77.3,66.1 M74.4,63.8L74,63.6c-1-0.3-1.9-0.8-2.8-1.2
		c-0.2-0.1-0.3-0.2-0.5-0.3c-2-1.1-3.8-2.6-5.3-4.3c-1.7-1.9-3-4.1-3.9-6.4l-1.4-3.7l3.5,1.8c2.3,1.2,4.3,2.7,5.9,4.6
		c2.3,2.6,3.9,5.8,4.7,9.2L74.4,63.8z M60.5,48l1.3,3.4c0.9,2.4,2.2,4.5,3.8,6.4c1.5,1.7,3.2,3.1,5.2,4.2c0.2,0.1,0.3,0.2,0.5,0.3
		c0.9,0.5,1.9,0.9,2.8,1.2l0.2,0.1l0-0.2c-0.7-3.4-2.3-6.5-4.6-9.1c-1.7-1.9-3.6-3.4-5.9-4.6L60.5,48z M76.4,63.8l0.1-0.4
		c0.4-1.7,0.9-3.3,1.7-4.8c0.1-0.1,0.1-0.1,0.1-0.2l0-0.1c0.8-1.5,1.7-2.9,2.8-4.1c1.7-1.9,3.7-3.4,5.9-4.6l3.5-1.8l-1.4,3.7
		c-0.9,2.4-2.2,4.5-3.9,6.4c-1.5,1.7-3.3,3.1-5.3,4.3c-0.2,0.1-0.3,0.2-0.5,0.3c-0.9,0.5-1.9,0.9-2.8,1.3L76.4,63.8z M90.3,48
		l-3.2,1.7c-2.2,1.2-4.2,2.7-5.9,4.6c-1.1,1.2-2,2.6-2.8,4.1l0,0c0,0.1-0.1,0.1-0.1,0.2c-0.8,1.5-1.3,3.1-1.7,4.8l0,0.2l0.2-0.1
		c1-0.3,1.9-0.8,2.8-1.2c0.1-0.1,0.3-0.2,0.5-0.3c2-1.1,3.7-2.5,5.2-4.2c1.7-1.9,3-4,3.8-6.4L90.3,48z M76.8,63.4l0-0.1
		c0.4-1.6,0.9-3.1,1.6-4.6c0.1-0.1,0.1-0.2,0.1-0.2l0,0c0.8-1.5,1.7-2.8,2.8-4.1c1.7-1.9,3.6-3.4,5.8-4.6l2.9-1.5L89,51.3
		c-0.9,2.4-2.2,4.5-3.8,6.4c-1.5,1.7-3.2,3.1-5.2,4.2c-0.2,0.1-0.3,0.2-0.5,0.3c-0.9,0.5-1.7,0.8-2.6,1.2L76.8,63.4z M89.8,48.6
		l-2.6,1.3c-2.2,1.1-4.2,2.7-5.8,4.5c-1.1,1.2-2,2.6-2.8,4l0,0c0,0.1-0.1,0.2-0.1,0.3c-0.7,1.4-1.2,2.9-1.6,4.4
		c0.8-0.3,1.7-0.7,2.5-1.1c0.1-0.1,0.3-0.2,0.5-0.3c1.9-1.1,3.7-2.5,5.1-4.2c1.6-1.9,2.9-4,3.8-6.3L89.8,48.6z M74,63.4l-0.1,0
		c-0.9-0.3-1.8-0.7-2.6-1.2c-0.2-0.1-0.3-0.2-0.5-0.3c-2-1.1-3.7-2.5-5.2-4.2c-1.7-1.9-2.9-4-3.8-6.4l-1.1-3.1l2.9,1.5
		c2.2,1.2,4.2,2.7,5.8,4.6c2.2,2.5,3.8,5.6,4.6,8.9L74,63.4z M61,48.6l1,2.7c0.9,2.3,2.1,4.5,3.8,6.3c1.5,1.7,3.2,3.1,5.2,4.2
		c0.2,0.1,0.3,0.2,0.5,0.3c0.8,0.4,1.6,0.8,2.5,1.1c-0.8-3.2-2.3-6.2-4.5-8.7c-1.6-1.9-3.6-3.4-5.8-4.5L61,48.6z"/>
	<path class="st1" d="M71.5,44.8c0.2,0,0.4-0.1,0.6-0.2c0.2-0.2,0.2-0.4,0.2-0.6c0-0.2-0.1-0.4-0.2-0.6c-0.2-0.2-0.4-0.2-0.6-0.2
		c-0.2,0-0.4,0.1-0.6,0.2c-0.2,0.2-0.2,0.4-0.2,0.6c0,0.2,0.1,0.4,0.2,0.6C71.1,44.7,71.3,44.8,71.5,44.8"/>
	<path class="st2" d="M71.5,44.8c-0.2,0-0.5-0.1-0.6-0.3c-0.2-0.2-0.3-0.4-0.3-0.6c0-0.2,0.1-0.5,0.3-0.6c0.2-0.2,0.4-0.3,0.6-0.3
		s0.5,0.1,0.6,0.3c0.2,0.2,0.3,0.4,0.3,0.6c0,0.2-0.1,0.5-0.3,0.6C72,44.7,71.8,44.8,71.5,44.8 M71.5,43.2c-0.2,0-0.4,0.1-0.5,0.2
		c-0.1,0.1-0.2,0.3-0.2,0.5c0,0.2,0.1,0.4,0.2,0.5c0.1,0.1,0.3,0.2,0.5,0.2c0.2,0,0.4-0.1,0.5-0.2c0.1-0.1,0.2-0.3,0.2-0.5
		c0-0.2-0.1-0.4-0.2-0.5C71.9,43.3,71.7,43.2,71.5,43.2"/>
	<path class="st1" d="M71.5,44.9c-0.3,0-0.5-0.1-0.7-0.3c-0.2-0.2-0.3-0.4-0.3-0.7c0-0.2,0.1-0.5,0.3-0.7c0.4-0.4,1-0.4,1.3,0
		c0.2,0.2,0.3,0.4,0.3,0.7c0,0.3-0.1,0.5-0.3,0.7C72,44.8,71.8,44.9,71.5,44.9 M71.5,43.3c-0.2,0-0.4,0.1-0.5,0.2
		c-0.1,0.1-0.2,0.3-0.2,0.5c0,0.2,0.1,0.4,0.2,0.5c0.2,0.3,0.7,0.3,1,0c0.1-0.1,0.2-0.3,0.2-0.5c0-0.2-0.1-0.4-0.2-0.5
		C71.9,43.4,71.7,43.3,71.5,43.3"/>
	<path class="st2" d="M71.5,45c-0.3,0-0.5-0.1-0.7-0.3c-0.2-0.2-0.3-0.5-0.3-0.7c0-0.3,0.1-0.5,0.3-0.7c0.4-0.4,1.1-0.4,1.4,0
		c0.2,0.2,0.3,0.5,0.3,0.7c0,0.3-0.1,0.5-0.3,0.7C72.1,44.9,71.8,45,71.5,45 M71.5,43.1c-0.2,0-0.5,0.1-0.6,0.2
		c-0.2,0.2-0.3,0.4-0.3,0.6c0,0.2,0.1,0.5,0.3,0.6c0.2,0.2,0.4,0.3,0.6,0.3c0.2,0,0.5-0.1,0.6-0.3c0.2-0.2,0.3-0.4,0.3-0.6
		c0-0.2-0.1-0.5-0.3-0.6C72,43.2,71.8,43.1,71.5,43.1 M71.5,44.7c-0.2,0-0.4-0.1-0.5-0.2c-0.1-0.1-0.2-0.3-0.2-0.5s0.1-0.4,0.2-0.5
		c0.1-0.1,0.3-0.2,0.5-0.2c0.2,0,0.4,0.1,0.5,0.2c0.1,0.1,0.2,0.3,0.2,0.5c0,0.2-0.1,0.4-0.2,0.5C71.9,44.6,71.7,44.7,71.5,44.7
		L71.5,44.7z M71.5,43.4c-0.2,0-0.3,0.1-0.4,0.2c-0.1,0.1-0.2,0.3-0.2,0.4c0,0.2,0.1,0.3,0.2,0.4c0.1,0.1,0.3,0.2,0.4,0.2h0
		c0.2,0,0.3-0.1,0.4-0.2c0.1-0.1,0.2-0.3,0.2-0.4c0-0.2-0.1-0.3-0.2-0.4C71.8,43.4,71.7,43.4,71.5,43.4"/>
	<path class="st0" d="M113.7,96.9c-1.2,0-5.5-0.3-9.1-3.9c-4-4-4.8-6.2-4.9-6.5c-0.2-0.6,0.1-1.2,0.7-1.4c0.6-0.2,1.2,0.1,1.4,0.7
		c0,0,0.8,2,4.4,5.6c3.5,3.5,7.7,3.3,7.7,3.3c0.6,0,1.1,0.4,1.2,1c0,0.6-0.4,1.1-1,1.2C114,96.9,113.9,96.9,113.7,96.9"/>
	<path class="st0" d="M113.7,97.2c-1.3,0-5.6-0.3-9.4-4c-4-4-4.9-6.4-5-6.6c-0.3-0.8,0.1-1.6,0.9-1.9c0.4-0.1,0.8-0.1,1.1,0.1
		c0.4,0.2,0.6,0.5,0.8,0.8c0.1,0.2,1,2.2,4.3,5.5c3.3,3.3,7.4,3.2,7.5,3.2c0.8,0,1.5,0.6,1.6,1.4c0,0.8-0.6,1.5-1.4,1.6
		C114,97.2,113.9,97.2,113.7,97.2 M100.7,85.4c-0.1,0-0.2,0-0.2,0c-0.4,0.1-0.6,0.5-0.4,0.9c0.1,0.2,0.9,2.4,4.8,6.3
		c3.6,3.5,7.7,3.8,8.9,3.8c0.2,0,0.3,0,0.3,0c0.4,0,0.7-0.4,0.7-0.8c0-0.4-0.4-0.7-0.8-0.7c0,0-4.4,0.2-8-3.4
		c-3.5-3.5-4.4-5.5-4.5-5.8c-0.1-0.2-0.2-0.3-0.4-0.4C100.9,85.4,100.8,85.4,100.7,85.4"/>
	<path class="st0" d="M43.2,120.2c0-1,0.8-1.8,1.8-1.8c1,0,1.8,0.8,1.8,1.8c0,1-0.8,1.8-1.8,1.8C44,122,43.2,121.2,43.2,120.2"/>
	<path class="st0" d="M78.6,138.7c-0.1,0-0.2,0-0.2,0c-0.7-0.1-1.2-0.8-1.1-1.6c0.4-2.3,4.2-22.5,9.8-26.2c2.9-2,7.5-1.6,12.3-1.3
		c4.6,0.3,9.3,0.7,11.6-1.2c1-0.8,1.3-3.1,1.7-5.6c0.1-0.5,0.1-0.9,0.2-1.4c0.1-0.6,0.2-1.6,0.4-2.9c0.7-5.1,2-13.5,2.8-16.4
		c0.8-3,3.8-3.6,5.6-4c0.3-0.1,0.6-0.1,0.9-0.2c-0.4-0.9-1.3-2.4-2-3.7c-2.2-4-5-8.9-5.1-12.2c-0.2-4.7-0.2-5.7-0.2-5.7
		c0-0.8,0.6-1.4,1.4-1.4c0.8,0,1.4,0.6,1.4,1.4c0,0,0,1,0.2,5.6c0.1,2.6,2.8,7.4,4.8,10.9c2,3.5,2.7,4.8,2.5,5.8
		c-0.2,1.5-1.8,1.9-3.2,2.2c-1.9,0.4-3.2,0.8-3.5,2.1c-0.7,2.8-2,11.5-2.7,16.1c-0.2,1.2-0.3,2.3-0.4,2.9c-0.1,0.5-0.1,0.9-0.2,1.4
		c-0.5,3.1-0.8,5.8-2.7,7.3c-3.2,2.6-8.5,2.2-13.6,1.9c-4.1-0.3-8.4-0.6-10.6,0.8c-3.5,2.3-7.2,16.2-8.7,24.4
		C79.9,138.2,79.3,138.7,78.6,138.7"/>
	<path class="st0" d="M47,114c-0.1,0-0.2,0-0.3,0c-0.7-0.2-1.2-0.9-1-1.6c0-0.2,3.4-15.8-0.7-21.9c-0.4-0.6-0.9-1.3-1.5-2.1
		C38.2,80.8,28.4,66.8,29,56.8c0-0.8,0.7-1.3,1.5-1.3c0.8,0,1.3,0.7,1.3,1.4c-0.5,9.1,8.9,22.6,14,29.8c0.6,0.8,1.1,1.5,1.5,2.1
		c4.8,7,1.3,23.3,1.1,24C48.2,113.5,47.6,114,47,114"/>
	<path class="st0" d="M52.2,84.3c-0.3,0-0.6-0.1-0.9-0.3c-9.8-8.7-13.2-22.4-13.4-23c-0.2-0.7,0.3-1.5,1-1.7c0.7-0.2,1.5,0.3,1.7,1
		c0,0.1,3.4,13.5,12.5,21.6c0.6,0.5,0.6,1.4,0.1,1.9C53,84.1,52.6,84.3,52.2,84.3"/>
	<path class="st3" d="M92.9,56.4c-0.2,0-0.3,0-0.3,0c-0.6-0.1-1.1-0.7-1-1.3c0.1-0.6,0.7-1,1.3-1c0.1,0,2.7,0.2,4.5-3.3
		c1.1-2,0.9-3.4,0.8-3.4L98,45.7l1.7,0.4c0,0,3.8,1,5.2-1.1c0.4-0.5,1.1-0.6,1.6-0.3c0.5,0.4,0.6,1.1,0.3,1.6
		c-1.6,2.3-4.5,2.4-6.3,2.2c-0.1,0.9-0.4,2-1.1,3.4C97.2,56.2,93.9,56.4,92.9,56.4"/>
	<path class="st3" d="M99.4,48.3c-0.6,0-1-0.4-1.1-1c0-0.2-0.6-3.9-4.5-4.2c-0.6-0.1-1.1-0.6-1-1.2c0.1-0.6,0.6-1.1,1.2-1
		c4.6,0.4,6.3,4.3,6.5,6.2c0.1,0.6-0.4,1.2-1,1.3C99.5,48.3,99.4,48.3,99.4,48.3"/>
	<path class="st3" d="M56.7,44.6c-0.3-0.4-0.8-0.6-1.2-0.5c-0.1,0-5.7,1.2-8.7-2c-0.5-0.5-1.2-0.5-1.7-0.1c-0.5,0.5-0.5,1.2-0.1,1.7
		c3.9,4.2,10.7,2.7,11,2.7c0.7-0.1,1.1-0.8,0.9-1.5C56.8,44.9,56.8,44.8,56.7,44.6"/>
	<path class="st3" d="M51.6,46.8c0,0.1-0.1,0.6,0.4,1.7c0.6,1.4,2,1.5,2.1,1.5c0.7,0,1.2,0.5,1.2,1.2c0,0.7-0.5,1.2-1.2,1.2
		c-0.1,0-3.2,0-4.4-3.1c-1.1-2.8-0.3-3.9,0.1-4.2c0.5-0.4,1.3-0.4,1.7,0.1c0,0,0,0,0.1,0.1C51.9,45.8,51.9,46.3,51.6,46.8 M51.4,47
		L51.4,47L51.4,47z M51.4,47C51.4,47,51.4,47,51.4,47C51.4,47,51.4,47,51.4,47"/>
	<path class="st3" d="M91.3,21.6c-1.1-3.4-4.2-5.8-7.8-5.8c-2,0-3.9,0.7-5.4,2.1c-4-3.1-9.7-2.7-13.3,0.8c-5-1-9.8,2.1-11,7
		c-3.8-1.3-7.9,0.7-9.3,4.4c-4.7,6.4-6.4,11.1-5.3,14.4c0.1,0.5,0.5,0.9,1,1c0.5,0.1,1,0,1.3-0.4c0.3-0.4,0.4-0.9,0.3-1.4
		c-0.4-1.1-0.4-3.6,2.6-8.4c1,3.1,3.9,5.1,7.1,5.1c0.8,0,1.4-0.6,1.4-1.4c0-0.8-0.6-1.4-1.4-1.4c-1.3,0-2.5-0.5-3.4-1.4
		c-0.9-0.9-1.4-2.1-1.4-3.4c0-0.5,0.1-1.1,0.3-1.6c0.5-1.3,1.4-2.3,2.7-2.8c1.3-0.5,2.7-0.5,3.9,0.1c0.3,5.1,4.4,9.1,9.5,9.1
		c0.8,0,1.4-0.6,1.4-1.4c0-0.8-0.6-1.4-1.4-1.4c-3.8,0-6.8-3.1-6.8-6.8c0-3.8,3.1-6.8,6.8-6.8c0.6,0,1.2,0.1,1.8,0.3
		c0.5,0.1,1-0.1,1.4-0.4c2.1-2.4,5.4-3.2,8.3-2.1c2.9,1.1,4.9,3.9,4.9,7c0,0.8,0.6,1.4,1.4,1.4c0.8,0,1.4-0.6,1.4-1.4
		c0-2.3-0.7-4.4-2.1-6.2c1-0.8,2.2-1.3,3.5-1.3c2.8,0,5.2,2.2,5.4,5c0,0.5,0.3,0.9,0.7,1.1c0.4,0.2,0.9,0.2,1.3,0
		c0.9-0.5,1.8-0.7,2.8-0.7c3.4,0,6.1,2.8,6.1,6.1c0,0.6,0.3,1,0.8,1.3c3.3,1.4,5.2,4.9,4.5,8.4c-0.7,3.5,2.9,2.1,2.9-1.7
		c-0.1-3.7-2.2-7.1-5.5-8.9c-0.3-2.6-1.7-5-3.8-6.4C96.6,21.3,93.8,20.9,91.3,21.6"/>
	<path class="st3" d="M67.7,37.4c0.4,0.4,1,0.4,1.4,0c1.4-1.4,2.2-3.2,2.2-5.1c2.2-0.6,3.8-2.5,4.1-4.8c0,0,0-0.1,0-0.1
		c0-0.5-0.4-1-1-1c-0.5,0-1,0.4-1.1,0.9c-0.2,1.3-1,2.4-2.2,2.9c-0.8-3.4-3.9-5.8-7.4-5.8c-0.6,0-1,0.5-1,1c0,0.6,0.5,1,1,1
		c2.3,0,4.3,1.4,5.2,3.5c0.9,2.1,0.4,4.5-1.2,6.1C67.3,36.3,67.3,37,67.7,37.4"/>
	<path class="st3" d="M85.1,39.1c0-3.2,2.6-5.8,5.8-5.8c0.3,0,0.6,0,0.8,0.1c1.4,2.8,4.2,4.6,7.3,4.6c0.6,0,1.2-0.5,1.2-1.2
		c0-0.6-0.5-1.2-1.2-1.2c-3.2,0-5.8-2.6-5.8-5.8c0-0.6-0.5-1.2-1.2-1.2c-0.6,0-1.2,0.5-1.2,1.2c0,0.4,0,0.8,0.1,1.2c0,0-0.1,0-0.1,0
		c-4.5,0-8.2,3.7-8.2,8.2c0,0.6,0.5,1.2,1.2,1.2C84.6,40.3,85.1,39.7,85.1,39.1"/>
	<path class="st3" d="M39.7,48.7c0-0.2,0-0.3,0-0.3c0.1-0.6,0.6-1.1,1.2-1c0.6,0.1,1.1,0.6,1,1.2c0,0.1-0.1,2.7,3.5,4.4
		c2.1,1,3.4,0.7,3.5,0.7l1.7-0.4l-0.4,1.7c0,0-0.8,3.9,1.4,5.2c0.5,0.3,0.7,1,0.4,1.6c-0.3,0.5-1,0.7-1.6,0.4
		c-2.4-1.5-2.6-4.4-2.6-6.1c-0.9,0-2-0.3-3.4-0.9C40.1,52.9,39.7,49.7,39.7,48.7"/>
</g>
</svg>
