<?xml version="1.0" encoding="utf-8"?>
<!-- Generator: Adobe Illustrator 24.3.0, SVG Export Plug-In . SVG Version: 6.00 Build 0)  -->
<svg version="1.1" id="Camada_1" xmlns="http://www.w3.org/2000/svg" xmlns:xlink="http://www.w3.org/1999/xlink" x="0px" y="0px"
	 viewBox="0 0 154.5 154.5" style="enable-background:new 0 0 154.5 154.5;" xml:space="preserve">
<style type="text/css">
	.st0{fill:none;stroke:#121718;stroke-width:0.1904;stroke-miterlimit:10;}
	.st1{fill:#385F80;}
	.st2{fill:#0EB0AC;}
	.st3{fill:#375B7D;}
</style>
<g>
	
		<ellipse transform="matrix(2.970031e-02 -0.9996 0.9996 2.970031e-02 -1.9894 152.2457)" class="st0" cx="77.4" cy="77.1" rx="77" ry="77"/>
	<path class="st1" d="M77.2,154.5c-10.4,0-20.5-2-30.1-6.1c-9.2-3.9-17.5-9.5-24.6-16.6c-7.1-7.1-12.7-15.4-16.6-24.6
		C2,97.8,0,87.7,0,77.2c0-10.4,2-20.5,6.1-30.1C10,38,15.5,29.7,22.6,22.6C29.7,15.5,38,10,47.2,6.1C56.7,2,66.8,0,77.2,0
		c10.4,0,20.5,2,30.1,6.1c9.2,3.9,17.5,9.5,24.6,16.6c7.1,7.1,12.7,15.4,16.6,24.6c4,9.5,6.1,19.6,6.1,30.1c0,10.4-2,20.5-6.1,30.1
		c-3.9,9.2-9.5,17.5-16.6,24.6c-7.1,7.1-15.4,12.7-24.6,16.6C97.8,152.5,87.7,154.5,77.2,154.5 M77.2,2.8c-10,0-19.8,2-29,5.8
		c-8.9,3.7-16.8,9.1-23.7,16c-6.8,6.8-12.2,14.8-16,23.7c-3.9,9.2-5.8,18.9-5.8,29c0,10,2,19.8,5.8,29c3.7,8.9,9.1,16.8,16,23.7
		c6.8,6.8,14.8,12.2,23.7,16c9.2,3.9,18.9,5.8,29,5.8c10,0,19.8-2,29-5.8c8.9-3.7,16.8-9.1,23.7-16c6.8-6.8,12.2-14.8,16-23.7
		c3.9-9.2,5.8-18.9,5.8-29c0-10-2-19.8-5.8-29c-3.7-8.9-9.1-16.8-16-23.7c-6.8-6.8-14.8-12.2-23.7-16C97,4.8,87.3,2.8,77.2,2.8"/>
	<path class="st2" d="M107.8,104.2c-3.4,2.5-7.1,4.2-11.1,5.2c-5.5,1.3-11.3,1.2-16.8-0.5c2-2,4.3-3.7,6.7-5.1
		c0.3-0.1,0.5-0.3,0.8-0.4c2.3-1.2,4.7-2.1,7.2-2.8c4-1,8.1-1.2,12.3-0.5l5.4,0.8 M91.6,120.4c-2.5-0.5-4.8-1.4-6.7-2.8
		c-1.9-1.4-3.5-3.2-4.7-5.3c2.7,0.7,5.5,1.1,8.3,1.2c1.8,1.4,3.2,3.1,4.4,5.2l1.2,2.2L91.6,120.4z M68.8,117.6
		c-2,1.4-4.2,2.4-6.7,2.8l-2.5,0.5l1.2-2.2c1.1-2.1,2.6-3.8,4.4-5.2c2.8-0.1,5.6-0.5,8.3-1.2C72.2,114.5,70.7,116.2,68.8,117.6
		 M45.8,104.2l-4.4-3.2l5.4-0.8c4.1-0.6,8.3-0.5,12.3,0.5c2.5,0.6,4.9,1.5,7.2,2.8c0.3,0.1,0.5,0.3,0.8,0.4c2.4,1.4,4.7,3.1,6.7,5.1
		c-5.5,1.7-11.4,1.9-16.8,0.5C53,108.4,49.2,106.7,45.8,104.2 M50,79.6l-2.4-6.3l6,3.1c4.4,2.3,8.3,5.3,11.6,9
		c4.5,5.1,7.6,11.3,9.1,18l0,0.1l-0.1,0c-1.9-0.7-3.8-1.5-5.5-2.4c-0.3-0.2-0.6-0.3-0.9-0.5c-3.9-2.2-7.3-5-10.3-8.3
		C54.2,88.5,51.7,84.3,50,79.6 M79.4,103.4c0.7-3.3,1.9-6.4,3.3-9.4c0.1-0.1,0.2-0.3,0.2-0.4l0-0.1c1.5-2.9,3.4-5.6,5.5-8
		c3.3-3.7,7.2-6.7,11.6-9l6-3.1l-2.3,6.3c-1.7,4.7-4.3,8.9-7.5,12.6c-2.9,3.3-6.4,6.1-10.3,8.3c-0.3,0.2-0.6,0.3-0.9,0.5
		C83.2,102,81.4,102.8,79.4,103.4l0,0.1L79.4,103.4z M117.8,99.6c-0.2-0.6-0.7-1.1-1.3-1.2l-9.2-1.4c-3.8-0.6-7.6-0.5-11.4,0.1
		c0.9-0.9,1.8-1.8,2.6-2.7c3.5-4,6.3-8.6,8.1-13.6l3.8-10.2c0.2-0.6,0.1-1.3-0.4-1.8c-0.5-0.4-1.2-0.5-1.8-0.2l-9.7,5
		c-4.6,2.4-8.8,5.6-12.2,9.5c0.6-2.8,0.9-5.6,0.9-8.4c0-6-1.4-12.1-3.9-17.5l-5-10.7c-0.3-0.6-0.8-0.9-1.5-0.9
		c-0.6,0-1.2,0.4-1.5,0.9l-5,10.7c-0.2,0.5-0.5,1-0.7,1.5c-0.3,0.8,0,1.8,0.9,2.1c0.8,0.3,1.8,0,2.1-0.9c0.2-0.5,0.4-1,0.6-1.4
		l3.6-7.6l3.6,7.6c2.4,5,3.6,10.6,3.6,16.1c0,4.5-0.8,8.8-2.3,13L80,92.2c-1.3,2.6-2.4,5.3-3.2,8.2c-0.8-2.9-1.9-5.7-3.3-8.3
		L72,87.7c-1.5-4.2-2.3-8.6-2.3-13c0-1.3,0.1-2.6,0.2-3.9c0.1-0.9-0.5-1.7-1.4-1.8c-0.9-0.1-1.7,0.6-1.8,1.4
		c-0.1,1.4-0.2,2.8-0.2,4.2c0,2.8,0.3,5.6,0.9,8.4c-3.5-3.9-7.6-7-12.2-9.4l-9.7-5c-0.6-0.3-1.3-0.2-1.8,0.2
		c-0.5,0.4-0.7,1.1-0.4,1.8L47,80.8c1.9,5,4.6,9.6,8.1,13.6c0.8,0.9,1.7,1.8,2.6,2.7c-3.7-0.7-7.5-0.7-11.4-0.1l-9.2,1.4
		c-0.6,0.1-1.2,0.6-1.3,1.2c-0.2,0.6,0.1,1.3,0.6,1.7l7.5,5.5c3.7,2.7,7.8,4.7,12.3,5.8c1.5,0.4,3,0.6,4.5,0.8
		c-1,1.1-1.9,2.4-2.7,3.8l-2.8,5.2c-0.3,0.5-0.3,1.2,0.1,1.7c0.3,0.4,0.8,0.7,1.3,0.7c0.1,0,0.2,0,0.3,0l5.8-1.1
		c3-0.5,5.7-1.7,8-3.4c1.8-1.3,3.3-2.9,4.6-4.7v10.3c0,0.9,0.7,1.6,1.6,1.6c0.9,0,1.6-0.7,1.6-1.6v-10.3c1.3,1.8,2.8,3.4,4.6,4.7
		c2.4,1.7,5.1,2.9,8,3.4l5.8,1.1c0.1,0,0.2,0,0.3,0c0.5,0,1-0.2,1.3-0.7c0.4-0.5,0.4-1.2,0.1-1.7l-2.8-5.2c-0.8-1.4-1.7-2.7-2.7-3.8
		c1.5-0.2,3-0.4,4.5-0.8c4.4-1.1,8.5-3,12.3-5.8l7.5-5.5C117.7,100.9,118,100.2,117.8,99.6"/>
	<path class="st2" d="M69.2,66.7c0.4,0,0.8-0.2,1.1-0.5c0.3-0.3,0.5-0.7,0.5-1.1c0-0.4-0.2-0.8-0.5-1.1c-0.3-0.3-0.7-0.5-1.1-0.5
		c-0.4,0-0.8,0.2-1.1,0.5c-0.3,0.3-0.5,0.7-0.5,1.1c0,0.4,0.2,0.8,0.5,1.1C68.4,66.5,68.8,66.7,69.2,66.7"/>
	<path class="st3" d="M53,61.7c-0.6,0-1.1,0-1.7,0l-11.8,0l-4.3,0c-3.9,0-7.8,0-11.7,0c-0.8,0-1.5-0.3-1.9-0.8
		c-0.4-0.5-0.6-1.2-0.4-1.8c0.1-0.3,0.2-0.6,0.4-0.8c3.1-5.3,6.2-10.7,9.3-16l3.8-6.5c0.4-0.7,0.8-1.5,1.3-2.2c0.6-1,1.1-2,1.7-2.9
		c0.5-0.8,1.2-1.3,2-1.3h0c0.8,0,1.5,0.5,2,1.3c2.3,4,4.6,8,6.9,12l5.2,9.1c0.9,1.5,1.7,2.9,2.6,4.4l1.2,2.2c0,0.1,0.1,0.2,0.1,0.3
		c0.4,0.8,0.4,1.6,0,2.3c-0.4,0.7-1.1,1-2,1C54.7,61.7,53.9,61.7,53,61.7 M39.5,59.3l11.8,0c1.4,0,2.7,0,4.1,0l-1.2-2.1
		c-0.9-1.5-1.7-2.9-2.6-4.4l-5.2-9.1c-2.3-3.9-4.5-7.9-6.8-11.8c-0.5,0.9-1.1,1.8-1.6,2.7c-0.4,0.7-0.8,1.5-1.3,2.2l-3.8,6.5
		c-3.1,5.3-6.1,10.6-9.2,15.9c3.8,0,7.6,0,11.5,0H39.5z"/>
	<path class="st3" d="M39.5,52c-0.7,0-1.2-0.5-1.2-1.2V40.2c0-0.7,0.5-1.2,1.2-1.2c0.7,0,1.2,0.5,1.2,1.2v10.6
		C40.8,51.5,40.2,52,39.5,52"/>
	<path class="st3" d="M40.9,54.8c0,0.9-0.6,1.5-1.4,1.5c-0.8,0-1.4-0.6-1.4-1.5c0-0.8,0.6-1.5,1.4-1.5C40.3,53.4,40.9,54,40.9,54.8"
		/>
</g>
</svg>
