<?xml version="1.0" encoding="utf-8"?>
<!-- Generator: Adobe Illustrator 24.3.0, SVG Export Plug-In . SVG Version: 6.00 Build 0)  -->
<svg version="1.1" id="Camada_1" xmlns="http://www.w3.org/2000/svg" xmlns:xlink="http://www.w3.org/1999/xlink" x="0px" y="0px"
	 viewBox="0 0 154.5 154.5" style="enable-background:new 0 0 154.5 154.5;" xml:space="preserve">
<style type="text/css">
	.st0{fill:#375D7E;}
	.st1{fill:none;stroke:#375D7E;stroke-width:1.1267;stroke-miterlimit:10;}
	.st2{fill:none;stroke:#365A7C;stroke-width:1.1267;stroke-miterlimit:10;}
	.st3{fill:none;stroke:#365A7C;stroke-width:2.8167;stroke-linecap:round;stroke-miterlimit:10;}
	.st4{fill:none;stroke:#375D7E;stroke-width:3.0045;stroke-miterlimit:10;}
	.st5{fill:none;stroke:#355A7D;stroke-width:3.0045;stroke-miterlimit:10;}
	.st6{fill:#0EB0AC;}
</style>
<g>
	<path class="st0" d="M117,89.8c0.8-0.1,1.5-0.3,2.2-0.4c0.1,0,0.3-0.1,0.4-0.1c0.4,0,0.7,0.2,0.7,0.5c0,0.4-0.1,0.6-0.5,0.7
		c-0.7,0.1-1.3,0.2-2,0.3c-0.7,0.1-1.5,0.3-2.2,0.4c-0.6,0.1-0.9-0.1-0.9-0.7c0-1.4,0-2.9,0-4.3c0-0.5,0.3-0.8,0.7-0.8
		c0.4,0,0.6,0.3,0.6,0.8c0,0.9,0,1.7,0.1,2.7c0.4-0.6,0.9-1.2,1.2-1.9c3.4-6,2.7-13.5-1.8-18.8c-0.4-0.4-0.8-0.8-1.1-1.2
		c-0.4-0.4-0.4-0.7-0.1-1c0.3-0.3,0.6-0.3,1,0.1c3,2.9,4.8,6.4,5.3,10.6c0.5,4.2-0.4,8.2-2.6,11.8C117.7,88.9,117.3,89.3,117,89.8"
		/>
	<path class="st1" d="M117,89.8c0.8-0.1,1.5-0.3,2.2-0.4c0.1,0,0.3-0.1,0.4-0.1c0.4,0,0.7,0.2,0.7,0.5c0,0.4-0.1,0.6-0.5,0.7
		c-0.7,0.1-1.3,0.2-2,0.3c-0.7,0.1-1.5,0.3-2.2,0.4c-0.6,0.1-0.9-0.1-0.9-0.7c0-1.4,0-2.9,0-4.3c0-0.5,0.3-0.8,0.7-0.8
		c0.4,0,0.6,0.3,0.6,0.8c0,0.9,0,1.7,0.1,2.7c0.4-0.6,0.9-1.2,1.2-1.9c3.4-6,2.7-13.5-1.8-18.8c-0.4-0.4-0.8-0.8-1.1-1.2
		c-0.4-0.4-0.4-0.7-0.1-1c0.3-0.3,0.6-0.3,1,0.1c3,2.9,4.8,6.4,5.3,10.6c0.5,4.2-0.4,8.2-2.6,11.8C117.7,88.9,117.3,89.3,117,89.8z"
		/>
	<path class="st2" d="M115,66.3L115,66.3L115,66.3z M117,89.8l-0.1-0.5L117,89.8z"/>
	
		<ellipse transform="matrix(0.7071 -0.7071 0.7071 0.7071 -31.9971 77.2476)" class="st3" cx="77.2" cy="77.2" rx="75.8" ry="75.8"/>
	<path class="st0" d="M38,67.3c-0.8,0.1-1.5,0.3-2.2,0.4c-0.1,0-0.3,0.1-0.4,0.1c-0.4,0-0.7-0.2-0.7-0.5c0-0.4,0.1-0.6,0.5-0.7
		c0.7-0.1,1.3-0.2,2-0.3c0.7-0.1,1.5-0.3,2.2-0.4c0.6-0.1,0.9,0.1,0.9,0.7c0,1.4,0,2.9,0,4.3c0,0.5-0.3,0.8-0.7,0.8
		c-0.4,0-0.6-0.3-0.6-0.8c0-0.9,0-1.7-0.1-2.7c-0.4,0.6-0.9,1.2-1.2,1.9c-3.4,6-2.7,13.5,1.8,18.8c0.4,0.4,0.8,0.8,1.1,1.2
		c0.4,0.4,0.4,0.7,0.1,1c-0.3,0.3-0.6,0.3-1-0.1c-3-2.9-4.8-6.4-5.3-10.6c-0.5-4.2,0.4-8.2,2.6-11.8C37.4,68.3,37.7,67.9,38,67.3"/>
	<path class="st1" d="M38,67.3c-0.8,0.1-1.5,0.3-2.2,0.4c-0.1,0-0.3,0.1-0.4,0.1c-0.4,0-0.7-0.2-0.7-0.5c0-0.4,0.1-0.6,0.5-0.7
		c0.7-0.1,1.3-0.2,2-0.3c0.7-0.1,1.5-0.3,2.2-0.4c0.6-0.1,0.9,0.1,0.9,0.7c0,1.4,0,2.9,0,4.3c0,0.5-0.3,0.8-0.7,0.8
		c-0.4,0-0.6-0.3-0.6-0.8c0-0.9,0-1.7-0.1-2.7c-0.4,0.6-0.9,1.2-1.2,1.9c-3.4,6-2.7,13.5,1.8,18.8c0.4,0.4,0.8,0.8,1.1,1.2
		c0.4,0.4,0.4,0.7,0.1,1c-0.3,0.3-0.6,0.3-1-0.1c-3-2.9-4.8-6.4-5.3-10.6c-0.5-4.2,0.4-8.2,2.6-11.8C37.4,68.3,37.7,67.9,38,67.3z"
		/>
	<path class="st2" d="M40,90.9L40,90.9L40,90.9z M38,67.3l0.1,0.5L38,67.3z"/>
	<polyline class="st4" points="103.9,81.5 106.4,86.5 99.2,91.2 99.1,98 106.4,102.4 103.3,111.5 94.8,108.8 90.9,112.4 93.7,121.5 
		84.6,125.4 79.3,117.1 73.8,117.1 68.6,125.3 59.5,121.4 62.3,112.3 58.4,108.7 49.9,111.4 46.8,102.3 54.1,97.9 54,91.1 
		46.8,86.5 49.4,81.4 	"/>
	<path class="st5" d="M87.6,95c0,5.7-4.6,10.2-10.2,10.2c-5.7,0-10.2-4.6-10.2-10.2"/>
	<path class="st6" d="M103.6,79.4c-2.9,2.1-6.1,3.6-9.5,4.5c-4.7,1.1-9.6,1-14.4-0.4c1.7-1.7,3.7-3.2,5.7-4.3
		c0.2-0.1,0.4-0.2,0.6-0.4c1.9-1,4-1.8,6.1-2.4c3.4-0.8,6.9-1,10.5-0.4l4.6,0.7 M89.8,93.3c-2.1-0.4-4.1-1.2-5.7-2.4
		c-1.6-1.2-3-2.7-4-4.5c2.3,0.6,4.7,0.9,7.1,1c1.5,1.2,2.8,2.7,3.7,4.4l1,1.9L89.8,93.3z M70.3,90.9c-1.7,1.2-3.6,2-5.7,2.4
		l-2.1,0.4l1-1.9c1-1.8,2.2-3.2,3.7-4.4c2.4-0.1,4.7-0.4,7.1-1C73.2,88.2,71.9,89.7,70.3,90.9 M50.7,79.4L47,76.7l4.6-0.7
		c3.5-0.5,7.1-0.4,10.5,0.4c2.1,0.5,4.2,1.3,6.1,2.4c0.2,0.1,0.4,0.2,0.6,0.4c2.1,1.2,4,2.6,5.7,4.3c-4.7,1.4-9.7,1.6-14.4,0.4
		C56.8,83.1,53.6,81.6,50.7,79.4 M54.2,58.5l-2-5.4l5.1,2.6c3.8,1.9,7.1,4.5,9.9,7.7c3.8,4.3,6.5,9.6,7.8,15.3l0,0.1l-0.1,0
		c-1.6-0.6-3.2-1.3-4.7-2.1c-0.3-0.1-0.5-0.3-0.8-0.4c-3.3-1.9-6.3-4.3-8.8-7.1C57.9,66.1,55.7,62.5,54.2,58.5 M79.3,78.8
		c0.6-2.8,1.6-5.5,2.8-8c0.1-0.1,0.1-0.2,0.2-0.3l0-0.1c1.3-2.5,2.9-4.8,4.7-6.9c2.8-3.2,6.1-5.7,9.9-7.7l5.1-2.6l-2,5.4
		c-1.5,4-3.6,7.6-6.4,10.7c-2.5,2.8-5.5,5.2-8.8,7.1c-0.3,0.1-0.5,0.3-0.8,0.4C82.6,77.6,81,78.2,79.3,78.8l0,0.1L79.3,78.8z
		 M112.1,75.5c-0.1-0.5-0.6-0.9-1.1-1l-7.8-1.2c-3.3-0.5-6.5-0.5-9.7,0.1c0.8-0.7,1.5-1.5,2.2-2.3c3-3.4,5.3-7.3,6.9-11.6l3.2-8.7
		c0.2-0.5,0-1.1-0.4-1.5c-0.4-0.4-1-0.4-1.5-0.2l-8.3,4.3c-4,2-7.5,4.8-10.4,8.1c0.5-2.3,0.7-4.7,0.7-7.2c0-5.1-1.2-10.3-3.3-14.9
		l-4.3-9.1c-0.2-0.5-0.7-0.8-1.2-0.8c-0.5,0-1,0.3-1.2,0.8l-4.3,9.1c-0.2,0.4-0.4,0.9-0.6,1.3c-0.3,0.7,0,1.5,0.7,1.8
		c0.7,0.3,1.5,0,1.8-0.7c0.2-0.4,0.4-0.8,0.5-1.2l3-6.5l3,6.5c2,4.3,3.1,9,3.1,13.7c0,3.8-0.7,7.5-2,11.1l-1.4,3.9
		c-1.1,2.2-2,4.5-2.7,7c-0.7-2.5-1.6-4.8-2.8-7.1L73,65.3c-1.3-3.6-2-7.3-2-11.1c0-1.1,0.1-2.2,0.2-3.3c0.1-0.8-0.5-1.4-1.2-1.5
		c-0.8-0.1-1.4,0.5-1.5,1.2c-0.1,1.2-0.2,2.4-0.2,3.6c0,2.4,0.2,4.8,0.7,7.1c-3-3.3-6.5-6-10.4-8l-8.3-4.3c-0.5-0.3-1.1-0.2-1.5,0.2
		c-0.4,0.4-0.6,1-0.4,1.5l3.2,8.7c1.6,4.3,3.9,8.2,6.9,11.6c0.7,0.8,1.5,1.6,2.2,2.3c-3.2-0.6-6.4-0.6-9.7-0.1l-7.8,1.2
		c-0.5,0.1-1,0.5-1.1,1c-0.1,0.5,0.1,1.1,0.5,1.4l6.4,4.7c3.2,2.3,6.7,4,10.5,4.9c1.3,0.3,2.5,0.5,3.8,0.7c-0.9,1-1.7,2.1-2.3,3.3
		l-2.4,4.4c-0.3,0.5-0.2,1,0.1,1.5c0.3,0.4,0.7,0.6,1.1,0.6c0.1,0,0.2,0,0.2,0L65,96c2.5-0.5,4.8-1.4,6.9-2.9c1.5-1.1,2.8-2.4,3.9-4
		v8.7c0,0.8,0.6,1.4,1.4,1.4c0.8,0,1.4-0.6,1.4-1.4v-8.8c1.1,1.6,2.4,2.9,3.9,4c2,1.5,4.3,2.4,6.9,2.9l4.9,0.9c0.1,0,0.2,0,0.2,0
		c0.4,0,0.8-0.2,1.1-0.6c0.3-0.4,0.3-1,0.1-1.5l-2.4-4.4c-0.7-1.2-1.4-2.3-2.3-3.3c1.3-0.1,2.5-0.4,3.8-0.7
		c3.8-0.9,7.3-2.6,10.5-4.9l6.4-4.7C112,76.6,112.2,76,112.1,75.5"/>
	<path class="st6" d="M70.7,47.4c0.4,0,0.7-0.1,1-0.4c0.3-0.3,0.4-0.6,0.4-1c0-0.4-0.1-0.7-0.4-1c-0.3-0.3-0.6-0.4-1-0.4
		c-0.4,0-0.7,0.1-1,0.4c-0.3,0.3-0.4,0.6-0.4,1c0,0.4,0.1,0.7,0.4,1C69.9,47.3,70.3,47.4,70.7,47.4"/>
</g>
</svg>
