<?xml version="1.0" encoding="utf-8"?>
<!-- Generator: Adobe Illustrator 24.3.0, SVG Export Plug-In . SVG Version: 6.00 Build 0)  -->
<svg version="1.1" id="Camada_1" xmlns="http://www.w3.org/2000/svg" xmlns:xlink="http://www.w3.org/1999/xlink" x="0px" y="0px"
	 viewBox="0 0 154.5 154.5" style="enable-background:new 0 0 154.5 154.5;" xml:space="preserve">
<style type="text/css">
	.st0{fill:none;stroke:#365A7C;stroke-width:2.8167;stroke-linecap:round;stroke-miterlimit:10;}
	.st1{fill:#0EB0AC;}
	.st2{fill:#365A7C;}
</style>
<g>
	
		<ellipse transform="matrix(0.7071 -0.7071 0.7071 0.7071 -31.9971 77.2476)" class="st0" cx="77.2" cy="77.2" rx="75.8" ry="75.8"/>
	<g>
		<path class="st1" d="M83.1,103.8c-3.1,2.5-6.5,4.3-10.2,5.3c-5,1.4-10.3,1.2-15.4-0.5c1.9-2,3.9-3.8,6.2-5.2
			c0.2-0.1,0.5-0.3,0.7-0.4c2.1-1.2,4.3-2.2,6.6-2.8c3.7-1,7.4-1.2,11.2-0.5l4.9,0.9 M68.3,120.4c-2.3-0.5-4.4-1.4-6.2-2.9
			c-1.7-1.4-3.2-3.2-4.3-5.4c2.5,0.7,5.1,1.1,7.6,1.2c1.6,1.4,3,3.2,4,5.3l1.1,2.2L68.3,120.4z M47.4,117.5
			c-1.8,1.5-3.9,2.4-6.2,2.9l-2.3,0.5l1.1-2.2c1-2.1,2.4-3.9,4-5.3c2.5-0.1,5.1-0.5,7.6-1.2C50.6,114.3,49.1,116.1,47.4,117.5
			 M26.4,103.8l-4-3.3l4.9-0.9c3.8-0.7,7.6-0.5,11.2,0.5c2.3,0.6,4.5,1.6,6.6,2.8c0.2,0.1,0.5,0.3,0.7,0.4c2.2,1.4,4.3,3.2,6.2,5.2
			c-5.1,1.7-10.4,1.9-15.4,0.5C33,108.2,29.5,106.4,26.4,103.8 M30.2,78.8l-2.1-6.5l5.5,3.2c4,2.3,7.6,5.4,10.6,9.2
			c4.1,5.2,7,11.5,8.3,18.3l0,0.1l-0.1,0c-1.7-0.7-3.4-1.5-5.1-2.5c-0.3-0.2-0.5-0.3-0.8-0.5c-3.5-2.2-6.7-5.1-9.4-8.5
			C34.1,87.9,31.8,83.5,30.2,78.8 M57.1,103c0.7-3.3,1.7-6.6,3.1-9.6c0.1-0.1,0.2-0.3,0.2-0.4l0-0.1c1.4-3,3.1-5.7,5-8.2
			c3-3.8,6.6-6.9,10.6-9.2l5.5-3.2l-2.1,6.5c-1.6,4.7-3.9,9.1-6.9,12.8c-2.7,3.4-5.9,6.2-9.4,8.5c-0.3,0.2-0.6,0.3-0.8,0.5
			C60.6,101.6,59,102.4,57.1,103l0,0.1L57.1,103z M92.3,99.1c-0.1-0.6-0.6-1.1-1.2-1.2l-8.4-1.5c-3.5-0.6-7-0.6-10.4,0.1
			c0.8-0.9,1.6-1.8,2.4-2.8c3.2-4.1,5.7-8.7,7.4-13.9l3.5-10.4c0.2-0.6,0.1-1.3-0.4-1.8c-0.5-0.4-1.1-0.5-1.6-0.2l-8.9,5.1
			c-4.2,2.5-8,5.7-11.2,9.6c0.5-2.8,0.8-5.7,0.8-8.6c0-6.1-1.2-12.3-3.6-17.8l-4.6-10.9c-0.2-0.6-0.8-0.9-1.3-0.9
			c-0.6,0-1.1,0.4-1.3,0.9l-4.6,10.9c-0.2,0.5-0.4,1.1-0.6,1.6c-0.3,0.8,0,1.8,0.8,2.1c0.7,0.3,1.6,0,1.9-0.9c0.2-0.5,0.4-1,0.6-1.5
			l3.3-7.8l3.3,7.8c2.2,5.1,3.3,10.8,3.3,16.4c0,4.5-0.7,9-2.1,13.3l-1.5,4.6c-1.2,2.6-2.2,5.4-2.9,8.3c-0.7-2.9-1.7-5.8-3-8.5
			L50.3,87c-1.4-4.3-2.1-8.7-2.1-13.3c0-1.3,0.1-2.7,0.2-4c0.1-0.9-0.5-1.7-1.3-1.8c-0.8-0.1-1.5,0.6-1.6,1.5
			c-0.1,1.4-0.2,2.9-0.2,4.3c0,2.9,0.3,5.7,0.8,8.5c-3.2-3.9-6.9-7.2-11.2-9.6L26,67.5c-0.5-0.3-1.2-0.2-1.6,0.2
			c-0.5,0.4-0.6,1.2-0.4,1.8l3.5,10.4c1.7,5.1,4.2,9.8,7.4,13.9c0.8,1,1.6,1.9,2.4,2.8c-3.4-0.7-6.9-0.7-10.4-0.1l-8.4,1.5
			c-0.6,0.1-1.1,0.6-1.2,1.2c-0.1,0.6,0.1,1.3,0.6,1.7l6.9,5.6c3.4,2.8,7.2,4.8,11.2,5.9c1.3,0.4,2.7,0.6,4.1,0.8
			c-0.9,1.2-1.8,2.5-2.5,3.9l-2.6,5.3c-0.3,0.6-0.2,1.2,0.1,1.7c0.3,0.4,0.7,0.7,1.2,0.7c0.1,0,0.2,0,0.3,0l5.3-1.1
			c2.7-0.6,5.2-1.7,7.3-3.5c1.6-1.3,3-2.9,4.2-4.8v10.5c0,0.9,0.7,1.6,1.5,1.6c0.8,0,1.5-0.7,1.5-1.6v-10.5c1.2,1.9,2.6,3.5,4.2,4.8
			c2.2,1.7,4.6,2.9,7.4,3.5l5.3,1.1c0.1,0,0.2,0,0.3,0c0.5,0,0.9-0.2,1.2-0.7c0.3-0.5,0.4-1.2,0.1-1.7l-2.6-5.3
			c-0.7-1.4-1.5-2.7-2.5-3.9c1.4-0.2,2.7-0.4,4.1-0.8c4-1.1,7.8-3.1,11.2-5.9l6.9-5.6C92.2,100.4,92.4,99.8,92.3,99.1"/>
		<path class="st1" d="M47.8,65.5c0.4,0,0.8-0.2,1-0.5c0.3-0.3,0.4-0.7,0.4-1.2c0-0.4-0.2-0.9-0.4-1.2c-0.3-0.3-0.7-0.5-1-0.5
			c-0.4,0-0.8,0.2-1,0.5c-0.3,0.3-0.4,0.7-0.4,1.2c0,0.4,0.2,0.9,0.4,1.2C47.1,65.4,47.4,65.5,47.8,65.5"/>
	</g>
	<g>
		<path class="st2" d="M109,57.2c0.5-1,0.4-2,0.4-3c0-0.9,0-1.8,0-2.7c0-1,0-1.9,0-2.9c0-0.9,0-1.8,0-2.7c0-2.9,0-5.9,0-8.8
			c0-0.6,0.1-0.8,0.7-0.7c0.5,0.1,1,0,1.5,0c0.4,0,0.5,0.1,0.5,0.5c0,0.1,0,0.3,0,0.4c0,6,0,12,0,17.9c0,2.7-1.1,4.8-3.3,6.2
			c-1.3,0.9-2.7,1.8-4,2.7c0.2,0.3,0.6,0.5,0.9,0.7c1.3,0.9,2.7,1.7,3.9,2.7c1.7,1.4,2.6,3.2,2.6,5.4c0,4.4,0,8.8,0,13.3
			c0,0.5-0.2,0.7-0.7,0.7c-0.5,0-0.9,0-1.4,0c-0.5,0.1-0.6-0.2-0.6-0.6c0-4.4,0-8.7,0-13.1c0-1.7-0.7-3-2.1-3.9
			c-1.6-1-3.1-2.1-4.7-3.1c-0.2-0.1-0.4-0.3-0.7-0.1c-1.2,0.9-2.5,1.7-3.8,2.6c-1.1,0.7-2.3,1.3-2.8,2.7c-0.5,0.9-0.4,1.9-0.4,2.9
			c0,0.9,0,1.8,0,2.7c0,1,0,2,0,3c0,0.9,0,1.8,0,2.7c0,2.9,0,5.8,0,8.6c0,0.5-0.1,0.7-0.7,0.7c-0.5,0-1,0-1.5,0
			c-0.5,0-0.6-0.2-0.6-0.6c0-6.2,0-12.3,0-18.5c0-2.4,1.2-4.4,3.2-5.7c1.2-0.8,2.4-1.6,3.6-2.4c0.2-0.1,0.3-0.2,0.5-0.4
			c-1.3-0.9-2.5-1.7-3.8-2.5c-2.5-1.6-3.7-3.8-3.6-6.7c0.1-4.2,0-8.5,0-12.7c0-0.5,0.1-0.7,0.7-0.7c0.6,0.1,1.5-0.3,1.9,0.1
			c0.3,0.4,0.1,1.2,0.1,1.8c0,3.9,0,7.8,0,11.7c0,1.6,0.6,3,2,3.9c1.6,1.1,3.2,2.1,4.8,3.2c0.3,0.2,0.5,0.2,0.8,0
			c1.2-0.8,2.3-1.6,3.5-2.3c0.4-0.3,0.9-0.6,1.3-0.9C108.1,58.6,108.7,58,109,57.2z"/>
		<path class="st2" d="M95,76.7c0-0.9,0-1.8,0-2.7c3.8,0,7.5,0,11.3,0c1.5,0,1.5,0,1.5,1.5c0,1.2,0.1,1.1-1.1,1.1
			C102.8,76.7,98.9,76.7,95,76.7z"/>
		<path class="st2" d="M109.3,51.5c0,0.9,0,1.8,0,2.7c-4,0-7.9,0-11.9,0c-1,0-1,0-1-0.9c0-1.7,0-1.7,1.7-1.7
			C101.9,51.5,105.6,51.5,109.3,51.5z"/>
		<path class="st2" d="M109.3,45.8c0,0.9,0,1.8,0,2.7c-3,0-6,0-9.1,0c-0.9,0-0.9,0-0.9-0.9c0-1.7,0-1.7,1.7-1.7
			C103.8,45.8,106.6,45.8,109.3,45.8z"/>
		<path class="st2" d="M95,82.4c0-0.9,0-1.8,0-2.7c3.1,0,6.1,0,9.2,0c0.6,0,0.9,0.1,0.8,0.8c0,0.4,0,0.8,0,1.1
			c0.1,0.6-0.2,0.8-0.8,0.8C101.2,82.4,98.1,82.4,95,82.4z"/>
		<path class="st2" d="M95.4,71.1c0.5-1.3,1.6-2,2.8-2.7c2.1,0,4.1,0,6.2,0c0.6,0,0.7,0.2,0.7,0.7c0,1.9,0,1.9-1.9,1.9
			C100.5,71.1,98,71.1,95.4,71.1z"/>
		<path class="st2" d="M109,57.2c-0.3,0.8-0.9,1.4-1.6,1.9c-0.4,0.3-0.9,0.6-1.3,0.9c-0.2-0.2-0.5-0.1-0.8-0.1c-1.7,0-3.4,0-5.1,0
			c-0.6,0-0.8-0.1-0.8-0.8c0-1.9,0-1.9,1.9-1.9C103.8,57.2,106.4,57.2,109,57.2z"/>
	</g>
	<g>
		<path class="st1" d="M134.8,74.2c0.5-1,0.4-2,0.4-3c0-0.9,0-1.8,0-2.7c0-1,0-1.9,0-2.9c0-0.9,0-1.8,0-2.7c0-2.9,0-5.9,0-8.8
			c0-0.6,0.1-0.8,0.7-0.7c0.5,0.1,1,0,1.5,0c0.4,0,0.5,0.1,0.5,0.5c0,0.1,0,0.3,0,0.4c0,6,0,12,0,17.9c0,2.7-1.1,4.8-3.3,6.2
			c-1.3,0.9-2.7,1.8-4,2.7c0.2,0.3,0.6,0.5,0.9,0.7c1.3,0.9,2.7,1.7,3.9,2.7c1.7,1.4,2.6,3.2,2.6,5.4c0,4.4,0,8.8,0,13.3
			c0,0.5-0.2,0.7-0.7,0.7c-0.5,0-0.9,0-1.4,0c-0.5,0.1-0.6-0.2-0.6-0.6c0-4.4,0-8.7,0-13.1c0-1.7-0.7-3-2.1-3.9
			c-1.6-1-3.1-2.1-4.7-3.1c-0.2-0.1-0.4-0.3-0.7-0.1c-1.2,0.9-2.5,1.7-3.8,2.6c-1.1,0.7-2.3,1.3-2.8,2.7c-0.5,0.9-0.4,1.9-0.4,2.9
			c0,0.9,0,1.8,0,2.7c0,1,0,2,0,3c0,0.9,0,1.8,0,2.7c0,2.9,0,5.8,0,8.6c0,0.5-0.1,0.7-0.7,0.7c-0.5,0-1,0-1.5,0
			c-0.5,0-0.6-0.2-0.6-0.6c0-6.2,0-12.3,0-18.5c0-2.4,1.2-4.4,3.2-5.7c1.2-0.8,2.4-1.6,3.6-2.4c0.2-0.1,0.3-0.2,0.5-0.4
			c-1.3-0.9-2.5-1.7-3.8-2.5c-2.5-1.6-3.7-3.8-3.6-6.7c0.1-4.2,0-8.5,0-12.7c0-0.5,0.1-0.7,0.7-0.7c0.6,0.1,1.5-0.3,1.9,0.1
			c0.3,0.4,0.1,1.2,0.1,1.8c0,3.9,0,7.8,0,11.7c0,1.6,0.6,3,2,3.9c1.6,1.1,3.2,2.1,4.8,3.2c0.3,0.2,0.5,0.2,0.8,0
			c1.2-0.8,2.3-1.6,3.5-2.3c0.4-0.3,0.9-0.6,1.3-0.9C133.9,75.6,134.5,75.1,134.8,74.2z"/>
		<path class="st1" d="M120.9,93.8c0-0.9,0-1.8,0-2.7c3.8,0,7.5,0,11.3,0c1.5,0,1.5,0,1.5,1.5c0,1.2,0.1,1.1-1.1,1.1
			C128.7,93.8,124.8,93.8,120.9,93.8z"/>
		<path class="st1" d="M135.2,68.5c0,0.9,0,1.8,0,2.7c-4,0-7.9,0-11.9,0c-1,0-1,0-1-0.9c0-1.7,0-1.7,1.7-1.7
			C127.8,68.5,131.5,68.5,135.2,68.5z"/>
		<path class="st1" d="M135.2,62.9c0,0.9,0,1.8,0,2.7c-3,0-6,0-9.1,0c-0.9,0-0.9,0-0.9-0.9c0-1.7,0-1.7,1.7-1.7
			C129.6,62.9,132.4,62.9,135.2,62.9z"/>
		<path class="st1" d="M120.9,99.5c0-0.9,0-1.8,0-2.7c3.1,0,6.1,0,9.2,0c0.6,0,0.9,0.1,0.8,0.8c0,0.4,0,0.8,0,1.1
			c0.1,0.6-0.2,0.8-0.8,0.8C127,99.5,123.9,99.5,120.9,99.5z"/>
		<path class="st1" d="M121.2,88.2c0.5-1.3,1.6-2,2.8-2.7c2.1,0,4.1,0,6.2,0c0.6,0,0.7,0.2,0.7,0.7c0,1.9,0,1.9-1.9,1.9
			C126.4,88.2,123.8,88.2,121.2,88.2z"/>
		<path class="st1" d="M134.8,74.2c-0.3,0.8-0.9,1.4-1.6,1.9c-0.4,0.3-0.9,0.6-1.3,0.9c-0.2-0.2-0.5-0.1-0.8-0.1c-1.7,0-3.4,0-5.1,0
			c-0.6,0-0.8-0.1-0.8-0.8c0-1.9,0-1.9,1.9-1.9C129.6,74.2,132.2,74.2,134.8,74.2z"/>
	</g>
</g>
</svg>
