<?xml version="1.0" encoding="utf-8"?>
<svg xml:space="preserve" viewBox="0 0 100 100" y="0" x="0" xmlns="http://www.w3.org/2000/svg" id="圖層_1" version="1.1" style="height: 100%; width: 100%; background: rgb(255, 255, 255);" width="164px" height="164px"><g class="ldl-scale" style="transform-origin: 50% 50%; transform: rotate(0deg) scale(0.8, 0.8);"><g class="ldl-ani"><g class="ldl-layer"><g class="ldl-ani" style="transform: scale(0.91); transform-origin: 50px 50px; animation: 1.11111s linear -0.648148s infinite normal forwards running breath-671e67cf-f3ed-4930-a347-f28d605e4d78;"><path fill="#f47e60" d="M50.793 10c11.768 11.88 16.643 30.151 12.358 46.315-1.155 4.357-2.963 8.614-5.873 12.055-2.114 2.5-4.967 4.6-8.228 4.889-9.423.834-10.06-14.301-10.477-20.736a66.13 66.13 0 0 1 4.412-28.318c1.979-5.044 4.594-9.841 7.808-14.205z" style="fill: rgb(51, 110, 46);"></path></g></g><g class="ldl-layer"><g class="ldl-ani" style="transform: scale(0.91); transform-origin: 50px 50px; animation: 1.11111s linear -0.740741s infinite normal forwards running breath-671e67cf-f3ed-4930-a347-f28d605e4d78;"><path fill="#f47e60" d="M85.58 28.143c2.32 13.452-2.961 27.959-13.387 36.772-2.81 2.375-6.011 4.379-9.567 5.321-2.584.685-5.475.756-7.792-.576-6.696-3.848-.045-14.274 2.685-18.775a53.994 53.994 0 0 1 16.194-16.888 50.898 50.898 0 0 1 11.867-5.854z" style="fill: rgb(51, 110, 46);"></path></g></g><g class="ldl-layer"><g class="ldl-ani" style="transform: scale(0.91); transform-origin: 50px 50px; animation: 1.11111s linear -0.833333s infinite normal forwards running breath-671e67cf-f3ed-4930-a347-f28d605e4d78;"><path fill="#f47e60" d="M90.027 67.407c-7.076 8.74-18.931 13.344-30.051 11.668-2.997-.452-5.976-1.347-8.491-3.039-1.827-1.229-3.44-2.982-3.873-5.141-1.251-6.238 8.82-7.777 13.091-8.529a44.475 44.475 0 0 1 19.255.866 41.928 41.928 0 0 1 10.069 4.175z" style="fill: rgb(51, 110, 46);"></path></g></g><g class="ldl-layer"><g class="ldl-ani" style="transform: scale(0.91); transform-origin: 50px 50px; animation: 1.11111s linear -0.925926s infinite normal forwards running breath-671e67cf-f3ed-4930-a347-f28d605e4d78;"><path fill="#f47e60" d="M11.649 24.725c-2.691 13.383 2.186 28.031 12.364 37.128 2.743 2.452 5.887 4.543 9.416 5.584 2.564.756 5.452.907 7.805-.36 6.8-3.661.44-14.267-2.164-18.843a53.994 53.994 0 0 0-15.72-17.329 50.89 50.89 0 0 0-11.701-6.18z" style="fill: rgb(51, 110, 46);"></path></g></g><g class="ldl-layer"><g class="ldl-ani" style="transform: scale(0.91); transform-origin: 50px 50px; animation: 1.11111s linear -1.01852s infinite normal forwards running breath-671e67cf-f3ed-4930-a347-f28d605e4d78;"><path fill="#f47e60" d="M9.973 68.395c7.085 7.976 18.52 11.825 28.986 9.755 2.821-.558 5.605-1.536 7.915-3.248 1.678-1.244 3.131-2.975 3.448-5.04.915-5.966-8.696-6.987-12.776-7.515a42.18 42.18 0 0 0-18.21 1.656 39.741 39.741 0 0 0-9.363 4.392z" style="fill: rgb(51, 110, 46);"></path></g></g><g class="ldl-layer"><g class="ldl-ani" style="transform: scale(0.91); transform-origin: 50px 50px; animation: 1.11111s linear -1.11111s infinite normal forwards running breath-671e67cf-f3ed-4930-a347-f28d605e4d78;"><path fill="#f47e60" d="M50.719 66.42c1.086 7.745.523 15.835-1.746 23.58l-6.011-2.246c3.045-6.477 4.747-13.74 4.853-21.146l2.904-.188z" style="fill: rgb(51, 110, 46);"></path></g></g><metadata xmlns:d="https://loading.io/stock/">
<d:name>leaf</d:name>
<d:tags>leaf,leave,maple,plant,autumn,fall</d:tags>
<d:license>by</d:license>
<d:slug>vexew0</d:slug>
</metadata></g></g>
<!-- [ldio] generated by https://loading.io/ --></svg>