<svg width="46" height="46" viewBox="0 0 46 46" fill="none" xmlns="http://www.w3.org/2000/svg">
<path d="M40.9688 12.2188H36.6562V5.03125C36.6562 4.07813 36.2776 3.16404 35.6037 2.49009C34.9297 1.81613 34.0156 1.4375 33.0625 1.4375H12.9375C11.9844 1.4375 11.0703 1.81613 10.3963 2.49009C9.72238 3.16404 9.34375 4.07813 9.34375 5.03125V12.2188H5.03125C4.07813 12.2188 3.16404 12.5974 2.49009 13.2713C1.81613 13.9453 1.4375 14.8594 1.4375 15.8125V43.8438C1.4375 44.0344 1.51323 44.2172 1.64802 44.352C1.78281 44.4868 1.96563 44.5625 2.15625 44.5625H43.8438C44.0344 44.5625 44.2172 44.4868 44.352 44.352C44.4868 44.2172 44.5625 44.0344 44.5625 43.8438V15.8125C44.5625 14.8594 44.1839 13.9453 43.5099 13.2713C42.836 12.5974 41.9219 12.2188 40.9688 12.2188ZM2.875 15.8125C2.875 15.2406 3.10218 14.6922 3.50655 14.2878C3.91093 13.8834 4.45938 13.6562 5.03125 13.6562H9.34375V17.25H6.46875C6.0875 17.25 5.72187 17.4015 5.45228 17.671C5.1827 17.9406 5.03125 18.3063 5.03125 18.6875V21.5625C5.03125 21.9437 5.1827 22.3094 5.45228 22.579C5.72187 22.8485 6.0875 23 6.46875 23H9.34375V25.875H6.46875C6.0875 25.875 5.72187 26.0264 5.45228 26.296C5.1827 26.5656 5.03125 26.9313 5.03125 27.3125V30.1875C5.03125 30.5687 5.1827 30.9344 5.45228 31.204C5.72187 31.4736 6.0875 31.625 6.46875 31.625H9.34375V34.5H6.46875C6.0875 34.5 5.72187 34.6515 5.45228 34.921C5.1827 35.1906 5.03125 35.5563 5.03125 35.9375V38.8125C5.03125 39.1937 5.1827 39.5594 5.45228 39.829C5.72187 40.0985 6.0875 40.25 6.46875 40.25H9.34375V43.125H2.875V15.8125ZM9.34375 18.6875V21.5625H6.46875V18.6875H9.34375ZM9.34375 27.3125V30.1875H6.46875V27.3125H9.34375ZM9.34375 35.9375V38.8125H6.46875V35.9375H9.34375ZM22.2812 43.125H17.25V33.7812H22.2812V43.125ZM28.75 43.125H23.7188V33.7812H28.75V43.125ZM30.1875 33.7812H31.625V43.125H30.1875V33.7812ZM31.625 32.3438H14.375V30.9062H31.625V32.3438ZM15.8125 33.7812V43.125H14.375V33.7812H15.8125ZM35.2188 43.125H33.0625V30.9062C33.0625 30.525 32.9111 30.1594 32.6415 29.8898C32.3719 29.6202 32.0062 29.4688 31.625 29.4688H14.375C13.9938 29.4688 13.6281 29.6202 13.3585 29.8898C13.089 30.1594 12.9375 30.525 12.9375 30.9062V43.125H10.7812V5.03125C10.7812 4.45938 11.0084 3.91093 11.4128 3.50655C11.8172 3.10218 12.3656 2.875 12.9375 2.875H33.0625C33.6344 2.875 34.1828 3.10218 34.5872 3.50655C34.9916 3.91093 35.2188 4.45938 35.2188 5.03125V43.125ZM36.6562 18.6875H39.5312V21.5625H36.6562V18.6875ZM36.6562 27.3125H39.5312V30.1875H36.6562V27.3125ZM36.6562 35.9375H39.5312V38.8125H36.6562V35.9375ZM43.125 43.125H36.6562V40.25H39.5312C39.9125 40.25 40.2781 40.0985 40.5477 39.829C40.8173 39.5594 40.9688 39.1937 40.9688 38.8125V35.9375C40.9688 35.5563 40.8173 35.1906 40.5477 34.921C40.2781 34.6515 39.9125 34.5 39.5312 34.5H36.6562V31.625H39.5312C39.9125 31.625 40.2781 31.4736 40.5477 31.204C40.8173 30.9344 40.9688 30.5687 40.9688 30.1875V27.3125C40.9688 26.9313 40.8173 26.5656 40.5477 26.296C40.2781 26.0264 39.9125 25.875 39.5312 25.875H36.6562V23H39.5312C39.9125 23 40.2781 22.8485 40.5477 22.579C40.8173 22.3094 40.9688 21.9437 40.9688 21.5625V18.6875C40.9688 18.3063 40.8173 17.9406 40.5477 17.671C40.2781 17.4015 39.9125 17.25 39.5312 17.25H36.6562V13.6562H40.9688C41.5406 13.6562 42.0891 13.8834 42.4934 14.2878C42.8978 14.6922 43.125 15.2406 43.125 15.8125V43.125Z" fill="#188F81"/>
<path d="M19.8231 19.0685C19.9966 19.1486 20.1948 19.1565 20.374 19.0904C20.5533 19.0244 20.699 18.8898 20.7791 18.7164C20.8591 18.5429 20.867 18.3447 20.801 18.1654C20.7349 17.9862 20.6004 17.8405 20.4269 17.7604C19.1649 17.1744 18.1408 16.1752 17.5239 14.928C16.907 13.6808 16.7343 12.2604 17.0344 10.9018C17.3345 9.54312 18.0893 8.3276 19.1741 7.45626C20.2589 6.58492 21.6086 6.10997 23 6.10997C24.3914 6.10997 25.7411 6.58492 26.8259 7.45626C27.9107 8.3276 28.6655 9.54312 28.9656 10.9018C29.2657 12.2604 29.093 13.6808 28.4761 14.928C27.8592 16.1752 26.8351 17.1744 25.5731 17.7604C25.3997 17.8405 25.2651 17.9862 25.1991 18.1654C25.133 18.3447 25.1409 18.5429 25.2209 18.7164C25.301 18.8898 25.4467 19.0244 25.626 19.0904C25.8052 19.1565 26.0034 19.1486 26.1769 19.0685C27.7361 18.3449 29.0016 17.1107 29.764 15.5701C30.5264 14.0295 30.74 12.2748 30.3695 10.5962C29.999 8.91769 29.0666 7.41592 27.7265 6.33938C26.3864 5.26284 24.719 4.67603 23 4.67603C21.2811 4.67603 19.6136 5.26284 18.2735 6.33938C16.9335 7.41592 16.001 8.91769 15.6305 10.5962C15.26 12.2748 15.4736 14.0295 16.236 15.5701C16.9984 17.1107 18.2639 18.3449 19.8231 19.0685Z" fill="#188F81"/>
<path d="M23 19.7656C23.397 19.7656 23.7188 19.4438 23.7188 19.0469C23.7188 18.6499 23.397 18.3281 23 18.3281C22.603 18.3281 22.2812 18.6499 22.2812 19.0469C22.2812 19.4438 22.603 19.7656 23 19.7656Z" fill="#188F81"/>
<path d="M23 16.8906C23.5719 16.8906 24.1203 16.6634 24.5247 16.2591C24.9291 15.8547 25.1562 15.3062 25.1562 14.7344V14.375H25.5156C26.0875 14.375 26.6359 14.1478 27.0403 13.7434C27.4447 13.3391 27.6719 12.7906 27.6719 12.2188C27.6719 11.6469 27.4447 11.0984 27.0403 10.6941C26.6359 10.2897 26.0875 10.0625 25.5156 10.0625H25.1562V9.70312C25.1562 9.13125 24.9291 8.5828 24.5247 8.17843C24.1203 7.77405 23.5719 7.54688 23 7.54688C22.4281 7.54688 21.8797 7.77405 21.4753 8.17843C21.0709 8.5828 20.8438 9.13125 20.8438 9.70312V10.0625H20.4844C19.9125 10.0625 19.3641 10.2897 18.9597 10.6941C18.5553 11.0984 18.3281 11.6469 18.3281 12.2188C18.3281 12.7906 18.5553 13.3391 18.9597 13.7434C19.3641 14.1478 19.9125 14.375 20.4844 14.375H20.8438V14.7344C20.8438 15.3062 21.0709 15.8547 21.4753 16.2591C21.8797 16.6634 22.4281 16.8906 23 16.8906ZM20.4844 12.9375C20.2938 12.9375 20.1109 12.8618 19.9761 12.727C19.8413 12.5922 19.7656 12.4094 19.7656 12.2188C19.7656 12.0281 19.8413 11.8453 19.9761 11.7105C20.1109 11.5757 20.2938 11.5 20.4844 11.5H21.5625C21.7531 11.5 21.9359 11.4243 22.0707 11.2895C22.2055 11.1547 22.2812 10.9719 22.2812 10.7812V9.70312C22.2812 9.5125 22.357 9.32968 22.4918 9.19489C22.6266 9.0601 22.8094 8.98438 23 8.98438C23.1906 8.98438 23.3734 9.0601 23.5082 9.19489C23.643 9.32968 23.7188 9.5125 23.7188 9.70312V10.7812C23.7188 10.9719 23.7945 11.1547 23.9293 11.2895C24.0641 11.4243 24.2469 11.5 24.4375 11.5H25.5156C25.7062 11.5 25.8891 11.5757 26.0239 11.7105C26.1587 11.8453 26.2344 12.0281 26.2344 12.2188C26.2344 12.4094 26.1587 12.5922 26.0239 12.727C25.8891 12.8618 25.7062 12.9375 25.5156 12.9375H24.4375C24.2469 12.9375 24.0641 13.0132 23.9293 13.148C23.7945 13.2828 23.7188 13.4656 23.7188 13.6562V14.7344C23.7188 14.925 23.643 15.1078 23.5082 15.2426C23.3734 15.3774 23.1906 15.4531 23 15.4531C22.8094 15.4531 22.6266 15.3774 22.4918 15.2426C22.357 15.1078 22.2812 14.925 22.2812 14.7344V13.6562C22.2812 13.4656 22.2055 13.2828 22.0707 13.148C21.9359 13.0132 21.7531 12.9375 21.5625 12.9375H20.4844Z" fill="#188F81"/>
<path d="M25.875 39.1719C26.272 39.1719 26.5938 38.8501 26.5938 38.4531C26.5938 38.0562 26.272 37.7344 25.875 37.7344C25.478 37.7344 25.1562 38.0562 25.1562 38.4531C25.1562 38.8501 25.478 39.1719 25.875 39.1719Z" fill="#188F81"/>
<path d="M20.125 39.1719C20.522 39.1719 20.8438 38.8501 20.8438 38.4531C20.8438 38.0562 20.522 37.7344 20.125 37.7344C19.728 37.7344 19.4062 38.0562 19.4062 38.4531C19.4062 38.8501 19.728 39.1719 20.125 39.1719Z" fill="#188F81"/>
<path d="M20.125 21.5625H14.375C13.9938 21.5625 13.6281 21.714 13.3585 21.9835C13.089 22.2531 12.9375 22.6188 12.9375 23V25.875C12.9375 26.2562 13.089 26.6219 13.3585 26.8915C13.6281 27.1611 13.9938 27.3125 14.375 27.3125H20.125C20.5062 27.3125 20.8719 27.1611 21.1415 26.8915C21.411 26.6219 21.5625 26.2562 21.5625 25.875V23C21.5625 22.6188 21.411 22.2531 21.1415 21.9835C20.8719 21.714 20.5062 21.5625 20.125 21.5625ZM14.375 25.875V23H20.125V25.875H14.375Z" fill="#188F81"/>
<path d="M31.625 21.5625H25.875C25.4938 21.5625 25.1281 21.714 24.8585 21.9835C24.5889 22.2531 24.4375 22.6188 24.4375 23V25.875C24.4375 26.2562 24.5889 26.6219 24.8585 26.8915C25.1281 27.1611 25.4938 27.3125 25.875 27.3125H31.625C32.0062 27.3125 32.3719 27.1611 32.6415 26.8915C32.9111 26.6219 33.0625 26.2562 33.0625 25.875V23C33.0625 22.6188 32.9111 22.2531 32.6415 21.9835C32.3719 21.714 32.0062 21.5625 31.625 21.5625ZM25.875 25.875V23H31.625V25.875H25.875Z" fill="#188F81"/>
</svg>
