<svg width="47" height="46" viewBox="0 0 47 46" fill="none" xmlns="http://www.w3.org/2000/svg">
<path d="M24.2052 19.4062C21.812 19.4062 19.8657 21.3404 19.8657 23.7187C19.8657 26.0971 21.812 28.0313 24.2052 28.0313C26.5984 28.0313 28.5447 26.0971 28.5447 23.7187C28.5447 21.3404 26.5984 19.4062 24.2052 19.4062ZM24.2052 26.5937C22.6097 26.5937 21.3122 25.3043 21.3122 23.7187C21.3122 22.1332 22.6097 20.8437 24.2052 20.8437C25.8007 20.8437 27.0982 22.1332 27.0982 23.7187C27.0982 25.3043 25.8007 26.5937 24.2052 26.5937Z" fill="#188F81"/>
<path d="M40.177 25.8262C41.1021 25.6717 42.0416 25.6078 42.989 25.6358C43.3839 25.6322 43.7209 25.3346 43.7325 24.9371C43.744 24.5404 43.4294 24.2098 43.0302 24.1982C41.3472 24.1522 39.6888 24.3779 38.0817 24.8473C38.0347 24.8573 37.9906 24.871 37.9465 24.8904C37.6775 24.9716 37.4084 25.0514 37.1422 25.147C35.29 25.0485 33.7184 24.0171 32.9257 22.364C32.1128 20.6663 32.3319 18.4482 33.4573 16.9683C33.5029 16.9087 33.5405 16.8411 33.5665 16.7664C33.6793 16.4422 33.8074 16.1245 33.9368 15.8083H33.9447C35.2293 15.8083 36.5 15.6286 37.7266 15.2958C39.0762 16.2381 40.6681 16.7441 42.3106 16.7441C42.5652 16.7441 42.8205 16.7319 43.0765 16.7075C43.4743 16.6701 43.7657 16.3193 43.7281 15.924C43.6898 15.528 43.3326 15.2261 42.9398 15.2771C41.7536 15.3892 40.5813 15.1758 39.5253 14.6799C40.6855 14.1947 41.7862 13.5636 42.7908 12.7852C43.1062 12.5409 43.1619 12.0895 42.916 11.7768C42.67 11.4635 42.2151 11.4088 41.9005 11.6525C39.8017 13.2805 37.2486 14.2235 34.6015 14.355C35.7565 12.1039 37.3563 10.0942 39.3156 8.4569C39.6216 8.20178 39.6606 7.74822 39.4039 7.44419C39.1471 7.14017 38.6915 7.10132 38.3848 7.35651C35.9756 9.36975 34.0764 11.9083 32.815 14.7582C32.8078 14.7719 32.8021 14.7848 32.7962 14.7992C32.6067 15.229 32.4318 15.666 32.2726 16.1095C31.1878 17.1193 29.6834 17.3823 28.5652 16.7305C27.314 16.0023 26.6855 14.4894 27.071 13.1324C27.0739 13.1223 27.0718 13.113 27.0739 13.1029C27.076 13.0936 27.0826 13.0864 27.084 13.0763C27.2063 12.4589 27.2895 11.8358 27.3546 11.2112C29.6234 9.86132 31.315 7.76407 32.1258 5.25057C32.2473 4.8725 32.0383 4.46713 31.6578 4.34638C31.2767 4.22707 30.8702 4.43407 30.7487 4.81069C30.1521 6.66076 29.0021 8.24849 27.4666 9.40422C27.4717 9.11527 27.4666 8.8271 27.4587 8.53815C27.4572 8.50651 27.4616 8.47558 27.4558 8.44466C27.3972 6.4825 27.0703 4.52894 26.4591 2.653C26.3362 2.27494 25.9297 2.06794 25.5485 2.19013C25.1688 2.31232 24.9605 2.71697 25.0835 3.09504C25.55 4.52823 25.8365 6.01029 25.9579 7.50456C24.3314 6.74557 23.1315 5.28866 22.7416 3.49969C22.657 3.11229 22.2716 2.86504 21.8817 2.94913C21.4912 3.03323 21.2438 3.4156 21.3277 3.80373C21.8679 6.28054 23.65 8.24707 26.0281 9.07649C26.0274 10.2646 25.9138 11.4526 25.6932 12.6242C23.922 14.7381 22.3511 15.8126 18.9417 15.8126C15.8997 15.8126 13.4631 14.9171 11.7006 13.1503L11.6991 13.1496L11.6984 13.1482C11.4431 12.8938 11.2102 12.6213 10.9664 12.3576C11.7968 9.99861 12.1258 7.45566 11.9074 4.96882C11.8727 4.5735 11.5328 4.27523 11.1241 4.31547C10.7263 4.34997 10.4313 4.69857 10.4667 5.09388C10.6424 7.10132 10.4298 9.1469 9.85988 11.0839C8.65931 9.59975 7.61634 7.99761 6.7745 6.27479C6.6002 5.91685 6.16625 5.76879 5.80825 5.94273C5.44879 6.11594 5.29908 6.54504 5.4741 6.90297C6.08887 8.16151 6.80705 9.35893 7.6048 10.5003C6.4288 10.4665 5.25857 10.3285 4.10861 10.0799C3.71878 9.98927 3.33329 10.2409 3.24795 10.629C3.1626 11.0164 3.41068 11.3995 3.80051 11.4843C5.23109 11.7941 6.69278 11.9501 8.15662 11.9501C8.33672 11.9501 8.51681 11.9429 8.69691 11.9378C8.97748 12.2864 9.26468 12.6285 9.56264 12.9628C9.59952 13.0123 9.63784 13.0576 9.68704 13.0972C10.0009 13.4443 10.309 13.7965 10.6417 14.1279L10.6424 14.1286L10.7329 14.2321C12.7558 16.5292 15.5265 19.6738 15.5265 22.2813C15.5265 24.4808 13.7162 25.6063 11.6202 26.9094C11.4105 27.0395 11.1993 27.1725 10.9889 27.3054C8.63396 27.2702 6.51414 26.6241 4.33933 25.2663C4.00157 25.0558 3.55533 25.1578 3.34269 25.492C3.12933 25.8291 3.23131 26.2726 3.56979 26.4839C5.40034 27.6267 7.20053 28.3152 9.11208 28.5985C7.1166 30.0374 5.21663 31.6165 3.45046 33.3199C3.16405 33.5966 3.15682 34.0516 3.43527 34.3362C3.57775 34.4814 3.76579 34.554 3.95456 34.554C4.13609 34.554 4.31763 34.4865 4.45794 34.3513C5.48061 33.3645 6.55247 32.4243 7.65828 31.5252C7.10503 33.6699 6.83236 35.8722 6.84755 38.0989C6.85044 38.4942 7.17375 38.8126 7.57083 38.8126H7.57589C7.9751 38.8098 8.29691 38.4856 8.29406 38.0888C8.27455 35.3274 8.72725 32.6062 9.63136 29.9971C10.2599 29.5364 10.897 29.0893 11.545 28.6595C13.4031 27.7295 15.6169 28.0191 17.3354 29.4185C18.9352 30.7216 19.652 32.7629 19.2368 34.6985C16.9441 35.5646 14.7953 36.7483 12.8541 38.2455C12.5381 38.4892 12.4809 38.9405 12.7261 39.2539C12.8679 39.4358 13.0812 39.5313 13.2968 39.5313C13.4515 39.5313 13.6078 39.4825 13.7394 39.3804C15.4079 38.0939 17.2435 37.0589 19.1912 36.2653C19.2064 36.44 19.2325 36.6132 19.2556 36.7872C17.94 38.3612 17.608 42.1491 17.6985 43.1862C17.7317 43.5614 18.0471 43.8439 18.4188 43.8439C18.4398 43.8439 18.4607 43.8431 18.4817 43.841C18.8795 43.8065 19.1746 43.4586 19.1399 43.0633C19.0603 42.1483 19.3207 40.1703 19.7966 38.8198C20.1749 39.6859 20.7245 40.4772 21.4138 41.1299C22.0278 41.7106 22.6484 42.0915 23.4273 42.3654C23.5076 42.3927 23.5886 42.4063 23.6688 42.4063C23.9669 42.4063 24.2453 42.2223 24.3509 41.9276C24.4839 41.5532 24.2872 41.1421 23.9105 41.0105C23.3253 40.8042 22.8769 40.529 22.4119 40.0884C21.5258 39.2503 20.9284 38.1262 20.7296 36.9223C20.6435 36.4048 20.6016 35.8765 20.595 35.3511C21.3053 33.4982 22.78 32.157 24.6669 31.6675C26.5351 31.1795 28.5494 31.587 30.0052 32.7104C30.0732 35.2842 30.8514 37.7733 32.2813 39.9281C32.4194 40.1365 32.6502 40.2501 32.8852 40.2501C33.0219 40.2501 33.1601 40.2113 33.2823 40.1315C33.6157 39.913 33.7075 39.4666 33.4884 39.1353C32.3652 37.4426 31.6919 35.5193 31.5009 33.5169C33.8913 34.7732 35.8925 36.624 37.3339 38.9226C37.4706 39.1418 37.7071 39.2618 37.9486 39.2618C38.0796 39.2618 38.2112 39.2266 38.3306 39.1533C38.6697 38.9434 38.7732 38.5006 38.562 38.1636C37.6912 36.7742 36.6294 35.5387 35.4165 34.4749C36.7235 34.3175 38.0434 34.3182 39.359 34.4936C39.7524 34.5446 40.1184 34.2694 40.172 33.8769C40.2247 33.4831 39.947 33.1215 39.5506 33.0691C37.6493 32.8168 35.7384 32.893 33.8638 33.2753C33.1 32.7506 32.29 32.2885 31.4387 31.8925C31.4373 29.9684 31.4554 28.569 32.29 27.7388C33.074 26.9575 34.642 26.5939 37.224 26.5939C37.3086 26.5939 37.394 26.5788 37.4779 26.5486C37.7071 26.4631 37.9407 26.4005 38.1729 26.3265C39.8125 27.1768 41.2893 28.3649 42.4458 29.7981C42.589 29.9756 42.7988 30.0676 43.0107 30.0676C43.1698 30.0676 43.3289 30.0158 43.4627 29.9095C43.7744 29.6608 43.8244 29.2086 43.5748 28.8996C42.615 27.7101 41.4586 26.6708 40.177 25.8262ZM31.2652 26.7232C30.2013 27.7812 30.024 29.2539 29.9958 30.9675C28.3106 30.0266 26.2682 29.7628 24.301 30.2753C22.9029 30.6382 21.6626 31.4023 20.7079 32.4495C20.4258 30.8646 19.5746 29.3833 18.2517 28.3059C17.1372 27.3981 15.8195 26.8655 14.4815 26.7297C15.8874 25.6501 16.973 24.3255 16.973 22.2813C16.973 20.3709 15.8766 18.3749 14.5285 16.5493C15.8585 17.0122 17.3411 17.2501 18.9417 17.2501C22.0886 17.2501 23.9697 16.3848 25.6042 14.8387C25.8617 16.1166 26.6573 17.2861 27.834 17.9718C28.8539 18.5647 30.0725 18.6732 31.2203 18.3369C30.8124 19.8649 30.9325 21.5446 31.6209 22.9814C32.1172 24.0157 32.8469 24.8638 33.7394 25.4784C32.6523 25.7313 31.8502 26.1403 31.2652 26.7232Z" fill="#188F81"/>
</svg>
