<svg width="46" height="46" viewBox="0 0 46 46" fill="none" xmlns="http://www.w3.org/2000/svg">
<path d="M44.2154 27.776L44.2054 27.7587C43.7451 27.058 43.0425 26.5517 42.2323 26.3368C41.422 26.1218 40.5608 26.2132 39.8138 26.5937L35.2081 28.949C34.6564 28.1746 33.8448 27.6242 32.9213 27.3982C31.9977 27.1721 31.0237 27.2856 30.1768 27.7178L24.3765 30.6905C24.074 30.8464 23.7382 30.9266 23.3979 30.9246C23.0575 30.9224 22.7227 30.838 22.4222 30.6784L18.4691 28.5796C16.9731 27.7809 15.285 27.4125 13.5923 27.5149C11.8995 27.6175 10.2683 28.187 8.87953 29.1604L8.43319 27.0314C8.41372 26.9387 8.37614 26.8508 8.32259 26.7727C8.26905 26.6946 8.20061 26.6279 8.12121 26.5763C8.0418 26.5248 7.95297 26.4894 7.85986 26.4722C7.76674 26.4551 7.67115 26.4566 7.57859 26.4765L2.00469 27.6789C1.81915 27.7189 1.65696 27.8308 1.55354 27.99C1.45014 28.1492 1.41388 28.3427 1.45269 28.5285L4.69784 43.991C4.73094 44.1531 4.81893 44.2988 4.947 44.4036C5.07505 44.5084 5.23534 44.5658 5.40078 44.566C5.45149 44.5658 5.50206 44.5605 5.55171 44.5502L11.1285 43.3499C11.3142 43.3098 11.4765 43.1979 11.5799 43.0387C11.6834 42.8793 11.7195 42.6855 11.6805 42.4995L11.393 41.116L13.2984 40.7055C13.8537 40.5869 14.4254 40.565 14.9882 40.6409L23.9496 41.6235C25.8101 41.8695 27.6965 41.4267 29.2532 40.3786L43.6088 30.7474C44.0782 30.4296 44.4045 29.9407 44.5179 29.3853C44.6313 28.83 44.5227 28.2523 44.2154 27.776ZM5.95565 42.9891L3.00878 28.9339L7.17753 28.0354L10.1244 42.0913L5.95565 42.9891ZM42.8089 29.5556L28.4533 39.1869C27.1804 40.0407 25.6388 40.3986 24.1199 40.1931L15.1585 39.2105C14.4373 39.1134 13.7048 39.1426 12.9936 39.2968L11.0947 39.705L9.20009 30.6905L9.691 30.3484C10.8632 29.5235 12.2414 29.0402 13.672 28.9521C15.1026 28.864 16.5296 29.1747 17.7942 29.8495L21.7473 31.9483C22.2525 32.2168 22.8152 32.3591 23.3873 32.363C23.9593 32.3669 24.524 32.2322 25.0327 31.9706L30.8345 28.9943C31.4144 28.6979 32.086 28.6354 32.7107 28.8197C33.3354 29.004 33.8655 29.4209 34.1918 29.9847C34.2875 30.1498 34.3145 30.3459 34.2669 30.5306C34.2193 30.7154 34.1008 30.8741 33.9373 30.9723L25.9391 35.716C24.5407 36.55 22.875 36.8138 21.2873 36.4527L14.0739 34.7277L13.7404 36.1265L20.9602 37.8515C22.909 38.2979 24.9549 37.9759 26.6722 36.9523L34.6704 32.2085C34.9981 32.0119 35.2676 31.7316 35.4513 31.3966C35.635 31.0615 35.7265 30.6836 35.7162 30.3017L40.4657 27.8715C40.8958 27.6532 41.3911 27.6005 41.8576 27.7237C42.3239 27.8468 42.7287 28.1371 42.995 28.5393L43.0029 28.5515C43.1065 28.7116 43.1441 28.9055 43.108 29.0926C43.0718 29.2798 42.9646 29.4457 42.8089 29.5556Z" fill="#188F81"/>
<path d="M6.0899 29.7427L4.68311 30.0381L4.97829 31.4435L6.38509 31.1481L6.0899 29.7427Z" fill="#188F81"/>
<path d="M22.5771 28.612C22.7001 28.7016 22.8483 28.7499 23.0005 28.7499C23.1527 28.7499 23.3008 28.7016 23.4239 28.612C30.6358 23.3514 35.0755 18.3354 36.6883 13.6563H40.3827C40.5523 14.1358 40.8859 14.54 41.3247 14.7974C41.7634 15.0548 42.2789 15.1487 42.7803 15.0627C43.2816 14.9767 43.7365 14.7162 44.0643 14.3273C44.3922 13.9385 44.5719 13.4461 44.5719 12.9375C44.5719 12.4289 44.3922 11.9365 44.0643 11.5477C43.7365 11.1588 43.2816 10.8983 42.7803 10.8123C42.2789 10.7263 41.7634 10.8203 41.3247 11.0776C40.8859 11.335 40.5523 11.7392 40.3827 12.2188H37.088C37.2104 11.6889 37.2958 11.1512 37.3431 10.6095C37.4701 9.51798 37.3756 8.41209 37.0651 7.35802C36.7546 6.30394 36.2345 5.32334 35.5363 4.47494C34.8274 3.53063 33.9083 2.76447 32.8518 2.23723C31.7954 1.70999 30.6306 1.43617 29.4499 1.4375C27.0767 1.5303 24.8043 2.42123 23.0005 3.96607C21.1967 2.42123 18.9243 1.5303 16.5511 1.4375C15.3702 1.43623 14.2053 1.71005 13.1485 2.23728C12.0919 2.76451 11.1725 3.53064 10.4634 4.47494C9.76535 5.32353 9.24563 6.30417 8.93528 7.3582C8.62494 8.41224 8.53034 9.51804 8.65714 10.6095C9.09054 16.1331 13.7739 22.1907 22.5771 28.612ZM42.4067 12.2188C42.549 12.2188 42.6879 12.261 42.8061 12.3398C42.9243 12.4189 43.0164 12.5311 43.0708 12.6624C43.1252 12.7938 43.1395 12.9383 43.1117 13.0777C43.0839 13.2172 43.0155 13.3452 42.915 13.4457C42.8145 13.5463 42.6864 13.6147 42.547 13.6425C42.4075 13.6702 42.2631 13.6559 42.1317 13.6015C42.0004 13.5471 41.8882 13.455 41.8092 13.3368C41.7302 13.2187 41.688 13.0796 41.688 12.9375C41.688 12.7468 41.7637 12.5641 41.8985 12.4293C42.0333 12.2945 42.2162 12.2188 42.4067 12.2188ZM11.5321 5.43592C11.5658 5.40266 11.5958 5.36605 11.622 5.32667C12.1983 4.56494 12.9434 3.94716 13.7986 3.52179C14.6538 3.09641 15.596 2.87503 16.5511 2.875C19.8819 2.875 22.4665 5.41148 22.4924 5.43663C22.5591 5.50346 22.6383 5.55647 22.7256 5.59265C22.8129 5.62882 22.9064 5.64744 23.0009 5.64744C23.0953 5.64744 23.1888 5.62882 23.2761 5.59265C23.3634 5.55647 23.4426 5.50346 23.5093 5.43663C23.5352 5.41004 26.1012 2.875 29.4499 2.875C30.4057 2.87141 31.3491 3.09119 32.2049 3.51685C33.0608 3.9425 33.8052 4.56226 34.379 5.32667C34.4052 5.36605 34.4353 5.40266 34.4688 5.43592C35.0388 6.13767 35.4604 6.94772 35.7082 7.81707C35.956 8.68643 36.0249 9.59701 35.9107 10.4938C35.8629 11.0762 35.7643 11.6534 35.616 12.2188H29.8861L27.2181 7.54688C27.1513 7.42887 27.0524 7.33217 26.9329 7.26798C26.8135 7.20378 26.6783 7.17471 26.5429 7.1841C26.4077 7.1935 26.2777 7.24098 26.1682 7.32108C26.0589 7.40117 25.9742 7.51061 25.9243 7.63673L22.3701 16.5313L20.0931 9.13244C20.0523 8.99973 19.974 8.88168 19.8675 8.79257C19.761 8.70346 19.631 8.64708 19.4932 8.63028C19.3553 8.61348 19.2156 8.63696 19.0908 8.69789C18.966 8.75882 18.8616 8.85458 18.7901 8.9736L16.843 12.2188H12.2192V13.6563H17.2505C17.3745 13.6563 17.4964 13.6242 17.6044 13.563C17.7123 13.5019 17.8026 13.4139 17.8665 13.3077L19.1911 11.0961L21.5925 18.8989C21.6368 19.0402 21.7238 19.1645 21.8416 19.2546C21.9594 19.3447 22.102 19.3961 22.2501 19.402H22.2817C22.4255 19.402 22.566 19.359 22.685 19.2784C22.804 19.1978 22.8962 19.0833 22.9495 18.9498L26.7085 9.55076L28.8453 13.2883C28.9074 13.3993 28.9979 13.4919 29.1075 13.5565C29.2172 13.6213 29.342 13.6557 29.4692 13.6563H35.1473C33.817 17.043 30.5079 21.5855 23.0005 27.1393C12.8726 19.6471 10.3857 13.9926 10.0946 10.5513C9.97182 9.64564 10.036 8.72445 10.2833 7.84461C10.5305 6.96478 10.9556 6.145 11.5321 5.43592Z" fill="#188F81"/>
<path d="M7.1875 12.2188H1.4375V13.6562H7.1875V12.2188Z" fill="#188F81"/>
</svg>
