<svg width="216" height="86" viewBox="0 0 216 86" fill="none" xmlns="http://www.w3.org/2000/svg">
<path d="M9.71931 14.9372C9.78325 14.4923 10.1669 14.0474 10.8063 14.0474H11.7655C12.2131 14.0474 12.5967 14.3016 12.7886 14.6194L25.9609 42.714C26.0888 42.714 26.0888 42.714 26.1527 42.714L39.325 14.6194C39.5168 14.2381 39.7726 14.0474 40.3481 14.0474H41.3072C41.9467 14.0474 42.3303 14.4923 42.3943 14.9372L49.492 54.9816C49.6838 55.8079 49.1722 56.38 48.4049 56.38H42.9697C42.4582 56.38 41.9467 55.8715 41.8188 55.4901L38.3019 32.9254C38.238 32.9254 38.1101 32.9254 38.1101 32.9254L27.5594 56.3164C27.4316 56.6978 27.1118 56.952 26.5364 56.952H25.4493C24.9378 56.952 24.6181 56.6342 24.4262 56.3164L13.8756 32.9254C13.8756 32.9254 13.7477 32.9254 13.6838 32.9254L10.2309 55.4901C10.1669 55.935 9.71931 56.38 9.14382 56.38H3.70865C2.94133 56.38 2.42978 55.8715 2.55767 54.9816L9.71931 14.9372Z" fill="white"/>
<path d="M57.6768 15.8272C57.6768 15.2552 58.1883 14.6831 58.8277 14.6831H72.8952C80.2487 14.6831 86.3233 20.658 86.3233 27.8405C86.3233 35.2138 80.2487 41.2522 72.9592 41.2522H65.4778V55.236C65.4778 55.808 64.9663 56.3801 64.3268 56.3801H58.8277C58.1883 56.3801 57.6768 55.8716 57.6768 55.236V15.8272ZM72.3837 33.9425C75.7087 33.9425 78.5862 31.2729 78.5862 27.777C78.5862 24.4717 75.7727 21.9928 72.3837 21.9928H65.4139V33.9425H72.3837Z" fill="white"/>
<path d="M92.2061 55.6171C95.9787 50.7228 105.57 37.7561 109.407 31.9719C110.238 30.7007 111.069 28.8574 111.069 27.0776C111.069 24.5987 109.023 22.4375 105.378 22.4375C102.693 22.4375 100.327 24.2809 99.1119 25.6792C98.6004 26.1877 97.8331 26.1877 97.3215 25.6792L93.357 21.6748C92.9094 21.2934 92.8455 20.5307 93.2931 20.0222C93.2931 20.0222 98.5364 13.7295 106.274 13.7295C115.545 13.7295 120.98 19.5772 120.98 26.7598C120.98 30.1922 120.021 32.099 118.423 35.15C116.377 38.8367 111.005 45.7014 108 49.9601H119.382C120.021 49.9601 120.597 50.5322 120.597 51.1678V56.952C120.597 57.5876 120.021 58.1596 119.382 58.1596H93.4849C92.7815 58.1596 92.27 57.5876 92.27 56.952V55.6171H92.2061Z" fill="#188F81"/>
<path d="M186.522 14.1108C179.68 14.1108 173.542 16.9076 169.066 21.4205C172.071 24.4715 174.309 28.2853 175.332 32.6075L175.46 33.1796C175.46 33.1796 175.46 33.1796 175.46 33.2431C177.506 28.9845 181.854 26.0606 186.97 26.0606C194.004 26.0606 199.695 31.7176 199.695 38.7095C199.695 45.7014 194.004 51.3584 186.97 51.3584C180.192 51.3584 174.565 46.0828 174.117 39.4723C173.989 38.8366 173.925 37.7561 173.925 37.7561C173.925 37.7561 173.734 29.6201 167.851 22.6918L167.787 22.7553C163.311 17.4796 156.597 14.1108 149.115 14.1108C135.623 14.1108 124.625 24.98 124.625 38.4553C124.625 51.8669 135.56 62.7997 149.115 62.7997C153.911 62.7997 158.387 61.4013 162.224 58.9859H162.16V59.558C161.329 65.8507 155.957 70.6814 149.435 70.6814C145.726 70.6814 142.338 69.0924 139.972 66.5499L131.723 74.813C136.199 79.453 142.465 82.3134 149.435 82.3134C161.776 82.3134 172.007 73.2239 173.67 61.4649C168.426 59.6851 161.968 51.4856 160.753 43.7309C158.707 48.0532 154.295 51.1042 149.179 51.1042C142.146 51.1042 136.455 45.4471 136.455 38.4553C136.455 31.4634 142.146 25.8063 149.179 25.8063C155.957 25.8063 161.52 31.082 161.904 37.7561C161.904 37.6289 161.904 37.5654 161.904 37.5654C161.904 37.6289 162.032 38.5188 162.16 39.6629C162.799 52.5661 173.478 62.7997 186.586 62.7997C200.078 62.7997 211.076 51.9305 211.076 38.4553C211.012 25.0436 200.078 14.1108 186.522 14.1108Z" fill="#188F81"/>
</svg>
