<svg width="47" height="46" viewBox="0 0 47 46" fill="none" xmlns="http://www.w3.org/2000/svg">
<path d="M23.6989 25.5342C18.0786 25.3515 16.7307 20.5513 16.4422 19.0016C15.9012 18.8765 15.4191 18.5711 15.0757 18.1357C14.6836 17.5968 14.5017 16.9337 14.564 16.2708C14.5195 15.9136 14.5506 15.551 14.6554 15.2065C14.7602 14.8621 14.9363 14.5433 15.1723 14.271C15.3055 14.1348 15.4586 14.0195 15.6266 13.9291C14.5819 12.2469 14.0675 10.2905 14.1496 8.31342C14.8003 3.67611 18.5466 3.22482 19.72 3.19871C20.2601 2.57213 20.9352 2.0755 21.6948 1.74598C23.1177 1.17342 24.6905 1.086 26.1684 1.49733C29.0735 2.25384 31.0109 3.70471 31.9301 5.81014C33.2386 8.80263 32.0908 12.247 31.4315 13.7936C31.6829 13.8752 31.9146 14.0079 32.112 14.1834C32.3805 14.4553 32.5828 14.7851 32.7034 15.1473C32.824 15.5095 32.8595 15.8946 32.8075 16.2727C32.8703 16.9356 32.6886 17.5987 32.2965 18.1375C31.9527 18.5728 31.4704 18.8782 30.9292 19.0035C30.6408 20.5513 29.2959 25.3515 23.6989 25.5342ZM16.6678 14.9231C16.4468 14.9128 16.2306 14.9896 16.0659 15.137C15.9518 15.2963 15.8705 15.4767 15.8268 15.6675C15.7831 15.8584 15.7777 16.056 15.811 16.249C15.8136 16.2905 15.8121 16.3322 15.8066 16.3733C15.7727 16.7302 15.8651 17.0875 16.0677 17.3835C16.1941 17.5243 16.3474 17.6385 16.5186 17.7194C16.6898 17.8003 16.8755 17.8463 17.0648 17.8547C17.2073 17.8715 17.3396 17.9368 17.4393 18.0397C17.5391 18.1425 17.6003 18.2765 17.6125 18.4191C17.6331 18.6503 18.1858 24.1113 23.7001 24.2916C29.1838 24.1113 29.7391 18.6503 29.7596 18.4179C29.7721 18.2755 29.8333 18.1418 29.9331 18.0392C30.0329 17.9366 30.1651 17.8714 30.3073 17.8547C30.4967 17.8464 30.6824 17.8005 30.8536 17.7195C31.0248 17.6386 31.1781 17.5244 31.3044 17.3835C31.5079 17.0861 31.6003 16.7268 31.5655 16.3684C31.5603 16.3284 31.5589 16.2881 31.5612 16.2478C31.5948 16.0485 31.5872 15.8444 31.5389 15.6481C31.4906 15.4519 31.4025 15.2676 31.28 15.1065C31.0854 14.9635 30.8432 14.9004 30.6033 14.93C30.4881 14.9503 30.3693 14.938 30.2607 14.8941C30.1521 14.8503 30.0581 14.7768 29.9895 14.6821C29.9209 14.5875 29.8804 14.4754 29.8727 14.3588C29.865 14.2422 29.8904 14.1259 29.946 14.023C29.969 13.9795 32.2516 9.65795 30.7847 6.29936C30.0251 4.56379 28.3668 3.35225 25.8549 2.6983C24.6476 2.35749 23.3613 2.42303 22.1951 2.88479C21.5317 3.16993 20.9534 3.62134 20.5164 4.19517C20.4535 4.28053 20.3696 4.34827 20.2727 4.39183C20.1759 4.43538 20.0695 4.45329 19.9637 4.44382C19.8023 4.43077 15.9867 4.1846 15.3885 8.4396C15.3885 8.4396 15.2159 11.8244 17.1813 13.8757C17.267 13.965 17.324 14.0778 17.345 14.1996C17.3661 14.3214 17.3503 14.4466 17.2997 14.5594C17.253 14.6751 17.1707 14.7731 17.0647 14.8391C16.9586 14.9051 16.8343 14.9358 16.7096 14.9268L16.6678 14.9231Z" fill="#188F81"/>
<path d="M30.495 14.9383C30.3342 14.9384 30.1795 14.8765 30.0633 14.7655C29.9473 14.6545 29.8786 14.5031 29.8719 14.3428C29.8643 14.1818 29.6712 10.4265 26.8608 10.0654C25.5754 10.2282 24.2701 10.1267 23.0255 9.767C21.7809 9.40741 20.6232 8.79724 19.6241 7.97422C18.8296 8.57036 16.9988 10.3823 17.3509 14.2471C17.3555 14.4052 17.2996 14.5592 17.1943 14.6776C17.089 14.796 16.9424 14.8699 16.7845 14.8843C16.6265 14.8987 16.469 14.8523 16.344 14.7548C16.2191 14.6573 16.1361 14.516 16.112 14.3595C15.5955 8.68971 19.2453 6.72165 19.4005 6.64084C19.5159 6.58072 19.6474 6.55821 19.7764 6.5765C19.9054 6.59478 20.0254 6.65294 20.1196 6.74279C21.0078 7.5453 22.0592 8.14699 23.202 8.50672C24.3449 8.86646 25.552 8.97571 26.7411 8.82709C26.7982 8.81788 26.8562 8.81579 26.9137 8.82087C30.0819 9.14972 31.0496 12.545 31.1182 14.2911C31.1246 14.4556 31.0653 14.6159 30.9534 14.7369C30.8415 14.8579 30.686 14.9296 30.5212 14.9363L30.495 14.9383Z" fill="#188F81"/>
<path d="M41.2182 44.7567H6.2108C6.04553 44.7567 5.88703 44.6912 5.77017 44.5746C5.6533 44.458 5.58765 44.2999 5.58765 44.135V37.2052C5.59211 35.015 6.4671 32.9159 8.02076 31.3683C9.57445 29.8206 11.68 28.9508 13.8756 28.9495H15.072C15.2372 28.9495 15.3958 29.0149 15.5127 29.1315C15.6295 29.2481 15.6952 29.4062 15.6952 29.5711C15.6952 29.736 15.6295 29.8941 15.5127 30.0106C15.3958 30.1272 15.2372 30.1927 15.072 30.1927H13.8756C12.0104 30.1937 10.2216 30.9324 8.90164 32.247C7.58166 33.5615 6.83808 35.3446 6.83395 37.2052V43.5134H40.5951V37.2052C40.5929 35.346 39.8516 33.5636 38.5337 32.249C37.2159 30.9344 35.4291 30.1948 33.5653 30.1927H32.2828C32.1176 30.1927 31.959 30.1272 31.8422 30.0106C31.7254 29.8941 31.6597 29.736 31.6597 29.5711C31.6597 29.4062 31.7254 29.2481 31.8422 29.1315C31.959 29.0149 32.1176 28.9495 32.2828 28.9495H33.5653C35.7593 28.9526 37.8625 29.8234 39.4139 31.3709C40.9653 32.9186 41.8382 35.0166 41.8414 37.2052V44.135C41.8414 44.2999 41.7757 44.458 41.6589 44.5746C41.542 44.6912 41.3834 44.7567 41.2182 44.7567Z" fill="#188F81"/>
<path d="M25.7971 44.7567C25.7074 44.7568 25.6187 44.7375 25.5372 44.7002C25.4556 44.6629 25.3832 44.6085 25.3247 44.5407C25.2661 44.4729 25.223 44.3933 25.1982 44.3073C25.1734 44.2213 25.1674 44.131 25.1807 44.0425L27.7027 27.3937C27.716 27.3056 27.7482 27.2214 27.797 27.1468C27.8458 27.0722 27.9101 27.009 27.9856 26.9613C28.061 26.9137 28.1459 26.8828 28.2344 26.8707C28.3229 26.8587 28.4129 26.8657 28.4984 26.8914L32.8505 28.1999C32.9372 28.2259 33.0171 28.2705 33.0847 28.3306C33.1524 28.3906 33.2061 28.4646 33.2422 28.5474C33.2782 28.6302 33.2958 28.7199 33.2936 28.8102C33.2913 28.9005 33.2694 28.9892 33.2294 29.0701L31.4995 32.5326L32.5028 33.6559C32.5918 33.7561 32.6458 33.8823 32.657 34.0157C32.6683 34.1491 32.636 34.2825 32.5651 34.3962L26.3267 44.4622C26.271 44.5522 26.1929 44.6265 26.1003 44.6781C26.0076 44.7297 25.9032 44.7567 25.7971 44.7567ZM28.8281 28.2887L26.8683 41.2266L31.2633 34.1401L30.2894 33.0491C30.2065 32.9565 30.1533 32.8412 30.1368 32.718C30.1203 32.595 30.1411 32.4697 30.1965 32.3585L31.7843 29.1796L28.8281 28.2887Z" fill="#188F81"/>
<path d="M21.5602 44.7566C21.454 44.7567 21.3495 44.7297 21.2567 44.6781C21.1639 44.6265 21.0859 44.5521 21.0299 44.462L14.7897 34.398C14.7188 34.2843 14.6866 34.1509 14.6978 34.0175C14.709 33.8841 14.7631 33.7579 14.852 33.6576L15.8553 32.5344L14.1254 29.0719C14.0853 28.9909 14.0634 28.9022 14.0612 28.812C14.059 28.7217 14.0766 28.632 14.1127 28.5492C14.1487 28.4664 14.2024 28.3923 14.2701 28.3323C14.3377 28.2723 14.4176 28.2277 14.5043 28.2017L18.8564 26.8932C18.9419 26.8676 19.0319 26.8606 19.1202 26.8727C19.2086 26.8848 19.2934 26.9157 19.3688 26.9634C19.4441 27.011 19.5084 27.0742 19.5572 27.1487C19.606 27.2233 19.6382 27.3074 19.6516 27.3954L22.1747 44.0443C22.1877 44.1325 22.1816 44.2224 22.1568 44.3081C22.1318 44.3936 22.0888 44.4729 22.0306 44.5404C21.9723 44.608 21.9001 44.6623 21.819 44.6996C21.7378 44.7369 21.6496 44.7564 21.5602 44.7566ZM16.0939 34.1382L20.489 41.2246L18.5292 28.2886L15.573 29.1776L17.1602 32.3565C17.2157 32.4677 17.2366 32.5929 17.2202 32.716C17.2037 32.8391 17.1507 32.9545 17.068 33.0472L16.0939 34.1382Z" fill="#188F81"/>
<path d="M23.7249 33.1664C22.3775 33.1655 21.0314 33.0842 19.6937 32.9228C19.6108 32.9152 19.5302 32.8911 19.4568 32.852C19.3832 32.8128 19.3184 32.7592 19.2661 32.6947C19.2137 32.63 19.1748 32.5556 19.1518 32.4757C19.1287 32.3959 19.122 32.3123 19.1318 32.2297C19.1418 32.1473 19.1682 32.0676 19.2095 31.9954C19.2508 31.9233 19.3062 31.8601 19.3724 31.8097C19.4387 31.7593 19.5143 31.7226 19.595 31.7019C19.6756 31.6811 19.7597 31.6767 19.8421 31.6889C22.3888 32.0013 24.9644 32.0013 27.5111 31.6889C27.6736 31.6713 27.8364 31.7181 27.9645 31.8193C28.0928 31.9203 28.176 32.0675 28.1964 32.2292C28.2168 32.3909 28.1728 32.5541 28.0738 32.6837C27.9747 32.8133 27.8287 32.8989 27.6669 32.9222C26.3594 33.0858 25.0427 33.1674 23.7249 33.1664Z" fill="#188F81"/>
<path d="M28.32 28.1079C28.223 28.1076 28.1274 28.0846 28.0409 28.0409C27.9543 27.9972 27.8791 27.9339 27.8215 27.8562C26.8954 26.6074 26.7278 24.132 26.7122 23.8542C26.7027 23.6896 26.759 23.5281 26.8689 23.405C26.9788 23.2819 27.1331 23.2074 27.298 23.1977C27.4625 23.19 27.6235 23.2469 27.7465 23.3561C27.8695 23.4653 27.9447 23.6182 27.956 23.7821C27.9941 24.436 28.2246 26.3102 28.8229 27.1171C28.8912 27.2094 28.9327 27.3189 28.9424 27.4333C28.9522 27.5476 28.9302 27.6625 28.8786 27.7652C28.8269 27.8678 28.7478 27.9541 28.6499 28.0146C28.5521 28.0751 28.4394 28.1074 28.3243 28.1079H28.32Z" fill="#188F81"/>
<path d="M19.0371 28.1081C18.922 28.1075 18.8093 28.0752 18.7115 28.0147C18.6137 27.9542 18.5346 27.8679 18.483 27.7653C18.4313 27.6627 18.4092 27.5477 18.419 27.4334C18.4288 27.319 18.4702 27.2096 18.5386 27.1172C19.138 26.3091 19.368 24.4355 19.406 23.7822C19.4107 23.7005 19.4316 23.6207 19.4673 23.5471C19.503 23.4735 19.5529 23.4076 19.6141 23.3532C19.6753 23.2988 19.7466 23.257 19.8241 23.2301C19.9015 23.2033 19.9834 23.1919 20.0653 23.1966C20.1471 23.2014 20.2272 23.2221 20.301 23.2577C20.3748 23.2934 20.4408 23.3431 20.4954 23.4042C20.5498 23.4652 20.5918 23.5365 20.6187 23.6137C20.6457 23.6909 20.657 23.7726 20.6523 23.8543C20.6367 24.1322 20.4654 26.6075 19.5431 27.8563C19.4846 27.9351 19.4083 27.999 19.3204 28.0427C19.2324 28.0865 19.1354 28.1089 19.0371 28.1081Z" fill="#188F81"/>
<path d="M36.2741 36.0442C36.1119 36.0442 35.9561 35.9813 35.8397 35.8686C35.7234 35.7559 35.6556 35.6023 35.6509 35.4406C35.5344 31.3926 33.9915 30.1189 33.9766 30.1064C33.8478 30.0044 33.7643 29.8562 33.7441 29.6934C33.7238 29.5306 33.7683 29.3665 33.8681 29.2362C33.9673 29.1069 34.1135 29.0219 34.2751 28.9995C34.4367 28.9771 34.6005 29.0193 34.7312 29.1168C34.8134 29.179 36.7608 30.6876 36.8972 35.4045C36.9019 35.5692 36.8409 35.729 36.7276 35.8488C36.6143 35.9686 36.4579 36.0387 36.2928 36.0435L36.2741 36.0442Z" fill="#188F81"/>
<path d="M36.2771 39.7141C35.7899 39.7142 35.3136 39.5702 34.9085 39.3003C34.5033 39.0304 34.1875 38.6467 34.0009 38.1976C33.8144 37.7486 33.7655 37.2545 33.8605 36.7778C33.9555 36.3011 34.1901 35.8632 34.5345 35.5195C34.879 35.1758 35.3179 34.9417 35.7958 34.8468C36.2736 34.752 36.7689 34.8006 37.2191 34.9866C37.6692 35.1725 38.054 35.4875 38.3246 35.8916C38.5954 36.2957 38.7398 36.7708 38.7398 37.2568C38.7392 37.9083 38.4796 38.5328 38.0179 38.9934C37.5561 39.4541 36.9302 39.7133 36.2771 39.7141ZM36.2771 36.0428C36.0365 36.0427 35.8011 36.1138 35.6009 36.2471C35.4006 36.3805 35.2445 36.57 35.1523 36.7918C35.0602 37.0137 35.036 37.2578 35.0829 37.4933C35.1297 37.7289 35.2456 37.9452 35.4158 38.1151C35.586 38.2849 35.8028 38.4006 36.0389 38.4475C36.275 38.4944 36.5198 38.4704 36.7422 38.3785C36.9646 38.2866 37.1547 38.131 37.2884 37.9314C37.4222 37.7317 37.4935 37.497 37.4935 37.2568C37.4933 36.9351 37.365 36.6266 37.137 36.3989C36.909 36.1714 36.5997 36.0433 36.2771 36.0428Z" fill="#188F81"/>
<path d="M10.6792 36.0441C10.5214 36.0446 10.3692 35.9851 10.2535 35.878C10.1378 35.7708 10.0672 35.6238 10.0561 35.4666C9.71643 30.6957 12.3517 29.1709 12.4639 29.1081C12.6079 29.0271 12.7782 29.0064 12.9374 29.0506C13.0966 29.0948 13.2318 29.2004 13.313 29.344C13.3942 29.4876 13.4149 29.6575 13.3705 29.8163C13.3262 29.9752 13.2204 30.1099 13.0765 30.191C12.9818 30.2469 11.0201 31.4547 11.2986 35.3791C11.3103 35.5435 11.256 35.7058 11.1476 35.8303C11.0393 35.9548 10.8858 36.0313 10.721 36.0429L10.6792 36.0441Z" fill="#188F81"/>
<path d="M9.41865 41.0217C9.32216 41.0221 9.22701 41.0002 9.14046 40.9577C9.054 40.9152 8.97853 40.8532 8.92009 40.7767C8.61592 40.3782 8.39183 39.9248 8.26019 39.4415C7.97091 38.5 8.06581 37.4827 8.52427 36.6106C8.9827 35.7386 9.76769 35.0823 10.7086 34.7842C11.1548 34.6591 11.6216 34.6239 12.0817 34.6807C12.5418 34.7374 12.9859 34.8851 13.3881 35.115C14.093 35.5212 14.6568 36.1325 15.0043 36.8669C15.3516 37.6014 15.4661 38.4241 15.3323 39.2252C15.3053 39.3878 15.2145 39.533 15.08 39.6289C14.9456 39.7248 14.7784 39.7635 14.6154 39.7364C14.4523 39.7094 14.3067 39.6188 14.2106 39.4847C14.1145 39.3506 14.0757 39.1839 14.1029 39.0213C14.1943 38.4724 14.1166 37.9087 13.8801 37.4048C13.6435 36.9009 13.2593 36.4805 12.778 36.1991C12.5186 36.0496 12.2318 35.9533 11.9347 35.9156C11.6374 35.8779 11.3356 35.8996 11.0469 35.9796C10.4225 36.1879 9.90559 36.6334 9.60833 37.2195C9.31108 37.8056 9.25752 38.4849 9.45909 39.1102C9.54927 39.441 9.70295 39.7514 9.91153 40.0239C9.98167 40.1161 10.0247 40.2259 10.0357 40.3411C10.0467 40.4563 10.0252 40.5723 9.97378 40.676C9.92226 40.7796 9.8428 40.8669 9.74428 40.928C9.64576 40.989 9.53216 41.0215 9.41616 41.0217H9.41865Z" fill="#188F81"/>
<path d="M14.726 39.7458C14.7017 39.7458 14.6768 39.7458 14.6519 39.7421L13.9496 39.6594C13.8682 39.6497 13.7897 39.6243 13.7183 39.5844C13.6468 39.5444 13.584 39.4908 13.5333 39.4266C13.4827 39.3625 13.4452 39.289 13.423 39.2104C13.4008 39.1318 13.3943 39.0496 13.404 38.9685C13.4137 38.8874 13.4392 38.809 13.4793 38.7377C13.5193 38.6665 13.573 38.6038 13.6373 38.5532C13.7672 38.4512 13.9325 38.4048 14.0967 38.4243L14.7989 38.5075C14.9566 38.5263 15.1012 38.6043 15.2032 38.7258C15.3051 38.8473 15.3567 39.0031 15.3474 39.1612C15.3381 39.3194 15.2686 39.468 15.1531 39.5768C15.0377 39.6856 14.8849 39.7456 14.726 39.7458Z" fill="#188F81"/>
<path d="M9.4187 41.0272C9.27238 41.0274 9.13067 40.9762 9.01831 40.8827C8.90604 40.7891 8.83035 40.6591 8.80449 40.5154C8.77863 40.3717 8.80427 40.2237 8.87696 40.0969C8.94958 39.9702 9.0646 39.8731 9.20179 39.8225L9.94962 39.5471C10.0263 39.5185 10.1079 39.5054 10.1898 39.5082C10.2716 39.5111 10.352 39.53 10.4266 39.5639C10.5011 39.5979 10.5682 39.6461 10.624 39.7059C10.6798 39.7656 10.7233 39.8358 10.7519 39.9123C10.7805 39.9889 10.7938 40.0703 10.7909 40.1519C10.788 40.2336 10.769 40.3138 10.7351 40.3881C10.701 40.4624 10.6527 40.5294 10.5928 40.585C10.5329 40.6407 10.4625 40.6841 10.3858 40.7127L9.638 40.9887C9.56786 41.0145 9.49354 41.0276 9.4187 41.0272Z" fill="#188F81"/>
</svg>
