<svg width="46" height="46" viewBox="0 0 46 46" fill="none" xmlns="http://www.w3.org/2000/svg">
<g clip-path="url(#clip0_49_10486)">
<mask id="mask0_49_10486" style="mask-type:luminance" maskUnits="userSpaceOnUse" x="0" y="0" width="46" height="46">
<path d="M46 0H0V46H46V0Z" fill="white"/>
</mask>
<g mask="url(#mask0_49_10486)">
<path d="M11.2935 11.3198C10.7975 11.3198 10.395 11.7223 10.395 12.2183C10.395 12.7142 10.7975 13.1167 11.2935 13.1167C11.7894 13.1167 12.1919 12.7142 12.1919 12.2183C12.1919 11.7223 11.7894 11.3198 11.2935 11.3198Z" fill="#188F81"/>
<path d="M19.379 28.1197H16.6838V25.4246C16.6838 24.9285 16.2815 24.5261 15.7854 24.5261C15.2892 24.5261 14.887 24.9285 14.887 25.4246V28.1197H12.1918C11.6957 28.1197 11.2935 28.522 11.2935 29.018C11.2935 29.5141 11.6957 29.9165 12.1918 29.9165H14.887V32.6116C14.887 33.1077 15.2893 33.5101 15.7854 33.5101C16.2814 33.5101 16.6838 33.1077 16.6838 32.6116V29.9165H19.379C19.8751 29.9165 20.2773 29.5141 20.2773 29.018C20.2773 28.5219 19.8751 28.1197 19.379 28.1197Z" fill="#188F81"/>
<path d="M43.6262 28.9282C41.6401 25.4885 37.249 24.3113 33.8086 26.2977L30.1593 28.4045V20.6029C30.1593 19.6384 29.8404 18.6813 29.2609 17.9077L24.769 11.9187V9.36836C25.8146 8.99752 26.5658 7.99894 26.5658 6.82767V2.69513C26.5656 1.20903 25.3566 0 23.8705 0H7.69943C6.21334 0 5.00422 1.20903 5.00422 2.69513V6.82776C5.00422 7.99886 5.7554 8.9976 6.801 9.36844V11.9188L2.30873 17.9082C1.72959 18.6814 1.41064 19.6384 1.41064 20.6029V38.0021C1.41064 40.4789 3.42575 42.494 5.90257 42.494H20.3406C22.355 45.8705 26.6986 47.0006 30.1034 45.0346L40.9957 38.7458C44.4057 36.7766 45.6221 32.3868 43.6262 28.9282ZM6.801 2.69513C6.801 2.19974 7.20405 1.7967 7.69935 1.7967H23.8704C24.3658 1.7967 24.7689 2.19974 24.7689 2.69513V6.82776C24.7689 7.32316 24.3658 7.72608 23.8704 7.72608H7.69943C7.20404 7.72608 6.80109 7.32308 6.80109 6.82776L6.801 2.69513ZM3.74659 18.9857L8.4181 12.7572C8.53471 12.6018 8.59781 12.4126 8.59781 12.2181V9.523H22.972V11.3198H14.8865C14.3904 11.3198 13.9882 11.7221 13.9882 12.2182C13.9882 12.7143 14.3904 13.1167 14.8865 13.1167H23.4213L27.823 18.9854C28.1107 19.3695 28.2894 19.8291 28.3434 20.3038H3.22657C3.28048 19.829 3.45918 19.3694 3.74659 18.9857ZM5.90265 40.6971C4.41655 40.6971 3.20752 39.4882 3.20752 38.0021V37.0947H19.5299C19.245 38.2595 19.2469 39.5037 19.5731 40.6973L5.90265 40.6971ZM20.2345 35.3068H3.20744V22.1004H28.3624V29.4418L22.9162 32.5865C21.7806 33.2424 20.8628 34.1762 20.2345 35.3068ZM29.2052 43.4785C26.6269 44.9673 23.3324 44.0869 21.8426 41.5068C20.3457 38.9019 21.2528 35.6222 23.8148 34.1424L28.6912 31.3269L34.0816 40.663L29.2052 43.4785ZM40.0973 37.1898L35.6377 39.7647L30.2472 30.4284L34.7069 27.8538C37.2869 26.3644 40.5803 27.2463 42.0701 29.8265C43.5664 32.4196 42.6564 35.712 40.0973 37.1898Z" fill="#188F81"/>
</g>
</g>
<defs>
<clipPath id="clip0_49_10486">
<rect width="46" height="46" fill="white"/>
</clipPath>
</defs>
</svg>
