<svg width="46" height="46" viewBox="0 0 46 46" fill="none" xmlns="http://www.w3.org/2000/svg">
<g clip-path="url(#clip0_50_14169)">
<path d="M21.4666 22.2263H18.4C18.1966 22.2263 18.0016 22.3071 17.8579 22.4509C17.7141 22.5946 17.6333 22.7897 17.6333 22.993C17.6333 23.1963 17.7141 23.3913 17.8579 23.5351C18.0016 23.6789 18.1966 23.7597 18.4 23.7597H21.4666C21.67 23.7597 21.865 23.6789 22.0087 23.5351C22.1525 23.3913 22.2333 23.1963 22.2333 22.993C22.2333 22.7897 22.1525 22.5946 22.0087 22.4509C21.865 22.3071 21.67 22.2263 21.4666 22.2263Z" fill="#188F81"/>
<path d="M20.6999 24.5264H19.1666C18.9632 24.5264 18.7682 24.6071 18.6245 24.7509C18.4807 24.8947 18.3999 25.0897 18.3999 25.293C18.3999 25.4964 18.4807 25.6914 18.6245 25.8352C18.7682 25.9789 18.9632 26.0597 19.1666 26.0597H20.6999C20.9032 26.0597 21.0982 25.9789 21.242 25.8352C21.3858 25.6914 21.4666 25.4964 21.4666 25.293C21.4666 25.0897 21.3858 24.8947 21.242 24.7509C21.0982 24.6071 20.9032 24.5264 20.6999 24.5264Z" fill="#188F81"/>
<path d="M17.6333 16.0931C17.6333 15.8898 17.5525 15.6947 17.4088 15.551C17.265 15.4072 17.07 15.3264 16.8667 15.3264H15.3333C15.13 15.3264 14.935 15.4072 14.7912 15.551C14.6474 15.6947 14.5667 15.8898 14.5667 16.0931C14.5667 16.2964 14.6474 16.4914 14.7912 16.6352C14.935 16.779 15.13 16.8597 15.3333 16.8597C15.3333 17.0631 15.4141 17.2581 15.5579 17.4019C15.7016 17.5456 15.8967 17.6264 16.1 17.6264C16.3033 17.6264 16.4983 17.5456 16.6421 17.4019C16.7859 17.2581 16.8667 17.0631 16.8667 16.8597C17.07 16.8597 17.265 16.779 17.4088 16.6352C17.5525 16.4914 17.6333 16.2964 17.6333 16.0931Z" fill="#188F81"/>
<path d="M24.5334 15.3264H23.0001C22.7967 15.3264 22.6017 15.4072 22.4579 15.551C22.3142 15.6947 22.2334 15.8898 22.2334 16.0931C22.2334 16.2964 22.3142 16.4914 22.4579 16.6352C22.6017 16.779 22.7967 16.8597 23.0001 16.8597C23.0001 17.0631 23.0808 17.2581 23.2246 17.4019C23.3684 17.5456 23.5634 17.6264 23.7667 17.6264C23.9701 17.6264 24.1651 17.5456 24.3088 17.4019C24.4526 17.2581 24.5334 17.0631 24.5334 16.8597C24.7367 16.8597 24.9317 16.779 25.0755 16.6352C25.2193 16.4914 25.3001 16.2964 25.3001 16.0931C25.3001 15.8898 25.2193 15.6947 25.0755 15.551C24.9317 15.4072 24.7367 15.3264 24.5334 15.3264Z" fill="#188F81"/>
<path d="M19.1666 20.693H20.6999C20.9032 20.693 21.0982 20.6122 21.242 20.4685C21.3858 20.3247 21.4666 20.1297 21.4666 19.9263C21.4666 19.723 21.3858 19.528 21.242 19.3842C21.0982 19.2404 20.9032 19.1597 20.6999 19.1597H19.1666C18.9632 19.1597 18.7682 19.2404 18.6245 19.3842C18.4807 19.528 18.3999 19.723 18.3999 19.9263C18.3999 20.1297 18.4807 20.3247 18.6245 20.4685C18.7682 20.6122 18.9632 20.693 19.1666 20.693Z" fill="#188F81"/>
<path d="M17.6334 14.5597C17.8367 14.5597 18.0317 14.4789 18.1755 14.3351C18.3193 14.1914 18.4 13.9964 18.4 13.793C18.4 13.5897 18.3193 13.3947 18.1755 13.2509C18.0317 13.1071 17.8367 13.0264 17.6334 13.0264H14.5667C14.3634 13.0264 14.1684 13.1071 14.0246 13.2509C13.8808 13.3947 13.8 13.5897 13.8 13.793C13.8 13.9964 13.8808 14.1914 14.0246 14.3351C14.1684 14.4789 14.3634 14.5597 14.5667 14.5597H17.6334Z" fill="#188F81"/>
<path d="M22.2332 14.5597H25.2999C25.5032 14.5597 25.6982 14.4789 25.842 14.3351C25.9858 14.1914 26.0666 13.9964 26.0666 13.793C26.0666 13.5897 25.9858 13.3947 25.842 13.2509C25.6982 13.1071 25.5032 13.0264 25.2999 13.0264H22.2332C22.0299 13.0264 21.8349 13.1071 21.6911 13.2509C21.5473 13.3947 21.4666 13.5897 21.4666 13.793C21.4666 13.9964 21.5473 14.1914 21.6911 14.3351C21.8349 14.4789 22.0299 14.5597 22.2332 14.5597Z" fill="#188F81"/>
<path d="M43.7 3.0666H42.09C41.914 2.20005 41.4439 1.42097 40.7593 0.86138C40.0746 0.301788 39.2176 -0.00390625 38.3333 -0.00390625C37.4491 -0.00390625 36.592 0.301788 35.9074 0.86138C35.2228 1.42097 34.7526 2.20005 34.5767 3.0666H32.9667C32.4489 3.06777 31.9466 3.24363 31.5412 3.56573C31.1357 3.88782 30.8508 4.33731 30.7326 4.84144C28.5491 1.53327 24.232 -6.32848e-05 19.9333 -6.32848e-05C14.7675 -6.32848e-05 13.0387 2.10674 12.5059 3.1195C11.1527 3.338 7.66667 4.4397 7.66667 9.9666V16.8666C7.66825 17.749 7.9742 18.6038 8.53289 19.2868C9.09157 19.9698 9.86878 20.4391 10.7333 20.6156V21.6046C10.7338 22.1513 10.8511 22.6915 11.0775 23.1891C11.3038 23.6867 11.634 24.1301 12.0459 24.4896L13.9204 26.1287C14.1126 27.6872 13.8847 29.2687 13.2603 30.7095C11.3252 30.915 4.7127 31.7629 2.52693 33.9502C0.437767 36.0371 0 40.8211 0 44.4666C0 44.8733 0.161547 45.2633 0.449103 45.5508C0.736659 45.8384 1.12667 45.9999 1.53333 45.9999H38.3333C38.74 45.9999 39.13 45.8384 39.4176 45.5508C39.7051 45.2633 39.8667 44.8733 39.8667 44.4666C39.8667 44.2159 39.8667 43.9598 39.8598 43.6999H40.6333C41.4467 43.6999 42.2267 43.3768 42.8018 42.8017C43.3769 42.2266 43.7 41.4466 43.7 40.6333V32.9666C43.7 32.1533 43.3769 31.3733 42.8018 30.7981C42.2267 30.223 41.4467 29.8999 40.6333 29.8999C40.2267 29.8999 39.8367 29.7384 39.5491 29.4508C39.2615 29.1633 39.1 28.7733 39.1 28.3666V27.5999H40.6333C41.2433 27.5999 41.8283 27.3576 42.2597 26.9263C42.691 26.4949 42.9333 25.9099 42.9333 25.2999V24.5333H43.7C44.31 24.5333 44.895 24.291 45.3263 23.8596C45.7577 23.4283 46 22.8433 46 22.2333V5.3666C46 4.75661 45.7577 4.17159 45.3263 3.74026C44.895 3.30892 44.31 3.0666 43.7 3.0666ZM32.9667 4.59994H35.2667C35.47 4.59994 35.665 4.51916 35.8088 4.37539C35.9526 4.23161 36.0333 4.0366 36.0333 3.83327C36.0333 3.22327 36.2757 2.63826 36.707 2.20692C37.1383 1.77559 37.7233 1.53327 38.3333 1.53327C38.9433 1.53327 39.5283 1.77559 39.9597 2.20692C40.391 2.63826 40.6333 3.22327 40.6333 3.83327C40.6333 4.0366 40.7141 4.23161 40.8579 4.37539C41.0017 4.51916 41.1967 4.59994 41.4 4.59994H43.7C43.9033 4.59994 44.0983 4.68071 44.2421 4.82449C44.3859 4.96827 44.4667 5.16327 44.4667 5.3666V9.9666H32.2V8.43327H34.5C34.7033 8.43327 34.8983 8.3525 35.0421 8.20872C35.1859 8.06494 35.2667 7.86994 35.2667 7.6666C35.2667 7.46327 35.1859 7.26827 35.0421 7.12449C34.8983 6.98071 34.7033 6.89994 34.5 6.89994H32.2V5.3666C32.2 5.16327 32.2808 4.96827 32.4245 4.82449C32.5683 4.68071 32.7633 4.59994 32.9667 4.59994ZM13.0333 4.59994C13.2008 4.5967 13.3629 4.54008 13.496 4.43831C13.6291 4.33654 13.7262 4.19494 13.7732 4.03414C13.8 3.92987 14.5667 1.53327 19.9333 1.53327C24.8845 1.53327 30.6667 3.7405 30.6667 9.9666V13.8275C30.2034 13.4721 29.6646 13.2279 29.0919 13.1138C29.04 12.4869 28.8389 11.8814 28.5055 11.348C28.1721 10.8146 27.716 10.3685 27.1753 10.0471C27.0406 9.97738 26.8878 9.95062 26.7375 9.97044C22.6351 10.4833 21.482 9.93824 19.5715 9.03587C18.5251 8.5218 17.4461 8.07694 16.3415 7.70417C15.7862 7.47357 15.1822 7.38485 14.5841 7.44602C13.9859 7.50719 13.4124 7.71632 12.9153 8.05454C11.2508 9.2536 10.8545 11.8434 10.7609 13.1145C10.1935 13.2292 9.65964 13.4717 9.2 13.8237V9.9666C9.2 4.7985 12.6454 4.60377 13.0333 4.59994ZM12.2667 21.6046V19.9256C12.2667 19.7223 12.1859 19.5273 12.0421 19.3835C11.8983 19.2397 11.7033 19.1589 11.5 19.1589C10.9571 19.1646 10.43 18.9768 10.0129 18.6292C9.59585 18.2817 9.31616 17.797 9.22392 17.2619C9.13168 16.7269 9.2329 16.1765 9.50948 15.7094C9.78605 15.2422 10.2199 14.8887 10.7333 14.7123V16.0923C10.7333 16.2956 10.8141 16.4906 10.9579 16.6344C11.1017 16.7782 11.2967 16.8589 11.5 16.8589C11.7033 16.8589 11.8983 16.7782 12.0421 16.6344C12.1859 16.4906 12.2667 16.2956 12.2667 16.0923V13.8076V13.7999V13.7923C12.2667 12.8485 12.5503 10.1989 13.8138 9.2904C14.1177 9.07379 14.4834 8.96112 14.8565 8.96917C15.1979 8.97644 15.5359 9.0383 15.8577 9.1524C16.9039 9.50701 17.9259 9.92905 18.9175 10.4159C20.8871 11.3466 22.3215 12.0259 26.6478 11.5199C26.973 11.8013 27.2282 12.1545 27.3935 12.5515C27.5587 12.9486 27.6294 13.3786 27.6 13.8076V16.0923C27.6 16.2956 27.6808 16.4906 27.8246 16.6344C27.9683 16.7782 28.1633 16.8589 28.3667 16.8589C28.57 16.8589 28.765 16.7782 28.9088 16.6344C29.0526 16.4906 29.1333 16.2956 29.1333 16.0923V14.7123C29.6468 14.8887 30.0806 15.2422 30.3572 15.7094C30.6338 16.1765 30.735 16.7269 30.6427 17.2619C30.5505 17.797 30.2708 18.2817 29.8538 18.6292C29.4367 18.9768 28.9095 19.1646 28.3667 19.1589C28.1633 19.1589 27.9683 19.2397 27.8246 19.3835C27.6808 19.5273 27.6 19.7223 27.6 19.9256V21.6046C27.5996 21.9325 27.529 22.2566 27.3931 22.555C27.2572 22.8535 27.059 23.1194 26.8119 23.335L22.5952 27.0242C22.1771 27.3906 21.64 27.5925 21.0841 27.5923H18.7841C18.2277 27.5924 17.6902 27.3899 17.2722 27.0226L13.0556 23.335C12.8083 23.1195 12.61 22.8536 12.4739 22.5551C12.3378 22.2567 12.2672 21.9326 12.2667 21.6046ZM16.2618 28.1757C16.959 28.7881 17.8553 29.1257 18.7833 29.1256H21.0833C22.0108 29.1258 22.9067 28.7887 23.6041 28.1772L24.3509 27.5248C24.3989 28.8176 24.6777 30.0914 25.1743 31.2861C24.61 31.835 23.0767 32.9597 19.9333 32.9597C16.79 32.9597 15.249 31.8319 14.6916 31.2868C15.1887 30.0915 15.4681 28.8169 15.5166 27.5233L16.2618 28.1757ZM3.6087 35.0366C5.24323 33.4028 10.9534 32.4974 13.4772 32.2314C14.1672 32.9612 16.0747 34.4953 19.9333 34.4953C23.792 34.4953 25.6987 32.962 26.3894 32.2314C28.9133 32.4974 34.6234 33.4028 36.258 35.0366C36.9978 35.7772 37.5613 37.1833 37.9124 39.0999H32.9667V38.3333C32.9667 38.1299 32.8859 37.9349 32.7421 37.7912C32.5983 37.6474 32.4033 37.5666 32.2 37.5666C31.9967 37.5666 31.8017 37.6474 31.6579 37.7912C31.5141 37.9349 31.4333 38.1299 31.4333 38.3333V44.4666H8.43333V38.3333C8.43333 38.1299 8.35256 37.9349 8.20878 37.7912C8.065 37.6474 7.87 37.5666 7.66667 37.5666C7.46333 37.5666 7.26833 37.6474 7.12455 37.7912C6.98077 37.9349 6.9 38.1299 6.9 38.3333V39.0999H1.95423C2.30613 37.1833 2.86887 35.7749 3.6087 35.0366ZM1.7319 40.6333H6.9V44.4666H1.53333C1.52839 43.1861 1.59468 41.9064 1.7319 40.6333ZM38.3333 44.4666H32.9667V40.6333H38.1348C38.1892 41.1209 38.2329 41.6299 38.2651 42.1666H37.5667C37.3633 42.1666 37.1683 42.2474 37.0246 42.3912C36.8808 42.5349 36.8 42.7299 36.8 42.9333C36.8 43.1366 36.8808 43.3316 37.0246 43.4754C37.1683 43.6192 37.3633 43.6999 37.5667 43.6999H38.3257C38.3333 43.9522 38.3333 44.2067 38.3333 44.4666ZM40.6333 31.4333C41.04 31.4333 41.43 31.5948 41.7176 31.8824C42.0051 32.1699 42.1667 32.5599 42.1667 32.9666V40.6333C42.1667 41.0399 42.0051 41.4299 41.7176 41.7175C41.43 42.0051 41.04 42.1666 40.6333 42.1666H39.803C39.6236 39.0102 39.0103 35.6185 37.342 33.9502C35.154 31.7629 28.5415 30.915 26.6087 30.7095C25.9843 29.269 25.7564 27.6877 25.9486 26.1295L27.8231 24.4896C28.2345 24.1299 28.5643 23.6864 28.7902 23.1888C29.0162 22.6912 29.1332 22.1511 29.1333 21.6046V20.6156C29.6909 20.4981 30.2149 20.2568 30.6667 19.9095V22.2333C30.6667 22.8433 30.909 23.4283 31.3403 23.8596C31.7717 24.291 32.3567 24.5333 32.9667 24.5333H33.7333V25.2999C33.7333 25.9099 33.9757 26.4949 34.407 26.9263C34.8383 27.3576 35.4233 27.5999 36.0333 27.5999H37.5667V28.3666C37.5667 29.1799 37.8898 29.96 38.4649 30.5351C39.04 31.1102 39.82 31.4333 40.6333 31.4333ZM41.4 25.2999C41.4 25.5033 41.3192 25.6983 41.1754 25.8421C41.0317 25.9858 40.8367 26.0666 40.6333 26.0666H36.0333C35.83 26.0666 35.635 25.9858 35.4912 25.8421C35.3474 25.6983 35.2667 25.5033 35.2667 25.2999V24.5333H41.4V25.2999ZM43.7 22.9999H32.9667C32.7633 22.9999 32.5683 22.9192 32.4245 22.7754C32.2808 22.6316 32.2 22.4366 32.2 22.2333V20.6999H34.5C34.7033 20.6999 34.8983 20.6192 35.0421 20.4754C35.1859 20.3316 35.2667 20.1366 35.2667 19.9333C35.2667 19.7299 35.1859 19.5349 35.0421 19.3912C34.8983 19.2474 34.7033 19.1666 34.5 19.1666H32.2V17.6333H33.7333C33.9367 17.6333 34.1317 17.5525 34.2754 17.4087C34.4192 17.2649 34.5 17.0699 34.5 16.8666C34.5 16.6633 34.4192 16.4683 34.2754 16.3245C34.1317 16.1807 33.9367 16.0999 33.7333 16.0999H32.2V14.5666H34.5C34.7033 14.5666 34.8983 14.4858 35.0421 14.3421C35.1859 14.1983 35.2667 14.0033 35.2667 13.7999C35.2667 13.5966 35.1859 13.4016 35.0421 13.2578C34.8983 13.114 34.7033 13.0333 34.5 13.0333H32.2V11.4999H44.4667V22.2333C44.4667 22.4366 44.3859 22.6316 44.2421 22.7754C44.0983 22.9192 43.9033 22.9999 43.7 22.9999Z" fill="#188F81"/>
</g>
<defs>
<clipPath id="clip0_50_14169">
<rect width="46" height="46" fill="white"/>
</clipPath>
</defs>
</svg>
