<svg width="458" height="78" viewBox="0 0 458 78" fill="none" xmlns="http://www.w3.org/2000/svg">
<path d="M8.64799 13.4324C8.70564 12.9712 9.05157 12.6253 9.6281 12.6253H10.4929C10.9541 12.6253 11.2424 12.8559 11.4154 13.2018L23.5226 39.1441C23.6379 39.1441 23.6379 39.1441 23.6956 39.1441L35.8028 13.2018C35.9758 12.8559 36.264 12.6253 36.7253 12.6253H37.5901C38.1666 12.6253 38.5125 13.0288 38.5702 13.4324L45.0274 50.3858C45.2004 51.1353 44.7391 51.6541 44.0473 51.6541H39.0314C38.5125 51.6541 38.109 51.1929 37.9937 50.847L34.8227 29.9778C34.7651 29.9778 34.6497 29.9778 34.6497 29.9778L25.0216 51.5965C24.9063 51.9424 24.5604 52.173 24.0991 52.173H23.119C22.6002 52.173 22.3695 51.8847 22.1966 51.5965L12.4531 29.9778C12.4531 29.9778 12.3378 29.9778 12.2802 29.9778L9.10922 50.7894C9.05157 51.1929 8.59034 51.5965 8.12911 51.5965H3.1709C2.47906 51.5965 2.01783 51.0776 2.13314 50.3282L8.64799 13.4324Z" fill="#0B4256"/>
<path d="M59.1526 33.1486L46.6418 14.7583C46.1806 14.0665 46.6418 13.1441 47.5066 13.1441H53.099C53.5602 13.1441 53.7908 13.4324 53.9638 13.663L62.7848 26.2882L71.6058 13.663C71.7787 13.4324 72.067 13.1441 72.4706 13.1441H78.1206C78.9854 13.1441 79.4467 14.0089 78.9854 14.7583L66.3017 33.0333V50.5588C66.3017 51.1353 65.7828 51.5965 65.2639 51.5965H60.1904C59.6138 51.5965 59.1526 51.0776 59.1526 50.5588V33.1486Z" fill="#0B4256"/>
<path d="M87.2874 14.2395C87.2874 13.663 87.7486 13.2018 88.3251 13.2018H101.24C107.985 13.2018 113.577 18.6785 113.577 25.3659C113.577 32.1685 108.043 37.7605 101.297 37.7605H94.4364V50.6741C94.4364 51.2506 93.9175 51.7118 93.3986 51.7118H88.3251C87.7486 51.7118 87.2874 51.1929 87.2874 50.6741V14.2395ZM100.836 30.9579C103.892 30.9579 106.486 28.4789 106.486 25.2506C106.486 22.2528 103.892 19.9468 100.836 19.9468H94.4364V31.0155H100.836V30.9579Z" fill="#0B4256"/>
<path d="M119.862 14.2395C119.862 13.663 120.38 13.2018 120.899 13.2018H126.031C126.607 13.2018 127.068 13.7206 127.068 14.2395V28.8248H144.999V14.2395C144.999 13.663 145.46 13.2018 146.036 13.2018H151.11C151.686 13.2018 152.148 13.7206 152.148 14.2395V50.6164C152.148 51.1929 151.629 51.6541 151.11 51.6541H146.036C145.46 51.6541 144.999 51.1353 144.999 50.6164V35.4545H127.068V50.6164C127.068 51.1929 126.607 51.6541 126.031 51.6541H120.899C120.323 51.6541 119.862 51.1353 119.862 50.6164V14.2395Z" fill="#0B4256"/>
<path d="M157.106 50.2129L174.171 13.2594C174.344 12.9135 174.633 12.6829 175.094 12.6829H175.67C176.247 12.6829 176.42 12.9712 176.593 13.2594L193.543 50.2705C193.889 50.9623 193.428 51.7117 192.621 51.7117H187.835C187.028 51.7117 186.625 51.3658 186.221 50.6164L183.511 44.6785H167.08L164.37 50.6164C164.14 51.1929 163.678 51.7117 162.756 51.7117H157.971C157.221 51.6541 156.76 50.9623 157.106 50.2129ZM180.859 38.51L175.382 26.4035H175.209L169.847 38.51H180.859Z" fill="#0B4256"/>
<path d="M198.559 14.2395C198.559 13.663 199.02 13.2018 199.597 13.2018H215.336C221.909 13.2018 227.328 18.5055 227.328 25.02C227.328 30.0931 223.984 34.1863 219.199 36.1463L226.751 50.0976C227.155 50.7894 226.751 51.7118 225.829 51.7118H220.064C219.545 51.7118 219.314 51.4235 219.199 51.1929L211.877 36.6075H205.766V50.6164C205.766 51.1929 205.247 51.6541 204.728 51.6541H199.654C199.078 51.6541 198.616 51.1353 198.616 50.6164V14.2395H198.559ZM214.702 30.7273C217.642 30.7273 220.121 28.1907 220.121 25.1353C220.121 22.1951 217.585 19.8315 214.702 19.8315H205.766V30.7849H214.702V30.7273Z" fill="#0B4256"/>
<path d="M239.147 13.4324C239.204 12.9712 239.55 12.6253 240.127 12.6253H240.992C241.453 12.6253 241.741 12.8559 241.914 13.2018L254.021 39.1441C254.137 39.1441 254.137 39.1441 254.194 39.1441L266.302 13.2018C266.475 12.8559 266.763 12.6253 267.224 12.6253H268.089C268.665 12.6253 269.011 13.0288 269.069 13.4324L275.584 50.3858C275.757 51.1353 275.296 51.6541 274.604 51.6541H269.588C269.069 51.6541 268.665 51.1929 268.55 50.847L265.321 29.9778C265.264 29.9778 265.149 29.9778 265.149 29.9778L255.52 51.5965C255.405 51.9424 255.059 52.173 254.598 52.173H253.618C253.099 52.173 252.868 51.8847 252.695 51.5965L242.952 29.9778C242.952 29.9778 242.837 29.9778 242.779 29.9778L239.608 50.7894C239.55 51.1929 239.089 51.5965 238.628 51.5965H233.67C232.978 51.5965 232.517 51.0776 232.632 50.3282L239.147 13.4324Z" fill="#0B4256"/>
<path d="M278.121 50.2129L295.244 13.2594C295.417 12.9135 295.705 12.6829 296.166 12.6829H296.743C297.319 12.6829 297.492 12.9712 297.665 13.2594L314.615 50.2705C314.961 50.9623 314.5 51.7117 313.693 51.7117H308.908C308.1 51.7117 307.697 51.3658 307.293 50.6164L304.584 44.6785H288.152L285.443 50.6164C285.212 51.1929 284.751 51.7117 283.828 51.7117H279.043C278.236 51.6541 277.775 50.9623 278.121 50.2129ZM301.874 38.51L296.397 26.4035H296.224L290.862 38.51H301.874Z" fill="#0B4256"/>
<path d="M327.069 47.6763C331.104 42.3725 341.482 28.306 345.575 22.0222C346.498 20.6386 347.42 18.6785 347.42 16.7184C347.42 14.0665 345.172 11.7029 341.251 11.7029C338.369 11.7029 335.774 13.7206 334.448 15.2195C333.872 15.796 333.065 15.796 332.488 15.2195L328.222 10.8958C327.76 10.4922 327.645 9.62749 328.164 9.051C328.164 9.051 333.814 2.19069 342.116 2.19069C352.09 2.19069 357.971 8.53215 357.971 16.3149C357.971 20.0044 356.933 22.1375 355.261 25.4235C353.07 29.4013 347.363 36.8958 344.076 41.5078H356.357C357.048 41.5078 357.683 42.1419 357.683 42.8337V49.1175C357.683 49.8093 357.048 50.4435 356.357 50.4435H328.395C327.645 50.4435 327.069 49.8093 327.069 49.1175V47.6763Z" fill="#188F81"/>
<path d="M428.77 2.76719C421.39 2.76719 414.76 5.82262 409.975 10.6652C413.203 13.9512 415.625 18.1596 416.778 22.7716L416.893 23.3481C416.893 23.3481 416.893 23.3481 416.893 23.4058C419.084 18.7938 423.811 15.6231 429.289 15.6231C436.899 15.6231 443.01 21.7916 443.01 29.3437C443.01 36.8958 436.841 43.0643 429.289 43.0643C421.967 43.0643 415.913 37.357 415.452 30.1508C415.279 29.459 415.221 28.306 415.221 28.306C415.221 28.306 414.99 19.4856 408.706 11.9911L408.649 12.0488C403.806 6.34146 396.599 2.65189 388.47 2.65189C373.883 2.65189 362.064 14.4701 362.064 29.0554C362.064 43.6408 373.883 55.459 388.47 55.459C393.659 55.459 398.502 53.9601 402.595 51.3659H402.537L402.48 52C401.615 58.8027 395.792 64.0488 388.758 64.0488C384.722 64.0488 381.09 62.3193 378.553 59.5521L369.617 68.4302C374.402 73.4457 381.205 76.6164 388.7 76.6164C402.018 76.6164 413.03 66.7583 414.817 53.9601C414.817 53.9601 414.817 53.9601 414.817 54.0177C409.167 52.1153 402.249 43.1796 400.865 34.8204C398.674 39.5477 393.947 42.8337 388.412 42.8337C380.802 42.8337 374.691 36.6652 374.691 29.1131C374.691 21.5033 380.86 15.3925 388.412 15.3925C395.734 15.3925 401.73 21.1574 402.134 28.3636C402.134 28.2483 402.134 28.133 402.134 28.133C402.134 28.1907 402.249 29.2284 402.422 30.439C403.114 44.3903 414.587 55.5743 428.77 55.5743C443.356 55.5743 455.175 43.7561 455.175 29.1707C455.175 14.5854 443.356 2.76719 428.77 2.76719Z" fill="#188F81"/>
</svg>
