<?xml version="1.0" encoding="utf-8"?>
<!-- Generator: Adobe Illustrator 24.3.0, SVG Export Plug-In . SVG Version: 6.00 Build 0)  -->
<svg version="1.1" id="Camada_1" xmlns="http://www.w3.org/2000/svg" xmlns:xlink="http://www.w3.org/1999/xlink" x="0px" y="0px"
	 viewBox="0 0 532.5 218.1" style="enable-background:new 0 0 532.5 218.1;" xml:space="preserve">
<style type="text/css">
	.st0{fill-rule:evenodd;clip-rule:evenodd;fill:#ABC84A;stroke:#ABC84A;stroke-width:2.4978;stroke-miterlimit:10;}
	.st1{fill:#336E2E;}
	.st2{fill:#253B1F;}
</style>
<g>
	<path class="st0" d="M266.3,10.4c39.1,0,70.8,31.7,70.8,70.8c0,10.2-2.1,19.8-6,28.6c-1.1,2.5-3.6,4.2-6.4,4.2l0,0l-0.4-0.2
		c5.7-10,8.8-21.6,8.5-34c-0.7-33.8-27.3-62.2-61-64.9c-39.2-3.2-72,27.7-72,66.3c0,11.9,3.1,23,8.5,32.6l-0.4,0.2h0
		c-2.8,0-5.3-1.6-6.4-4.2c-3.8-8.8-6-18.4-6-28.6C195.5,42.1,227.2,10.4,266.3,10.4"/>
	<g>
		<path class="st1" d="M266.4,34.9c-1.2,2.7-2.1,5.4-2.9,8.3c-0.9,3.5-1.5,7.2-1.9,11.1c-0.3,4.2-0.4,8.6-0.1,13.2
			c0.3,4.6,0.9,9.5,1.9,14.6l0.8,4l0.8,4l-2-3.6l-2-3.6c-1.7-3.2-3.7-6.2-5.8-8.9s-4.5-5.2-7-7.5c-2.4-2.1-5-4-7.7-5.7
			c-2.3-1.5-4.8-2.7-7.5-3.9c1.1,2.9,2.4,5.7,3.9,8.2c1.6,3,3.4,5.7,5.5,8.3c2.1,2.7,4.5,5.2,7,7.4c2.6,2.2,5.3,4.2,8.3,5.9l3.3,2
			l3.3,2c-7.2-2.7-12.2-3.7-18-9c-2.2-2.1-4.3-4.3-6.1-6.7c-2.2-2.8-4.2-5.9-6-9.2c-1.8-3.3-3.3-6.9-4.7-10.8l-0.4-1.4l-0.4-1.4
			l1.3,0.5l1.3,0.5c3.5,1.4,6.9,3.1,9.9,5s6,4,8.6,6.4c2.2,2,4.3,4.1,6.3,6.4c1.1,1.4,2.1,2.7,3.2,4.2c-0.5-3.4-0.9-6.7-1-9.8l0,0
			c-0.3-4.3-0.2-8.3,0.2-12.1c0.4-4.3,1.1-8.3,2.3-12c1.1-3.8,2.7-7.2,4.5-10.3l0.6-1l0.5-0.9l0.1-0.1l0.1,0.1l0.5,0.9l0.6,1
			c1.9,3.2,3.4,6.6,4.5,10.3c1.1,3.7,1.9,7.7,2.3,12c0.3,3.8,0.4,7.8,0.2,12.1l0,0c-0.2,3.2-0.5,6.4-1,9.8c1-1.5,2.1-2.8,3.2-4.2
			c2-2.3,4-4.5,6.3-6.4c2.7-2.4,5.6-4.5,8.6-6.4c3.1-1.9,6.4-3.5,9.9-5l1.3-0.5l1.3-0.5l-0.4,1.4l-0.4,1.4
			c-1.4,3.9-2.9,7.5-4.7,10.8c-1.8,3.3-3.8,6.4-6,9.2c-1.9,2.4-3.9,4.6-6.1,6.7c-5.7,5.3-10.7,6.3-18,9l3.3-2l3.3-2
			c3-1.7,5.7-3.7,8.3-5.9c2.6-2.2,4.9-4.7,7-7.4c2-2.6,3.9-5.3,5.5-8.3c1.4-2.6,2.7-5.3,3.9-8.2c-2.6,1.2-5.1,2.5-7.5,3.9
			c-2.7,1.7-5.3,3.6-7.7,5.7c-2.6,2.3-4.9,4.8-7,7.5c-2.1,2.7-4,5.7-5.8,8.9l-2,3.6l-2,3.6l0.8-4l0.8-4c0.9-5.1,1.5-9.9,1.9-14.6
			c0.3-4.6,0.3-9-0.1-13.2c-0.3-3.9-0.9-7.6-1.9-11.1C268.5,40.4,267.6,37.6,266.4,34.9"/>
		<path class="st1" d="M302.2,88.8c-1.7-0.5-3.5-0.9-5.4-1c-2.2-0.3-4.6-0.3-7-0.2c-2.1,0.1-18.1,2-20.3,2.5
			c1.3-0.8,15.9-3.8,17.9-4.4c1.2-0.2,2-0.4,3-0.5c2.7-0.2,5,0.2,7.4,0.6c2.4,0.3,4.6,1,6.8,1.9l0.7,0.3l0.6,0.3h0.1l-0.1,0.1
			l-0.5,0.4l-0.6,0.4c-1.8,1.5-3.8,2.7-6,3.8c-2.2,1-4.6,1.9-7.2,2.5c-2.3,0.5-4.8,0.9-7.5,1.1l0,0c-2,0.2-4,0.3-6.2,0.3
			c0.9,0.5,2,1,2.8,1.6c1.6,1,3.1,2.1,4.5,3.3c1.7,1.5,3.3,3,4.7,4.8c1.5,1.7,2.7,3.7,3.9,5.7l0.4,0.8l0.4,0.8l-0.9-0.2l-0.9-0.2
			c-2.5-0.5-4.9-1.1-7.1-2c-2.2-0.8-4.3-1.8-6.3-2.9c-1.6-0.9-3.2-2-4.6-3.2c-3.8-3.1-4.8-6.1-7.2-10.3l1.5,1.9l1.5,1.9
			c1.4,1.7,2.8,3.2,4.4,4.6c1.6,1.4,3.3,2.6,5.2,3.7c1.8,1,3.6,1.9,5.7,2.7c1.7,0.7,3.5,1.2,5.4,1.6c-0.9-1.5-2-2.9-3.1-4.2
			c-1.3-1.5-2.7-3-4.2-4.3c-1.6-1.4-3.3-2.6-5.2-3.7c-1.9-1.1-3.9-2-6-2.8l-2.4-0.9l-2.4-0.9l2.6,0.1l2.6,0.1
			c3.3,0.2,6.3,0.1,9.2-0.2c2.9-0.3,5.6-0.6,8.1-1.2c2.4-0.6,4.6-1.3,6.7-2.1C299,90.6,300.6,89.7,302.2,88.8"/>
		<path class="st1" d="M230.4,88.8c1.5,0.9,3.2,1.8,4.8,2.6c2.1,0.9,4.3,1.5,6.7,2.1c2.6,0.6,5.2,0.9,8.1,1.2
			c2.9,0.3,5.9,0.3,9.2,0.2l2.6-0.1l2.6-0.1l-2.4,0.9l-2.4,0.9c-2.1,0.9-4.1,1.7-6,2.8c-1.9,1.1-3.6,2.3-5.2,3.7
			c-1.5,1.3-2.9,2.7-4.2,4.3c-1.1,1.3-2.1,2.7-3.1,4.2c1.9-0.4,3.7-0.9,5.4-1.6c2.1-0.8,3.9-1.6,5.7-2.7c1.9-1.1,3.6-2.3,5.2-3.7
			c1.5-1.5,3-2.9,4.4-4.6l1.5-1.9l1.5-1.9c-2.4,4.2-3.4,7.2-7.2,10.3c-1.5,1.2-3,2.2-4.6,3.2c-2,1.1-4,2.1-6.3,2.9
			c-2.2,0.9-4.6,1.5-7.1,2l-0.9,0.2l-0.9,0.2l0.4-0.8l0.4-0.8c1.2-2.1,2.5-4,3.9-5.7c1.5-1.8,3-3.3,4.7-4.8c1.5-1.2,2.9-2.2,4.5-3.3
			c0.9-0.6,1.9-1.1,2.8-1.6c-2.1,0-4.2-0.1-6.2-0.3l0,0c-2.7-0.2-5.1-0.6-7.5-1.1c-2.6-0.6-5-1.5-7.2-2.5c-2.2-1.1-4.2-2.3-6-3.8
			l-0.6-0.4l-0.5-0.4l-0.1-0.1h0.1l0.6-0.3l0.7-0.3c2.1-0.9,4.4-1.5,6.8-1.9c2.4-0.3,4.8-0.7,7.4-0.6c0.9,0.1,1.7,0.2,3,0.5
			c2,0.6,16.6,3.6,17.9,4.4c-2.1-0.4-18.2-2.4-20.3-2.5c-2.4-0.2-4.8-0.1-7,0.2C233.9,87.9,232.1,88.3,230.4,88.8"/>
	</g>
</g>
<g>
	<path class="st2" d="M57.1,203.6c-3.3,0-6.3-0.6-9.1-1.8c-2.8-1.2-5-3.2-6.6-5.9c-1.6-2.7-2.4-6.4-2.4-10.9V158
		c0-4.5,0.8-8.2,2.5-10.9c1.7-2.7,3.9-4.7,6.7-5.9c2.8-1.2,5.8-1.8,9.1-1.8c3.8,0,7.1,0.7,9.8,2c2.7,1.3,4.7,3.1,6.1,5.3
		c1.4,2.2,2.1,4.7,2.1,7.3c0,1.4-0.2,2.3-0.7,2.7c-0.5,0.4-1.2,0.7-2.1,0.7c-1,0-1.8-0.2-2.2-0.7c-0.4-0.4-0.7-0.9-0.7-1.5
		c0-0.9-0.2-2-0.5-3.2c-0.3-1.2-0.9-2.4-1.7-3.5s-2.1-2.1-3.7-2.8c-1.6-0.7-3.7-1.1-6.2-1.1c-4.1,0-7.2,1.1-9.3,3.3
		c-2.2,2.2-3.2,5.5-3.2,10.1v26.9c0,4.6,1.1,8,3.3,10.1c2.2,2.2,5.4,3.2,9.5,3.2c2.6,0,4.7-0.4,6.2-1.1c1.5-0.7,2.6-1.6,3.4-2.7
		c0.8-1.1,1.3-2.2,1.6-3.5c0.3-1.2,0.5-2.4,0.7-3.4c0.1-0.8,0.4-1.3,0.8-1.7c0.4-0.4,1.1-0.6,2-0.6c1,0,1.7,0.2,2.2,0.7
		c0.5,0.5,0.7,1.4,0.7,2.8c0,2.6-0.7,5-2.2,7.3c-1.5,2.2-3.5,4-6.2,5.4C64.2,202.9,60.9,203.6,57.1,203.6z"/>
	<path class="st2" d="M83.9,203.1c-0.5,0-1-0.1-1.5-0.3c-0.5-0.2-1-0.5-1.3-0.9c-0.3-0.4-0.5-0.8-0.5-1.3c0-0.2,0-0.4,0.1-0.6
		l18.2-59.1c0.2-0.8,0.7-1.3,1.3-1.6c0.6-0.3,1.3-0.5,2.1-0.5c0.8,0,1.6,0.2,2.2,0.5c0.7,0.3,1.1,0.9,1.3,1.6l18.1,59.1
		c0.1,0.2,0.1,0.3,0.1,0.5c0,0.5-0.2,0.9-0.5,1.3c-0.3,0.4-0.8,0.7-1.3,0.9c-0.5,0.2-1.1,0.3-1.7,0.3c-0.5,0-0.9-0.1-1.3-0.3
		c-0.4-0.2-0.7-0.6-0.9-1.1l-4-13.4H90.2l-4,13.4c-0.2,0.5-0.5,0.9-0.9,1.1C84.9,203,84.4,203.1,83.9,203.1z M91.6,183.2h21.2
		L102.3,148L91.6,183.2z"/>
	<path class="st2" d="M135.2,203.1c-0.8,0-1.4-0.2-2-0.6c-0.6-0.4-0.9-0.9-0.9-1.7v-59.3c0-0.8,0.3-1.4,0.9-1.7
		c0.6-0.3,1.2-0.5,2-0.5c0.7,0,1.3,0.2,1.8,0.6s1,0.9,1.5,1.5c0.5,0.6,0.9,1.3,1.2,2l23.5,46.3v-48.2c0-0.8,0.3-1.3,0.9-1.7
		c0.6-0.3,1.2-0.5,2-0.5c0.7,0,1.4,0.2,2,0.5s0.9,0.9,0.9,1.7v59.3c0,0.8-0.3,1.3-0.9,1.7c-0.6,0.4-1.3,0.6-2,0.6
		c-0.8,0-1.6-0.3-2.2-1c-0.7-0.7-1.2-1.4-1.6-2.3l-24.2-47.2v48.2c0,0.8-0.3,1.3-0.9,1.7C136.6,202.9,135.9,203.1,135.2,203.1z"/>
	<path class="st2" d="M185.2,203.1c-0.8,0-1.4-0.2-2-0.6c-0.6-0.4-0.9-0.9-0.9-1.7v-59.3c0-0.8,0.3-1.4,0.9-1.7
		c0.6-0.3,1.2-0.5,2-0.5c0.7,0,1.3,0.2,1.8,0.6s1,0.9,1.5,1.5c0.5,0.6,0.9,1.3,1.2,2l23.5,46.3v-48.2c0-0.8,0.3-1.3,0.9-1.7
		c0.6-0.3,1.2-0.5,2-0.5c0.7,0,1.4,0.2,2,0.5s0.9,0.9,0.9,1.7v59.3c0,0.8-0.3,1.3-0.9,1.7c-0.6,0.4-1.3,0.6-2,0.6
		c-0.8,0-1.6-0.3-2.2-1c-0.7-0.7-1.2-1.4-1.6-2.3l-24.2-47.2v48.2c0,0.8-0.3,1.3-0.9,1.7C186.5,202.9,185.9,203.1,185.2,203.1z"/>
	<path class="st2" d="M230.7,203.1c-0.5,0-1-0.1-1.5-0.3c-0.5-0.2-1-0.5-1.3-0.9c-0.3-0.4-0.5-0.8-0.5-1.3c0-0.2,0-0.4,0.1-0.6
		l18.2-59.1c0.2-0.8,0.7-1.3,1.3-1.6c0.6-0.3,1.3-0.5,2.1-0.5c0.8,0,1.6,0.2,2.2,0.5c0.7,0.3,1.1,0.9,1.3,1.6l18.1,59.1
		c0.1,0.2,0.1,0.3,0.1,0.5c0,0.5-0.2,0.9-0.5,1.3c-0.3,0.4-0.8,0.7-1.3,0.9c-0.5,0.2-1.1,0.3-1.7,0.3c-0.5,0-0.9-0.1-1.3-0.3
		c-0.4-0.2-0.7-0.6-0.9-1.1l-4-13.4h-24.1l-4,13.4c-0.2,0.5-0.5,0.9-0.9,1.1C231.8,203,231.3,203.1,230.7,203.1z M238.5,183.2h21.2
		L249.1,148L238.5,183.2z"/>
	<path class="st2" d="M281.8,203.1c-0.8,0-1.5-0.2-1.9-0.7c-0.5-0.4-0.7-0.9-0.7-1.5v-59.3c0-0.8,0.3-1.3,0.8-1.7
		c0.6-0.4,1.1-0.6,1.8-0.6h14.3c3.3,0,6.2,0.4,8.9,1.1c2.7,0.8,4.9,2.2,6.5,4.4c1.6,2.2,2.4,5.3,2.4,9.3c0,3.7-0.7,6.7-2,9.2
		c-1.4,2.5-3.2,4.2-5.4,5.2c1.8,0.7,3.4,1.7,4.7,2.9c1.3,1.2,2.4,2.8,3.1,4.7c0.8,1.9,1.1,4.4,1.1,7.4v1.6c0,4.4-0.8,7.9-2.3,10.6
		c-1.5,2.6-3.6,4.5-6.2,5.7c-2.6,1.2-5.5,1.7-8.7,1.7H281.8z M285,166h11.3c4.1,0,7.1-0.8,9-2.5c1.9-1.7,2.9-4.6,2.9-8.7
		c0-2.7-0.5-4.8-1.6-6.3c-1-1.5-2.5-2.5-4.3-3c-1.8-0.6-3.9-0.8-6.4-0.8h-11V166z M285,197.7h12.6c3.8,0,6.8-1,8.9-3.1
		c2.2-2.1,3.3-5.3,3.3-9.8v-1.5c0-4.5-1.1-7.7-3.3-9.5c-2.2-1.8-5.2-2.7-8.9-2.7H285V197.7z"/>
	<path class="st2" d="M340.5,203.7c-3.7,0-6.9-0.6-9.6-1.7c-2.7-1.1-4.7-2.4-6.1-3.9c-1.4-1.5-2.1-2.7-2.1-3.8c0-0.5,0.1-1,0.4-1.5
		s0.6-0.9,1-1.3c0.4-0.3,0.8-0.5,1.2-0.5c0.6,0,1.2,0.4,1.8,1.1c0.6,0.7,1.4,1.6,2.4,2.5c1,1,2.4,1.8,4.1,2.5
		c1.7,0.7,3.9,1.1,6.6,1.1c2.7,0,5.1-0.4,7-1.4c1.9-0.9,3.4-2.2,4.4-4c1-1.8,1.6-4,1.6-6.7c0-2.8-0.5-5-1.6-6.7
		c-1-1.7-2.4-3.1-4.1-4.2c-1.7-1.1-3.6-2-5.6-2.8c-2-0.8-4.1-1.5-6.1-2.4c-2.1-0.8-4-1.8-5.7-3c-1.7-1.2-3.1-2.8-4.2-4.7
		c-1-1.9-1.6-4.4-1.6-7.5c0-3.1,0.6-5.7,1.7-7.8c1.2-2.1,2.7-3.7,4.5-4.8c1.8-1.2,3.8-2,6-2.5c2.2-0.5,4.2-0.7,6.3-0.7
		c1.6,0,3.3,0.1,5,0.4c1.7,0.3,3.3,0.6,4.8,1.1c1.5,0.5,2.6,1,3.5,1.7c0.9,0.7,1.4,1.4,1.4,2.2c0,0.3-0.1,0.8-0.3,1.3
		c-0.2,0.5-0.5,0.9-0.8,1.4c-0.3,0.4-0.8,0.6-1.4,0.6c-0.5,0-1.3-0.3-2.2-0.8c-0.9-0.6-2.2-1.1-3.8-1.7c-1.6-0.6-3.7-0.8-6.2-0.8
		c-2.1,0-4.1,0.3-6.1,0.9c-1.9,0.6-3.5,1.6-4.8,3.1c-1.2,1.5-1.8,3.5-1.8,6.1c0,2.3,0.5,4.2,1.6,5.6c1.1,1.4,2.5,2.6,4.2,3.4
		c1.7,0.9,3.6,1.7,5.6,2.4c2,0.7,4.1,1.5,6.1,2.4c2.1,0.9,4,2,5.7,3.4c1.7,1.4,3.1,3.2,4.1,5.4c1,2.2,1.6,5.1,1.6,8.5
		c0,4.1-0.8,7.5-2.4,10.2c-1.6,2.6-3.7,4.6-6.5,5.9C347.3,203,344.1,203.7,340.5,203.7z"/>
	<path class="st2" d="M368.3,203.1c-0.6,0-1.2-0.2-1.8-0.6c-0.6-0.4-0.9-1-0.9-1.7v-8.5c0-2.4,0.7-4.6,2.1-6.6c1.4-2,3.2-4,5.5-5.8
		c2.2-1.8,4.6-3.6,7.1-5.3s4.9-3.6,7.2-5.5c2.2-1.9,4.1-3.9,5.5-6c1.4-2.1,2.1-4.4,2.1-7c0-1.9-0.4-3.7-1.3-5.4s-2.2-3.2-3.9-4.4
		c-1.7-1.2-3.9-1.7-6.6-1.7c-3,0-5.5,0.9-7.5,2.6c-2,1.7-3.1,4.3-3.1,7.7c0,0.6-0.3,1.1-0.8,1.6s-1.3,0.7-2.3,0.7
		c-0.9,0-1.5-0.3-2-0.8c-0.4-0.5-0.7-1.5-0.7-2.8c0-2.8,0.7-5.3,2.2-7.5c1.5-2.2,3.4-3.9,5.9-5.1c2.5-1.2,5.2-1.9,8.3-1.9
		c3.4,0,6.4,0.7,8.9,2.2c2.6,1.5,4.6,3.5,6.1,6c1.5,2.5,2.3,5.4,2.3,8.5c0,3.1-0.7,5.9-2.1,8.4c-1.4,2.5-3.2,4.8-5.5,6.8
		c-2.2,2-4.6,3.9-7.1,5.7c-2.5,1.7-4.9,3.4-7.1,5.1c-2.2,1.6-4,3.3-5.5,5c-1.4,1.7-2.1,3.5-2.1,5.4v5.4h27.8c0.6,0,1.1,0.2,1.5,0.7
		c0.4,0.5,0.6,1.1,0.6,1.9c0,0.7-0.2,1.3-0.6,1.9c-0.4,0.6-0.9,0.8-1.5,0.8H368.3z"/>
	<path class="st2" d="M428.1,203.6c-3.4,0-6.4-0.6-9.2-1.8c-2.7-1.2-4.9-3.2-6.5-5.9c-1.6-2.7-2.4-6.4-2.4-10.9V158
		c0-4.5,0.8-8.2,2.4-10.9c1.6-2.7,3.8-4.7,6.5-5.9c2.7-1.2,5.7-1.8,9.1-1.8c3.7,0,6.9,0.7,9.7,2c2.7,1.3,4.9,3.1,6.4,5.4
		c1.5,2.3,2.3,4.9,2.3,7.8c0,1-0.3,1.8-0.8,2.2c-0.5,0.4-1.2,0.7-2.1,0.7c-0.8,0-1.5-0.2-2-0.5s-0.9-0.9-0.9-1.7
		c-0.2-2.2-0.8-4.1-1.8-5.7c-1-1.6-2.4-2.8-4.1-3.6c-1.7-0.8-3.9-1.3-6.5-1.3c-3.9,0-6.9,1.1-9.1,3.3c-2.2,2.2-3.2,5.5-3.2,10.1
		v26.9c0,4.5,1.1,7.9,3.2,10.1c2.2,2.2,5.2,3.3,9.1,3.3c3.9,0,6.9-1.1,9.1-3.3c2.2-2.2,3.3-5.5,3.3-10.1v-10.4h-11.6
		c-0.7,0-1.2-0.2-1.6-0.7c-0.4-0.5-0.6-1.1-0.6-1.7c0-0.6,0.2-1.2,0.6-1.7c0.4-0.5,0.9-0.8,1.6-0.8h15.3c0.7,0,1.2,0.2,1.6,0.7
		c0.4,0.5,0.6,1,0.6,1.7v13c0,4.5-0.8,8.2-2.4,10.9c-1.6,2.7-3.8,4.7-6.5,5.9C434.6,203,431.5,203.6,428.1,203.6z"/>
	<path class="st2" d="M475.4,203.6c-3.4,0-6.4-0.6-9.2-1.8c-2.7-1.2-4.9-3.2-6.5-5.9c-1.6-2.7-2.4-6.4-2.4-10.9V158
		c0-4.5,0.8-8.2,2.4-10.9c1.6-2.7,3.8-4.7,6.5-5.9c2.7-1.2,5.8-1.8,9.2-1.8c3.4,0,6.5,0.6,9.2,1.8c2.7,1.2,4.9,3.2,6.5,5.9
		c1.6,2.7,2.4,6.4,2.4,10.9v26.9c0,4.5-0.8,8.2-2.4,10.9c-1.6,2.7-3.8,4.7-6.5,5.9C481.9,203,478.8,203.6,475.4,203.6z M475.4,198.3
		c3.9,0,6.9-1.1,9.1-3.2c2.2-2.2,3.3-5.5,3.3-10.1V158c0-4.6-1.1-8-3.3-10.1c-2.2-2.2-5.2-3.2-9.1-3.2c-3.9,0-6.9,1.1-9.1,3.2
		c-2.2,2.2-3.2,5.5-3.2,10.1v26.9c0,4.6,1.1,8,3.3,10.1C468.5,197.2,471.5,198.3,475.4,198.3z"/>
</g>
</svg>
