<?xml version="1.0" encoding="utf-8"?>
<!-- Generator: Adobe Illustrator 24.3.0, SVG Export Plug-In . SVG Version: 6.00 Build 0)  -->
<svg version="1.1" id="Camada_1" xmlns="http://www.w3.org/2000/svg" xmlns:xlink="http://www.w3.org/1999/xlink" x="0px" y="0px"
	 viewBox="0 0 801.3 134.2" style="enable-background:new 0 0 801.3 134.2;" xml:space="preserve">
<style type="text/css">
	.st0{fill-rule:evenodd;clip-rule:evenodd;fill:#ABC84A;stroke:#ABC84A;stroke-width:2.4978;stroke-miterlimit:10;}
	.st1{fill:#336E2E;}
	.st2{fill:#253B1F;}
</style>
<g>
	<g>
		<path class="st0" d="M76,12.3c39.1,0,70.8,31.7,70.8,70.8c0,10.2-2.1,19.8-6,28.6c-1.1,2.5-3.6,4.2-6.4,4.2h0l-0.4-0.2
			c5.7-10,8.8-21.6,8.5-34c-0.7-33.8-27.3-62.2-61-64.9c-39.2-3.2-72,27.7-72,66.3c0,11.9,3.1,23,8.5,32.6l-0.4,0.2h0
			c-2.8,0-5.3-1.6-6.4-4.2c-3.8-8.8-6-18.4-6-28.6C5.3,44,37,12.3,76,12.3"/>
		<g>
			<path class="st1" d="M76.2,36.7c-1.2,2.7-2.1,5.4-2.9,8.3c-0.9,3.5-1.5,7.2-1.9,11.1c-0.3,4.2-0.4,8.6-0.1,13.2
				c0.3,4.6,0.9,9.5,1.9,14.6l0.8,4l0.8,4l-2-3.6l-2-3.6c-1.7-3.2-3.7-6.2-5.8-8.9c-2.1-2.7-4.5-5.2-7-7.5c-2.4-2.1-5-4-7.7-5.7
				c-2.3-1.5-4.8-2.7-7.5-3.9c1.1,2.9,2.4,5.7,3.9,8.2c1.6,3,3.4,5.7,5.5,8.3c2.1,2.7,4.5,5.2,7,7.4c2.6,2.2,5.3,4.2,8.3,5.9l3.3,2
				l3.3,2c-7.2-2.7-12.2-3.7-18-9c-2.2-2.1-4.3-4.3-6.1-6.7c-2.2-2.8-4.2-5.9-6-9.2s-3.3-6.9-4.7-10.8l-0.4-1.4L38.5,54l1.3,0.5
				l1.3,0.5c3.5,1.4,6.9,3.1,9.9,5c3.1,1.9,6,4,8.6,6.4c2.2,2,4.3,4.1,6.3,6.4c1.1,1.4,2.1,2.7,3.2,4.2c-0.5-3.4-0.9-6.7-1-9.8l0,0
				c-0.3-4.3-0.2-8.3,0.2-12.1c0.4-4.3,1.1-8.3,2.3-12c1.1-3.8,2.7-7.2,4.5-10.3l0.6-1l0.5-0.9l0.1-0.1l0.1,0.1l0.5,0.9l0.6,1
				c1.9,3.2,3.4,6.6,4.5,10.3c1.1,3.7,1.9,7.7,2.3,12c0.3,3.8,0.4,7.8,0.2,12.1l0,0c-0.2,3.2-0.5,6.4-1,9.8c1-1.5,2.1-2.8,3.2-4.2
				c2-2.3,4-4.5,6.3-6.4c2.7-2.4,5.6-4.5,8.6-6.4c3.1-1.9,6.4-3.5,9.9-5l1.3-0.5L114,54l-0.4,1.4l-0.4,1.4
				c-1.4,3.9-2.9,7.5-4.7,10.8c-1.8,3.3-3.8,6.4-6,9.2c-1.9,2.4-3.9,4.6-6.1,6.7c-5.7,5.3-10.7,6.3-18,9l3.3-2l3.3-2
				c3-1.7,5.7-3.7,8.3-5.9c2.6-2.2,4.9-4.7,7-7.4c2-2.6,3.9-5.3,5.5-8.3c1.4-2.6,2.7-5.3,3.9-8.2c-2.6,1.2-5.1,2.5-7.5,3.9
				c-2.7,1.7-5.3,3.6-7.7,5.7c-2.6,2.3-4.9,4.8-7,7.5c-2.1,2.7-4,5.7-5.8,8.9l-2,3.6l-2,3.6l0.8-4l0.8-4c0.9-5.1,1.5-9.9,1.9-14.6
				c0.3-4.6,0.3-9-0.1-13.2c-0.3-3.9-0.9-7.6-1.9-11.1C78.3,42.2,77.4,39.4,76.2,36.7"/>
			<path class="st1" d="M111.9,90.6c-1.7-0.5-3.5-0.9-5.4-1c-2.2-0.3-4.6-0.3-7-0.2c-2.1,0.1-18.1,2-20.3,2.5
				c1.3-0.8,15.9-3.8,17.9-4.4c1.2-0.2,2-0.4,3-0.5c2.7-0.2,5,0.2,7.4,0.6c2.4,0.3,4.6,1,6.8,1.9l0.7,0.3l0.6,0.3h0.1l-0.1,0.1
				l-0.5,0.4l-0.6,0.4c-1.8,1.5-3.8,2.7-6,3.8c-2.2,1-4.6,1.9-7.2,2.5c-2.3,0.5-4.8,0.9-7.5,1.1l0,0c-2,0.2-4,0.3-6.2,0.3
				c0.9,0.5,2,1,2.8,1.6c1.6,1,3.1,2.1,4.5,3.3c1.7,1.5,3.3,3,4.7,4.8c1.5,1.7,2.7,3.7,3.9,5.7l0.4,0.8l0.4,0.8l-0.9-0.2l-0.9-0.2
				c-2.5-0.5-4.9-1.1-7.1-2c-2.2-0.8-4.3-1.8-6.3-2.9c-1.6-0.9-3.2-2-4.6-3.2c-3.8-3.1-4.8-6.1-7.2-10.3l1.5,1.9l1.5,1.9
				c1.4,1.7,2.8,3.2,4.4,4.6c1.6,1.4,3.3,2.6,5.2,3.7c1.8,1,3.6,1.9,5.7,2.7c1.7,0.7,3.5,1.2,5.4,1.6c-0.9-1.5-2-2.9-3.1-4.2
				c-1.3-1.5-2.7-3-4.2-4.3c-1.6-1.4-3.3-2.6-5.2-3.7c-1.9-1.1-3.9-2-6-2.8l-2.4-0.9L78,96.5l2.6,0.1l2.6,0.1
				c3.3,0.2,6.3,0.1,9.2-0.2c2.9-0.3,5.6-0.6,8.1-1.2c2.4-0.6,4.6-1.3,6.7-2.1C108.8,92.4,110.4,91.6,111.9,90.6"/>
			<path class="st1" d="M40.1,90.6c1.5,0.9,3.2,1.8,4.8,2.6c2.1,0.9,4.3,1.5,6.7,2.1c2.6,0.6,5.2,0.9,8.1,1.2
				c2.9,0.3,5.9,0.3,9.2,0.2l2.6-0.1l2.6-0.1l-2.4,0.9l-2.4,0.9c-2.1,0.9-4.1,1.7-6,2.8c-1.9,1.1-3.6,2.3-5.2,3.7
				c-1.5,1.3-2.9,2.7-4.2,4.3c-1.1,1.3-2.1,2.7-3.1,4.2c1.9-0.4,3.7-0.9,5.4-1.6c2.1-0.8,3.9-1.6,5.7-2.7c1.9-1.1,3.6-2.3,5.2-3.7
				c1.5-1.5,3-2.9,4.4-4.6l1.5-1.9l1.5-1.9c-2.4,4.2-3.4,7.2-7.2,10.3c-1.5,1.2-3,2.2-4.6,3.2c-2,1.1-4,2.1-6.3,2.9
				c-2.2,0.9-4.6,1.5-7.1,2l-0.9,0.2l-0.9,0.2l0.4-0.8l0.4-0.8c1.2-2.1,2.5-4,3.9-5.7c1.5-1.8,3-3.3,4.7-4.8
				c1.5-1.2,2.9-2.2,4.5-3.3c0.9-0.6,1.9-1.1,2.8-1.6c-2.1,0-4.2-0.1-6.2-0.3l0,0c-2.7-0.2-5.1-0.6-7.5-1.1c-2.6-0.6-5-1.5-7.2-2.5
				c-2.2-1.1-4.2-2.3-6-3.8l-0.6-0.4l-0.5-0.4L36.5,90h0.1l0.6-0.3l0.7-0.3c2.1-0.9,4.4-1.5,6.8-1.9c2.4-0.3,4.8-0.7,7.4-0.6
				c0.9,0.1,1.7,0.2,3,0.5c2,0.6,16.6,3.6,17.9,4.4c-2.1-0.4-18.2-2.4-20.3-2.5c-2.4-0.2-4.8-0.1-7,0.2
				C43.7,89.8,41.9,90.1,40.1,90.6"/>
		</g>
	</g>
	<g>
		<path class="st2" d="M195,117.7c-4.4,0-8.6-0.8-12.4-2.5s-6.8-4.4-9.1-8.1c-2.2-3.7-3.3-8.7-3.3-14.9V55.4
			c0-6.2,1.2-11.2,3.5-14.9s5.3-6.4,9.1-8.1c3.8-1.7,7.9-2.5,12.4-2.5c5.2,0,9.7,0.9,13.3,2.7c3.7,1.8,6.4,4.2,8.4,7.3
			c1.9,3,2.9,6.4,2.9,10c0,1.9-0.3,3.2-1,3.8c-0.7,0.6-1.6,0.9-2.9,0.9c-1.4,0-2.4-0.3-3-0.9c-0.6-0.6-0.9-1.3-1-2.1
			c0-1.3-0.2-2.7-0.7-4.3c-0.4-1.6-1.2-3.2-2.4-4.8c-1.2-1.5-2.8-2.8-5-3.8c-2.2-1-5-1.5-8.5-1.5c-5.6,0-9.8,1.5-12.7,4.5
			c-2.9,3-4.4,7.6-4.4,13.8v36.8c0,6.3,1.5,10.9,4.5,13.8c3,2.9,7.3,4.4,13,4.4c3.6,0,6.4-0.5,8.5-1.5c2.1-1,3.6-2.2,4.6-3.7
			c1-1.5,1.8-3.1,2.2-4.8c0.4-1.7,0.7-3.3,0.9-4.7c0.2-1,0.5-1.8,1.1-2.3c0.6-0.5,1.5-0.8,2.8-0.8c1.3,0,2.4,0.3,3,1
			c0.7,0.7,1,2,1,3.9c0,3.6-1,6.9-3,9.9c-2,3.1-4.8,5.5-8.5,7.4C204.7,116.8,200.2,117.7,195,117.7z"/>
		<path class="st2" d="M231.5,117c-0.6,0-1.3-0.1-2-0.4c-0.7-0.3-1.3-0.7-1.8-1.2c-0.5-0.5-0.7-1.1-0.7-1.7c0-0.3,0-0.6,0.1-0.8
			L252,32.1c0.3-1,0.9-1.8,1.8-2.2c0.9-0.4,1.8-0.7,2.9-0.7c1.1,0,2.1,0.2,3,0.7c0.9,0.5,1.5,1.2,1.7,2.1l24.8,80.7
			c0.1,0.2,0.1,0.5,0.1,0.7c0,0.6-0.2,1.2-0.7,1.7c-0.5,0.5-1.1,0.9-1.8,1.2c-0.7,0.3-1.5,0.5-2.3,0.5c-0.6,0-1.2-0.2-1.8-0.5
			c-0.6-0.3-1-0.8-1.2-1.5l-5.5-18.3h-32.9l-5.5,18.3c-0.2,0.7-0.6,1.2-1.2,1.5C233,116.9,232.3,117,231.5,117z M242.1,89.9h28.9
			l-14.4-48L242.1,89.9z"/>
		<path class="st2" d="M301.7,117c-1,0-1.9-0.3-2.7-0.8c-0.8-0.5-1.2-1.3-1.2-2.3v-81c0-1.1,0.4-1.9,1.2-2.3
			c0.8-0.4,1.7-0.7,2.7-0.7c1,0,1.8,0.3,2.5,0.8c0.7,0.5,1.4,1.2,2,2c0.6,0.8,1.2,1.8,1.7,2.8L340,98.8V32.9c0-1,0.4-1.8,1.2-2.3
			c0.8-0.5,1.7-0.7,2.7-0.7c1,0,1.8,0.2,2.7,0.7c0.8,0.5,1.2,1.2,1.2,2.3v81c0,1-0.4,1.8-1.2,2.3c-0.8,0.5-1.7,0.8-2.7,0.8
			c-1.1,0-2.1-0.5-3-1.4c-0.9-0.9-1.6-2-2.2-3.2l-33.1-64.4v65.9c0,1-0.4,1.8-1.3,2.3C303.5,116.8,302.6,117,301.7,117z"/>
		<path class="st2" d="M369.9,117c-1,0-1.9-0.3-2.7-0.8c-0.8-0.5-1.2-1.3-1.2-2.3v-81c0-1.1,0.4-1.9,1.2-2.3
			c0.8-0.4,1.7-0.7,2.7-0.7c1,0,1.8,0.3,2.5,0.8c0.7,0.5,1.4,1.2,2,2c0.6,0.8,1.2,1.8,1.7,2.8l32.2,63.2V32.9c0-1,0.4-1.8,1.2-2.3
			c0.8-0.5,1.7-0.7,2.7-0.7c1,0,1.8,0.2,2.7,0.7c0.8,0.5,1.2,1.2,1.2,2.3v81c0,1-0.4,1.8-1.2,2.3c-0.8,0.5-1.7,0.8-2.7,0.8
			c-1.1,0-2.1-0.5-3-1.4c-0.9-0.9-1.6-2-2.2-3.2l-33.1-64.4v65.9c0,1-0.4,1.8-1.3,2.3C371.7,116.8,370.9,117,369.9,117z"/>
		<path class="st2" d="M432.1,117c-0.6,0-1.3-0.1-2-0.4c-0.7-0.3-1.3-0.7-1.8-1.2c-0.5-0.5-0.7-1.1-0.7-1.7c0-0.3,0-0.6,0.1-0.8
			l24.9-80.7c0.3-1,0.9-1.8,1.8-2.2c0.9-0.4,1.8-0.7,2.9-0.7c1.1,0,2.1,0.2,3,0.7c0.9,0.5,1.5,1.2,1.7,2.1l24.8,80.7
			c0.1,0.2,0.1,0.5,0.1,0.7c0,0.6-0.2,1.2-0.7,1.7c-0.5,0.5-1.1,0.9-1.8,1.2c-0.7,0.3-1.5,0.5-2.3,0.5c-0.6,0-1.2-0.2-1.8-0.5
			c-0.6-0.3-1-0.8-1.2-1.5l-5.5-18.3h-32.9l-5.5,18.3c-0.2,0.7-0.6,1.2-1.2,1.5C433.5,116.9,432.9,117,432.1,117z M442.7,89.9h28.9
			l-14.4-48L442.7,89.9z"/>
		<path class="st2" d="M501.8,117c-1.1,0-2-0.3-2.6-0.9c-0.6-0.6-1-1.3-1-2.1v-81c0-1,0.4-1.8,1.1-2.3c0.8-0.5,1.6-0.8,2.4-0.8h19.5
			c4.4,0,8.5,0.5,12.2,1.5c3.7,1,6.6,3,8.8,6c2.2,2.9,3.3,7.2,3.3,12.7c0,5-0.9,9.2-2.8,12.6c-1.9,3.4-4.3,5.7-7.3,7.1
			c2.5,1,4.6,2.3,6.4,3.9c1.8,1.7,3.3,3.8,4.3,6.4c1,2.6,1.5,6,1.5,10.1v2.1c0,6-1,10.8-3.1,14.4c-2.1,3.6-4.9,6.2-8.5,7.7
			c-3.6,1.6-7.5,2.4-11.9,2.4H501.8z M506.1,66.4h15.5c5.6,0,9.6-1.1,12.3-3.5c2.6-2.3,3.9-6.3,3.9-11.9c0-3.7-0.7-6.6-2.1-8.6
			c-1.4-2-3.4-3.4-5.8-4.1c-2.5-0.8-5.4-1.1-8.7-1.1h-15V66.4z M506.1,109.7h17.1c5.2,0,9.2-1.4,12.2-4.2c3-2.8,4.5-7.3,4.5-13.4v-2
			c0-6.2-1.5-10.5-4.5-13c-3-2.5-7-3.8-12.2-3.8h-17.1V109.7z"/>
		<path class="st2" d="M582,117.8c-5.1,0-9.4-0.8-13.1-2.3c-3.7-1.5-6.5-3.3-8.4-5.4c-1.9-2-2.9-3.8-2.9-5.2c0-0.6,0.2-1.3,0.5-2
			c0.4-0.7,0.8-1.3,1.4-1.7c0.6-0.4,1.1-0.7,1.7-0.7c0.8,0,1.6,0.5,2.4,1.5c0.8,1,1.9,2.1,3.3,3.5c1.4,1.3,3.2,2.5,5.5,3.5
			c2.3,1,5.3,1.5,9,1.5c3.7,0,6.9-0.6,9.5-1.8c2.6-1.2,4.6-3.1,6.1-5.5c1.4-2.4,2.1-5.5,2.1-9.1c0-3.8-0.7-6.9-2.1-9.2
			c-1.4-2.3-3.3-4.2-5.7-5.7c-2.3-1.5-4.9-2.8-7.7-3.8c-2.8-1-5.6-2.1-8.4-3.2c-2.8-1.1-5.4-2.5-7.8-4.1c-2.4-1.6-4.3-3.8-5.7-6.4
			c-1.4-2.7-2.1-6.1-2.1-10.2c0-4.3,0.8-7.8,2.4-10.7c1.6-2.8,3.6-5,6.1-6.6c2.5-1.6,5.2-2.7,8.2-3.4c2.9-0.7,5.8-1,8.6-1
			c2.2,0,4.5,0.2,6.8,0.5c2.3,0.4,4.5,0.9,6.5,1.5c2,0.6,3.6,1.4,4.8,2.3c1.2,0.9,1.8,1.9,1.8,3c0,0.5-0.1,1.1-0.4,1.7
			c-0.3,0.7-0.7,1.3-1.1,1.8c-0.5,0.6-1.1,0.8-1.9,0.8c-0.7,0-1.7-0.4-3-1.1c-1.3-0.8-3-1.5-5.2-2.3c-2.2-0.8-5-1.1-8.5-1.1
			c-2.9,0-5.6,0.4-8.3,1.2c-2.7,0.8-4.8,2.2-6.5,4.2c-1.7,2-2.5,4.8-2.5,8.3c0,3.2,0.7,5.7,2.2,7.7c1.5,1.9,3.4,3.5,5.7,4.7
			c2.3,1.2,4.9,2.3,7.7,3.3c2.8,1,5.6,2.1,8.4,3.3c2.8,1.2,5.4,2.8,7.7,4.6c2.3,1.9,4.2,4.3,5.7,7.3c1.4,3,2.1,6.9,2.1,11.7
			c0,5.6-1.1,10.3-3.2,13.9c-2.1,3.6-5.1,6.3-8.9,8C591.2,117,586.9,117.8,582,117.8z"/>
		<path class="st2" d="M619.8,117c-0.8,0-1.6-0.3-2.4-0.8c-0.8-0.6-1.2-1.3-1.2-2.3v-11.6c0-3.3,1-6.3,2.9-9
			c1.9-2.8,4.4-5.4,7.4-7.9c3-2.5,6.3-4.9,9.7-7.3s6.7-4.9,9.8-7.4c3.1-2.6,5.6-5.3,7.5-8.2c1.9-2.9,2.9-6,2.9-9.5
			c0-2.5-0.6-5-1.8-7.4c-1.2-2.4-3-4.4-5.3-6c-2.3-1.6-5.3-2.4-9-2.4c-4,0-7.5,1.2-10.2,3.5c-2.8,2.3-4.2,5.9-4.2,10.5
			c0,0.8-0.4,1.5-1.1,2.2c-0.7,0.7-1.7,1-3.1,1c-1.2,0-2.1-0.4-2.7-1.1c-0.6-0.7-0.9-2-0.9-3.8c0-3.8,1-7.2,3-10.2c2-3,4.7-5.3,8-7
			c3.4-1.7,7.2-2.6,11.4-2.6c4.6,0,8.7,1,12.2,3c3.5,2,6.3,4.8,8.4,8.2c2.1,3.5,3.1,7.3,3.1,11.6c0,4.2-1,8-2.9,11.4
			c-1.9,3.4-4.4,6.5-7.4,9.3c-3,2.8-6.2,5.4-9.6,7.7c-3.4,2.4-6.6,4.7-9.6,6.9c-3,2.2-5.5,4.5-7.4,6.8c-1.9,2.3-2.9,4.8-2.9,7.4v7.4
			h38c0.8,0,1.5,0.3,2,1c0.6,0.7,0.8,1.5,0.8,2.6c0,1-0.3,1.8-0.8,2.6c-0.6,0.8-1.2,1.1-2,1.1H619.8z"/>
		<path class="st2" d="M701.5,117.7c-4.6,0-8.8-0.8-12.5-2.5c-3.7-1.7-6.7-4.4-8.9-8.1c-2.2-3.7-3.3-8.7-3.3-14.9V55.4
			c0-6.2,1.1-11.2,3.3-14.9c2.2-3.7,5.2-6.4,8.9-8.1s7.8-2.5,12.4-2.5c5.1,0,9.5,0.9,13.2,2.7c3.7,1.8,6.6,4.2,8.7,7.3
			c2.1,3.1,3.1,6.7,3.1,10.7c0,1.4-0.4,2.4-1.1,3c-0.7,0.6-1.7,0.9-2.9,0.9c-1.1,0-2-0.2-2.8-0.7c-0.8-0.5-1.2-1.2-1.2-2.3
			c-0.3-3-1.2-5.6-2.5-7.7c-1.4-2.1-3.2-3.8-5.6-4.9c-2.4-1.1-5.3-1.7-8.8-1.7c-5.3,0-9.4,1.5-12.4,4.5c-2.9,3-4.4,7.6-4.4,13.8
			v36.8c0,6.2,1.5,10.8,4.4,13.8c2.9,3,7.1,4.5,12.4,4.5c5.3,0,9.5-1.5,12.4-4.5c3-3,4.5-7.6,4.5-13.8V78.1h-15.8
			c-1,0-1.7-0.3-2.2-1c-0.5-0.7-0.8-1.4-0.8-2.3c0-0.9,0.3-1.7,0.8-2.4c0.5-0.7,1.2-1.1,2.2-1.1h20.8c1,0,1.7,0.3,2.2,1
			c0.5,0.6,0.8,1.4,0.8,2.3v17.7c0,6.2-1.1,11.2-3.3,14.9c-2.2,3.7-5.2,6.4-8.9,8.1C710.4,116.9,706.2,117.7,701.5,117.7z"/>
		<path class="st2" d="M766.1,117.7c-4.6,0-8.8-0.8-12.5-2.5c-3.7-1.7-6.7-4.4-8.9-8.1c-2.2-3.7-3.3-8.7-3.3-14.9V55.4
			c0-6.2,1.1-11.2,3.3-14.9c2.2-3.7,5.2-6.4,8.9-8.1c3.7-1.7,7.9-2.5,12.5-2.5c4.7,0,8.9,0.8,12.6,2.5c3.7,1.7,6.7,4.4,8.9,8.1
			c2.2,3.7,3.3,8.7,3.3,14.9v36.8c0,6.2-1.1,11.2-3.3,14.9c-2.2,3.7-5.2,6.4-8.9,8.1C775,116.9,770.8,117.7,766.1,117.7z
			 M766.1,110.5c5.3,0,9.5-1.5,12.4-4.4c3-2.9,4.5-7.5,4.5-13.8V55.4c0-6.3-1.5-10.9-4.5-13.8c-3-2.9-7.1-4.4-12.4-4.4
			c-5.3,0-9.4,1.5-12.4,4.4c-2.9,2.9-4.4,7.5-4.4,13.8v36.8c0,6.3,1.5,10.9,4.5,13.8C756.7,109,760.8,110.5,766.1,110.5z"/>
	</g>
</g>
</svg>
