<?xml version="1.0" encoding="utf-8"?>
<!-- Generator: Adobe Illustrator 22.0.0, SVG Export Plug-In . SVG Version: 6.00 Build 0)  -->
<svg version="1.1" id="Layer_1" xmlns="http://www.w3.org/2000/svg" xmlns:xlink="http://www.w3.org/1999/xlink" x="0px" y="0px"
	 viewBox="0 0 212 80" style="enable-background:new 0 0 212 80;" xml:space="preserve">
<style type="text/css">
	.st0{fill:#001F60;}
</style>
<g>
	<g>
		<g>
			<path class="st0" d="M20,54.3l12.5-32.7c1-2.3,2-3.8,3.8-3.8s2.6,1.5,3.6,4.1l11.8,32.5H20z M39.6,3.8c-4.4,0-6.9,2.6-8.5,6.9
				l-1.7,4.4L8.7,68.7l-1,2.6l-1.2,3.1h1.2h4.4l2.2-5.7l4-10.3h35.4l4,10.3l2.2,5.7h14v0h-0.1l0.1-0.1l-2.2-5.6L50.3,15.1l-1.8-4.4
				C46.8,6.4,44.2,3.8,39.6,3.8"/>
		</g>
		<g>
			<path class="st0" d="M119.8,12.6H77.5v2.6v1.2h28.3c3.7,0,5.4,1.6,5.4,3.6c0,1.1-0.6,2.3-1.3,3.4l-32,45.4l-4,5.6l-0.1,0.1h0.1
				h55.7v-3.8H99.8c-2.5,0-4-0.6-4.6-2c-0.1-0.3-0.2-0.7-0.2-1.1c0-0.9,0.5-1.8,1-2.6l28.9-41c1.6-2.3,3.6-4.4,3.6-6.6
				c0-0.9-0.2-1.6-0.6-2.2C126.9,13.3,124.2,12.6,119.8,12.6"/>
			<path class="st0" d="M159.8,15.1c1.8-0.5,3.7-0.7,5.7-0.7c2,0,3.9,0.2,5.6,0.7c11.6,3,17.6,15.4,17.6,28.3
				c0,10.4-3.6,20.2-10.9,25.3c-3.3,2.4-7.5,3.7-12.3,3.7c-4.7,0-8.7-1.4-12-3.7c-7.3-5.3-11-15.3-11-25.3
				C142.6,30.1,148.2,18.1,159.8,15.1 M165.5,10.7c-7.5,0-13.7,1.6-18.7,4.4c-10.6,5.9-15.9,16.9-15.9,28.3
				c0,9.4,3.8,18.9,11.6,25.3c5.6,4.6,13.3,7.5,23,7.5c9.8,0,17.6-2.9,23.3-7.5c7.7-6.2,11.6-15.6,11.6-25.3
				c0-11-5.4-22.3-16.3-28.3C179.1,12.3,172.9,10.7,165.5,10.7"/>
		</g>
	</g>
	<g>
		<path class="st0" d="M195.8,70.5v-0.7h3.7v0.7H198v3.9h-0.8v-3.9H195.8z"/>
		<path class="st0" d="M199.8,74.5l0.7-4.6h1l1.1,3.7l1.1-3.7h1l0.7,4.6h-0.8l-0.6-3.6l-1.1,3.6h-0.8l-1.1-3.6l-0.6,3.6H199.8z"/>
	</g>
</g>
</svg>
