<?xml version="1.0" encoding="utf-8"?>
<!-- Generator: Adobe Illustrator 25.2.1, SVG Export Plug-In . SVG Version: 6.00 Build 0)  -->
<svg version="1.1" id="Layer_1" xmlns="http://www.w3.org/2000/svg" xmlns:xlink="http://www.w3.org/1999/xlink" x="0px" y="0px"
	 viewBox="0 0 2611.33 1057.21" style="enable-background:new 0 0 2611.33 1057.21;" xml:space="preserve">
<style type="text/css">
	.st0{fill:url(#SVGID_1_);}
	.st1{fill:url(#SVGID_2_);}
	.st2{fill:url(#SVGID_3_);}
	.st3{fill:url(#SVGID_4_);}
	.st4{fill:url(#SVGID_5_);}
	.st5{fill:url(#SVGID_6_);}
	.st6{fill:url(#SVGID_7_);}
	.st7{fill:url(#SVGID_8_);}
	.st8{fill:url(#SVGID_9_);}
	.st9{fill:url(#SVGID_10_);}
	.st10{fill:#343534;}
	.st11{fill:url(#SVGID_11_);}
	.st12{fill:url(#SVGID_12_);}
	.st13{fill:url(#SVGID_13_);}
	.st14{fill:url(#SVGID_14_);}
	.st15{fill:url(#SVGID_15_);}
	.st16{fill:url(#SVGID_16_);}
	.st17{fill:url(#SVGID_17_);}
	.st18{fill:url(#SVGID_18_);}
	.st19{fill:url(#SVGID_19_);}
	.st20{fill:url(#SVGID_20_);}
	.st21{fill:url(#SVGID_21_);}
	.st22{fill:url(#SVGID_22_);}
	.st23{fill:url(#SVGID_23_);}
	.st24{fill:url(#SVGID_24_);}
	.st25{fill:url(#SVGID_25_);}
	.st26{fill:url(#SVGID_26_);}
	.st27{fill:url(#SVGID_27_);}
	.st28{fill:url(#SVGID_28_);}
	.st29{fill:url(#SVGID_29_);}
	.st30{fill:url(#SVGID_30_);}
	.st31{fill:url(#SVGID_31_);}
	.st32{fill:url(#SVGID_32_);}
	.st33{fill:url(#SVGID_33_);}
	.st34{fill:url(#SVGID_34_);}
	.st35{fill:url(#SVGID_35_);}
	.st36{fill:url(#SVGID_36_);}
	.st37{fill:url(#SVGID_37_);}
	.st38{fill:url(#SVGID_38_);}
	.st39{fill:url(#SVGID_39_);}
	.st40{fill:url(#SVGID_40_);}
	.st41{fill:url(#SVGID_41_);}
	.st42{fill:url(#SVGID_42_);}
	.st43{fill:url(#SVGID_43_);}
	.st44{fill:url(#SVGID_44_);}
	.st45{fill:url(#SVGID_45_);}
	.st46{fill:url(#SVGID_46_);}
	.st47{fill:url(#SVGID_47_);}
	.st48{fill:url(#SVGID_48_);}
	.st49{fill:url(#SVGID_49_);}
	.st50{fill:url(#SVGID_50_);}
	.st51{fill:url(#SVGID_51_);}
</style>
<g>
	<g>
		<linearGradient id="SVGID_1_" gradientUnits="userSpaceOnUse" x1="443.2488" y1="662.6328" x2="443.2488" y2="454.4639">
			<stop  offset="0" style="stop-color:#EA257C"/>
			<stop  offset="0.9946" style="stop-color:#B82D76"/>
		</linearGradient>
		<polygon class="st0" points="443.38,612.03 370.26,454.46 303.86,454.46 303.86,662.63 352.74,662.63 352.74,516.43 
			419.93,662.63 466.83,662.63 534.02,516.43 534.02,662.63 582.63,662.63 582.63,454.46 516.5,454.46 		"/>
		<linearGradient id="SVGID_2_" gradientUnits="userSpaceOnUse" x1="650.2325" y1="662.6328" x2="650.2325" y2="454.4639">
			<stop  offset="0" style="stop-color:#EA257C"/>
			<stop  offset="0.9946" style="stop-color:#B82D76"/>
		</linearGradient>
		<rect x="625.8" y="454.46" class="st1" width="48.87" height="208.17"/>
		<linearGradient id="SVGID_3_" gradientUnits="userSpaceOnUse" x1="811.4994" y1="668.2391" x2="811.4994" y2="449.1564">
			<stop  offset="0" style="stop-color:#EA257C"/>
			<stop  offset="0.9946" style="stop-color:#B82D76"/>
		</linearGradient>
		<path class="st2" d="M878.29,454.54c-6.85-1.77-14.08-3.11-21.67-4.02c-7.6-0.91-15.74-1.36-24.44-1.36
			c-18.45,0-35.42,2.28-50.92,6.83c-15.5,4.53-28.85,11.38-40.05,20.52c-11.2,9.14-19.92,20.55-26.15,34.24
			c-6.23,13.69-9.35,29.67-9.35,47.96c0,18.27,3.12,34.27,9.35,47.95c6.24,13.69,14.96,25.1,26.15,34.24
			c11.2,9.15,24.55,15.99,40.05,20.53c15.5,4.54,32.47,6.82,50.92,6.82c8.69,0,16.84-0.46,24.44-1.37c7.6-0.91,14.82-2.24,21.67-4
			c6.85-1.77,13.48-3.87,19.89-6.29c6.41-2.42,12.78-5.15,19.1-8.18v-50.61c-5.01,3.23-10.28,6.39-15.81,9.47
			c-5.53,3.08-11.64,5.83-18.31,8.26c-6.68,2.42-14.01,4.37-22,5.84c-7.99,1.46-17,2.19-27.01,2.19c-10.27,0-19.34-0.83-27.21-2.5
			c-7.86-1.66-14.73-3.96-20.62-6.89c-5.88-2.93-10.8-6.41-14.75-10.46c-3.95-4.03-7.16-8.46-9.62-13.25
			c-2.46-4.8-4.21-9.9-5.27-15.31c-1.05-5.4-1.58-10.87-1.58-16.43c0-8.38,1.23-16.49,3.69-24.32c2.46-7.82,6.72-14.77,12.78-20.82
			c6.06-6.06,14.16-10.91,24.31-14.55c10.14-3.63,22.9-5.45,38.27-5.45c10.01,0,19.02,0.78,27.01,2.34c7.99,1.56,15.33,3.58,22,6.06
			c6.67,2.47,12.78,5.26,18.31,8.32c5.54,3.09,10.8,6.19,15.81,9.32v-50.6c-6.32-3.04-12.69-5.76-19.1-8.19
			C891.78,458.4,885.14,456.31,878.29,454.54z"/>
		<linearGradient id="SVGID_4_" gradientUnits="userSpaceOnUse" x1="1056.49" y1="662.6328" x2="1056.49" y2="454.4639">
			<stop  offset="0" style="stop-color:#EA257C"/>
			<stop  offset="0.9946" style="stop-color:#B82D76"/>
		</linearGradient>
		<path class="st3" d="M1119.6,572.33c4.82-3.24,9.07-7.19,12.71-11.9c3.65-4.69,6.54-10.33,8.7-16.89
			c2.15-6.56,3.23-14.24,3.23-23.03c0-10-1.3-19.06-3.88-27.19c-2.6-8.13-6.77-15.08-12.52-20.82c-5.76-5.77-13.22-10.21-22.4-13.33
			c-9.18-3.14-20.36-4.7-33.53-4.7H949.38v208.17h48.88v-76.67h53.36l54.8,76.67h57.18l-59.29-82.27
			C1109.67,578.24,1114.76,575.57,1119.6,572.33z M1093.45,530.52c-0.93,2.83-2.53,5.13-4.81,6.89c-2.29,1.76-5.34,3.06-9.16,3.86
			c-3.82,0.81-8.59,1.21-14.29,1.21h-66.92v-44.54h66.92c5.71,0,10.48,0.4,14.29,1.2c3.82,0.82,6.87,2.1,9.16,3.86
			c2.28,1.77,3.88,4.07,4.81,6.89c0.92,2.84,1.38,6.27,1.38,10.31C1094.83,524.26,1094.36,527.68,1093.45,530.52z"/>
		<linearGradient id="SVGID_5_" gradientUnits="userSpaceOnUse" x1="1294.9026" y1="668.2391" x2="1294.9026" y2="449.1564">
			<stop  offset="0" style="stop-color:#EA257C"/>
			<stop  offset="0.9946" style="stop-color:#B82D76"/>
		</linearGradient>
		<path class="st4" d="M1385.01,477.04c-10.65-9.19-23.52-16.13-38.68-20.83c-15.16-4.7-32.16-7.05-51.05-7.05
			c-18.88,0-35.95,2.35-51.18,7.05c-15.25,4.7-28.21,11.64-38.93,20.83c-10.71,9.19-18.97,20.63-24.77,34.32s-8.69,29.47-8.69,47.35
			c0,17.87,2.9,33.66,8.69,47.34c5.8,13.69,14.05,25.12,24.77,34.31c10.71,9.19,23.68,16.13,38.93,20.83
			c15.24,4.7,32.3,7.05,51.18,7.05c18.88,0,35.89-2.35,51.05-7.05c15.16-4.7,28.03-11.64,38.68-20.83
			c10.63-9.19,18.8-20.62,24.52-34.31c5.7-13.68,8.56-29.47,8.56-47.34c0-17.88-2.87-33.67-8.56-47.35
			C1403.81,497.67,1395.63,486.23,1385.01,477.04z M1365.44,581.95c-2.16,7.73-5.96,14.67-11.47,20.83
			c-5.5,6.16-12.98,11.16-22.46,15c-9.48,3.84-21.55,5.76-36.23,5.76c-9.84,0-18.48-0.88-25.95-2.65
			c-7.47-1.76-13.92-4.19-19.36-7.27c-5.46-3.08-10.02-6.69-13.7-10.83c-3.69-4.14-6.64-8.61-8.83-13.41
			c-2.2-4.79-3.75-9.82-4.68-15.08c-0.92-5.25-1.37-10.46-1.37-15.59c0-5.05,0.46-10.18,1.37-15.39c0.93-5.2,2.48-10.19,4.68-14.99
			c2.19-4.79,5.14-9.29,8.83-13.48c3.68-4.19,8.25-7.86,13.7-10.98c5.44-3.13,11.89-5.59,19.36-7.35
			c7.47-1.76,16.11-2.65,25.95-2.65c14.68,0,26.75,1.92,36.23,5.76c9.48,3.84,16.96,8.83,22.46,15c5.51,6.16,9.31,13.11,11.47,20.83
			c2.14,7.72,3.24,15.48,3.24,23.26S1367.58,574.23,1365.44,581.95z"/>
		<linearGradient id="SVGID_6_" gradientUnits="userSpaceOnUse" x1="1552.3373" y1="662.6328" x2="1552.3373" y2="454.4639">
			<stop  offset="0" style="stop-color:#EA257C"/>
			<stop  offset="0.9946" style="stop-color:#B82D76"/>
		</linearGradient>
		<path class="st5" d="M1644.1,569.54c-3.95-4.09-9.08-7.33-15.36-9.7c-6.28-2.37-13.81-3.92-22.59-4.62
			c12.48-2.63,21.62-7.91,27.4-15.84c5.8-7.93,8.7-18.65,8.7-32.18c0-7.58-0.86-14.14-2.57-19.7c-1.72-5.56-4.09-10.31-7.11-14.25
			c-3.04-3.93-6.59-7.12-10.68-9.54c-4.08-2.42-8.49-4.31-13.23-5.68c-4.75-1.37-9.73-2.3-14.96-2.81s-10.44-0.76-15.61-0.76
			h-128.98v208.17h131.35c6.76,0,13.31-0.31,19.64-0.92c6.31-0.6,12.27-1.68,17.84-3.26c5.58-1.56,10.68-3.68,15.29-6.36
			c4.62-2.67,8.57-6.15,11.86-10.46c3.3-4.28,5.86-9.41,7.71-15.38c1.84-5.95,2.76-12.98,2.76-21.06c0-7.88-0.92-14.77-2.76-20.68
			C1650.95,578.62,1648.06,573.62,1644.1,569.54z M1498,496.28h72.06c4.92,0,8.96,0.56,12.13,1.67c3.16,1.12,5.67,2.57,7.5,4.39
			c1.85,1.81,3.12,3.91,3.83,6.28c0.69,2.38,1.05,4.88,1.05,7.5c0,2.63-0.36,5.13-1.05,7.5c-0.72,2.38-1.98,4.42-3.83,6.13
			c-1.83,1.72-4.34,3.09-7.5,4.09c-3.17,1.02-7.21,1.51-12.13,1.51H1498V496.28z M1603.79,610.13c-1.41,2.88-3.59,5.13-6.59,6.74
			c-2.99,1.61-6.85,2.68-11.58,3.18c-4.75,0.51-10.42,0.76-17,0.76H1498v-44.08h70.61c6.58,0,12.25,0.25,17,0.76
			c4.73,0.51,8.59,1.54,11.58,3.11c3,1.56,5.18,3.79,6.59,6.66c1.4,2.89,2.11,6.7,2.11,11.44
			C1605.9,603.44,1605.19,607.26,1603.79,610.13z"/>
		<linearGradient id="SVGID_7_" gradientUnits="userSpaceOnUse" x1="1711.0472" y1="662.6328" x2="1711.0472" y2="454.4639">
			<stop  offset="0" style="stop-color:#EA257C"/>
			<stop  offset="0.9946" style="stop-color:#B82D76"/>
		</linearGradient>
		<rect x="1686.61" y="454.46" class="st6" width="48.88" height="208.17"/>
		<linearGradient id="SVGID_8_" gradientUnits="userSpaceOnUse" x1="1889.698" y1="668.2391" x2="1889.698" y2="449.1564">
			<stop  offset="0" style="stop-color:#EA257C"/>
			<stop  offset="0.9946" style="stop-color:#B82D76"/>
		</linearGradient>
		<path class="st7" d="M1979.82,477.04c-10.64-9.19-23.52-16.13-38.68-20.83c-15.15-4.7-32.17-7.05-51.04-7.05
			c-18.89,0-35.95,2.35-51.18,7.05c-15.25,4.7-28.22,11.64-38.93,20.83c-10.73,9.19-18.98,20.63-24.77,34.32
			c-5.81,13.68-8.7,29.47-8.7,47.35c0,17.87,2.9,33.66,8.7,47.34c5.79,13.69,14.03,25.12,24.77,34.31
			c10.7,9.19,23.68,16.13,38.93,20.83c15.24,4.7,32.29,7.05,51.18,7.05c18.87,0,35.9-2.35,51.04-7.05
			c15.16-4.7,28.04-11.64,38.68-20.83c10.62-9.19,18.79-20.62,24.5-34.31c5.71-13.68,8.56-29.47,8.56-47.34
			c0-17.88-2.86-33.67-8.56-47.35C1998.61,497.67,1990.44,486.23,1979.82,477.04z M1960.24,581.95
			c-2.15,7.73-5.96,14.67-11.45,20.83c-5.5,6.16-12.98,11.16-22.46,15c-9.48,3.84-21.57,5.76-36.23,5.76
			c-9.84,0-18.49-0.88-25.95-2.65c-7.48-1.76-13.93-4.19-19.37-7.27c-5.46-3.08-10.02-6.69-13.7-10.83
			c-3.69-4.14-6.63-8.61-8.82-13.41c-2.21-4.79-3.76-9.82-4.68-15.08c-0.93-5.25-1.38-10.46-1.38-15.59
			c0-5.05,0.46-10.18,1.38-15.39c0.92-5.2,2.47-10.19,4.68-14.99c2.19-4.79,5.13-9.29,8.82-13.48c3.68-4.19,8.25-7.86,13.7-10.98
			c5.44-3.13,11.89-5.59,19.37-7.35c7.46-1.76,16.11-2.65,25.95-2.65c14.66,0,26.75,1.92,36.23,5.76c9.48,3.84,16.97,8.83,22.46,15
			c5.49,6.16,9.3,13.11,11.45,20.83c2.16,7.72,3.24,15.48,3.24,23.26S1962.4,574.23,1960.24,581.95z"/>
		<linearGradient id="SVGID_9_" gradientUnits="userSpaceOnUse" x1="2183.304" y1="662.6328" x2="2183.304" y2="454.4639">
			<stop  offset="0" style="stop-color:#EA257C"/>
			<stop  offset="0.9946" style="stop-color:#B82D76"/>
		</linearGradient>
		<polygon class="st8" points="2183.44,612.03 2110.32,454.46 2043.92,454.46 2043.92,662.63 2092.79,662.63 2092.79,516.43 
			2159.98,662.63 2206.89,662.63 2274.08,516.43 2274.08,662.63 2322.69,662.63 2322.69,454.46 2256.55,454.46 		"/>
		<linearGradient id="SVGID_10_" gradientUnits="userSpaceOnUse" x1="2458.3977" y1="662.6328" x2="2458.3977" y2="454.4639">
			<stop  offset="0" style="stop-color:#EA257C"/>
			<stop  offset="0.9946" style="stop-color:#B82D76"/>
		</linearGradient>
		<polygon class="st9" points="2416.05,618.23 2416.05,577.63 2542.26,577.63 2542.26,533.24 2416.05,533.24 2416.05,498.86 
			2549.1,498.86 2549.1,454.46 2365.85,454.46 2365.85,662.63 2550.95,662.63 2550.95,618.23 		"/>
	</g>
	<g>
		<polygon class="st10" points="1463.43,742.11 1452.1,742.11 1452.1,885.22 1554.35,885.22 1554.35,873.03 1463.43,873.03 		"/>
		<path class="st10" d="M1815.62,742.11l-65.13,143.12h12.41l17.13-37.81h84.5l17.11,37.81h12.42l-65.14-143.12H1815.62z
			 M1785.55,835.54l36.77-80.83l36.68,80.83H1785.55z"/>
		<path class="st10" d="M2219.46,819.92c-2.73-3.13-6.22-5.63-10.51-7.51c-4.29-1.87-9.47-3.05-15.51-3.53
			c4.24-0.91,7.92-2.13,11.06-3.7c3.16-1.55,5.73-3.56,7.76-5.98c2.02-2.43,3.53-5.35,4.52-8.75c1-3.4,1.49-7.43,1.49-12.08
			c0-5.21-0.58-9.72-1.76-13.53c-1.18-3.82-2.81-7.09-4.9-9.8c-2.07-2.71-4.52-4.9-7.33-6.56c-2.82-1.66-5.87-2.97-9.15-3.9
			c-3.3-0.94-6.73-1.58-10.29-1.93c-3.57-0.34-7.12-0.52-10.68-0.52h-70.2v143.12h71.84c4.64,0,9.15-0.2,13.5-0.63
			c4.33-0.41,8.41-1.15,12.22-2.24c3.8-1.08,7.3-2.53,10.47-4.37c3.17-1.84,5.89-4.23,8.15-7.18c2.27-2.96,4.03-6.48,5.31-10.58
			c1.27-4.1,1.9-8.92,1.9-14.48c0-5.42-0.63-10.3-1.9-14.64C2224.16,826.77,2222.17,823.05,2219.46,819.92z M2115.29,753.98h55.17
			c5.73,0,10.65,0.33,14.71,1c4.07,0.65,7.51,1.55,10.29,2.7c2.77,1.13,4.96,2.5,6.56,4.08c1.6,1.6,2.83,3.31,3.67,5.14
			c0.84,1.83,1.38,3.75,1.63,5.77c0.24,2,0.36,4,0.36,6.01c0,3.39-0.42,6.6-1.22,9.64c-0.83,3.05-2.55,5.71-5.18,8
			c-2.62,2.28-6.38,4.09-11.27,5.44c-4.9,1.35-11.42,2.02-19.56,2.02h-55.17V753.98z M2213.42,858.28
			c-1.35,3.54-3.61,6.42-6.79,8.67c-3.18,2.26-7.34,3.88-12.5,4.9c-5.17,1-11.53,1.5-19.08,1.5h-59.77v-58.12h58.23
			c7.31,0,13.62,0.58,18.93,1.71c5.32,1.15,9.67,2.93,13.04,5.36c3.39,2.43,5.9,5.55,7.52,9.36c1.64,3.81,2.45,8.42,2.45,13.83
			C2215.46,850.48,2214.79,854.74,2213.42,858.28z"/>
		<path class="st10" d="M2552.72,835.95c-1.97-3.74-4.62-7.08-7.99-10c-3.36-2.91-7.28-5.47-11.78-7.66
			c-4.51-2.18-9.28-4.16-14.32-5.94c-5.06-1.76-10.25-3.42-15.59-4.95c-5.36-1.52-10.55-3.04-15.58-4.53
			c-5.06-1.48-9.83-3.09-14.33-4.78c-4.51-1.71-8.44-3.61-11.79-5.69c-3.35-2.08-6-4.47-7.97-7.19c-1.97-2.7-2.96-5.86-2.96-9.48
			c0-4.3,1.04-8.02,3.13-11.14c2.09-3.12,5.1-5.71,9.07-7.76c3.95-2.04,8.78-3.56,14.5-4.53c5.72-0.97,12.23-1.45,19.55-1.45
			c6.03,0,11.54,0.4,16.49,1.2c4.96,0.8,9.41,1.78,13.37,2.97c3.95,1.18,7.48,2.52,10.57,4.01c3.09,1.49,5.81,2.9,8.16,4.21v-15
			c-3.92-1.17-7.81-2.29-11.63-3.34c-3.84-1.04-7.76-1.95-11.78-2.76c-4.01-0.8-8.18-1.43-12.5-1.92
			c-4.31-0.49-8.89-0.73-13.72-0.73c-4.41,0-8.87,0.24-13.41,0.73c-4.53,0.49-8.88,1.26-13.07,2.34c-4.21,1.09-8.15,2.54-11.83,4.38
			c-3.67,1.83-6.9,4.11-9.64,6.81c-2.75,2.72-4.91,5.92-6.48,9.64c-1.56,3.71-2.35,7.97-2.35,12.76c0,4.87,0.98,9.13,2.95,12.82
			c1.95,3.68,4.61,6.93,7.97,9.74c3.35,2.81,7.28,5.26,11.77,7.35c4.5,2.08,9.26,3.95,14.26,5.63c5.02,1.66,10.2,3.21,15.54,4.63
			c5.35,1.42,10.52,2.88,15.52,4.37c5.02,1.49,9.78,3.11,14.27,4.84c4.5,1.74,8.42,3.74,11.77,5.99c3.35,2.26,6.02,4.88,7.99,7.87
			c1.95,2.99,2.93,6.45,2.93,10.42c0,4.93-1.22,9.09-3.66,12.5c-2.44,3.41-5.88,6.16-10.28,8.29c-4.41,2.11-9.63,3.65-15.67,4.63
			c-6.03,0.97-12.62,1.45-19.74,1.45c-10.08,0-19.7-1.05-28.85-3.12c-9.15-2.09-17.82-5.95-26.05-11.57v15.94
			c7.98,3.13,16.36,5.59,25.14,7.39c8.78,1.81,18.59,2.72,29.39,2.72c4.72,0,9.49-0.23,14.36-0.69c4.86-0.45,9.58-1.23,14.13-2.33
			c4.56-1.12,8.85-2.63,12.87-4.54c4.01-1.91,7.52-4.3,10.51-7.19c2.98-2.88,5.35-6.31,7.11-10.31c1.75-3.99,2.63-8.66,2.63-14.01
			C2555.67,844.05,2554.68,839.72,2552.72,835.95z"/>
	</g>
	<g>
		<linearGradient id="SVGID_11_" gradientUnits="userSpaceOnUse" x1="-106.4678" y1="306.9279" x2="506.5367" y2="1037.4783">
			<stop  offset="0" style="stop-color:#B82D76"/>
			<stop  offset="0.25" style="stop-color:#EA257C"/>
			<stop  offset="0.5" style="stop-color:#F6921E"/>
			<stop  offset="0.75" style="stop-color:#D6DE23"/>
			<stop  offset="1" style="stop-color:#6CC9CC"/>
		</linearGradient>
		<path class="st11" d="M183.13,576.1c0-35.2-28.53-63.72-63.74-63.72c-35.2,0-63.73,28.52-63.73,63.72
			c0,35.2,28.53,63.74,63.73,63.74C154.59,639.84,183.13,611.3,183.13,576.1z"/>
		<linearGradient id="SVGID_12_" gradientUnits="userSpaceOnUse" x1="-73.6685" y1="278.2401" x2="539.4147" y2="1008.8841">
			<stop  offset="0" style="stop-color:#B82D76"/>
			<stop  offset="0.25" style="stop-color:#EA257C"/>
			<stop  offset="0.5" style="stop-color:#F6921E"/>
			<stop  offset="0.75" style="stop-color:#D6DE23"/>
			<stop  offset="1" style="stop-color:#6CC9CC"/>
		</linearGradient>
		<path class="st12" d="M88.33,500.76c16.26,0,29.45-13.18,29.45-29.45c0-16.26-13.18-29.44-29.45-29.44
			c-16.25,0-29.43,13.17-29.43,29.44C58.9,487.57,72.08,500.76,88.33,500.76z"/>
		<linearGradient id="SVGID_13_" gradientUnits="userSpaceOnUse" x1="-20.7706" y1="232.1428" x2="592.2558" y2="962.7191">
			<stop  offset="0" style="stop-color:#B82D76"/>
			<stop  offset="0.25" style="stop-color:#EA257C"/>
			<stop  offset="0.5" style="stop-color:#F6921E"/>
			<stop  offset="0.75" style="stop-color:#D6DE23"/>
			<stop  offset="1" style="stop-color:#6CC9CC"/>
		</linearGradient>
		<path class="st13" d="M190.22,505.89c0,10.33,8.37,18.7,18.71,18.7c10.33,0,18.71-8.37,18.71-18.7c0-10.34-8.38-18.71-18.71-18.71
			C198.59,487.18,190.22,495.55,190.22,505.89z"/>
		<linearGradient id="SVGID_14_" gradientUnits="userSpaceOnUse" x1="274.0065" y1="-25.0783" x2="887.0237" y2="705.4873">
			<stop  offset="0" style="stop-color:#B82D76"/>
			<stop  offset="0.25" style="stop-color:#EA257C"/>
			<stop  offset="0.5" style="stop-color:#F6921E"/>
			<stop  offset="0.75" style="stop-color:#D6DE23"/>
			<stop  offset="1" style="stop-color:#6CC9CC"/>
		</linearGradient>
		<path class="st14" d="M395.62,185.32c36.16,0,65.47-29.31,65.47-65.46c0-36.15-29.31-65.46-65.47-65.46
			c-36.15,0-65.46,29.32-65.46,65.46C330.16,156.01,359.47,185.32,395.62,185.32z"/>
		<linearGradient id="SVGID_15_" gradientUnits="userSpaceOnUse" x1="14.8296" y1="201.0788" x2="627.8354" y2="931.6306">
			<stop  offset="0" style="stop-color:#B82D76"/>
			<stop  offset="0.25" style="stop-color:#EA257C"/>
			<stop  offset="0.5" style="stop-color:#F6921E"/>
			<stop  offset="0.75" style="stop-color:#D6DE23"/>
			<stop  offset="1" style="stop-color:#6CC9CC"/>
		</linearGradient>
		<path class="st15" d="M192.34,479.26c36.79,0,66.63-29.83,66.63-66.65c0-36.79-29.84-66.63-66.63-66.63
			c-36.81,0-66.65,29.83-66.65,66.63C125.69,449.43,155.53,479.26,192.34,479.26z"/>
		<linearGradient id="SVGID_16_" gradientUnits="userSpaceOnUse" x1="455.5836" y1="-183.4178" x2="1068.5847" y2="547.1284">
			<stop  offset="0" style="stop-color:#B82D76"/>
			<stop  offset="0.25" style="stop-color:#EA257C"/>
			<stop  offset="0.5" style="stop-color:#F6921E"/>
			<stop  offset="0.75" style="stop-color:#D6DE23"/>
			<stop  offset="1" style="stop-color:#6CC9CC"/>
		</linearGradient>
		<path class="st16" d="M834.65,187.48c0-37.47-30.37-67.85-67.84-67.85c-37.48,0-67.85,30.38-67.85,67.85
			c0,37.46,30.37,67.84,67.85,67.84C804.28,255.32,834.65,224.94,834.65,187.48z"/>
		<linearGradient id="SVGID_17_" gradientUnits="userSpaceOnUse" x1="514.584" y1="-234.8835" x2="1127.6113" y2="495.6941">
			<stop  offset="0" style="stop-color:#B82D76"/>
			<stop  offset="0.25" style="stop-color:#EA257C"/>
			<stop  offset="0.5" style="stop-color:#F6921E"/>
			<stop  offset="0.75" style="stop-color:#D6DE23"/>
			<stop  offset="1" style="stop-color:#6CC9CC"/>
		</linearGradient>
		<path class="st17" d="M938.6,337.64c37.11,0,67.19-30.08,67.19-67.19c0-37.1-30.08-67.18-67.19-67.18
			c-37.1,0-67.17,30.07-67.17,67.18C871.43,307.55,901.51,337.64,938.6,337.64z"/>
		<linearGradient id="SVGID_18_" gradientUnits="userSpaceOnUse" x1="115.5086" y1="113.2118" x2="728.5225" y2="843.7733">
			<stop  offset="0" style="stop-color:#B82D76"/>
			<stop  offset="0.25" style="stop-color:#EA257C"/>
			<stop  offset="0.5" style="stop-color:#F6921E"/>
			<stop  offset="0.75" style="stop-color:#D6DE23"/>
			<stop  offset="1" style="stop-color:#6CC9CC"/>
		</linearGradient>
		<path class="st18" d="M234.51,319.43c35.57,0,64.4-28.83,64.4-64.4c0-35.57-28.83-64.41-64.4-64.41
			c-35.56,0-64.39,28.84-64.39,64.41C170.11,290.61,198.94,319.43,234.51,319.43z"/>
		<linearGradient id="SVGID_19_" gradientUnits="userSpaceOnUse" x1="367.2263" y1="-106.3997" x2="980.2561" y2="624.1808">
			<stop  offset="0" style="stop-color:#B82D76"/>
			<stop  offset="0.25" style="stop-color:#EA257C"/>
			<stop  offset="0.5" style="stop-color:#F6921E"/>
			<stop  offset="0.75" style="stop-color:#D6DE23"/>
			<stop  offset="1" style="stop-color:#6CC9CC"/>
		</linearGradient>
		<path class="st19" d="M538,160.16c34.81,0,63.03-28.22,63.03-63.03S572.81,34.08,538,34.08s-63.04,28.23-63.04,63.04
			S503.19,160.16,538,160.16z"/>
		<linearGradient id="SVGID_20_" gradientUnits="userSpaceOnUse" x1="421.4609" y1="-153.6975" x2="1034.4889" y2="576.8808">
			<stop  offset="0" style="stop-color:#B82D76"/>
			<stop  offset="0.25" style="stop-color:#EA257C"/>
			<stop  offset="0.5" style="stop-color:#F6921E"/>
			<stop  offset="0.75" style="stop-color:#D6DE23"/>
			<stop  offset="1" style="stop-color:#6CC9CC"/>
		</linearGradient>
		<path class="st20" d="M655.6,167.57c23.32,0,42.23-18.91,42.23-42.24c0-23.31-18.91-42.21-42.23-42.21
			c-23.32,0-42.23,18.9-42.23,42.21C613.38,148.66,632.28,167.57,655.6,167.57z"/>
		<linearGradient id="SVGID_21_" gradientUnits="userSpaceOnUse" x1="205.9621" y1="34.3358" x2="818.9396" y2="764.8539">
			<stop  offset="0" style="stop-color:#B82D76"/>
			<stop  offset="0.25" style="stop-color:#EA257C"/>
			<stop  offset="0.5" style="stop-color:#F6921E"/>
			<stop  offset="0.75" style="stop-color:#D6DE23"/>
			<stop  offset="1" style="stop-color:#6CC9CC"/>
		</linearGradient>
		<path class="st21" d="M352.35,248.67c0,18.47,14.98,33.45,33.45,33.45c18.48,0,33.46-14.98,33.46-33.45
			c0-18.48-14.98-33.45-33.46-33.45C367.33,215.22,352.35,230.19,352.35,248.67z"/>
		<linearGradient id="SVGID_22_" gradientUnits="userSpaceOnUse" x1="523.7252" y1="-242.8247" x2="1136.7484" y2="487.7479">
			<stop  offset="0" style="stop-color:#B82D76"/>
			<stop  offset="0.25" style="stop-color:#EA257C"/>
			<stop  offset="0.5" style="stop-color:#F6921E"/>
			<stop  offset="0.75" style="stop-color:#D6DE23"/>
			<stop  offset="1" style="stop-color:#6CC9CC"/>
		</linearGradient>
		<path class="st22" d="M1019.19,318.92c-15.87,0-28.73,12.87-28.73,28.74c0,15.85,12.87,28.73,28.73,28.73
			c15.87,0,28.73-12.88,28.73-28.73C1047.92,331.78,1035.06,318.92,1019.19,318.92z"/>
		<linearGradient id="SVGID_23_" gradientUnits="userSpaceOnUse" x1="490.6219" y1="-214.0566" x2="1103.6801" y2="516.5577">
			<stop  offset="0" style="stop-color:#B82D76"/>
			<stop  offset="0.25" style="stop-color:#EA257C"/>
			<stop  offset="0.5" style="stop-color:#F6921E"/>
			<stop  offset="0.75" style="stop-color:#D6DE23"/>
			<stop  offset="1" style="stop-color:#6CC9CC"/>
		</linearGradient>
		<path class="st23" d="M737.27,107.94c15.49,0,28.05-12.57,28.05-28.05s-12.55-28.04-28.05-28.04c-15.48,0-28.04,12.56-28.04,28.04
			S721.78,107.94,737.27,107.94z"/>
		<linearGradient id="SVGID_24_" gradientUnits="userSpaceOnUse" x1="192.0547" y1="46.4136" x2="805.0764" y2="776.9845">
			<stop  offset="0" style="stop-color:#B82D76"/>
			<stop  offset="0.25" style="stop-color:#EA257C"/>
			<stop  offset="0.5" style="stop-color:#F6921E"/>
			<stop  offset="0.75" style="stop-color:#D6DE23"/>
			<stop  offset="1" style="stop-color:#6CC9CC"/>
		</linearGradient>
		<circle class="st24" cx="288.5" cy="161.36" r="28.04"/>
		<linearGradient id="SVGID_25_" gradientUnits="userSpaceOnUse" x1="441.3448" y1="-170.9007" x2="1054.3291" y2="559.6256">
			<stop  offset="0" style="stop-color:#B82D76"/>
			<stop  offset="0.25" style="stop-color:#EA257C"/>
			<stop  offset="0.5" style="stop-color:#F6921E"/>
			<stop  offset="0.75" style="stop-color:#D6DE23"/>
			<stop  offset="1" style="stop-color:#6CC9CC"/>
		</linearGradient>
		<path class="st25" d="M871.34,379.2c0,17.46,14.14,31.59,31.6,31.59c17.45,0,31.59-14.13,31.59-31.59
			c0-17.45-14.14-31.59-31.59-31.59C885.48,347.61,871.34,361.76,871.34,379.2z"/>
		<linearGradient id="SVGID_26_" gradientUnits="userSpaceOnUse" x1="442.439" y1="-171.9248" x2="1055.4481" y2="558.631">
			<stop  offset="0" style="stop-color:#B82D76"/>
			<stop  offset="0.25" style="stop-color:#EA257C"/>
			<stop  offset="0.5" style="stop-color:#F6921E"/>
			<stop  offset="0.75" style="stop-color:#D6DE23"/>
			<stop  offset="1" style="stop-color:#6CC9CC"/>
		</linearGradient>
		<path class="st26" d="M829.29,261.06c-15.49,0-28.04,12.56-28.04,28.04c0,15.49,12.55,28.04,28.04,28.04
			c15.49,0,28.05-12.55,28.05-28.04C857.33,273.62,844.78,261.06,829.29,261.06z"/>
		<linearGradient id="SVGID_27_" gradientUnits="userSpaceOnUse" x1="292.5471" y1="-41.2318" x2="905.569" y2="689.3393">
			<stop  offset="0" style="stop-color:#B82D76"/>
			<stop  offset="0.25" style="stop-color:#EA257C"/>
			<stop  offset="0.5" style="stop-color:#F6921E"/>
			<stop  offset="0.75" style="stop-color:#D6DE23"/>
			<stop  offset="1" style="stop-color:#6CC9CC"/>
		</linearGradient>
		<path class="st27" d="M490.43,224.33c16.43,0,29.74-13.31,29.74-29.72c0-16.44-13.31-29.76-29.74-29.76
			c-16.43,0-29.75,13.32-29.75,29.76C460.67,211.01,474,224.33,490.43,224.33z"/>
		<linearGradient id="SVGID_28_" gradientUnits="userSpaceOnUse" x1="40.8981" y1="178.3055" x2="653.9119" y2="908.8669">
			<stop  offset="0" style="stop-color:#B82D76"/>
			<stop  offset="0.25" style="stop-color:#EA257C"/>
			<stop  offset="0.5" style="stop-color:#F6921E"/>
			<stop  offset="0.75" style="stop-color:#D6DE23"/>
			<stop  offset="1" style="stop-color:#6CC9CC"/>
		</linearGradient>
		<path class="st28" d="M155.71,334.15c10.5,0,19.02-8.51,19.02-19.03c0-10.52-8.53-19.02-19.02-19.02
			c-10.51,0-19.02,8.5-19.02,19.02C136.68,325.64,145.19,334.15,155.71,334.15z"/>
		<linearGradient id="SVGID_29_" gradientUnits="userSpaceOnUse" x1="136.6372" y1="94.8016" x2="749.6451" y2="825.356">
			<stop  offset="0" style="stop-color:#B82D76"/>
			<stop  offset="0.25" style="stop-color:#EA257C"/>
			<stop  offset="0.5" style="stop-color:#F6921E"/>
			<stop  offset="0.75" style="stop-color:#D6DE23"/>
			<stop  offset="1" style="stop-color:#6CC9CC"/>
		</linearGradient>
		<path class="st29" d="M297.47,311.27c0,11.49,9.32,20.8,20.81,20.8c11.49,0,20.8-9.31,20.8-20.8c0-11.49-9.32-20.8-20.8-20.8
			C306.78,290.47,297.47,299.78,297.47,311.27z"/>
		<linearGradient id="SVGID_30_" gradientUnits="userSpaceOnUse" x1="366.9619" y1="-106.1669" x2="980.018" y2="624.4448">
			<stop  offset="0" style="stop-color:#B82D76"/>
			<stop  offset="0.25" style="stop-color:#EA257C"/>
			<stop  offset="0.5" style="stop-color:#F6921E"/>
			<stop  offset="0.75" style="stop-color:#D6DE23"/>
			<stop  offset="1" style="stop-color:#6CC9CC"/>
		</linearGradient>
		<path class="st30" d="M616.95,210.69c10.45,0,18.93-8.48,18.93-18.94c0-10.46-8.47-18.94-18.93-18.94
			c-10.47,0-18.94,8.48-18.94,18.94C598.01,202.21,606.49,210.69,616.95,210.69z"/>
		<linearGradient id="SVGID_31_" gradientUnits="userSpaceOnUse" x1="481.2615" y1="-205.9332" x2="1094.3767" y2="524.7491">
			<stop  offset="0" style="stop-color:#B82D76"/>
			<stop  offset="0.25" style="stop-color:#EA257C"/>
			<stop  offset="0.5" style="stop-color:#F6921E"/>
			<stop  offset="0.75" style="stop-color:#D6DE23"/>
			<stop  offset="1" style="stop-color:#6CC9CC"/>
		</linearGradient>
		<path class="st31" d="M1004.71,395.31c0-10.46-8.47-18.93-18.93-18.93c-10.46,0-18.94,8.47-18.94,18.93
			c0,10.47,8.48,18.95,18.94,18.95C996.23,414.26,1004.71,405.78,1004.71,395.31z"/>
		<linearGradient id="SVGID_32_" gradientUnits="userSpaceOnUse" x1="330.9256" y1="-74.6491" x2="943.8788" y2="655.8401">
			<stop  offset="0" style="stop-color:#B82D76"/>
			<stop  offset="0.25" style="stop-color:#EA257C"/>
			<stop  offset="0.5" style="stop-color:#F6921E"/>
			<stop  offset="0.75" style="stop-color:#D6DE23"/>
			<stop  offset="1" style="stop-color:#6CC9CC"/>
		</linearGradient>
		<path class="st32" d="M563.02,181.69c-11.19,0-20.26,9.07-20.26,20.26c0,11.19,9.08,20.26,20.26,20.26
			c11.2,0,20.27-9.07,20.27-20.26C583.28,190.76,574.22,181.69,563.02,181.69z"/>
		<linearGradient id="SVGID_33_" gradientUnits="userSpaceOnUse" x1="95.1313" y1="131.0419" x2="708.1042" y2="861.5546">
			<stop  offset="0" style="stop-color:#B82D76"/>
			<stop  offset="0.25" style="stop-color:#EA257C"/>
			<stop  offset="0.5" style="stop-color:#F6921E"/>
			<stop  offset="0.75" style="stop-color:#D6DE23"/>
			<stop  offset="1" style="stop-color:#6CC9CC"/>
		</linearGradient>
		<path class="st33" d="M286.74,338.35c-11.63,0-21.05,9.42-21.05,21.04c0,11.62,9.42,21.05,21.05,21.05
			c11.63,0,21.05-9.43,21.05-21.05C307.79,347.77,298.37,338.35,286.74,338.35z"/>
		<linearGradient id="SVGID_34_" gradientUnits="userSpaceOnUse" x1="143.6904" y1="88.75" x2="756.735" y2="819.3481">
			<stop  offset="0" style="stop-color:#B82D76"/>
			<stop  offset="0.25" style="stop-color:#EA257C"/>
			<stop  offset="0.5" style="stop-color:#F6921E"/>
			<stop  offset="0.75" style="stop-color:#D6DE23"/>
			<stop  offset="1" style="stop-color:#6CC9CC"/>
		</linearGradient>
		<path class="st34" d="M793.66,799.65c-35.18,0-63.7,28.52-63.7,63.69c0,35.17,28.51,63.7,63.7,63.7
			c35.18,0,63.69-28.53,63.69-63.7C857.35,828.17,828.83,799.65,793.66,799.65z"/>
		<linearGradient id="SVGID_35_" gradientUnits="userSpaceOnUse" x1="16.6327" y1="199.6718" x2="629.6464" y2="930.233">
			<stop  offset="0" style="stop-color:#B82D76"/>
			<stop  offset="0.25" style="stop-color:#EA257C"/>
			<stop  offset="0.5" style="stop-color:#F6921E"/>
			<stop  offset="0.75" style="stop-color:#D6DE23"/>
			<stop  offset="1" style="stop-color:#6CC9CC"/>
		</linearGradient>
		<path class="st35" d="M654.58,896.14c-35.25,0-63.82,28.56-63.82,63.81c0,35.25,28.57,63.82,63.82,63.82
			c35.24,0,63.82-28.57,63.82-63.82C718.4,924.7,689.83,896.14,654.58,896.14z"/>
		<linearGradient id="SVGID_36_" gradientUnits="userSpaceOnUse" x1="-128.2527" y1="325.9576" x2="484.7824" y2="1056.5444">
			<stop  offset="0" style="stop-color:#B82D76"/>
			<stop  offset="0.25" style="stop-color:#EA257C"/>
			<stop  offset="0.5" style="stop-color:#F6921E"/>
			<stop  offset="0.75" style="stop-color:#D6DE23"/>
			<stop  offset="1" style="stop-color:#6CC9CC"/>
		</linearGradient>
		<ellipse class="st36" cx="254.67" cy="782.31" rx="69.81" ry="69.82"/>
		<linearGradient id="SVGID_37_" gradientUnits="userSpaceOnUse" x1="-104.9598" y1="305.7094" x2="508.0467" y2="1036.2621">
			<stop  offset="0" style="stop-color:#B82D76"/>
			<stop  offset="0.25" style="stop-color:#EA257C"/>
			<stop  offset="0.5" style="stop-color:#F6921E"/>
			<stop  offset="0.75" style="stop-color:#D6DE23"/>
			<stop  offset="1" style="stop-color:#6CC9CC"/>
		</linearGradient>
		<circle class="st37" cx="377.84" cy="881.09" r="67.25"/>
		<linearGradient id="SVGID_38_" gradientUnits="userSpaceOnUse" x1="-77.3525" y1="281.5765" x2="535.6982" y2="1012.1819">
			<stop  offset="0" style="stop-color:#B82D76"/>
			<stop  offset="0.25" style="stop-color:#EA257C"/>
			<stop  offset="0.5" style="stop-color:#F6921E"/>
			<stop  offset="0.75" style="stop-color:#D6DE23"/>
			<stop  offset="1" style="stop-color:#6CC9CC"/>
		</linearGradient>
		<path class="st38" d="M500.97,906.91c-35.29,0-63.89,28.6-63.89,63.88c0,35.28,28.6,63.88,63.89,63.88
			c35.28,0,63.88-28.6,63.88-63.88C564.85,935.51,536.25,906.91,500.97,906.91z"/>
		<linearGradient id="SVGID_39_" gradientUnits="userSpaceOnUse" x1="253.447" y1="-6.9554" x2="866.467" y2="723.6135">
			<stop  offset="0" style="stop-color:#B82D76"/>
			<stop  offset="0.25" style="stop-color:#EA257C"/>
			<stop  offset="0.5" style="stop-color:#F6921E"/>
			<stop  offset="0.75" style="stop-color:#D6DE23"/>
			<stop  offset="1" style="stop-color:#6CC9CC"/>
		</linearGradient>
		<path class="st39" d="M904.14,703.52c-35.89,0-64.98,29.1-64.98,64.99c0,35.88,29.09,64.98,64.98,64.98
			c35.88,0,64.98-29.1,64.98-64.98C969.11,732.62,940.02,703.52,904.14,703.52z"/>
		<linearGradient id="SVGID_40_" gradientUnits="userSpaceOnUse" x1="-155.6299" y1="349.8361" x2="457.3889" y2="1080.4033">
			<stop  offset="0" style="stop-color:#B82D76"/>
			<stop  offset="0.25" style="stop-color:#EA257C"/>
			<stop  offset="0.5" style="stop-color:#F6921E"/>
			<stop  offset="0.75" style="stop-color:#D6DE23"/>
			<stop  offset="1" style="stop-color:#6CC9CC"/>
		</linearGradient>
		<path class="st40" d="M139.96,658.54c-24.06,0-43.56,19.5-43.56,43.57c0,24.06,19.5,43.57,43.56,43.57
			c24.06,0,43.57-19.51,43.57-43.57C183.52,678.04,164.02,658.54,139.96,658.54z"/>
		<linearGradient id="SVGID_41_" gradientUnits="userSpaceOnUse" x1="-177.6661" y1="369.0486" x2="435.3917" y2="1099.6625">
			<stop  offset="0" style="stop-color:#B82D76"/>
			<stop  offset="0.25" style="stop-color:#EA257C"/>
			<stop  offset="0.5" style="stop-color:#F6921E"/>
			<stop  offset="0.75" style="stop-color:#D6DE23"/>
			<stop  offset="1" style="stop-color:#6CC9CC"/>
		</linearGradient>
		<path class="st41" d="M264.05,867.42c-15.49,0-28.05,12.55-28.05,28.03c0,15.49,12.55,28.05,28.05,28.05
			c15.48,0,28.04-12.56,28.04-28.05C292.08,879.97,279.53,867.42,264.05,867.42z"/>
		<linearGradient id="SVGID_42_" gradientUnits="userSpaceOnUse" x1="-3.287" y1="217.1033" x2="609.688" y2="947.6185">
			<stop  offset="0" style="stop-color:#B82D76"/>
			<stop  offset="0.25" style="stop-color:#EA257C"/>
			<stop  offset="0.5" style="stop-color:#F6921E"/>
			<stop  offset="0.75" style="stop-color:#D6DE23"/>
			<stop  offset="1" style="stop-color:#6CC9CC"/>
		</linearGradient>
		<path class="st42" d="M573.52,885.81c-10.33,0-18.71,8.37-18.71,18.7c0,10.34,8.38,18.71,18.71,18.71
			c10.34,0,18.71-8.37,18.71-18.71C592.23,894.19,583.86,885.81,573.52,885.81z"/>
		<linearGradient id="SVGID_43_" gradientUnits="userSpaceOnUse" x1="106.6165" y1="121.339" x2="719.5656" y2="851.8234">
			<stop  offset="0" style="stop-color:#B82D76"/>
			<stop  offset="0.25" style="stop-color:#EA257C"/>
			<stop  offset="0.5" style="stop-color:#F6921E"/>
			<stop  offset="0.75" style="stop-color:#D6DE23"/>
			<stop  offset="1" style="stop-color:#6CC9CC"/>
		</linearGradient>
		<path class="st43" d="M810.33,941.3c-10.33,0-18.7,8.37-18.7,18.7c0,10.34,8.36,18.7,18.7,18.7c10.33,0,18.71-8.36,18.71-18.7
			C829.04,949.67,820.66,941.3,810.33,941.3z"/>
		<linearGradient id="SVGID_44_" gradientUnits="userSpaceOnUse" x1="-151.1688" y1="345.9486" x2="461.8937" y2="1076.568">
			<stop  offset="0" style="stop-color:#B82D76"/>
			<stop  offset="0.25" style="stop-color:#EA257C"/>
			<stop  offset="0.5" style="stop-color:#F6921E"/>
			<stop  offset="0.75" style="stop-color:#D6DE23"/>
			<stop  offset="1" style="stop-color:#6CC9CC"/>
		</linearGradient>
		<path class="st44" d="M397.84,975.14c-13.86,0-25.09,11.23-25.09,25.09c0,13.85,11.23,25.1,25.09,25.1
			c13.86,0,25.1-11.25,25.1-25.1C422.94,986.38,411.7,975.14,397.84,975.14z"/>
		<linearGradient id="SVGID_45_" gradientUnits="userSpaceOnUse" x1="-176.952" y1="368.393" x2="436.1362" y2="1099.0431">
			<stop  offset="0" style="stop-color:#B82D76"/>
			<stop  offset="0.25" style="stop-color:#EA257C"/>
			<stop  offset="0.5" style="stop-color:#F6921E"/>
			<stop  offset="0.75" style="stop-color:#D6DE23"/>
			<stop  offset="1" style="stop-color:#6CC9CC"/>
		</linearGradient>
		<path class="st45" d="M327.19,950.5c-10.33,0-18.71,8.37-18.71,18.71c0,10.34,8.37,18.7,18.71,18.7c10.34,0,18.7-8.36,18.7-18.7
			C345.89,958.87,337.53,950.5,327.19,950.5z"/>
		<linearGradient id="SVGID_46_" gradientUnits="userSpaceOnUse" x1="99.1842" y1="127.475" x2="712.2769" y2="858.1303">
			<stop  offset="0" style="stop-color:#B82D76"/>
			<stop  offset="0.25" style="stop-color:#EA257C"/>
			<stop  offset="0.5" style="stop-color:#F6921E"/>
			<stop  offset="0.75" style="stop-color:#D6DE23"/>
			<stop  offset="1" style="stop-color:#6CC9CC"/>
		</linearGradient>
		<path class="st46" d="M677.02,839.97c0,11.06,8.97,20.04,20.02,20.04c11.06,0,20.03-8.97,20.03-20.04
			c0-11.05-8.97-20.02-20.03-20.02C685.99,819.96,677.02,828.92,677.02,839.97z"/>
		<linearGradient id="SVGID_47_" gradientUnits="userSpaceOnUse" x1="333.7894" y1="-77.3124" x2="946.9262" y2="653.3956">
			<stop  offset="0" style="stop-color:#B82D76"/>
			<stop  offset="0.25" style="stop-color:#EA257C"/>
			<stop  offset="0.5" style="stop-color:#F6921E"/>
			<stop  offset="0.75" style="stop-color:#D6DE23"/>
			<stop  offset="1" style="stop-color:#6CC9CC"/>
		</linearGradient>
		<path class="st47" d="M1005.79,703.52c-11.05,0-20.02,8.97-20.02,20.03c0,11.06,8.97,20.04,20.02,20.04
			c11.06,0,20.02-8.97,20.02-20.04C1025.81,712.49,1016.85,703.52,1005.79,703.52z"/>
		<linearGradient id="SVGID_48_" gradientUnits="userSpaceOnUse" x1="194.4235" y1="44.5975" x2="807.429" y2="775.149">
			<stop  offset="0" style="stop-color:#B82D76"/>
			<stop  offset="0.25" style="stop-color:#EA257C"/>
			<stop  offset="0.5" style="stop-color:#F6921E"/>
			<stop  offset="0.75" style="stop-color:#D6DE23"/>
			<stop  offset="1" style="stop-color:#6CC9CC"/>
		</linearGradient>
		<path class="st48" d="M901.52,856.17c-17.19,0-31.11,13.93-31.11,31.11c0,17.17,13.93,31.1,31.11,31.1
			c17.17,0,31.1-13.93,31.1-31.1C932.62,870.1,918.69,856.17,901.52,856.17z"/>
		<linearGradient id="SVGID_49_" gradientUnits="userSpaceOnUse" x1="36.7562" y1="182.1121" x2="649.759" y2="912.6603">
			<stop  offset="0" style="stop-color:#B82D76"/>
			<stop  offset="0.25" style="stop-color:#EA257C"/>
			<stop  offset="0.5" style="stop-color:#F6921E"/>
			<stop  offset="0.75" style="stop-color:#D6DE23"/>
			<stop  offset="1" style="stop-color:#6CC9CC"/>
		</linearGradient>
		<path class="st49" d="M612.48,849.38c-10.41,0-18.85,8.44-18.85,18.85c0,10.42,8.44,18.85,18.85,18.85s18.86-8.43,18.86-18.85
			C631.34,857.83,622.89,849.38,612.48,849.38z"/>
		<linearGradient id="SVGID_50_" gradientUnits="userSpaceOnUse" x1="456.5671" y1="-184.3083" x2="1069.5483" y2="546.2144">
			<stop  offset="0" style="stop-color:#B82D76"/>
			<stop  offset="0.25" style="stop-color:#EA257C"/>
			<stop  offset="0.5" style="stop-color:#F6921E"/>
			<stop  offset="0.75" style="stop-color:#D6DE23"/>
			<stop  offset="1" style="stop-color:#6CC9CC"/>
		</linearGradient>
		<path class="st50" d="M649.08,67.71c12.48,0,22.58-10.12,22.58-22.58c0-12.47-10.1-22.58-22.58-22.58
			c-12.47,0-22.58,10.12-22.58,22.58C626.5,57.59,636.61,67.71,649.08,67.71z"/>
		<linearGradient id="SVGID_51_" gradientUnits="userSpaceOnUse" x1="527.4014" y1="-246.0309" x2="1140.3796" y2="484.4881">
			<stop  offset="0" style="stop-color:#B82D76"/>
			<stop  offset="0.25" style="stop-color:#EA257C"/>
			<stop  offset="0.5" style="stop-color:#F6921E"/>
			<stop  offset="0.75" style="stop-color:#D6DE23"/>
			<stop  offset="1" style="stop-color:#6CC9CC"/>
		</linearGradient>
		<path class="st51" d="M867.73,180.75c11.71,0,21.19-9.49,21.19-21.19c0-11.71-9.48-21.19-21.19-21.19
			c-11.7,0-21.2,9.48-21.2,21.19C846.53,171.26,856.03,180.75,867.73,180.75z"/>
	</g>
</g>
</svg>
