<?xml version="1.0" encoding="utf-8"?>
<!-- Generator: Adobe Illustrator 22.0.0, SVG Export Plug-In . SVG Version: 6.00 Build 0)  -->
<svg version="1.1" id="Camada_1" xmlns="http://www.w3.org/2000/svg" xmlns:xlink="http://www.w3.org/1999/xlink" x="0px" y="0px"
	 viewBox="0 0 600 148" style="enable-background:new 0 0 600 148;" xml:space="preserve">
<style type="text/css">
	.st0{fill:#2D4065;}
	.st1{fill:#FFFFFF;}
	.st2{fill:#EEC5C1;}
</style>
<g>
	<rect y="1.1" class="st0" width="300" height="145.7"/>
	<g>
		<path class="st1" d="M101.7,115.8c-4,0-7.1-3.1-7.1-7.1V62.8l-21,31.7c-1.3,2-3.6,3.1-6,3.1s-4.7-1.1-6-3.1l-21-31.7v45.9
			c0,4-3.1,7.1-7.1,7.1c-4,0-7.1-3.1-7.1-7.1V39.3c0-3.1,2-5.8,5.1-6.8c3-0.9,6.1,0.3,8,2.8l28.1,42.9l28.1-42.9
			c1.8-2.6,5-3.7,8-2.8c3.1,1,5.1,3.7,5.1,6.8v69.3C108.8,112.6,105.7,115.8,101.7,115.8z"/>
		<path class="st2" d="M193.2,103.3c4.8,4.8,1.7,12.5-4.8,12.5c-1.8,0-3.6-0.9-5.1-2.4l-37.1-37.1c-5.4,2.3-8.9,7.5-8.9,12.1
			c0,7.4,8.5,13.2,18.5,13.2c4,0,7.1,3.1,7.1,6.7c0,4.4-3.1,7.5-7.1,7.5c-19,0-32.7-12.5-32.7-27.4c0-7.7,3.7-16.8,14.8-23.7
			c-2.1-3.3-3.4-6.8-3.4-11.5c0-11.4,9.5-20.9,21.3-20.9c11.8,0,21.3,9.5,21.3,20.9c0,9.7-5.8,17-13.9,20L193.2,103.3z M155.7,46.4
			c-4,0-7.1,3.1-7.1,6.7c0,4.4,3.1,7.5,7.1,7.5c4,0,7.1-3.1,7.1-7.5C162.8,49.6,159.7,46.4,155.7,46.4z"/>
		<path class="st1" d="M263.2,71.2c6.2,4.4,10.4,11.6,10.4,19.9c0,13.3-10.8,24.1-24.1,24.1h-34.1c-4,0-7.1-3.1-7.1-7.1V39.9
			c0-4,3.1-7.1,7.1-7.1h28.4c13.3,0,24.1,10.8,24.1,24.1C267.9,62.4,266.2,67.2,263.2,71.2z M243.7,47h-21.3v19.9h21.3
			c5.5,0,9.9-4.4,9.9-9.9S249.3,47,243.7,47z M249.4,101c5.5,0,9.9-4.4,9.9-9.9c0-5.5-4.4-9.9-9.9-9.9h-27V101H249.4z"/>
	</g>
	<g>
		<rect x="300" y="1.1" class="st2" width="300" height="145.7"/>
		<g>
			<path class="st0" d="M381.8,115.3H338c-4.4,0-7.1-2.7-7.1-7.1c0-3.8,0.7-9,2.6-12.9c4.6-9.5,8.7-14.1,21.8-21.8
				c5-3,9.7-5.5,12.9-8.5c4-3.6,4.6-6.4,4.6-9.1c0-6.8-5.1-9.7-13.2-9.7c-8.5,0-12.2,3-16.2,6.4c-2.7,2.4-6.3,3.3-9.2,1.3
				c-3.1-2.4-4-6.8-1.7-10c1-1.3,7.3-11.7,27.3-11.7c18.2,0,27.3,10,27.3,23.5c0,13.1-7.7,20.9-24.3,29.9
				c-7.7,4.1-12.1,9.5-14.5,15.5h33.7c4,0,7.1,3.1,7.1,7.1C388.9,112.1,385.8,115.3,381.8,115.3z"/>
			<path class="st0" d="M440,115.8c-23.5,0-41.3-18.9-41.3-41.8c0-22.9,17.8-41.8,41.3-41.8c14.7,0,28.5,8.3,35.7,20.6
				c2,3.4,0.9,7.7-2.6,9.7c-3.4,2-7.8,0.9-9.7-2.6c-4.8-8-13.4-13.5-23.5-13.5c-14.9,0-27,12.4-27,27.6c0,15.2,12.1,27.6,27,27.6
				c10.1,0,18.9-4.8,23.3-12.1v-2.7h-15.4c-4,0-7.1-3.1-7.1-7.1c0-4,3.1-7.1,7.1-7.1h21.6c4,0,7.1,3.1,7.1,7.1v11.1
				c0,1.7-0.1,3-1,4.4C468.1,107.4,454.6,115.8,440,115.8z"/>
			<path class="st0" d="M527.9,115.8c-23.3,0-41.3-18.5-41.3-41.8c0-23.3,17.9-41.8,41.3-41.8c23.3,0,41.3,18.5,41.3,41.8
				C569.2,97.3,551.2,115.8,527.9,115.8z M527.9,46.4c-14.9,0-27,12.7-27,27.6c0,14.9,12.1,27.6,27,27.6c14.9,0,27-12.7,27-27.6
				C554.9,59.1,542.8,46.4,527.9,46.4z"/>
		</g>
	</g>
</g>
</svg>
