<?xml version="1.0" encoding="UTF-8"?><svg id="Camada_2" xmlns="http://www.w3.org/2000/svg" viewBox="0 0 888.02 117.86"><defs><style>.cls-1{fill:#28703e;}</style></defs><g id="Capa_1"><g><path class="cls-1" d="M60.65,49.68c-10.97-3.29-22.1-1.88-29.46-4.54-4.86-1.73-7.99-5.33-7.99-10.19,0-7.68,6.89-13.64,18.02-13.64s18.49,5.48,18.81,13.79h22.41C82.44,14.26,65.04,0,41.53,0S.94,15.2,.94,36.05c0,14.58,8.15,26.02,23.19,30.25,10.19,2.82,22.26,2.04,29.62,4.7,4.55,1.57,8.15,5.17,8.15,10.81,0,8.31-7.05,14.73-19.12,14.73s-20.53-6.11-20.53-15.2H0c0,21.63,18.18,36.52,42.48,36.52s41.69-15.67,41.69-37.3c0-15.36-8.93-26.49-23.51-30.88Z"/><polygon class="cls-1" points="297.52 76.48 249.56 1.72 227.31 1.72 227.31 116.13 249.56 116.13 249.56 41.38 297.52 116.13 319.62 116.13 319.62 1.72 297.52 1.72 297.52 76.48"/><polygon class="cls-1" points="345.36 23.67 378.59 23.67 378.59 116.13 401.16 116.13 401.16 23.67 434.23 23.67 434.23 1.72 345.36 1.72 345.36 23.67"/><rect class="cls-1" x="460.13" y="1.72" width="22.41" height="114.41"/><polygon class="cls-1" points="555.16 81.34 529.3 1.72 506.26 1.72 543.88 116.13 566.13 116.13 603.44 1.72 580.87 1.72 555.16 81.34"/><polygon class="cls-1" points="627.14 116.13 716.01 116.13 716.01 94.19 649.4 94.19 649.4 60.34 682.87 60.34 682.87 38.4 649.4 38.4 649.4 23.67 716.01 23.67 716.01 1.72 627.14 1.72 627.14 116.13"/><rect class="cls-1" x="865.61" y="1.72" width="22.41" height="114.41"/><path class="cls-1" d="M143.1,1.72l-25.61,77.9h-17.48v21.94h10.27l-4.79,14.57h22.25l4.76-14.57h43.45l4.76,14.57h22.73L166.14,1.72h-23.04Zm25.7,77.9h-29.13l.46-1.42,14.1-43.41,14.11,43.41,.46,1.42Z"/><path class="cls-1" d="M835.79,41.95c-.03-23.33-17.1-40.23-41.22-40.23h-48.59V116.13h22.41v-21.53c2.92,5.04,8.04,10.19,16.88,14.18,10.78,4.86,25.65,7.32,44.22,7.32v-22.34c-26.1,0-40.54-5.67-42.25-11.64h2.16l5.17,.1c7.03,0,13.38-1.57,18.96-4.18,11.92-5.48,20-16.47,21.85-30.03,0-.06,.01-.13,.02-.19,.1-.79,.18-1.6,.24-2.41,.02-.24,.04-.49,.05-.74,.05-.85,.08-1.71,.09-2.58,0-.03,0-.07,0-.1v-.05h0Zm-22.92,4.62c-1.3,5.84-5.05,10.28-10.4,12.38-2.26,.9-4.81,1.4-7.58,1.4h-26.49V23.67h26.64c10.8,0,18.32,7.51,18.33,18.31,0,0-.19,3.14-.51,4.59Z"/></g></g></svg>