<?xml version="1.0" encoding="utf-8"?>
<!-- Generator: Adobe Illustrator 24.2.1, SVG Export Plug-In . SVG Version: 6.00 Build 0)  -->
<svg version="1.1" xmlns="http://www.w3.org/2000/svg" xmlns:xlink="http://www.w3.org/1999/xlink" x="0px" y="0px"
	 viewBox="0 0 794.48 307.34" style="enable-background:new 0 0 794.48 307.34;" xml:space="preserve">
<style type="text/css">
	.st0{display:none;}
	.st1{display:inline;}
	.st2{fill:none;stroke:#0B9DDA;stroke-width:0.5;stroke-miterlimit:10;}
	.st3{fill:none;stroke:#0B9DDA;stroke-width:0.5;stroke-miterlimit:10;stroke-dasharray:12.0174,12.0174;}
	.st4{fill:#D6D7D7;}
	.st5{fill:none;stroke:#E4097D;stroke-width:0.5;stroke-miterlimit:10;}
</style>
<g id="Grid" class="st0">
	<g class="st1">
		<g>
			<line class="st2" x1="240.94" y1="2703.45" x2="240.94" y2="2709.45"/>
			<line class="st3" x1="240.94" y1="2721.47" x2="240.94" y2="3604.75"/>
			<line class="st2" x1="240.94" y1="3610.76" x2="240.94" y2="3616.76"/>
		</g>
	</g>
	<g class="st1">
		<g>
			<line class="st2" x1="572" y1="2703.45" x2="572" y2="2709.45"/>
			<line class="st3" x1="572" y1="2721.47" x2="572" y2="3604.75"/>
			<line class="st2" x1="572" y1="3610.76" x2="572" y2="3616.76"/>
		</g>
	</g>
	<g class="st1">
		<g>
			<circle class="st4" cx="192.02" cy="3195.24" r="48.27"/>
			<circle class="st4" cx="621.18" cy="3195.24" r="48.27"/>
			<circle class="st4" cx="406.56" cy="2973.45" r="48.27"/>
			<circle class="st4" cx="406.56" cy="3417.28" r="48.27"/>
		</g>
		<rect x="240.65" y="3021.11" class="st5" width="331.83" height="348.27"/>
		<rect x="240.65" y="2925.03" class="st5" width="331.83" height="540.41"/>
		<rect x="144.89" y="3021.72" class="st5" width="523.34" height="347.04"/>
		<rect x="144.89" y="2925.03" class="st5" width="523.34" height="540.41"/>
	</g>
	<g class="st1">
		<g>
			<line class="st2" x1="240.94" y1="1817.56" x2="240.94" y2="1823.56"/>
			<line class="st3" x1="240.94" y1="1835.58" x2="240.94" y2="2718.86"/>
			<line class="st2" x1="240.94" y1="2724.87" x2="240.94" y2="2730.87"/>
		</g>
	</g>
	<g class="st1">
		<g>
			<line class="st2" x1="572" y1="1817.56" x2="572" y2="1823.56"/>
			<line class="st3" x1="572" y1="1835.58" x2="572" y2="2718.86"/>
			<line class="st2" x1="572" y1="2724.87" x2="572" y2="2730.87"/>
		</g>
	</g>
	<g class="st1">
		<g>
			<line class="st2" x1="240.94" y1="1818.89" x2="240.94" y2="1824.89"/>
			<line class="st3" x1="240.94" y1="1836.91" x2="240.94" y2="2720.19"/>
			<line class="st2" x1="240.94" y1="2726.2" x2="240.94" y2="2732.2"/>
		</g>
	</g>
	<g class="st1">
		<g>
			<line class="st2" x1="572" y1="1818.89" x2="572" y2="1824.89"/>
			<line class="st3" x1="572" y1="1836.91" x2="572" y2="2720.19"/>
			<line class="st2" x1="572" y1="2726.2" x2="572" y2="2732.2"/>
		</g>
	</g>
	<g class="st1">
		<g>
			<line class="st2" x1="240.94" y1="1785.64" x2="240.94" y2="1791.64"/>
			<line class="st3" x1="240.94" y1="1803.66" x2="240.94" y2="2686.94"/>
			<line class="st2" x1="240.94" y1="2692.95" x2="240.94" y2="2698.95"/>
		</g>
	</g>
	<g class="st1">
		<g>
			<line class="st2" x1="572" y1="1785.64" x2="572" y2="1791.64"/>
			<line class="st3" x1="572" y1="1803.66" x2="572" y2="2686.94"/>
			<line class="st2" x1="572" y1="2692.95" x2="572" y2="2698.95"/>
		</g>
	</g>
	<g class="st1">
		<g>
			<circle class="st4" cx="192.02" cy="2277.43" r="48.27"/>
			<circle class="st4" cx="621.18" cy="2277.43" r="48.27"/>
			<circle class="st4" cx="406.56" cy="2055.64" r="48.27"/>
			<circle class="st4" cx="406.56" cy="2499.47" r="48.27"/>
		</g>
		<rect x="240.65" y="2103.29" class="st5" width="331.83" height="348.27"/>
		<rect x="240.65" y="2007.22" class="st5" width="331.83" height="540.41"/>
		<rect x="144.89" y="2103.91" class="st5" width="523.34" height="347.04"/>
		<rect x="144.89" y="2007.22" class="st5" width="523.34" height="540.41"/>
	</g>
	<g class="st1">
		<g>
			<line class="st2" x1="240.94" y1="899.75" x2="240.94" y2="905.75"/>
			<line class="st3" x1="240.94" y1="917.77" x2="240.94" y2="1801.05"/>
			<line class="st2" x1="240.94" y1="1807.06" x2="240.94" y2="1813.06"/>
		</g>
	</g>
	<g class="st1">
		<g>
			<line class="st2" x1="572" y1="899.75" x2="572" y2="905.75"/>
			<line class="st3" x1="572" y1="917.77" x2="572" y2="1801.05"/>
			<line class="st2" x1="572" y1="1807.06" x2="572" y2="1813.06"/>
		</g>
	</g>
	<g class="st1">
		<g>
			<line class="st2" x1="240.94" y1="901.08" x2="240.94" y2="907.08"/>
			<line class="st3" x1="240.94" y1="919.1" x2="240.94" y2="1802.38"/>
			<line class="st2" x1="240.94" y1="1808.39" x2="240.94" y2="1814.39"/>
		</g>
	</g>
	<g class="st1">
		<g>
			<line class="st2" x1="572" y1="901.08" x2="572" y2="907.08"/>
			<line class="st3" x1="572" y1="919.1" x2="572" y2="1802.38"/>
			<line class="st2" x1="572" y1="1808.39" x2="572" y2="1814.39"/>
		</g>
	</g>
	<g class="st1">
		<g>
			<circle class="st4" cx="192.02" cy="1392.87" r="48.27"/>
			<circle class="st4" cx="621.18" cy="1392.87" r="48.27"/>
			<circle class="st4" cx="406.56" cy="1171.08" r="48.27"/>
			<circle class="st4" cx="406.56" cy="1614.91" r="48.27"/>
		</g>
		<rect x="240.65" y="1218.73" class="st5" width="331.83" height="348.27"/>
		<rect x="240.65" y="1122.66" class="st5" width="331.83" height="540.41"/>
		<rect x="144.89" y="1219.35" class="st5" width="523.34" height="347.04"/>
		<rect x="144.89" y="1122.66" class="st5" width="523.34" height="540.41"/>
	</g>
	<g class="st1">
		<g>
			<line class="st2" x1="240.94" y1="15.19" x2="240.94" y2="21.19"/>
			<line class="st3" x1="240.94" y1="33.21" x2="240.94" y2="916.49"/>
			<line class="st2" x1="240.94" y1="922.5" x2="240.94" y2="928.5"/>
		</g>
	</g>
	<g class="st1">
		<g>
			<line class="st2" x1="572" y1="15.19" x2="572" y2="21.19"/>
			<line class="st3" x1="572" y1="33.21" x2="572" y2="916.49"/>
			<line class="st2" x1="572" y1="922.5" x2="572" y2="928.5"/>
		</g>
	</g>
	<g class="st1">
		<g>
			<circle class="st4" cx="192.02" cy="506.98" r="48.27"/>
			<circle class="st4" cx="621.18" cy="506.98" r="48.27"/>
			<circle class="st4" cx="406.56" cy="285.19" r="48.27"/>
			<circle class="st4" cx="406.56" cy="729.02" r="48.27"/>
		</g>
		<rect x="240.65" y="332.84" class="st5" width="331.83" height="348.27"/>
		<rect x="240.65" y="236.77" class="st5" width="331.83" height="540.41"/>
		<rect x="144.89" y="333.46" class="st5" width="523.34" height="347.04"/>
		<rect x="144.89" y="236.77" class="st5" width="523.34" height="540.41"/>
	</g>
</g>
<g id="Layer_1">
	<g>
		<g>
			<g>
				<g>
					<g>
						<rect x="52.77" y="52.85" width="20.67" height="105.53"/>
						<rect x="132.75" y="52.85" width="20.67" height="105.53"/>
						<circle cx="103.1" cy="105.62" r="14.63"/>
					</g>
					<g>
						<g>
							<g>
								<g>
									<g>
										<polygon points="651.59,52.85 651.59,71.12 687.55,71.12 687.55,158.71 705.82,158.71 705.82,71.12 741.79,71.12 
											741.79,52.85 										"/>
										<path d="M323.51,52.85l-41.2,105.86l20.05,0l5.82-14.84h47.58l5.78,14.84h20.1L340.57,52.85H323.51z M315.14,125.61
											l16.78-44.99l16.98,44.99H315.14z"/>
										<polygon points="184.11,158.71 184.11,158.71 184.11,158.71 202.38,158.71 202.38,158.71 260.35,158.71 260.35,140.44 
											202.38,140.44 202.38,114.92 255.75,114.92 255.75,96.65 202.38,96.65 202.38,71.12 260.35,71.12 260.35,52.85 
											184.11,52.85 										"/>
										<polygon points="424.43,52.85 406.16,52.85 406.16,158.71 406.16,158.71 406.16,158.71 482.4,158.71 482.4,140.44 
											424.43,140.44 										"/>
										<rect x="509.51" y="52.85" width="18.27" height="105.86"/>
										<path d="M602.61,96.93l-9.64-1.68c-15.4-2.51-17.38-8.36-17.38-13.17c0-7.36,7.68-12.71,18.27-12.71
											c10.08,0,17.76,3.61,24.19,11.35l2.92,3.52l12.62-13.86l-2.46-2.68c-9.97-10.88-21.89-16.17-36.44-16.17
											c-18.24,0-37.62,10.85-37.62,30.95c0,15.8,11.52,27.24,30.82,30.61l11.95,2.08c4.24,0.75,17.15,3.03,17.15,13.6
											c0,9.89-10.66,13.4-19.8,13.4c-11.95,0-21.39-4.64-28.07-13.8l-2.79-3.83l-12.81,13.3l1.92,2.69
											c8.68,12.19,23.82,19.47,40.5,19.47c23.3,0,39.57-12.9,39.57-31.37C635.52,111.6,623.82,100.33,602.61,96.93z"/>
									</g>
								</g>
							</g>
						</g>
					</g>
					<g>
						<path d="M77.47,242.62H61.63l-4.22,10.94h-4.34l13.94-34.85h5.2l13.88,34.85h-4.4L77.47,242.62z M74.84,239.07l0.86-0.86
							l-5.44-14.12h-1.41l-5.44,14.12l0.86,0.86H74.84z"/>
						<path d="M98.73,253.56v-34.85h9.17c12.23,0,18.77,7.46,18.77,17.43c0,9.97-6.54,17.43-18.77,17.43H98.73z M102.82,248.49
							l1.41,1.41h3.67c9.72,0,14.55-5.93,14.55-13.76c0-7.83-4.83-13.76-14.55-13.76h-3.67l-1.41,1.41V248.49z"/>
						<path d="M149.82,253.56l-13.94-34.85h4.59L151.71,248h1.41l11.25-29.29h4.52l-13.94,34.85H149.82z"/>
						<path d="M199.02,242.62h-15.84l-4.22,10.94h-4.34l13.94-34.85h5.2l13.88,34.85h-4.4L199.02,242.62z M196.39,239.07l0.86-0.86
							l-5.44-14.12h-1.41l-5.44,14.12l0.86,0.86H196.39z"/>
						<path d="M242.35,253.56l-17.18-28.68h-1.28v28.68h-3.85v-34.85h5.75l16.14,27.03h1.35v-27.03h3.85v34.85H242.35z"/>
						<path d="M277.09,250.45c4.34,0,7.22-2.51,9.78-6.54l3.24,2.57c-3.24,5.26-7.21,7.95-13.02,7.95c-9.23,0-15.78-7.7-15.78-18.28
							c0-10.58,6.54-18.28,15.78-18.28c5.81,0,9.78,2.69,13.02,7.89l-3.24,2.63c-2.57-4.1-5.44-6.54-9.78-6.54
							c-7.58,0-11.56,6.42-11.56,14.31S269.51,250.45,277.09,250.45z"/>
						<path d="M309.76,249.77h20.3v3.79h-25.74v-34.85h25.13v3.79h-19.69l-1.41,1.41v9.66h18.4v3.79h-18.4v11.01L309.76,249.77z"/>
						<path d="M344.06,253.56v-34.85h9.17c12.23,0,18.77,7.46,18.77,17.43c0,9.97-6.54,17.43-18.77,17.43H344.06z M348.16,248.49
							l1.41,1.41h3.67c9.72,0,14.55-5.93,14.55-13.76c0-7.83-4.83-13.76-14.55-13.76h-3.67l-1.41,1.41V248.49z"/>
						<path d="M451.35,253.56l-17.18-28.68h-1.28v28.68h-3.85v-34.85h5.75l16.14,27.03h1.35v-27.03h3.85v34.85H451.35z"/>
						<path d="M492.86,242.62h-15.84l-4.22,10.94h-4.34l13.94-34.85h5.2l13.88,34.85h-4.4L492.86,242.62z M490.23,239.07l0.86-0.86
							l-5.44-14.12h-1.41l-5.44,14.12l0.86,0.86H490.23z"/>
						<path d="M524.35,223.91v29.65h-4.1v-29.65l-1.41-1.41h-12.17v-3.79h31.24v3.79h-12.17L524.35,223.91z"/>
						<path d="M573.8,240.54v-21.83h4.1v22.38c0,8.19-5.99,13.33-13.64,13.33c-7.58,0-13.57-5.14-13.57-13.33v-22.38h4.04v21.89
							c0,6.24,4.16,9.97,9.54,9.97C569.71,250.57,573.8,246.84,573.8,240.54z"/>
						<path d="M597.7,253.56h-4.04v-34.85h12.78c8.99,0,13.76,3.61,13.76,10.21c0,5.32-3,8.62-8.74,9.78v1.22l9.72,13.64h-4.83
							l-10.21-14.43h-8.44V253.56z M599.11,222.44l-1.41,1.41v11.56h8.62c6.66,0,9.72-2.32,9.72-6.48s-3.06-6.48-9.72-6.48H599.11z"
							/>
						<path d="M657.27,242.62h-15.84l-4.22,10.94h-4.34l13.94-34.85h5.2l13.88,34.85h-4.4L657.27,242.62z M654.64,239.07l0.86-0.86
							l-5.44-14.12h-1.41l-5.44,14.12l0.86,0.86H654.64z"/>
						<path d="M684.83,249.77h19.08v3.79h-24.52v-34.85h4.04v29.65L684.83,249.77z"/>
						<path d="M737.59,244.09c0-3.36-2.51-4.83-5.38-5.5l-8.74-2.14c-5.69-1.41-9.48-3.61-9.48-8.93c0-5.75,5.32-9.66,12.72-9.66
							c5.56,0,10.52,2.08,14.37,5.5l-2.63,3.24c-3.61-3.49-7.64-5.01-11.98-5.01c-4.89,0-8.38,2.14-8.38,5.75
							c0,3.06,2.45,4.28,6.11,5.2l8.87,2.2c5.07,1.22,8.62,3.91,8.62,9.11c0,6.24-5.69,10.58-13.76,10.58
							c-6.24,0-12.17-2.14-15.9-5.44l2.38-3.55c3.55,3.18,8.38,5.14,13.51,5.14C733.37,250.57,737.59,248.31,737.59,244.09z"/>
					</g>
				</g>
				<g>
					<path d="M761.38,52.85v3.21h-5.02v14.91h-3.47V56.06h-5v-3.21H761.38z"/>
					<path d="M783.26,52.85v18.12h-3.37V58.49h-0.28l-4.3,10.92h-3.44l-4.27-10.92h-0.28v12.48h-3.39V52.85h4.61l4.94,12.16h0.28
						l4.89-12.16H783.26z"/>
				</g>
			</g>
		</g>
	</g>
</g>
</svg>
