<svg width="1377" height="400" viewBox="0 0 1377 400" fill="none" xmlns="http://www.w3.org/2000/svg">
<path fill-rule="evenodd" clip-rule="evenodd" d="M156.055 181.144H80.5158V67.1986H156.055C175.175 67.1986 190.043 71.4859 200.637 80.0377C211.279 88.6123 216.587 102.964 216.587 123.094C216.587 143.224 211.301 157.966 200.661 167.206C190.043 176.49 175.152 181.144 156.055 181.144ZM80.5258 386.982V247.817H162.889C205.864 247.817 238.958 238.37 262.123 219.479C285.264 200.541 296.846 168.282 296.846 122.59C296.846 80.7713 285.264 49.8658 262.123 29.8966C238.958 9.97316 207.887 0 168.958 0H0V386.936H80.5258V386.982Z" fill="#FF6900"/>
<path fill-rule="evenodd" clip-rule="evenodd" d="M501.544 220.218H387.185C389.597 201.889 395.46 187.408 404.839 176.705C414.219 165.957 427.431 160.639 444.499 160.639C460.147 160.639 473.27 165.685 483.844 175.8C494.442 185.869 500.326 200.69 501.544 220.218ZM447.068 399.001C490.449 399.001 524.18 385.289 548.328 357.818C563.773 340.509 572.476 323.515 574.369 306.77H499.243C495.297 315.03 490.72 321.525 485.557 326.208C476.11 334.829 463.798 339.151 448.625 339.151C434.352 339.151 422.132 335.621 411.963 328.515C395.301 317.134 386.395 297.29 385.38 268.915H577.999C578.315 244.59 577.571 225.945 575.677 212.979C572.407 190.872 565.26 171.435 554.235 154.646C542.014 135.661 526.502 121.745 507.742 112.966C488.984 104.141 467.902 99.7511 444.521 99.7511C405.109 99.7511 373.024 112.785 348.335 138.852C323.624 164.964 311.268 202.458 311.268 251.333C311.268 303.49 324.954 341.164 352.304 364.291C379.721 387.438 411.287 399.001 447.068 399.001Z" fill="#FF6900"/>
<path fill-rule="evenodd" clip-rule="evenodd" d="M809.207 220.218H694.848C697.26 201.889 703.122 187.408 712.502 176.705C721.882 165.957 735.094 160.639 752.162 160.639C767.81 160.639 780.933 165.685 791.507 175.8C802.104 185.869 807.989 200.69 809.207 220.218ZM754.731 399.001C798.112 399.001 831.843 385.289 855.991 357.818C871.435 340.509 880.138 323.515 882.031 306.77H806.905C802.96 315.03 798.383 321.525 793.22 326.208C783.772 334.829 771.461 339.151 756.288 339.151C742.015 339.151 729.795 335.621 719.626 328.515C702.964 317.134 694.057 297.29 693.043 268.915H885.662C885.977 244.59 885.234 225.945 883.34 212.979C880.07 190.872 872.923 171.435 861.898 154.646C849.676 135.661 834.165 121.745 815.405 112.966C796.647 104.141 775.565 99.7511 752.184 99.7511C712.771 99.7511 680.687 112.785 655.998 138.852C631.287 164.964 618.931 202.458 618.931 251.333C618.931 303.49 632.617 341.164 659.966 364.291C687.384 387.438 718.949 399.001 754.731 399.001Z" fill="#FF6900"/>
<path fill-rule="evenodd" clip-rule="evenodd" d="M926.593 387.163H1000.97V6.0094H926.593V387.163Z" fill="#FF6900"/>
<path d="M1317.26 46.8699V53.0262H1298.9V98.5476H1291.41V53.0262H1273.06V46.8699H1317.26Z" fill="#FC6921"/>
<path d="M1323.86 46.8699H1334.43L1350.08 90.562L1365.61 46.8699H1376.07V98.5476H1369.06V68.0475C1369.06 66.9921 1369.08 65.2449 1369.14 62.8059C1369.18 60.3668 1369.21 57.7519 1369.21 54.961L1353.67 98.5476H1346.37L1330.72 54.961V56.5441C1330.72 57.8105 1330.74 59.7453 1330.79 62.3485C1330.87 64.9284 1330.9 66.8281 1330.9 68.0475V98.5476H1323.86V46.8699Z" fill="#FC6921"/>
<path fill-rule="evenodd" clip-rule="evenodd" d="M1145.13 398.48C1188.51 398.48 1220.57 389.612 1241.31 371.902C1262.05 354.236 1272.42 331.368 1272.42 303.433C1272.42 282.149 1265.18 264.461 1250.73 250.301C1236.08 236.344 1214.16 225.895 1184.9 218.973C1140.99 209.315 1115.47 202.483 1108.21 198.525C1100.99 194.702 1097.41 188.595 1097.41 180.135C1097.41 173.395 1100.77 167.537 1107.55 162.493C1114.38 157.517 1125.79 154.983 1141.8 154.983C1161.23 154.983 1174.98 160.027 1183.1 170.002C1187.36 175.567 1190.04 183.076 1191.08 192.554H1264.66C1261.37 158.037 1248.7 133.721 1226.56 119.652C1204.49 105.583 1175.84 98.548 1140.76 98.548C1103.74 98.548 1075.07 107.912 1054.64 126.619C1034.24 145.393 1024.07 167.808 1024.07 193.866C1024.07 215.965 1030.59 232.884 1043.66 244.601C1056.74 256.544 1079.21 266.473 1111.05 274.412C1155.28 284.931 1180.84 292.373 1187.72 296.693C1194.6 300.968 1198.07 307.323 1198.07 315.602C1198.07 324.221 1193.78 330.713 1185.26 335.01C1176.74 339.33 1165.29 341.478 1150.79 341.478C1126.2 341.478 1109.31 336.57 1100.23 326.731C1095.04 321.212 1091.7 311.893 1090.15 298.751H1015.53C1015.53 327.772 1026.1 351.636 1047.16 370.387C1068.26 389.115 1100.9 398.48 1145.13 398.48Z" fill="#FF6900"/>
</svg>
