<?xml version="1.0" encoding="utf-8"?>
<!-- Generator: Adobe Illustrator 21.0.2, SVG Export Plug-In . SVG Version: 6.00 Build 0)  -->
<svg version="1.1" id="Camada_1" xmlns="http://www.w3.org/2000/svg" xmlns:xlink="http://www.w3.org/1999/xlink" x="0px" y="0px"
	 viewBox="0 0 546.6 212" style="enable-background:new 0 0 546.6 212;" xml:space="preserve">
<style type="text/css">
	.st0{clip-path:url(#SVGID_2_);fill:#003584;}
	.st1{clip-path:url(#SVGID_2_);fill:#FFFFFF;}
</style>
<g>
	<defs>
		<rect id="SVGID_1_" width="546.6" height="212"/>
	</defs>
	<clipPath id="SVGID_2_">
		<use xlink:href="#SVGID_1_"  style="overflow:visible;"/>
	</clipPath>
	<path class="st0" d="M33.3,7.5c-2.5,0-24,0.8-24,24v150.2c0,2.5,0.8,24,24,24h481.4c2.5,0,24-0.8,24-24V31.5c0-2.5-0.8-24-24-24
		H33.3z"/>
	<path class="st1" d="M87,41c5,0.2,9.9,0.6,15.3,0.6c5.1,0,10.3-0.4,15.5-0.6l-4,10.2c8-6.8,20.5-11.2,36-11.2
		c33.3,0,40.3,13.4,34.6,28.1c-8,20.7-34.1,30.1-57.9,30.1c-15.5,0-22.7-3.9-26.6-8.3l-14.2,36.6c-5.2-0.2-10.4-0.6-15.7-0.6
		c-5.3,0-10.8,0.3-16.2,0.6L87,41z M149.7,69.3c5.1-13.1,3.6-21.8-11.6-21.8c-20.1,0-28.3,15.1-31.1,22.4c-2.7,7.1-6.4,20.7,13,20.7
		C135.1,89.8,145,81.5,149.7,69.3"/>
	<path class="st1" d="M287.4,97.1c-5-0.2-9.9-0.6-15-0.6c-5.3,0-10.5,0.3-15.7,0.6l3.3-8.4c-13.1,5.8-22.7,9.5-38.8,9.5
		c-11.8,0-23.2-2.2-28.2-7.2c-5.2-5-1.3-12.1,1-17.9l12.4-32c5.2,0.2,10.4,0.6,15.7,0.6c5.3,0,10.8-0.4,16.2-0.6l-12.4,31.9
		c-1,2.7-2.6,7.2-1.2,9.6c1.6,3.6,6,6,14.1,6c20.1,0,24-10.1,26.9-17.3L277.3,41c5.2,0.2,10.4,0.6,15.7,0.6c5.3,0,10.8-0.4,16.2-0.6
		L287.4,97.1z"/>
	<path class="st1" d="M330.4,41c5.2,0.2,10.4,0.6,15.7,0.6c5.3,0,10.8-0.4,16.2-0.6l-5.6,14.3c8.1-8.4,21-15.4,43.7-15.4
		c-3.3,5.4-6,10.8-7.3,15.7l-2.4,0.9c-2.6-1-7.5-1.5-11.2-1.5c-10.2,0-19.5,2.7-24.2,7.6c-3.4,3.3-5.1,9.7-6.6,13.4l-8.1,20.9
		c-5.2-0.2-10.4-0.6-15.7-0.6c-5.3,0-10.8,0.3-16.2,0.6L330.4,41z"/>
	<path class="st1" d="M428.2,69.1c-5.3,11.9-0.7,21.5,23.8,21.5c9.5,0,20.7-2.2,29.1-5.2l2.4,1l-7.6,6.5
		c-10.5,3.2-23.8,5.2-35.1,5.2c-38.4,0-53.5-11.6-46.2-30.4c6.3-16.2,30.2-27.7,63.7-27.7c36.3,0,45.1,12.6,36.1,29.1H428.2z
		 M464.5,63.5c2.4-6.1,5.8-18.4-8.1-18.4c-16.9,0-23.3,12.2-26.1,18.4H464.5z"/>
	<path class="st1" d="M56,155.6c-1.6,4.2-0.2,7.6,7.2,7.6c2.8,0,6.2-0.8,8.7-1.8l0.7,0.4l-2.3,2.3c-3.2,1.1-7.1,1.8-10.5,1.8
		c-11.5,0-16.1-4.1-13.9-10.8c1.9-5.7,9.1-9.8,19.1-9.8c10.9,0,13.6,4.5,10.8,10.3H56z M66.9,153.6c0.7-2.2,1.7-6.5-2.4-6.5
		c-5.1,0-7,4.3-7.8,6.5H66.9z"/>
	<path class="st1" d="M85.1,145.7c1.5,0.1,3,0.2,4.6,0.2c1.5,0,3.1-0.1,4.7-0.2l-1,3c3.4-1.9,7.5-3.4,11.8-3.4
		c8.8,0,9.9,3.3,8.3,8.2l-4,12c-1.6-0.1-3.1-0.2-4.7-0.2c-1.6,0-3.2,0.1-4.9,0.2l3.4-10.2c1.2-3.8,1.3-6.6-3.5-6.6
		c-6,0-7.6,4.8-8.5,7.4l-3.1,9.4c-1.6-0.1-3.1-0.2-4.7-0.2c-1.6,0-3.2,0.1-4.8,0.2L85.1,145.7z"/>
	<path class="st1" d="M148.7,151.4h-1.7c0.2-2.2-1.6-4.3-5.7-4.3c-6.5,0-10.2,5-11.2,8c-1.6,4.9,0.3,8.1,7.9,8.1
		c2.6,0,5.8-0.7,7.9-1.9l1,0.6l-2.5,2.5c-2.3,1-7.4,1.6-9.9,1.6c-10.8,0-17-3.5-14.9-9.9c2.1-6.5,10.9-10.6,21.8-10.6
		c4,0,8.5,0.6,11.3,1.8L148.7,151.4z"/>
	<path class="st1" d="M179.4,161.9c-0.5,1.5,0.1,2,2.9,1.9l-0.3,0.9c-1.8,0.5-4.7,1.1-6.6,1.1c-3.3,0-5.4-1.2-5.9-3
		c-2.4,1.9-6.3,3-9.9,3c-5.7,0-9.3-1.8-8.2-5.4c1.3-3.9,5.7-5,14.8-6.2c1.8-0.2,3.7-0.5,5.4-1.1c1-0.5,1.4-1,1.6-1.6
		c0.6-2-2.2-3.6-5.4-3.6c-4.4,0-8.6,1.8-9.3,2.5H158l-0.1-2.4c3.9-1.8,9.4-2.7,13.8-2.7c5.8,0,12.7,1.4,11.4,5.5L179.4,161.9z
		 M172.2,154.8c-1.9,0.5-5.1,0.8-7.5,1.8c-2.1,0.9-2.9,2.1-3.3,3.4c-0.5,1.5-0.2,3.3,2.7,3.3c4.2,0,5.9-2.4,6.7-4.5L172.2,154.8z"/>
	<path class="st1" d="M193.3,145.7c1.5,0.1,3,0.2,4.6,0.2c1.5,0,3.1-0.1,4.7-0.2l-1.2,3.6c2.4-2.4,6.2-4,10.8-4
		c10,0,12.1,4.7,10.4,9.9c-2.4,7.3-10.3,10.6-17.4,10.6c-4.7,0-6.8-1.4-8-3l-4.3,13c-1.6-0.1-3.1-0.2-4.7-0.2
		c-1.6,0-3.2,0.1-4.9,0.2L193.3,145.7z M212.2,155.7c1.5-4.6,1.1-7.7-3.5-7.7c-6,0-8.5,5.4-9.4,7.9c-0.8,2.5-1.9,7.3,3.9,7.3
		C207.8,162.9,210.7,160,212.2,155.7"/>
	<path class="st1" d="M228.1,160.3c0.6,2,3,3.5,6.8,3.5c2.4,0,5.7-1.1,6.2-2.5c1.3-3.8-15.3-2.4-12.9-9.5c1.4-4.2,7.8-6.5,14.1-6.5
		c3.5,0,7.1,0.7,9.4,1.9c-1,1.2-2,2.4-2.9,3.6h-2c0-1.8-2.3-3.4-5.5-3.4c-2.5,0-5.4,0.7-5.9,2.4c-1.3,4,15.7,2,13.2,9.6
		c-1.3,3.8-7.2,6.6-15.6,6.6c-3.4,0-6.6-0.5-9-1.7c0.9-1.3,1.6-2.6,2.3-3.9H228.1z"/>
	<path class="st1" d="M283,165.5c-1.5-0.1-3-0.2-4.5-0.2c-1.6,0-3.2,0.1-4.7,0.2l1-3c-4,2-6.8,3.4-11.7,3.4c-3.5,0-7-0.8-8.5-2.5
		c-1.6-1.8-0.4-4.3,0.3-6.3l3.7-11.3c1.6,0.1,3.1,0.2,4.7,0.2c1.6,0,3.2-0.1,4.9-0.2l-3.7,11.3c-0.3,1-0.8,2.5-0.4,3.4
		c0.5,1.3,1.8,2.1,4.2,2.1c6.1,0,7.2-3.6,8.1-6.1l3.5-10.7c1.6,0.1,3.1,0.2,4.7,0.2c1.6,0,3.2-0.1,4.9-0.2L283,165.5z"/>
	<path class="st1" d="M301.6,165.5c-1.6-0.1-3.1-0.2-4.7-0.2c-1.6,0-3.2,0.1-4.9,0.2l10.2-31.1c1.6,0.1,3.1,0.2,4.7,0.2
		c1.6,0,3.2-0.1,4.9-0.2L301.6,165.5z"/>
	<path class="st1" d="M337.7,161.9c-0.5,1.5,0.1,2,2.9,1.9l-0.3,0.9c-1.8,0.5-4.7,1.1-6.6,1.1c-3.3,0-5.4-1.2-5.9-3
		c-2.4,1.9-6.3,3-9.9,3c-5.7,0-9.3-1.8-8.2-5.4c1.3-3.9,5.7-5,14.8-6.2c1.8-0.2,3.7-0.5,5.4-1.1c1-0.5,1.4-1,1.6-1.6
		c0.7-2-2.2-3.6-5.4-3.6c-4.5,0-8.7,1.8-9.3,2.5h-0.5l-0.1-2.4c3.8-1.8,9.4-2.7,13.8-2.7c5.8,0,12.7,1.4,11.4,5.5L337.7,161.9z
		 M330.5,154.8c-1.9,0.5-5.2,0.8-7.5,1.8c-2.1,0.9-2.9,2.1-3.3,3.4c-0.5,1.5-0.3,3.3,2.7,3.3c4.2,0,6-2.4,6.8-4.5L330.5,154.8z"/>
	<path class="st1" d="M358.5,159.9c-0.9,2.8-1.1,4.3,5.4,3.4l-0.5,1.6c-2.8,0.6-5.4,0.9-7.5,0.9c-7.2,0-7.9-2.8-6.6-6.6l3.6-11H348
		c0.5-0.9,0.8-1.7,0.9-2.6h4.7l1.5-4.6c3.4-0.7,6.8-1.6,10.4-2.5l-2.4,7.2h5.9c-0.5,0.9-0.8,1.7-0.9,2.6h-5.9L358.5,159.9z"/>
	<path class="st1" d="M375.8,145.7c1.6,0.1,3.1,0.2,4.7,0.2c1.6,0,3.2-0.1,4.9-0.2l-6.5,19.8c-1.6-0.1-3.1-0.2-4.7-0.2
		c-1.6,0-3.2,0.1-4.9,0.2L375.8,145.7z M384,135c3,0,5.1,1.5,4.5,3.2c-0.6,1.8-3.6,3.2-6.6,3.2c-3,0-4.9-1.5-4.4-3.2
		C378.1,136.5,381,135,384,135"/>
	<path class="st1" d="M389.1,156c2.1-6.4,9.9-10.7,20.5-10.7c10.5,0,15.8,3.8,13.9,9.8c-2,6.2-9.8,10.8-20.7,10.8
		C392.4,165.9,387.1,162.1,389.1,156 M399.4,155.9c-0.9,2.6-2.1,8.1,3.9,8.1c5.4-0.1,8.5-5.1,10-9.6c1.3-4,0.7-7.3-4-7.3
		C403.7,147.1,401,151.1,399.4,155.9"/>
	<path class="st1" d="M432.7,145.7c1.5,0.1,3,0.2,4.6,0.2c1.5,0,3.1-0.1,4.7-0.2l-1,3c3.4-1.9,7.5-3.4,11.8-3.4
		c8.7,0,9.9,3.3,8.3,8.2l-4,12c-1.6-0.1-3.1-0.2-4.7-0.2c-1.6,0-3.2,0.1-4.9,0.2l3.4-10.2c1.3-3.8,1.3-6.6-3.5-6.6
		c-6,0-7.6,4.8-8.5,7.4l-3.1,9.4c-1.6-0.1-3.1-0.2-4.7-0.2c-1.6,0-3.3,0.1-4.9,0.2L432.7,145.7z"/>
	<path class="st1" d="M467.6,160.3c0.6,2,3,3.5,6.8,3.5c2.4,0,5.7-1.1,6.2-2.5c1.3-3.8-15.3-2.4-12.9-9.5c1.4-4.2,7.8-6.5,14.1-6.5
		c3.5,0,7.1,0.7,9.4,1.9c-1,1.2-2,2.4-2.8,3.6h-2c0-1.8-2.3-3.4-5.5-3.4c-2.5,0-5.4,0.7-5.9,2.4c-1.3,4,15.7,2,13.2,9.6
		c-1.2,3.8-7.2,6.6-15.6,6.6c-3.4,0-6.6-0.5-9-1.7c0.8-1.3,1.6-2.6,2.3-3.9H467.6z"/>
	<path class="st1" d="M493.3,129.2c-0.4,0.9-0.9,1.7-1.6,2.5c-0.8,0.7-1.6,1.3-2.6,1.7c-1,0.4-2,0.6-3,0.6c-1,0-2-0.2-2.9-0.6
		c-0.9-0.4-1.8-1-2.5-1.7c-0.7-0.7-1.3-1.6-1.7-2.5c-0.4-0.9-0.6-1.9-0.6-2.9c0-1,0.2-2,0.6-3c0.4-1,1-1.8,1.7-2.6
		c0.7-0.7,1.5-1.3,2.4-1.6c0.9-0.4,1.9-0.6,3-0.6c1,0,2,0.2,3,0.6c0.9,0.4,1.8,0.9,2.5,1.7c0.7,0.7,1.3,1.6,1.6,2.5
		c0.4,0.9,0.6,2,0.6,3C493.9,127.3,493.7,128.3,493.3,129.2 M484.5,122.2h1.6c0.9,0,1.6,0.1,2,0.4c0.4,0.3,0.6,0.7,0.6,1.3
		c0,0.6-0.2,1-0.6,1.2c-0.4,0.3-1.1,0.4-2,0.4h-1.6V122.2z M490,125.6c0.4-0.5,0.6-1.1,0.6-1.8c0-0.9-0.4-1.6-1.1-2.1
		c-0.7-0.5-1.8-0.7-3.2-0.7h-3.8v10.1h1.9v-4.3h1.9l2.1,4.3h2.2l-2.3-4.6C489,126.4,489.6,126.1,490,125.6 M482.3,118.2
		c-1.2,0.6-2.2,1.4-3.1,2.5c-0.6,0.8-1.1,1.7-1.4,2.6c-0.3,0.9-0.5,1.9-0.5,2.9c0,1.2,0.2,2.3,0.7,3.4c0.4,1.1,1.1,2,1.9,2.9
		c0.9,0.9,1.8,1.5,2.9,2c1.1,0.5,2.2,0.7,3.4,0.7c1.1,0,2.3-0.2,3.4-0.7c1.1-0.5,2.1-1.1,2.9-2c0.8-0.8,1.5-1.8,1.9-2.8
		c0.4-1.1,0.7-2.2,0.7-3.4c0-1.4-0.3-2.7-0.9-3.9c-0.6-1.2-1.4-2.3-2.5-3.1c-0.8-0.6-1.6-1.1-2.6-1.4c-0.9-0.3-1.9-0.5-2.9-0.5
		C484.8,117.3,483.5,117.6,482.3,118.2"/>
</g>
</svg>
