<?xml version="1.0" encoding="utf-8"?>
<!-- Generator: Adobe Illustrator 21.0.2, SVG Export Plug-In . SVG Version: 6.00 Build 0)  -->
<svg version="1.1" id="Layer_1" xmlns="http://www.w3.org/2000/svg" xmlns:xlink="http://www.w3.org/1999/xlink" x="0px" y="0px"
	 viewBox="0 0 229.3 233.5" style="enable-background:new 0 0 229.3 233.5;" xml:space="preserve">
<style type="text/css">
	.st0{fill:#FF4933;}
	.st1{fill:#001D3F;}
</style>
<g>
	<path class="st0" d="M146.4,6.7c-1.8,6.3-3.6,12.6-5.4,18.9c-4.6,16.2-9.3,32.3-13.9,48.5c-0.2,0.7-0.4,1-1.2,1.1
		c-8.4,1-16.6,2.8-24.5,5.6c-10.7,3.7-20.6,9-29.4,16.1c-7.3,5.8-13.5,12.6-18.3,20.6c-3.2,5.2-5.6,10.8-6.9,16.8
		c-1.3,5.9-1.4,11.8,0.3,17.6c2.2,7.5,7,13,13.7,16.8c4.1,2.3,8.6,3.7,13.3,4.6c5.3,1,10.6,1.3,15.9,1c2.1-0.1,4.3-0.2,6.6-0.4
		c-0.5,0.2-0.9,0.3-1.2,0.3c-5.6,1.4-11.3,2.5-17,3.3c-6.1,0.8-12.2,1.1-18.3,0.8c-9.4-0.5-18.5-2.3-27-6.4
		c-7.7-3.7-14.2-8.8-19.1-15.9c-3.6-5.3-5.9-11.1-6.9-17.4c-1.3-8.6,0-17,3.3-25c3.3-7.9,8.2-14.6,14.4-20.4
		c6.8-6.4,14.6-11.4,23.1-15.2c8.1-3.7,16.6-6.3,25.4-8.1c4.6-1,9.3-1.7,13.9-2.2c8-0.9,16-1.2,24-1c0.2,0,0.4,0,0.7,0
		c0.8,0.1,1.2-0.2,1.6-0.9c4.4-8,8.9-16,13.3-23.9c6.4-11.5,12.8-22.9,19.2-34.4c0.1-0.2,0.2-0.4,0.4-0.6
		C146.3,6.6,146.4,6.6,146.4,6.7z"/>
	<g>
		<path class="st1" d="M125.4,119.7C136.3,82.3,147.1,44.9,158,7.6c0.1,0,0.1,0,0.2,0c-2.3,22.4-4.6,44.7-6.8,67.1
			c0.1,0,0.1,0.1,0.2,0.1c0.2-0.3,0.4-0.5,0.6-0.8c4.2-5.7,8.9-11,14.1-15.8c3.6-3.3,7.5-6.2,11.8-8.5c3.5-1.9,7.1-3.3,11-3.9
			c8.9-1.5,16.7,1.6,21.8,9.3c1.1,1.6,2,3.4,2.7,5.2c1.5,3.8,2.3,7.7,2.6,11.8c0.7,8.7-0.7,17.1-3.1,25.4
			c-2.8,9.5-6.9,18.3-11.9,26.8c-6.8,11.6-15.1,22.2-24.2,32c-6.8,7.3-14.1,14.2-21.7,20.6c-0.4,0.3-0.8,0.6-1.3,0.6
			c-5.8,0-11.6,0-17.3,0c-0.2,0-0.3,0-0.6,0c0.3-0.3,0.5-0.6,0.7-0.8c5.5-5.9,10.7-12,15.6-18.4c6.6-8.6,12.7-17.6,17.7-27.3
			c3.4-6.5,6.2-13.3,8-20.5c1.2-4.6,1.9-9.2,1.6-14c-0.1-2.7-0.6-5.2-1.7-7.7c-1.6-3.6-4.3-6.1-8.3-6.8c-2.5-0.5-4.9-0.1-7.3,0.6
			c-3.3,1-6.4,2.6-9.2,4.6c-4.7,3.2-8.8,7.2-12.6,11.5c-5.5,6.2-10.2,13.1-14.4,20.2c-0.1,0.2-0.3,0.5-0.5,0.7
			C125.6,119.6,125.5,119.6,125.4,119.7z"/>
		<path class="st1" d="M111.6,207.8c-1.9,1.6-22.1,12.9-25,14c0.3-0.3,0.5-0.5,0.7-0.6c5.3-4.3,10.6-8.6,15.9-12.9
			c0.4-0.4,0.9-0.6,1.4-0.5C106.9,207.8,109.1,207.8,111.6,207.8z"/>
	</g>
	<g>
		<path class="st1" d="M66.8,189.7c0-0.5,0-0.9,0-1.5c0.9,0,1.8,0,2.8,0c0,0.3,0,0.6,0,0.9c0,3,0,6,0,8.9c0,0.8-0.1,1.6-0.3,2.4
			c-0.4,1.8-1.5,3.1-3.3,3.6c-3,0.9-5.8,0.6-8.6-0.8c-0.1,0-0.1-0.1-0.3-0.3c0.3-0.6,0.6-1.3,0.9-1.9c1.3,0.4,2.4,0.8,3.6,1.1
			c0.7,0.1,1.4,0.1,2.1,0c1.7-0.3,2.6-1.3,2.8-2.9c0.1-0.5,0-1,0-1.5c-0.7,0.5-1.4,1.1-2.1,1.5c-0.7,0.4-1.6,0.5-2.5,0.5
			c-0.9,0-1.7-0.2-2.5-0.6c-0.8-0.4-1.4-0.9-1.9-1.6c-1.7-2.3-1.5-5.9,0.5-7.9c1.2-1.2,2.6-1.7,4.2-1.7c1.7,0,3,0.7,4.1,2
			C66.7,189.8,66.7,189.7,66.8,189.7z M63.1,197.3c2.1,0,3.7-1.5,3.7-3.5c0-2-1.6-3.5-3.8-3.5c-2.1,0-3.6,1.5-3.6,3.6
			C59.5,195.8,61,197.3,63.1,197.3z"/>
		<path class="st1" d="M21.2,200.7c-0.9,0-1.8,0-2.7,0c0-0.6-0.1-1.2-0.1-1.8c-0.1,0-0.2-0.1-0.2-0.1c-0.1,0.2-0.2,0.3-0.3,0.5
			c-1.9,2.2-4.9,2.1-6.9,0.7c-1.7-1.1-2.5-2.8-2.7-4.8c-0.2-1.6,0.1-3.1,0.8-4.5c1.8-3.3,6.4-4,8.8-1.3c0.1,0.1,0.2,0.2,0.5,0.4
			c0-2.3,0-4.4,0-6.5c1-0.2,1.9-0.1,2.8-0.1C21.3,184,21.4,199.5,21.2,200.7z M11.1,194.2c0,0.5,0,0.7,0.1,1
			c0.2,1.8,1.5,3.2,3.3,3.4c1.6,0.2,3.2-0.9,3.8-2.6c0.4-1.1,0.3-2.3-0.2-3.4c-0.6-1.4-2-2.2-3.5-2.1c-1.6,0.1-2.8,1-3.2,2.6
			C11.2,193.4,11.1,193.9,11.1,194.2z"/>
		<path class="st1" d="M205.8,183.3c0.9,0,1.7,0,2.7,0c0.1,1.1,0,2.2,0,3.3c0,1,0,2.1,0,3.4c0.4-0.4,0.6-0.7,0.9-0.9
			c1.5-1.3,3.1-1.5,4.9-0.9c1.7,0.6,2.6,2,2.6,3.8c0.1,2.8,0,5.6,0,8.5c0,0.1,0,0.1-0.1,0.2c-0.9,0-1.8,0-2.7,0c0-0.4,0-0.7,0-1
			c0-2,0-4,0-5.9c0-0.4,0-0.8-0.1-1.2c-0.3-1.4-1.2-2.1-2.6-2.1c-1.4,0-2.4,0.8-2.7,2.1c-0.1,0.5-0.1,1-0.1,1.5c0,1.9,0,3.7,0,5.6
			c0,0.3,0,0.7,0,1.1c-1,0-1.8,0-2.7,0C205.7,200,205.6,184.8,205.8,183.3z"/>
		<path class="st1" d="M149.7,200.7c-1,0-1.9,0-2.8,0c0-5.8,0-11.5,0-17.2c0.6-0.2,1.6-0.2,2.8-0.1c0,2.1,0,4.2,0,6.6
			c0.4-0.4,0.6-0.5,0.7-0.7c1.4-1.4,3.6-1.8,5.4-0.9c1.5,0.8,2.2,2.1,2.3,3.7c0.1,1.2,0,2.3,0,3.5c0,1.4,0,2.8,0,4.2
			c0,0.3,0,0.6,0,1c-0.9,0-1.8,0-2.7,0c0-0.3-0.1-0.6-0.1-0.9c0-2,0-4,0-5.9c0-0.4,0-0.9-0.1-1.3c-0.3-1.3-1.1-2-2.4-2.1
			c-1.3-0.1-2.4,0.5-2.8,1.7c-0.2,0.6-0.3,1.2-0.3,1.8c0,1.9,0,3.7,0,5.6C149.7,199.9,149.7,200.3,149.7,200.7z"/>
		<path class="st1" d="M120.8,201c-3.8,0-6.7-2.9-6.7-6.5c0-3.7,3-6.6,6.8-6.6c3.8,0,6.7,2.9,6.7,6.6
			C127.6,198.1,124.7,201,120.8,201z M117,194.4c0,1.9,1.1,3.5,2.8,4c2.6,0.7,5-1.2,4.9-4.1c-0.1-2-1.4-3.7-3.3-3.9
			C118.9,190.1,117,191.8,117,194.4z"/>
		<path class="st1" d="M26.9,195.4c0.2,1.8,1.2,2.9,2.9,3.2c1.6,0.3,2.9-0.3,4.2-1.4c0.5,0.5,1.1,0.9,1.6,1.4
			c-0.3,0.3-0.5,0.6-0.7,0.8c-2.2,1.8-4.6,2.1-7.2,1c-2.5-1-3.6-3.1-3.7-5.7c0-1,0.1-1.9,0.5-2.9c1-2.6,3.4-4.2,6.2-4
			c2.7,0.2,4.8,2.1,5.3,4.9c0.2,0.8,0.3,1.7,0.1,2.6c-1,0-2,0-3,0c-1,0-2.1,0-3.1,0C29,195.4,28,195.4,26.9,195.4z M33.3,193.5
			c-0.1-2-1.4-3.3-3.1-3.3c-1.8,0-3.1,1.3-3.2,3.3C29,193.5,31.1,193.5,33.3,193.5z"/>
		<path class="st1" d="M163.7,195.4c0.2,2.9,3.9,4.6,7,1.8c0.5,0.5,1.1,0.9,1.6,1.4c-0.7,1-1.6,1.6-2.7,1.9
			c-1.5,0.5-3.1,0.6-4.6,0.1c-2-0.7-3.4-2-4-4c-0.5-1.6-0.4-3.2,0.1-4.7c1-2.7,3.5-4.3,6.3-4.1c2.8,0.3,4.8,2.2,5.3,5
			c0.2,1.2,0.2,1.7,0,2.5C169.8,195.4,166.8,195.4,163.7,195.4z M170.1,193.5c-0.1-2.1-1.4-3.3-3.2-3.3c-1.7,0-3,1.4-3.1,3.3
			C165.8,193.5,167.9,193.5,170.1,193.5z"/>
		<path class="st1" d="M183.4,199.3c-0.2,0.2-0.4,0.3-0.5,0.4c-1.5,1.3-3.3,1.5-5.1,1.1c-1.8-0.5-2.8-1.8-2.9-3.6
			c0-1.8,0.9-3.2,2.7-3.8c1.5-0.5,3.1-0.4,4.7-0.2c0.4,0.1,0.7,0.2,1.1,0.2c0.4-1.1-0.2-2.3-1.4-2.8c-0.9-0.4-1.9-0.3-2.9-0.2
			c-0.8,0.1-1.5,0.4-2.3,0.6c-0.2-0.7-0.5-1.3-0.7-2c0.6-0.5,1.4-0.7,2.1-0.8c1.3-0.3,2.6-0.3,3.8-0.2c2.6,0.3,4.2,2,4.3,4.6
			c0.1,2.6,0,5.2,0,7.8c0,0.1,0,0.1-0.1,0.3c-0.8,0.1-1.7,0.1-2.6,0C183.5,200.3,183.5,199.9,183.4,199.3z M180.3,199
			c0.5-0.1,1.1-0.2,1.6-0.4c1.2-0.5,1.7-1.4,1.7-2.6c0-0.4-0.1-0.7-0.6-0.8c-0.9-0.1-1.8-0.3-2.7-0.3c-0.5,0-1,0.2-1.4,0.3
			c-0.8,0.3-1.2,1-1.2,1.9c0,0.8,0.5,1.4,1.4,1.7C179.4,198.9,179.8,198.9,180.3,199z"/>
		<path class="st1" d="M75.9,200.7c-1,0-1.9,0-2.7,0c-0.2-0.7-0.3-11.5,0-12.5c0.9,0,1.8,0,2.7,0c0,0.5,0.1,1,0.1,1.7
			c0.3-0.3,0.5-0.5,0.7-0.7c1.4-1.4,3.1-1.7,5-1c1.7,0.6,2.5,2,2.7,3.7c0.1,1.2,0.1,2.4,0.1,3.6c0,1.4,0,2.8,0,4.2c0,0.3,0,0.6,0,1
			c-1,0-1.8,0-2.8,0c0-0.3-0.1-0.6-0.1-0.9c0-1.9,0-3.9,0-5.8c0-0.3,0-0.7,0-1c-0.2-1.5-1.1-2.4-2.6-2.5c-1.5,0-2.6,0.9-2.9,2.3
			c-0.1,0.4-0.1,0.9-0.1,1.3c0,1.9,0,3.8,0,5.6C75.9,200,75.9,200.3,75.9,200.7z"/>
		<path class="st1" d="M47.6,189.3c-0.4,0.7-0.8,1.3-1.1,2c-0.4-0.2-0.7-0.3-1-0.5c-0.8-0.4-1.6-0.7-2.5-0.6c-0.4,0-0.9,0.1-1.3,0.3
			c-0.7,0.4-0.8,1.3-0.1,1.8c0.3,0.2,0.6,0.4,0.9,0.5c0.7,0.3,1.4,0.5,2,0.7c0.6,0.2,1.1,0.4,1.6,0.7c2.7,1.4,1.9,4.9,0.2,5.9
			c-0.6,0.3-1.3,0.6-2,0.7c-2.4,0.4-4.4-0.3-6.4-1.8c0.4-0.6,0.8-1.2,1.2-1.9c0.3,0.2,0.5,0.3,0.8,0.4c0.9,0.6,1.9,1,2.9,1
			c0.5,0,1.1,0,1.7-0.2c0.5-0.1,0.8-0.5,0.8-1c0.1-0.5-0.2-0.9-0.7-1.2c-0.4-0.2-0.9-0.4-1.4-0.6c-0.7-0.3-1.5-0.4-2.2-0.7
			c-1.9-0.8-2.7-1.9-2.5-3.7c0.2-1.6,1.4-2.9,3.2-3.2C43.8,187.6,45.7,188.2,47.6,189.3z"/>
		<path class="st1" d="M86.6,199.1c0.4-0.7,0.8-1.3,1.2-1.9c0.4,0.3,0.8,0.5,1.2,0.7c0.8,0.5,1.7,0.8,2.7,0.8c0.5,0,1.1-0.1,1.6-0.3
			c0.8-0.4,0.9-1.5,0.1-2c-0.4-0.3-1-0.5-1.5-0.6c-0.8-0.3-1.6-0.5-2.3-0.8c-1.8-0.7-2.5-1.8-2.4-3.5c0.1-1.6,1.1-2.9,2.8-3.3
			c2.2-0.6,4.3,0,6.2,1.2c-0.4,0.7-0.7,1.3-1.1,2c-0.3-0.2-0.6-0.3-0.9-0.4c-0.8-0.4-1.7-0.7-2.6-0.7c-0.5,0-1,0.1-1.3,0.3
			c-0.7,0.4-0.7,1.2-0.1,1.7c0.3,0.2,0.6,0.4,0.9,0.5c0.7,0.3,1.4,0.5,2,0.7c0.5,0.2,1.1,0.4,1.6,0.7c1.2,0.6,1.9,1.6,1.9,3
			c-0.1,1.5-0.7,2.6-2,3.3c-0.6,0.3-1.2,0.5-1.9,0.5C90.5,201.1,88.5,200.5,86.6,199.1z"/>
		<path class="st1" d="M107,190.6c-0.5,0-1-0.1-1.5-0.1c-0.2-0.7-0.1-1.5-0.1-2.3c0.5,0,0.9-0.1,1.5-0.1c0-0.4,0-0.7,0.1-1
			c0.1-2.8,1.4-4.1,4.2-4c0.6,0,1.3,0.2,1.9,0.3c0,0.8,0,1.6,0,2.3c-0.3,0-0.6-0.1-0.8-0.1c-1.8-0.3-2.7,0.5-2.4,2.6
			c1,0,2.1,0,3.2,0c0,0.8,0,1.5,0,2.4c-1,0-2.1,0-3.2,0c0,3.4,0,6.8,0,10.1c-0.3,0-0.5,0.1-0.6,0.1c-0.7,0-1.4,0-2.2,0
			c-0.1-1.8,0-3.4,0-5.1C107,194,107,192.3,107,190.6z"/>
		<path class="st1" d="M202.9,198.1c0,0.4,0,0.7,0,1.1c0,1.2-0.1,1.3-1.3,1.6c-0.8,0.2-1.7,0.2-2.5,0c-1.2-0.3-2-1.1-2.2-2.3
			c-0.1-0.5-0.2-1.1-0.2-1.7c0-1.7,0-3.5,0-5.2c0-0.3,0-0.6,0-1c-0.5,0-1-0.1-1.5-0.1c-0.2-0.8-0.1-1.5-0.1-2.3
			c0.5-0.1,1-0.1,1.5-0.2c0-1.1,0-2.2,0-3.3c1,0,1.9,0,2.9,0c0,1.1,0,2.2,0,3.4c1.2,0,2.2,0,3.3,0c0.3,0.9,0.1,1.6,0.1,2.5
			c-1.1,0-2.2,0-3.3,0c0,0.2-0.1,0.3-0.1,0.4c0,1.9,0,3.9,0,5.8c0,1.1,0.5,1.6,1.6,1.5C201.7,198.4,202.2,198.2,202.9,198.1z"/>
		<path class="st1" d="M130.4,188.1c0.4,0,0.8,0,1.1,0c0.5,0,1,0,1.6,0c0,0.9,0.1,1.6,0.1,2.4c1.1-1.6,2.3-2.6,4.4-2.6
			c0.1,1,0,1.9,0,2.9c-0.2,0.1-0.4,0.1-0.6,0.1c-1.8,0.1-3.6,1.3-3.8,4c-0.1,1.4-0.1,2.8-0.1,4.2c0,0.5,0,1,0,1.5c-1,0-1.8,0-2.7,0
			C130.3,200,130.2,189.9,130.4,188.1z"/>
		<path class="st1" d="M189.8,183.3c0.9,0,1.8,0,2.7,0c0,5.8,0,11.6,0,17.4c-0.9,0-1.8,0-2.6,0C189.6,200,189.6,184.7,189.8,183.3z"
			/>
		<path class="st1" d="M53.6,188.2c0,4.2,0,8.3,0,12.5c-0.9,0-1.8,0-2.6,0c-0.2-0.7-0.3-11.5,0-12.5
			C51.8,188.2,52.6,188.2,53.6,188.2z"/>
		<path class="st1" d="M53.7,183.4c0,0.9,0,1.7,0,2.6c-1,0-1.9,0-2.9,0c0-0.8,0-1.6,0-2.6C51.7,183.4,52.7,183.4,53.7,183.4z"/>
		<path class="st1" d="M219.9,181.6c1.7,0,3.1,1.3,3.1,3.1c0,1.8-1.4,3.2-3.1,3.2c-1.7,0-3.1-1.3-3.1-3.1
			C216.8,183,218.2,181.6,219.9,181.6z M217.1,184.7c0,1.6,1.2,2.9,2.8,2.9c1.6,0,2.9-1.3,2.9-2.9c0-1.6-1.3-2.9-2.9-2.9
			C218.3,181.8,217.1,183.1,217.1,184.7z"/>
		<path class="st1" d="M170.1,193.5c-2.1,0-4.2,0-6.3,0"/>
		<path class="st1" d="M221,184.8c0.4-0.3,0.5-0.7,0.3-1.2c-0.1-0.5-0.5-0.6-0.9-0.7c-0.5,0-1,0-1.6,0c0,1.1,0,2.1,0,3.1
			c0,0,0.2,0.1,0.4,0.2c0.1-0.4,0.1-0.8,0.2-1.1c0.6-0.3,0.8,0.2,1.1,0.5c0.2,0.3,0.4,0.7,0.9,0.4c-0.2-0.4-0.4-0.7-0.6-1.1
			C220.8,185,220.9,184.9,221,184.8z M220.4,184.5c-0.3,0.1-0.7,0.1-1.1,0.1c0-0.4,0-0.7,0-1c0.4,0,0.8,0,1.1,0
			c0.1,0,0.3,0.3,0.3,0.5C220.7,184.2,220.5,184.5,220.4,184.5z"/>
	</g>
</g>
</svg>
