<?xml version="1.0" encoding="utf-8"?>
<!-- Generator: Adobe Illustrator 17.0.0, SVG Export Plug-In . SVG Version: 6.00 Build 0)  -->
<!DOCTYPE svg PUBLIC "-//W3C//DTD SVG 1.1//EN" "http://www.w3.org/Graphics/SVG/1.1/DTD/svg11.dtd">
<svg version="1.1" id="Camada_1" xmlns="http://www.w3.org/2000/svg" xmlns:xlink="http://www.w3.org/1999/xlink" x="0px" y="0px"
	 width="220px" height="60px" viewBox="0 0 220 60" enable-background="new 0 0 220 60" xml:space="preserve">
<g>
	<g>
		<g>
			<path fill="#0B0204" d="M97,27.243H82.797c0.523,2.338,2.513,3.769,5.374,3.769c1.732,0,3.041-0.45,4.203-1.373
				c0.296-0.235,0.721-0.211,0.977,0.067l1.972,2.138c0.262,0.285,0.253,0.73-0.026,0.999c-1.73,1.661-4.179,2.532-7.265,2.532
				c-6.491,0-10.714-4.083-10.714-9.667c0-5.618,4.293-9.667,10.016-9.667c5.514,0,9.771,3.699,9.771,9.736
				C97.105,26.196,97.035,26.79,97,27.243 M82.727,24.067h9.248c-0.384-2.373-2.164-3.908-4.607-3.908
				C84.891,20.159,83.111,21.66,82.727,24.067"/>
			<path fill="#0B0204" d="M107.357,10.667v24.708h-5.654V15.203h-4.172c-0.394,0-0.714-0.32-0.714-0.714v-3.109
				c0-0.394,0.32-0.714,0.714-0.714H107.357z"/>
			<path fill="#0B0204" d="M121.037,10.667v24.708h-5.653V15.203h-4.172c-0.394,0-0.714-0.32-0.714-0.714v-3.109
				c0-0.394,0.32-0.714,0.714-0.714H121.037z"/>
			<path fill="#0B0204" d="M145.387,27.243h-14.204c0.524,2.338,2.513,3.769,5.374,3.769c1.732,0,3.041-0.45,4.203-1.373
				c0.296-0.235,0.721-0.211,0.977,0.067l1.971,2.138c0.263,0.285,0.253,0.73-0.026,0.999c-1.73,1.661-4.179,2.532-7.265,2.532
				c-6.491,0-10.714-4.083-10.714-9.667c0-5.618,4.293-9.667,10.016-9.667c5.514,0,9.771,3.699,9.771,9.736
				C145.492,26.196,145.422,26.79,145.387,27.243 M131.114,24.067h9.248c-0.384-2.373-2.163-3.908-4.606-3.908
				C133.278,20.159,131.498,21.66,131.114,24.067"/>
			<path fill="#0B0204" d="M167.645,17.032l-7.73,18.342h-5.393l-7.69-18.343c-0.198-0.471,0.148-0.991,0.658-0.991h4.064
				c0.29,0,0.552,0.176,0.661,0.445l5.127,12.607l5.302-12.615c0.111-0.265,0.371-0.437,0.658-0.437h3.684
				C167.498,16.041,167.844,16.562,167.645,17.032"/>
			<path fill="#0B0204" d="M188.667,27.243h-14.203c0.523,2.338,2.513,3.769,5.374,3.769c1.732,0,3.041-0.45,4.203-1.373
				c0.296-0.235,0.721-0.211,0.977,0.067l1.972,2.138c0.263,0.285,0.253,0.73-0.026,0.999c-1.731,1.661-4.179,2.532-7.265,2.532
				c-6.491,0-10.714-4.083-10.714-9.667c0-5.618,4.293-9.667,10.016-9.667c5.514,0,9.771,3.699,9.771,9.736
				C188.772,26.196,188.702,26.79,188.667,27.243 M174.394,24.067h9.248c-0.384-2.373-2.163-3.908-4.606-3.908
				C176.558,20.159,174.778,21.66,174.394,24.067"/>
			<path fill="#0B0204" d="M212.633,24.347v11.028h-5.444v-10.19c0-3.036-1.396-4.432-3.804-4.432c-2.617,0-4.502,1.605-4.502,5.06
				v9.562h-5.444V16.755c0-0.394,0.32-0.714,0.714-0.714h3.772c0.394,0,0.714,0.32,0.714,0.714v1.764
				c1.465-1.605,3.664-2.478,6.212-2.478C209.283,16.041,212.633,18.624,212.633,24.347"/>
			<polygon fill="#008B95" points="82.613,42.937 82.613,49.273 81.952,49.273 81.952,46.35 77.988,46.35 77.988,49.273 
				77.318,49.273 77.318,42.937 77.988,42.937 77.988,45.761 81.952,45.761 81.952,42.937 			"/>
			<polygon fill="#008B95" points="91.87,48.694 91.87,49.273 87.389,49.273 87.389,42.937 91.734,42.937 91.734,43.517 
				88.059,43.517 88.059,45.77 91.336,45.77 91.336,46.34 88.059,46.34 88.059,48.694 			"/>
			<path fill="#008B95" d="M100.131,47.58h-3.53l-0.76,1.693h-0.697l2.896-6.336h0.661l2.896,6.336h-0.705L100.131,47.58z
				 M99.887,47.037l-1.521-3.403l-1.52,3.403H99.887z"/>
			<polygon fill="#008B95" points="105.36,42.937 106.03,42.937 106.03,48.694 109.578,48.694 109.578,49.273 105.36,49.273 			"/>
			<polygon fill="#008B95" points="114.048,43.517 111.821,43.517 111.821,42.937 116.944,42.937 116.944,43.517 114.717,43.517 
				114.717,49.273 114.048,49.273 			"/>
			<polygon fill="#008B95" points="126.02,42.937 126.02,49.273 125.359,49.273 125.359,46.35 121.395,46.35 121.395,49.273 
				120.725,49.273 120.725,42.937 121.395,42.937 121.395,45.761 125.359,45.761 125.359,42.937 			"/>
			<path fill="#008B95" d="M130.235,46.105c0-1.855,1.412-3.222,3.322-3.222c0.923,0,1.756,0.307,2.317,0.923l-0.425,0.425
				c-0.516-0.525-1.149-0.751-1.873-0.751c-1.529,0-2.679,1.122-2.679,2.625c0,1.503,1.149,2.625,2.679,2.625
				c0.724,0,1.358-0.226,1.873-0.761l0.425,0.425c-0.561,0.615-1.394,0.932-2.326,0.932
				C131.648,49.327,130.235,47.961,130.235,46.105"/>
			<path fill="#008B95" d="M143.828,47.58h-3.53l-0.76,1.693h-0.697l2.896-6.336h0.661l2.896,6.336h-0.706L143.828,47.58z
				 M143.583,47.037l-1.521-3.403l-1.52,3.403H143.583z"/>
			<path fill="#008B95" d="M153.383,49.273l-1.449-2.037c-0.162,0.018-0.325,0.027-0.507,0.027h-1.701v2.01h-0.67v-6.336h2.371
				c1.611,0,2.589,0.815,2.589,2.172c0,0.996-0.525,1.692-1.449,1.991l1.548,2.172H153.383z M153.347,45.11
				c0-1.014-0.67-1.593-1.937-1.593h-1.683v3.177h1.683C152.677,46.693,153.347,46.105,153.347,45.11"/>
			<polygon fill="#008B95" points="162.794,48.694 162.794,49.273 158.313,49.273 158.313,42.937 162.658,42.937 162.658,43.517 
				158.983,43.517 158.983,45.77 162.26,45.77 162.26,46.34 158.983,46.34 158.983,48.694 			"/>
			<path fill="#AFDEE0" d="M36.406,1.756L21.427,10.46c-1.726,1.003-2.786,2.851-2.78,4.847l0.048,17.324
				c0.006,1.997,1.076,3.838,2.807,4.832l15.027,8.621c1.732,0.993,3.862,0.987,5.588-0.015l14.979-8.703
				c1.726-1.003,2.786-2.851,2.781-4.847l-0.048-17.324c-0.006-1.996-1.076-3.838-2.807-4.831L41.994,1.741
				C40.262,0.748,38.133,0.753,36.406,1.756"/>
			<path fill="#008B95" d="M27.833,26.251l-10.885,6.324c-1.254,0.729-2.024,2.072-2.02,3.522l0.035,12.589
				c0.004,1.451,0.782,2.789,2.04,3.511l10.919,6.264c1.258,0.722,2.806,0.718,4.061-0.011l10.885-6.324
				c1.254-0.729,2.024-2.072,2.02-3.522l-0.035-12.589c-0.004-1.451-0.782-2.789-2.04-3.511L31.894,26.24
				C30.635,25.518,29.088,25.523,27.833,26.251"/>
			<g>
				<g>
					<defs>
						<rect id="SVGID_1_" x="18.691" y="25.702" width="26.185" height="21.122"/>
					</defs>
					<clipPath id="SVGID_2_">
						<use xlink:href="#SVGID_1_"  overflow="visible"/>
					</clipPath>
					<path clip-path="url(#SVGID_2_)" fill="#008B95" d="M42.813,32.504L31.894,26.24c-1.259-0.722-2.806-0.718-4.061,0.011
						l-9.142,5.312l0.003,1.067c0.006,1.996,1.076,3.838,2.808,4.831l15.027,8.621c1.732,0.993,3.862,0.988,5.588-0.015l2.76-1.604
						l-0.024-8.449C44.85,34.565,44.072,33.226,42.813,32.504"/>
				</g>
			</g>
			<path fill="#005F63" d="M52.248,30.868l-7.764,4.511c-0.895,0.52-1.444,1.477-1.441,2.512l0.025,8.979
				c0.003,1.035,0.558,1.989,1.455,2.504l7.789,4.468c0.897,0.515,2.001,0.512,2.896-0.008l7.764-4.511
				c0.895-0.52,1.444-1.477,1.441-2.512l-0.025-8.979c-0.003-1.035-0.557-1.989-1.455-2.504l-7.788-4.468
				C54.247,30.345,53.143,30.348,52.248,30.868"/>
			<g>
				<g>
					<defs>
						<rect id="SVGID_3_" x="43.043" y="30.476" width="16.742" height="15.041"/>
					</defs>
					<clipPath id="SVGID_4_">
						<use xlink:href="#SVGID_3_"  overflow="visible"/>
					</clipPath>
					<path clip-path="url(#SVGID_4_)" fill="#005F63" d="M59.786,33.522l-4.641-2.663c-0.897-0.515-2.001-0.512-2.896,0.008
						l-7.764,4.511c-0.895,0.52-1.444,1.477-1.441,2.512l0.021,7.626l14.031-8.153C58.527,36.532,59.498,35.119,59.786,33.522"/>
				</g>
			</g>
			<path fill="#3AC0CC" d="M15.618,11.486l-7.764,4.511c-0.895,0.52-1.444,1.478-1.441,2.512l0.025,8.979
				c0.003,1.035,0.558,1.99,1.455,2.504l7.789,4.468c0.897,0.515,2.001,0.512,2.896-0.008l7.764-4.511
				c0.895-0.52,1.444-1.477,1.441-2.512l-0.025-8.979c-0.003-1.035-0.558-1.989-1.455-2.504l-7.788-4.468
				C17.617,10.963,16.513,10.966,15.618,11.486"/>
			<g>
				<g>
					<defs>
						<rect id="SVGID_5_" x="18.647" y="12.121" width="9.136" height="22.121"/>
					</defs>
					<clipPath id="SVGID_6_">
						<use xlink:href="#SVGID_5_"  overflow="visible"/>
					</clipPath>
					<path clip-path="url(#SVGID_6_)" fill="#3AC0CC" d="M27.783,27.429l-0.025-8.979c-0.003-1.035-0.558-1.99-1.455-2.504
						l-6.667-3.825c-0.635,0.922-0.992,2.028-0.989,3.186l0.048,17.324c0.001,0.554,0.088,1.096,0.245,1.612l7.402-4.301
						C27.236,29.422,27.786,28.464,27.783,27.429"/>
				</g>
			</g>
		</g>
	</g>
</g>
</svg>
