<?xml version="1.0" encoding="utf-8"?>
<!-- Generator: Adobe Illustrator 24.3.0, SVG Export Plug-In . SVG Version: 6.00 Build 0)  -->
<svg version="1.1" id="Camada_1" xmlns="http://www.w3.org/2000/svg" xmlns:xlink="http://www.w3.org/1999/xlink" x="0px" y="0px"
	 viewBox="0 0 146 86.5" style="enable-background:new 0 0 146 86.5;" xml:space="preserve">
<g>
	<g>
		<path d="M25.5,47.6H10.6V19.9h4.7v23h10.2V47.6z"/>
		<path d="M45.9,47.6H30.4V19.9h15.5v4.7H35.1v6.8h7.5v4.7h-7.5v6.8h10.8V47.6z"/>
		<path d="M49.7,19.9h4.9l6.5,21.3l6.5-21.3h4.9L64,47.6h-5.9L49.7,19.9z"/>
		<path d="M74,33.7c0-8,6.3-14.4,14.2-14.4c7.9,0,14.3,6.5,14.3,14.4c0,8.1-6.4,14.5-14.3,14.5C80.4,48.2,74,41.8,74,33.7z
			 M97.7,33.7c0-5.4-4.2-9.6-9.5-9.6c-5.2,0-9.4,4.2-9.4,9.6c0,5.4,4.2,9.7,9.4,9.7C93.5,43.4,97.7,39.1,97.7,33.7z"/>
		<path d="M107.2,47.6V30.2c0-6.7,4.9-10.9,10.4-10.9c5.5,0,10.4,4.2,10.4,10.9v17.5h-4.7V30.3c0-3.7-2.6-6.1-5.7-6.1
			c-3.2,0-5.8,2.4-5.8,6.1v17.4H107.2z"/>
	</g>
	<g>
		<path d="M9.8,68.9V57.7h1.1V63c0.6-0.7,1.4-1.2,2.5-1.2c1.9,0,3.5,1.6,3.5,3.6c0,1.9-1.6,3.5-3.5,3.5c-1.1,0-1.9-0.5-2.5-1.2v1.2
			H9.8z M15.8,65.4c0-1.4-1.1-2.5-2.4-2.5c-1.4,0-2.5,1-2.5,2.5c0,1.4,1.1,2.4,2.5,2.4C14.6,67.8,15.8,66.7,15.8,65.4z"/>
		<path d="M17.5,70.1h1.1c0.3,1,1.2,1.7,2.3,1.7c1.3,0,2.4-1.1,2.4-2.5v-1.2c-0.6,0.6-1.1,0.8-1.9,0.8c-1.7,0-3.1-1.3-3.1-3v-4.1
			h1.1v4.1c0,1.1,0.8,1.9,2,1.9c1,0,1.9-0.9,1.9-1.8v-4.2h1.1v7.6c0,2-1.6,3.6-3.5,3.6C19.2,72.9,17.8,71.7,17.5,70.1z"/>
		<path d="M29.8,68.9v-7.3h1.8v0.8c0.3-0.5,0.9-1.1,1.9-1.1c0.9,0,1.6,0.5,2,1c0.4-0.6,1.2-1,2.3-1c1.7,0,2.9,1,2.9,3v4.5H39v-4.3
			c0-0.9-0.5-1.5-1.4-1.5c-0.8,0-1.4,0.6-1.4,1.5v4.3h-1.8v-4.3c0-0.9-0.5-1.5-1.4-1.5c-0.9,0-1.4,0.6-1.4,1.5v4.2H29.8z"/>
		<path d="M42.6,61.7h1.8v0.9c0.3-0.5,1.1-1.1,2.4-1.1c1.9,0,3.5,1.6,3.5,3.9c0,2.3-1.8,3.8-3.6,3.8c-1.5,0-2.2-0.9-2.2-0.9v4.6
			h-1.8V61.7z M44.4,65.2v0.2c0,1.1,0.9,1.9,2,1.9c1.1,0,2-0.8,2-2.1c0-1.3-0.8-2.1-2-2.1C45.3,63.2,44.4,64.1,44.4,65.2z"/>
		<path d="M53.8,67h4.4v1.9h-6.9V67l4-4.6c0.6-0.6,0.9-1,0.9-1.6c0-0.8-0.7-1.5-1.5-1.5c-0.8,0-1.5,0.7-1.5,1.5v0.2h-1.9v-0.2
			c0-1.9,1.5-3.4,3.4-3.4c1.9,0,3.4,1.5,3.4,3.4c0,1-0.4,1.7-1.1,2.4L53.8,67z"/>
		<path d="M67.8,61.6v1.8h-1.4c0.4,0.6,0.6,1.2,0.6,1.9c0,2.1-1.7,3.8-3.7,3.8c-2.1,0-3.8-1.7-3.8-3.8c0-2.1,1.7-3.7,3.7-3.7H67.8z
			 M65.1,69.3h1.8c0,2.1-1.7,3.6-3.7,3.6s-3.7-1.5-3.7-3.6h1.8c0,1.1,0.9,1.9,1.9,1.9C64.2,71.2,65.1,70.3,65.1,69.3z M65.1,65.4
			c0-1-0.9-1.9-1.9-1.9c-1.1,0-1.9,0.8-1.9,1.9c0,1.1,0.8,2,1.9,2C64.3,67.3,65.1,66.4,65.1,65.4z"/>
		<path d="M76.2,65.2c0,2.2-1.7,3.9-3.8,3.9s-3.8-1.7-3.8-3.9c0-2.1,1.7-3.8,3.8-3.8S76.2,63.1,76.2,65.2z M74.3,65.2
			c0-1.1-0.9-2-1.9-2s-1.9,0.9-1.9,2c0,1.1,0.9,2.1,1.9,2.1S74.3,66.4,74.3,65.2z"/>
	</g>
	<g>
		<path d="M130.1,21.8c0-2.3,1.9-4.2,4.2-4.2c2.3,0,4.2,1.9,4.2,4.2c0,2.3-1.9,4.2-4.2,4.2C132,26,130.1,24.1,130.1,21.8z
			 M137.7,21.8c0-1.9-1.5-3.3-3.3-3.3c-1.8,0-3.3,1.5-3.3,3.3c0,1.8,1.5,3.3,3.3,3.3C136.2,25.1,137.7,23.6,137.7,21.8z M133,23.9
			v-4.3h1.3c0.7,0,1.2,0.5,1.2,1.2c0,0.2,0,0.4-0.1,0.6c0.4,0.3,0.7,0.8,0.7,1.3v1.2h-0.9v-1.2c0-0.4-0.3-0.7-0.7-0.7
			c-0.4,0-0.7,0.3-0.7,0.6v1.3H133z M133.9,21.4c0.1-0.1,0.3-0.1,0.4-0.1c0.1,0,0.3-0.1,0.3-0.4c0-0.2-0.1-0.4-0.4-0.4h-0.4V21.4z"
			/>
	</g>
</g>
</svg>
