<?xml version="1.0" encoding="utf-8"?>
<!-- Generator: Adobe Illustrator 22.0.0, SVG Export Plug-In . SVG Version: 6.00 Build 0)  -->
<svg version="1.1" id="Layer_1" xmlns="http://www.w3.org/2000/svg" xmlns:xlink="http://www.w3.org/1999/xlink" x="0px" y="0px"
	 viewBox="0 0 413.8 185" style="enable-background:new 0 0 413.8 185;" xml:space="preserve">
<style type="text/css">
	.st0{fill:#003584;}
	.st1{fill:#FFFFFF;}
	.st2{fill:#00357B;}
</style>
<g>
	<g>
		<path class="st0" d="M22.6,2.4C20.6,2.4,4.1,3,4.1,20.8v115.2c0,1.9,0.6,18.4,18.4,18.4h369.3c1.9,0,18.4-0.6,18.4-18.4V20.8
			c0-1.9-0.6-18.4-18.4-18.4H22.6z"/>
		<path class="st1" d="M63.7,28.1c3.8,0.2,7.6,0.4,11.7,0.4c3.9,0,7.9-0.3,11.9-0.4l-3,7.8c6.1-5.2,15.8-8.6,27.6-8.6
			c25.5,0,31,10.3,26.6,21.5c-6.2,15.9-26.2,23.1-44.4,23.1c-11.9,0-17.4-3-20.4-6.4L62.7,93.6c-4-0.2-8-0.4-12.1-0.4
			c-4.1,0-8.3,0.3-12.4,0.4L63.7,28.1z M111.9,49.8c3.9-10,2.8-16.8-8.9-16.8c-15.4,0-21.7,11.6-23.9,17.2
			c-2.1,5.4-4.9,15.9,10,15.9C100.6,65.5,108.2,59.1,111.9,49.8"/>
		<path class="st1" d="M217.4,71.1c-3.8-0.2-7.6-0.4-11.5-0.4c-4.1,0-8.1,0.3-12.1,0.4l2.5-6.5c-10.1,4.4-17.4,7.3-29.8,7.3
			c-9,0-17.8-1.7-21.6-5.5c-4-3.8-1-9.3,0.7-13.7l9.5-24.6c4,0.2,8,0.4,12.1,0.4c4.1,0,8.3-0.3,12.4-0.4l-9.5,24.5
			c-0.8,2-2,5.5-0.9,7.4c1.2,2.7,4.6,4.6,10.8,4.6c15.4,0,18.4-7.7,20.6-13.3l9-23.1c4,0.2,8,0.4,12.1,0.4c4.1,0,8.3-0.3,12.4-0.4
			L217.4,71.1z"/>
		<path class="st1" d="M250.5,28.1c4,0.2,8,0.4,12.1,0.4c4.1,0,8.3-0.3,12.4-0.4l-4.3,11c6.2-6.5,16.1-11.8,33.5-11.8
			c-2.5,4.2-4.6,8.2-5.6,12.1l-1.9,0.7c-2-0.8-5.8-1.2-8.6-1.2c-7.8,0-15,2-18.6,5.9c-2.6,2.6-3.9,7.4-5.1,10.3l-6.2,16.1
			c-4-0.2-8-0.4-12.1-0.4c-4.1,0-8.3,0.3-12.4,0.4L250.5,28.1z"/>
		<path class="st1" d="M325.4,49.7c-4.1,9.1-0.5,16.5,18.2,16.5c7.3,0,15.9-1.7,22.3-4l1.8,0.8l-5.8,5c-8.1,2.5-18.2,4-26.9,4
			c-29.4,0-41.1-8.9-35.5-23.3c4.8-12.4,23.2-21.3,48.9-21.3c27.9,0,34.6,9.7,27.7,22.3H325.4z M353.3,45.4
			c1.8-4.7,4.4-14.1-6.2-14.1c-13,0-17.8,9.4-20,14.1H353.3z"/>
		<path class="st1" d="M39.9,116c-1.2,3.2-0.2,5.8,5.5,5.8c2.2,0,4.8-0.6,6.7-1.4l0.5,0.3l-1.8,1.8c-2.4,0.9-5.5,1.4-8.1,1.4
			c-8.9,0-12.3-3.1-10.7-8.3c1.4-4.4,7-7.5,14.7-7.5c8.4,0,10.4,3.4,8.3,7.9H39.9z M48.3,114.5c0.6-1.7,1.3-5-1.9-5
			c-3.9,0-5.4,3.3-6,5H48.3z"/>
		<path class="st1" d="M62.3,108.4c1.1,0.1,2.3,0.2,3.5,0.2c1.2,0,2.4-0.1,3.6-0.2l-0.8,2.3c2.6-1.5,5.8-2.6,9.1-2.6
			c6.7,0,7.6,2.5,6.3,6.3l-3,9.2c-1.2-0.1-2.4-0.2-3.6-0.2c-1.2,0-2.5,0.1-3.7,0.2l2.6-7.8c1-2.9,1-5.1-2.7-5.1
			c-4.6,0-5.8,3.7-6.5,5.6l-2.4,7.2c-1.2-0.1-2.4-0.2-3.6-0.2c-1.2,0-2.5,0.1-3.7,0.2L62.3,108.4z"/>
		<path class="st1" d="M111.1,112.8h-1.3c0.2-1.7-1.2-3.3-4.4-3.3c-5,0-7.8,3.8-8.6,6.1c-1.2,3.8,0.3,6.2,6.1,6.2c2,0,4.4-0.6,6-1.5
			l0.8,0.4l-1.9,1.9c-1.7,0.8-5.7,1.2-7.6,1.2c-8.3,0-13.1-2.7-11.4-7.6c1.6-5,8.3-8.2,16.7-8.2c3,0,6.5,0.4,8.7,1.4L111.1,112.8z"
			/>
		<path class="st1" d="M134.6,120.8c-0.4,1.2,0.1,1.5,2.2,1.5l-0.2,0.7c-1.4,0.3-3.6,0.9-5.1,0.9c-2.5,0-4.1-0.9-4.5-2.3
			c-1.9,1.4-4.8,2.3-7.6,2.3c-4.4,0-7.2-1.4-6.3-4.1c1-3,4.4-3.9,11.3-4.8c1.4-0.2,2.9-0.4,4.2-0.8c0.8-0.3,1-0.8,1.2-1.2
			c0.5-1.5-1.7-2.8-4.2-2.8c-3.4,0-6.6,1.4-7.1,1.9h-0.4l-0.1-1.9c3-1.4,7.2-2.1,10.6-2.1c4.5,0,9.8,1.1,8.7,4.2L134.6,120.8z
			 M129.1,115.4c-1.4,0.4-3.9,0.6-5.7,1.4c-1.6,0.7-2.2,1.6-2.6,2.6c-0.4,1.2-0.2,2.5,2.1,2.5c3.3,0,4.6-1.8,5.2-3.4L129.1,115.4z"
			/>
		<path class="st1" d="M145.3,108.4c1.1,0.1,2.3,0.2,3.5,0.2c1.2,0,2.4-0.1,3.6-0.2l-0.9,2.8c1.8-1.8,4.7-3,8.3-3
			c7.7,0,9.3,3.6,8,7.6c-1.9,5.6-7.9,8.2-13.3,8.2c-3.6,0-5.2-1.1-6.1-2.3l-3.3,9.9c-1.2-0.1-2.4-0.2-3.6-0.2
			c-1.2,0-2.5,0.1-3.7,0.2L145.3,108.4z M159.8,116.1c1.2-3.5,0.8-5.9-2.7-5.9c-4.6,0-6.5,4.1-7.2,6.1c-0.6,1.9-1.5,5.6,3,5.6
			C156.4,121.6,158.7,119.4,159.8,116.1"/>
		<path class="st1" d="M172,119.6c0.4,1.6,2.3,2.7,5.2,2.7c1.9,0,4.4-0.8,4.7-1.9c1-2.9-11.7-1.8-9.9-7.3c1.1-3.2,6-5,10.8-5
			c2.7,0,5.4,0.5,7.2,1.5c-0.8,0.9-1.5,1.8-2.2,2.8h-1.5c0-1.4-1.8-2.6-4.2-2.6c-1.9,0-4.1,0.5-4.6,1.8c-1,3.1,12,1.5,10.1,7.3
			c-1,2.9-5.5,5-11.9,5c-2.6,0-5-0.4-6.9-1.3c0.7-1,1.2-2,1.8-3H172z"/>
		<path class="st1" d="M214.1,123.6c-1.2-0.1-2.3-0.2-3.5-0.2c-1.2,0-2.4,0.1-3.6,0.2l0.8-2.3c-3,1.6-5.2,2.6-9,2.6
			c-2.7,0-5.3-0.6-6.5-2c-1.2-1.4-0.3-3.3,0.2-4.9l2.9-8.7c1.2,0.1,2.4,0.2,3.6,0.2s2.5-0.1,3.7-0.2l-2.9,8.7
			c-0.2,0.7-0.6,1.9-0.3,2.6c0.4,1,1.4,1.6,3.2,1.6c4.7,0,5.5-2.7,6.2-4.7l2.7-8.2c1.2,0.1,2.4,0.2,3.6,0.2c1.2,0,2.5-0.1,3.7-0.2
			L214.1,123.6z"/>
		<path class="st1" d="M228.4,123.6c-1.2-0.1-2.4-0.2-3.6-0.2c-1.2,0-2.5,0.1-3.7,0.2l7.9-23.8c1.2,0.1,2.4,0.2,3.6,0.2
			c1.2,0,2.5-0.1,3.7-0.2L228.4,123.6z"/>
		<path class="st1" d="M256.1,120.8c-0.4,1.2,0.1,1.5,2.2,1.5l-0.2,0.7c-1.4,0.3-3.6,0.9-5.1,0.9c-2.5,0-4.1-0.9-4.5-2.3
			c-1.9,1.4-4.8,2.3-7.6,2.3c-4.4,0-7.2-1.4-6.3-4.1c1-3,4.4-3.9,11.3-4.8c1.4-0.2,2.9-0.4,4.2-0.8c0.8-0.3,1.1-0.8,1.2-1.2
			c0.5-1.5-1.7-2.8-4.2-2.8c-3.4,0-6.6,1.4-7.1,1.9h-0.4l-0.1-1.9c3-1.4,7.2-2.1,10.5-2.1c4.5,0,9.8,1.1,8.8,4.2L256.1,120.8z
			 M250.5,115.4c-1.4,0.4-3.9,0.6-5.7,1.4c-1.6,0.7-2.2,1.6-2.6,2.6c-0.4,1.2-0.2,2.5,2.1,2.5c3.3,0,4.6-1.8,5.2-3.4L250.5,115.4z"
			/>
		<path class="st1" d="M272,119.3c-0.7,2.2-0.9,3.3,4.1,2.6l-0.4,1.2c-2.1,0.4-4.1,0.7-5.8,0.7c-5.5,0-6.1-2.2-5.1-5.1l2.8-8.4h-3.6
			c0.4-0.7,0.6-1.3,0.7-2h3.6l1.2-3.5c2.6-0.6,5.2-1.2,8-1.9l-1.8,5.5h4.5c-0.4,0.7-0.6,1.3-0.7,2h-4.5L272,119.3z"/>
		<path class="st1" d="M285.2,108.4c1.2,0.1,2.4,0.2,3.6,0.2c1.2,0,2.5-0.1,3.7-0.2l-5,15.2c-1.2-0.1-2.4-0.2-3.6-0.2
			c-1.2,0-2.5,0.1-3.7,0.2L285.2,108.4z M291.6,100.2c2.3,0,3.9,1.1,3.4,2.5c-0.4,1.3-2.8,2.5-5.1,2.5c-2.3,0-3.8-1.2-3.3-2.5
			C287,101.3,289.3,100.2,291.6,100.2"/>
		<path class="st1" d="M295.5,116.3c1.6-4.9,7.6-8.2,15.7-8.2c8.1,0,12.2,2.9,10.6,7.5c-1.6,4.8-7.5,8.3-15.9,8.3
			C298,123.9,293.9,121,295.5,116.3 M303.4,116.2c-0.7,2-1.6,6.2,3,6.2c4.1-0.1,6.6-3.9,7.7-7.3c1-3.1,0.5-5.6-3-5.6
			C306.7,109.5,304.6,112.5,303.4,116.2"/>
		<path class="st1" d="M328.9,108.4c1.1,0.1,2.3,0.2,3.5,0.2c1.2,0,2.4-0.1,3.6-0.2l-0.8,2.3c2.6-1.5,5.8-2.6,9.1-2.6
			c6.7,0,7.6,2.5,6.3,6.3l-3,9.2c-1.2-0.1-2.4-0.2-3.6-0.2c-1.2,0-2.5,0.1-3.7,0.2l2.6-7.8c1-2.9,1-5.1-2.7-5.1
			c-4.6,0-5.8,3.7-6.5,5.6l-2.4,7.2c-1.2-0.1-2.4-0.2-3.6-0.2c-1.2,0-2.5,0.1-3.7,0.2L328.9,108.4z"/>
		<path class="st1" d="M355.7,119.6c0.4,1.6,2.3,2.7,5.2,2.7c1.9,0,4.4-0.8,4.7-1.9c1-2.9-11.7-1.8-9.9-7.3c1.1-3.2,6-5,10.8-5
			c2.7,0,5.4,0.5,7.2,1.5c-0.8,0.9-1.5,1.8-2.2,2.8h-1.5c0-1.4-1.8-2.6-4.2-2.6c-1.9,0-4.1,0.5-4.5,1.8c-1,3.1,12,1.5,10.1,7.3
			c-1,2.9-5.5,5-12,5c-2.6,0-5-0.4-6.9-1.3c0.6-1,1.2-2,1.8-3H355.7z"/>
		<path class="st1" d="M375.4,95.8c-0.3,0.7-0.7,1.3-1.3,1.9c-0.6,0.6-1.2,1-2,1.3c-0.7,0.3-1.5,0.5-2.3,0.5c-0.8,0-1.5-0.2-2.2-0.5
			c-0.7-0.3-1.4-0.8-1.9-1.3c-0.5-0.5-1-1.2-1.3-1.9c-0.3-0.7-0.5-1.5-0.5-2.2c0-0.8,0.2-1.6,0.5-2.3c0.3-0.7,0.7-1.4,1.3-2
			c0.5-0.5,1.2-1,1.9-1.3c0.7-0.3,1.5-0.4,2.3-0.4c0.8,0,1.6,0.2,2.3,0.4c0.7,0.3,1.4,0.7,1.9,1.3c0.6,0.6,1,1.2,1.3,1.9
			c0.3,0.7,0.4,1.5,0.4,2.3C375.9,94.3,375.7,95.1,375.4,95.8 M368.7,90.4h1.2c0.7,0,1.2,0.1,1.5,0.3c0.3,0.2,0.5,0.6,0.5,1
			c0,0.4-0.2,0.7-0.5,0.9c-0.3,0.2-0.8,0.3-1.5,0.3h-1.2V90.4z M372.9,93c0.3-0.4,0.5-0.8,0.5-1.4c0-0.7-0.3-1.2-0.8-1.6
			c-0.5-0.4-1.4-0.5-2.4-0.5h-2.9v7.8h1.5v-3.3h1.4l1.6,3.3h1.7l-1.8-3.5C372.1,93.6,372.6,93.3,372.9,93 M366.9,87.3
			c-0.9,0.4-1.7,1.1-2.4,1.9c-0.5,0.6-0.8,1.3-1.1,2c-0.3,0.7-0.4,1.5-0.4,2.2c0,0.9,0.2,1.8,0.5,2.6c0.3,0.8,0.8,1.6,1.5,2.2
			c0.7,0.7,1.4,1.2,2.3,1.5c0.8,0.4,1.7,0.5,2.6,0.5c0.9,0,1.7-0.2,2.6-0.5c0.8-0.4,1.6-0.9,2.3-1.5c0.6-0.6,1.1-1.3,1.5-2.2
			c0.3-0.8,0.5-1.7,0.5-2.6c0-1.1-0.2-2.1-0.7-3c-0.5-0.9-1.1-1.7-1.9-2.4c-0.6-0.5-1.3-0.8-2-1.1c-0.7-0.2-1.5-0.4-2.2-0.4
			C368.9,86.6,367.9,86.9,366.9,87.3"/>
	</g>
</g>
<g>
	<path class="st2" d="M26.2,174.5v-8.9h1.9v8.8c0,3.6-1.7,5.3-5.2,5.3c-3.3,0-5.4-1.7-5.4-5.3v-8.8h2.2v8.9c0,2.8,1.4,3.5,3.3,3.5
		C24.9,178,26.2,177.2,26.2,174.5z"/>
	<path class="st2" d="M33.1,170.4c0.9-0.7,2.3-1.4,3.7-1.4c1.1,0,2,0.4,2.4,1.5c1-0.9,2.4-1.5,3.9-1.5c1.4,0,2.6,0.7,2.6,2.8v7.8h-2
		v-7.3c0-1.2-0.5-1.6-1.5-1.6c-1.1,0-2,0.5-2.8,1v7.9h-2v-7.3c0-1.2-0.5-1.6-1.5-1.6c-1.1,0-2,0.5-2.8,1v7.9h-2v-10.5h1.3
		C32.9,169.1,33.1,169.4,33.1,170.4z"/>
	<path class="st2" d="M54.3,178.4c-0.8,0.8-1.7,1.3-3.1,1.3c-1.9,0-3.3-1.1-3.3-3.1c0-2.1,1.7-3.2,4.1-3.2c0.9,0,1.6,0.1,2.3,0.3
		v-1.4c0-1.2-0.7-1.8-2.1-1.8c-1.2,0-2.2,0.4-2.9,0.9h-0.6v-1.5c0.9-0.5,2.1-0.9,3.8-0.9c2.5,0,3.9,0.9,3.9,3.2v7.4h-0.8
		C54.7,179.6,54.4,179.4,54.3,178.4z M54.3,177.1v-2.2c-0.6-0.1-1.2-0.2-1.9-0.2c-1.4,0-2.4,0.5-2.4,1.8c0,1.3,0.8,1.8,1.9,1.8
		C53,178.3,53.7,177.8,54.3,177.1z"/>
	<path class="st2" d="M63.8,165.6h8.6v1.7H66v4.4h4.7v1.6H66v4.7h6.6v1.6h-8.8V165.6z"/>
	<path class="st2" d="M77,170.4c0.9-0.7,2.3-1.4,3.7-1.4c1.1,0,2,0.4,2.4,1.5c1-0.9,2.4-1.5,3.9-1.5c1.4,0,2.6,0.7,2.6,2.8v7.8h-2
		v-7.3c0-1.2-0.5-1.6-1.5-1.6c-1.1,0-2,0.5-2.8,1v7.9h-2v-7.3c0-1.2-0.5-1.6-1.5-1.6c-1.1,0-2,0.5-2.8,1v7.9h-2v-10.5h1.3
		C76.7,169.1,77,169.4,77,170.4z"/>
	<path class="st2" d="M94.5,178.6v4.2h-2v-13.7h1.3c0.5,0,0.7,0.2,0.8,1.3c0.8-0.8,1.8-1.5,3.4-1.5c2,0,3.9,1.3,3.9,5.2
		c0,4-2.2,5.4-4.4,5.4C96.1,179.5,95.2,179.2,94.5,178.6z M94.5,171.8v5.3c0.6,0.6,1.4,0.9,2.4,0.9c1.4,0,2.8-0.7,2.8-3.7
		c0-3-1.3-3.7-2.6-3.7C96.2,170.6,95.2,171.2,94.5,171.8z"/>
	<path class="st2" d="M106.1,172v7.6h-2v-10.5h1.3c0.5,0,0.7,0.2,0.8,1.4c0.7-0.8,1.7-1.5,3-1.5c0.2,0,0.4,0,0.6,0.1v1.7
		c0,0-0.4,0-0.5,0C107.8,170.8,106.8,171.4,106.1,172z"/>
	<path class="st2" d="M113.2,174.8c0.1,2.5,1.2,3.4,3.2,3.4c1.3,0,2.3-0.4,2.9-1h0.7v1.4c-0.8,0.5-1.9,1.1-3.9,1.1c-3.2,0-5-2-5-5.3
		c0-3.3,2.1-5.4,4.8-5.4c2.8,0,4.4,1.6,4.4,5.1c0,0.3,0,0.6,0,0.7H113.2z M113.3,173.4h5c0-2.3-0.9-3-2.4-3
		C114.5,170.4,113.5,171.2,113.3,173.4z"/>
	<path class="st2" d="M121.9,178.8v-1.6h0.7c0.5,0.5,1.4,0.9,2.7,0.9c1.5,0,2.2-0.5,2.2-1.5c0-0.9-0.5-1.3-2.2-1.5
		c-2.1-0.3-3.3-1.1-3.3-3c0-2,1.5-3.1,3.8-3.1c1.5,0,2.4,0.3,3.1,0.7v1.6h-0.7c-0.5-0.4-1.3-0.7-2.4-0.7c-1.3,0-2,0.5-2,1.3
		c0,0.8,0.6,1.2,2.2,1.4c2.3,0.3,3.4,1.1,3.4,3.1c0,2-1.3,3.3-4,3.3C123.6,179.7,122.6,179.2,121.9,178.8z"/>
	<path class="st2" d="M137.3,178.4c-0.8,0.8-1.7,1.3-3.1,1.3c-1.9,0-3.3-1.1-3.3-3.1c0-2.1,1.7-3.2,4.1-3.2c0.9,0,1.6,0.1,2.3,0.3
		v-1.4c0-1.2-0.7-1.8-2.1-1.8c-1.2,0-2.2,0.4-2.9,0.9h-0.6v-1.5c0.9-0.5,2.1-0.9,3.8-0.9c2.5,0,3.9,0.9,3.9,3.2v7.4h-0.8
		C137.7,179.6,137.4,179.4,137.3,178.4z M137.2,177.1v-2.2c-0.6-0.1-1.2-0.2-1.9-0.2c-1.4,0-2.4,0.5-2.4,1.8c0,1.3,0.8,1.8,1.9,1.8
		C135.9,178.3,136.6,177.8,137.2,177.1z"/>
	<path class="st2" d="M146.8,165.6h2.5l6.1,10.3h0v-10.3h1.9v14h-2l-6.6-11.2h0v11.2h-1.9V165.6z"/>
	<path class="st2" d="M161.8,174.8c0.1,2.5,1.2,3.4,3.2,3.4c1.3,0,2.3-0.4,2.9-1h0.7v1.4c-0.8,0.5-1.9,1.1-3.9,1.1c-3.2,0-5-2-5-5.3
		c0-3.3,2.1-5.4,4.8-5.4c2.8,0,4.4,1.6,4.4,5.1c0,0.3,0,0.6,0,0.7H161.8z M161.9,173.4h5c0-2.3-0.9-3-2.4-3
		C163.1,170.4,162.1,171.2,161.9,173.4z"/>
	<path class="st2" d="M170.5,178.8v-1.6h0.7c0.5,0.5,1.4,0.9,2.7,0.9c1.5,0,2.2-0.5,2.2-1.5c0-0.9-0.5-1.3-2.2-1.5
		c-2.1-0.3-3.3-1.1-3.3-3c0-2,1.5-3.1,3.8-3.1c1.5,0,2.4,0.3,3.1,0.7v1.6h-0.7c-0.5-0.4-1.3-0.7-2.4-0.7c-1.3,0-2,0.5-2,1.3
		c0,0.8,0.6,1.2,2.2,1.4c2.3,0.3,3.4,1.1,3.4,3.1c0,2-1.3,3.3-4,3.3C172.2,179.7,171.2,179.2,170.5,178.8z"/>
	<path class="st2" d="M179.2,169.1h1.3v-2.8h2v2.8h2.3v1.4h-2.3v6.2c0,1.1,0.5,1.4,1.5,1.4h0.9v1.3c-0.4,0.1-1,0.2-1.7,0.2
		c-1.8,0-2.8-0.7-2.8-2.7v-6.4h-1.3V169.1z"/>
	<path class="st2" d="M187,179.6v-14h1.1c0.8,0,0.9,0.2,0.9,1.4v12.6H187z"/>
	<path class="st2" d="M193.4,174.8c0.1,2.5,1.2,3.4,3.2,3.4c1.3,0,2.3-0.4,2.9-1h0.7v1.4c-0.8,0.5-1.9,1.1-3.9,1.1c-3.2,0-5-2-5-5.3
		c0-3.3,2.1-5.4,4.8-5.4c2.8,0,4.4,1.6,4.4,5.1c0,0.3,0,0.6,0,0.7H193.4z M193.5,173.4h5c0-2.3-0.9-3-2.4-3
		C194.7,170.4,193.7,171.2,193.5,173.4z M195.5,168.3v-0.5l1-2.2h2.1v0.7l-1.9,2H195.5z"/>
	<path class="st2" d="M207.4,179.6v-14h2.2v6h6.2v-6h2.2v14h-2.2v-6.4h-6.2v6.4H207.4z"/>
	<path class="st2" d="M222.5,174.8c0.1,2.5,1.2,3.4,3.2,3.4c1.3,0,2.3-0.4,2.9-1h0.7v1.4c-0.8,0.5-1.9,1.1-3.9,1.1c-3.2,0-5-2-5-5.3
		c0-3.3,2.1-5.4,4.8-5.4c2.8,0,4.4,1.6,4.4,5.1c0,0.3,0,0.6,0,0.7H222.5z M222.5,173.4h5c0-2.3-0.9-3-2.4-3
		C223.8,170.4,222.7,171.2,222.5,173.4z"/>
	<path class="st2" d="M237.5,178.4c-0.8,0.8-1.7,1.3-3.1,1.3c-1.9,0-3.3-1.1-3.3-3.1c0-2.1,1.7-3.2,4.1-3.2c0.9,0,1.6,0.1,2.3,0.3
		v-1.4c0-1.2-0.7-1.8-2.1-1.8c-1.2,0-2.2,0.4-2.9,0.9h-0.6v-1.5c0.9-0.5,2.1-0.9,3.8-0.9c2.5,0,3.9,0.9,3.9,3.2v7.4h-0.8
		C237.9,179.6,237.6,179.4,237.5,178.4z M237.4,177.1v-2.2c-0.6-0.1-1.2-0.2-1.9-0.2c-1.4,0-2.4,0.5-2.4,1.8c0,1.3,0.8,1.8,1.9,1.8
		C236.1,178.3,236.8,177.8,237.4,177.1z"/>
	<path class="st2" d="M242.3,179.6v-14h1.1c0.8,0,0.9,0.2,0.9,1.4v12.6H242.3z"/>
	<path class="st2" d="M246.3,169.1h1.3v-2.8h2v2.8h2.3v1.4h-2.3v6.2c0,1.1,0.5,1.4,1.5,1.4h0.9v1.3c-0.4,0.1-1,0.2-1.7,0.2
		c-1.8,0-2.8-0.7-2.8-2.7v-6.4h-1.3V169.1z"/>
	<path class="st2" d="M256.1,170.5c1-0.8,2.5-1.5,4-1.5c1.5,0,2.7,0.6,2.7,2.9v7.7h-2v-7.3c0-1.3-0.6-1.7-1.6-1.7
		c-1.1,0-2.2,0.5-3.1,1v7.9h-2v-14h1.1c0.8,0,0.9,0.2,0.9,1.4V170.5z"/>
	<path class="st2" d="M269.4,178.5v-1.8h0.8c0.6,0.7,1.7,1.3,3.4,1.3c1.8,0,2.9-0.7,2.9-2.3c0-1.7-1.4-2-3.2-2.5
		c-2.5-0.7-3.7-1.7-3.7-4c0-2.4,1.7-3.9,4.5-3.9c1.7,0,2.9,0.4,3.7,0.9v1.7H277c-0.7-0.6-1.6-1-2.9-1c-1.8,0-2.6,0.7-2.6,2
		c0,1.5,1.1,1.8,2.8,2.3c2.9,0.8,4.2,1.6,4.2,4.1c0,2.7-1.8,4.1-4.8,4.1C271.7,179.7,270.4,179.2,269.4,178.5z"/>
	<path class="st2" d="M280.1,174.4c0-3.4,2.2-5.4,5.2-5.4c1.6,0,2.5,0.5,3.1,0.8v1.6h-0.8c-0.4-0.4-1.2-0.9-2.3-0.9
		c-1.8,0-3.1,1.4-3.1,3.8c0,2.5,1.2,3.8,3,3.8c1.4,0,2.1-0.5,2.5-1h0.8v1.5c-0.6,0.5-1.7,1.1-3.3,1.1
		C282,179.7,280.1,177.7,280.1,174.4z"/>
	<path class="st2" d="M290.6,166.8c0-0.7,0.6-1.2,1.2-1.2c0.6,0,1.2,0.5,1.2,1.2c0,0.6-0.6,1.2-1.2,1.2
		C291.1,168,290.6,167.5,290.6,166.8z M290.7,179.6v-10.5h1.1c0.8,0,0.9,0.2,0.9,1.6v8.9H290.7z"/>
	<path class="st2" d="M297.2,174.8c0.1,2.5,1.2,3.4,3.2,3.4c1.3,0,2.3-0.4,2.9-1h0.7v1.4c-0.8,0.5-1.9,1.1-3.9,1.1c-3.2,0-5-2-5-5.3
		c0-3.3,2.1-5.4,4.8-5.4c2.8,0,4.4,1.6,4.4,5.1c0,0.3,0,0.6,0,0.7H297.2z M297.2,173.4h5c0-2.3-0.9-3-2.4-3
		C298.5,170.4,297.4,171.2,297.2,173.4z"/>
	<path class="st2" d="M308.5,170.5c1-0.8,2.5-1.5,4-1.5c1.5,0,2.7,0.6,2.7,2.9v7.7h-2v-7.3c0-1.3-0.6-1.7-1.6-1.7
		c-1.1,0-2.2,0.5-3.1,1v7.9h-2v-10.5h1.3C308.2,169.1,308.4,169.4,308.5,170.5z"/>
	<path class="st2" d="M317.3,174.4c0-3.4,2.2-5.4,5.2-5.4c1.6,0,2.5,0.5,3.1,0.8v1.6h-0.8c-0.4-0.4-1.2-0.9-2.3-0.9
		c-1.8,0-3.1,1.4-3.1,3.8c0,2.5,1.2,3.8,3,3.8c1.4,0,2.1-0.5,2.5-1h0.8v1.5c-0.6,0.5-1.7,1.1-3.3,1.1
		C319.2,179.7,317.3,177.7,317.3,174.4z"/>
	<path class="st2" d="M329.4,174.8c0.1,2.5,1.2,3.4,3.2,3.4c1.3,0,2.3-0.4,2.9-1h0.7v1.4c-0.8,0.5-1.9,1.1-3.9,1.1c-3.2,0-5-2-5-5.3
		c0-3.3,2.1-5.4,4.8-5.4c2.8,0,4.4,1.6,4.4,5.1c0,0.3,0,0.6,0,0.7H329.4z M329.4,173.4h5c0-2.3-0.9-3-2.4-3
		C330.7,170.4,329.6,171.2,329.4,173.4z"/>
	<path class="st2" d="M342.6,172.6c0-4.6,2.7-7.1,6.6-7.1c1.8,0,2.8,0.4,3.9,0.9v1.8h-0.8c-0.7-0.6-1.6-1.1-3.1-1.1
		c-2.6,0-4.3,1.6-4.3,5.4c0,3.8,1.4,5.6,4.1,5.6c1.2,0,2-0.2,2.5-0.5V174h-2.3v-1.5h4.5v6.1c-1.2,0.6-2.7,1.1-4.7,1.1
		C345.1,179.7,342.6,177.3,342.6,172.6z"/>
	<path class="st2" d="M356.6,179.6v-14h1.1c0.8,0,0.9,0.2,0.9,1.4v12.6H356.6z"/>
	<path class="st2" d="M360.9,174.4c0-3.3,2.2-5.4,5-5.4c2.8,0,5,2.1,5,5.4c0,3.3-2.2,5.3-5,5.3C363.1,179.7,360.9,177.7,360.9,174.4
		z M368.8,174.4c0-2.5-1.1-3.9-2.9-3.9c-1.8,0-2.9,1.4-2.9,3.9s1.2,3.8,2.9,3.8C367.7,178.2,368.8,176.9,368.8,174.4z"/>
	<path class="st2" d="M375.2,170.5c0.8-0.8,1.9-1.5,3.4-1.5c2,0,3.9,1.3,3.9,5.2c0,4.1-2.2,5.5-4.4,5.5c-1.5,0-2.5-0.4-3.2-1.1
		c-0.2,0.6-0.6,1-1,1h-0.8v-14h1.1c0.8,0,0.9,0.2,0.9,1.4V170.5z M375.2,171.8v5.4c0.6,0.6,1.3,1,2.4,1c1.4,0,2.8-0.7,2.8-3.8
		c0-3.1-1.3-3.8-2.6-3.8C376.8,170.6,375.9,171.2,375.2,171.8z"/>
	<path class="st2" d="M390.5,178.4c-0.8,0.8-1.7,1.3-3.1,1.3c-1.9,0-3.3-1.1-3.3-3.1c0-2.1,1.7-3.2,4.1-3.2c0.9,0,1.6,0.1,2.3,0.3
		v-1.4c0-1.2-0.7-1.8-2.1-1.8c-1.2,0-2.2,0.4-2.9,0.9h-0.6v-1.5c0.9-0.5,2.1-0.9,3.8-0.9c2.5,0,3.9,0.9,3.9,3.2v7.4h-0.8
		C390.9,179.6,390.6,179.4,390.5,178.4z M390.4,177.1v-2.2c-0.6-0.1-1.2-0.2-1.9-0.2c-1.4,0-2.4,0.5-2.4,1.8c0,1.3,0.8,1.8,1.9,1.8
		C389.1,178.3,389.8,177.8,390.4,177.1z"/>
	<path class="st2" d="M395.3,179.6v-14h1.1c0.8,0,0.9,0.2,0.9,1.4v12.6H395.3z"/>
</g>
</svg>
