<svg width="2400" height="1700" viewBox="0 0 2400 1700" fill="none" xmlns="http://www.w3.org/2000/svg">
<g opacity="0.2">
<path d="M1570.2 1700C1614.12 1642.77 1655.86 1583.11 1696.85 1524.51C1709.38 1506.59 1722.34 1488.07 1735.05 1470.08C1836.28 1326.7 1932.98 1221.18 2030.66 1147.51C2151.07 1056.7 2275.23 1014.06 2400.01 1020.53V1020.12C2370.82 1018.6 2341.54 1019.67 2312.73 1023.42C2279.38 1027.76 2245.73 1035.75 2212.71 1047.16C2151.72 1068.24 2090.33 1101.91 2030.23 1147.23C1932.51 1220.93 1835.78 1326.48 1734.52 1469.9C1721.82 1487.89 1708.86 1506.42 1696.33 1524.33C1655.29 1583 1613.51 1642.72 1569.54 1700H1570.21H1570.2Z" fill="url(#paint0_radial_202_67)"/>
<path d="M22.96 1700C20.73 1699.03 18.5 1698.04 16.27 1697.09C10.79 1694.74 5.39 1692.46 0 1690.21V1690.79C7.22 1693.81 14.43 1696.89 21.62 1700.01H22.95L22.96 1700Z" fill="url(#paint1_radial_202_67)"/>
<path d="M155.2 1700C123.25 1685.19 91.13 1671 58.93 1657.84C38.73 1649.58 19.13 1641.97 0 1634.96V1635.61C51.83 1654.6 103.1 1676.52 153.87 1700H155.2Z" fill="url(#paint2_radial_202_67)"/>
<path d="M1566.68 1700C1633.22 1622.32 1696.64 1537.33 1758.03 1455.04L1758.23 1454.77C1809.04 1386.25 1856.13 1327.98 1902.18 1276.6C2048.45 1113.79 2189.8 1024.73 2334.29 1004.35C2355.5 1001.36 2377.51 999.92 2399.99 999.98V999.5C2377.47 999.44 2355.42 1000.88 2334.17 1003.88C2293.78 1009.58 2253.06 1020.81 2213.13 1037.28C2175.85 1052.65 2138.1 1073.05 2100.96 1097.92C2035.03 1142.05 1969.82 1200.42 1901.6 1276.36C1855.54 1327.74 1808.44 1386.03 1757.62 1454.56L1757.42 1454.83C1695.98 1537.2 1632.49 1622.27 1565.89 1700.01H1566.68V1700Z" fill="url(#paint3_radial_202_67)"/>
<path d="M1559.06 1700C1564.65 1694.2 1570.28 1688.29 1575.97 1682.23C1638.16 1616 1705.36 1536.59 1781.43 1439.45C1820.07 1390.11 1871.58 1325.43 1927.34 1262.75C2074.91 1097.56 2208.57 1009.57 2347.95 985.83C2364.72 982.97 2381.98 981.16 2400 980.29V979.75C2381.92 980.61 2364.61 982.43 2347.78 985.3C2308.62 991.97 2269.12 1004.08 2230.35 1021.28C2194.3 1037.28 2157.69 1058.24 2121.53 1083.57C2058.51 1127.71 1994.77 1186.23 1926.67 1262.46C1870.9 1325.16 1819.39 1389.84 1780.74 1439.2C1704.69 1536.32 1637.49 1615.72 1575.32 1681.94C1569.68 1687.94 1563.96 1693.97 1558.17 1700H1559.06Z" fill="url(#paint4_radial_202_67)"/>
<path d="M289.79 1700C193.35 1653.98 97.25 1612.15 0 1581.74V1582.34C96.77 1612.63 192.41 1654.22 288.4 1700H289.79Z" fill="url(#paint5_radial_202_67)"/>
<path d="M1546.11 1700C1560.87 1686.58 1575.95 1672.36 1591.49 1657.18C1662.41 1587.87 1736.11 1507.29 1804.62 1424.15C1849.57 1369.59 1900.53 1307.75 1952.48 1248.9C2052.8 1135.96 2189.96 1001.9 2361.6 967.31C2373.84 964.85 2386.61 962.97 2400 961.6V960.99C2386.53 962.36 2373.68 964.25 2361.37 966.73C2287.62 981.59 2215.89 1015.13 2142.09 1069.26C2082.13 1113.23 2019.87 1171.89 1951.74 1248.59C1899.78 1307.45 1848.82 1369.3 1803.86 1423.86C1735.37 1506.99 1661.68 1587.55 1590.78 1656.85C1576.1 1671.19 1560.92 1685.66 1545.18 1700.02H1546.1L1546.11 1700Z" fill="url(#paint6_radial_202_67)"/>
<path d="M426.32 1700H427.86C418.45 1695.46 409.38 1691.11 400.5 1686.88C313.8 1645.51 210.81 1598.32 104.31 1562.02C68.47 1549.8 33.78 1539.39 0.0100098 1530.66V1531.16C126.4 1563.91 255.88 1618.6 400.01 1687.37C408.56 1691.45 417.29 1695.63 426.33 1699.99L426.32 1700Z" fill="url(#paint7_radial_202_67)"/>
<path d="M1526.04 1700C1551.89 1679.9 1578.69 1657.43 1607.01 1632.13C1686.17 1561.39 1762.52 1484.18 1827.81 1408.83C1847.74 1385.83 1868.34 1361.79 1888.27 1338.54C1917.37 1304.59 1947.46 1269.47 1977.63 1235.03C2083.91 1114.69 2214.26 986.57 2375.26 948.78C2383.24 946.91 2391.45 945.29 2400.01 943.9V943.22C2391.35 944.62 2383.05 946.25 2374.98 948.15C2303.89 964.84 2234.43 999.77 2162.64 1054.94C2105.16 1099.11 2046.12 1156.23 1976.82 1234.7C1946.65 1269.14 1916.56 1304.26 1887.45 1338.21C1867.52 1361.46 1846.92 1385.51 1827 1408.5C1761.73 1483.82 1685.4 1561.01 1606.26 1631.73C1580.72 1654.55 1553.71 1677.67 1524.99 1700H1526.05H1526.04Z" fill="url(#paint8_radial_202_67)"/>
<path d="M510.37 1672.9C528.8 1681.88 547.5 1690.95 566.38 1700H568.14C549.25 1690.96 530.2 1681.74 510.94 1672.35C480.04 1657.42 451.41 1643.89 423.42 1630.98C296.17 1572.32 151.58 1512.29 0.0100098 1481.63V1482.33C151.36 1512.98 295.77 1572.94 422.88 1631.54C450.87 1644.44 479.49 1657.97 510.38 1672.9H510.37Z" fill="url(#paint9_radial_202_67)"/>
<path d="M1495.32 1700C1535.17 1674.73 1576.83 1644.26 1622.51 1607.09C1709.54 1536.28 1786.41 1464.43 1850.99 1393.53C1889.72 1351.01 1929.66 1305.13 1968.28 1260.76C1979.74 1247.59 1991.24 1234.38 2002.77 1221.18C2113.59 1094.33 2237.07 971.29 2388.92 930.26C2392.55 929.28 2396.25 928.36 2400.01 927.48V926.71C2396.12 927.61 2392.31 928.56 2388.56 929.57C2320.04 948.08 2252.8 984.39 2183.02 1040.56C2127.9 1084.92 2072.03 1140.51 2001.89 1220.8C1990.36 1233.99 1978.87 1247.2 1967.4 1260.38C1928.78 1304.75 1888.85 1350.63 1850.12 1393.14C1785.57 1464.01 1708.73 1535.83 1621.73 1606.61C1582.68 1638.39 1540.25 1670.71 1493.82 1699.99H1495.33L1495.32 1700Z" fill="url(#paint10_radial_202_67)"/>
<path d="M533.67 1616.28L549.29 1623.78C603.14 1649.63 657.58 1675.76 712.25 1700H714.23C659.1 1675.59 604.2 1649.24 549.9 1623.17L534.28 1615.67C506.73 1602.45 477.14 1588.8 446.32 1575.08C336.29 1526.11 239.29 1490.47 149.8 1466.12C97.99 1452.02 48.28 1441.54 0 1434.54V1435.16C131.71 1454.17 274.69 1499.58 445.74 1575.7C476.55 1589.41 506.13 1603.06 533.67 1616.27V1616.28Z" fill="url(#paint11_radial_202_67)"/>
<path d="M1445.47 1700C1505.13 1672.36 1566.58 1634.72 1638.02 1582.05C1731.94 1512.8 1809.18 1446.13 1874.18 1378.22C1922.63 1327.6 1970.68 1273.29 2027.92 1207.32C2130.54 1089.06 2252.3 959.15 2400 912.55V911.68C2334.88 932.13 2270.58 969.62 2203.51 1026.26C2138.22 1081.39 2077.62 1148.52 2026.95 1206.92C1969.72 1272.88 1921.67 1327.18 1873.24 1377.79C1808.28 1445.66 1731.08 1512.29 1637.21 1581.51C1580.1 1623.62 1515.97 1666.61 1443.03 1700H1445.48H1445.47Z" fill="url(#paint12_radial_202_67)"/>
<path d="M556.97 1559.66C572.97 1567.24 589.29 1575.04 605.08 1582.59C692.32 1624.26 781.23 1666.74 869.95 1700.01H872.4C783.1 1666.65 693.57 1623.89 605.74 1581.93C589.95 1574.39 573.62 1566.59 557.62 1559C530.07 1545.94 500.33 1532.54 469.22 1519.19C361.88 1473.13 264.85 1440.08 172.56 1418.16C112.8 1403.96 55.62 1394.55 -0.0200195 1389.77V1390.53C141.64 1402.63 293.58 1444.77 468.6 1519.87C499.7 1533.22 529.42 1546.6 556.95 1559.66H556.97Z" fill="url(#paint13_radial_202_67)"/>
<path d="M1339.37 1700C1376.8 1692.27 1413.86 1681.17 1451.09 1666.56C1513.65 1642 1577.97 1607.19 1653.52 1557.01C1752.19 1491.46 1831.95 1427.97 1897.36 1362.92C1943.6 1316.93 1993.08 1263.09 2053.06 1193.47C2161.28 1067.89 2269.4 951.03 2400 899.3V898.32C2268.87 950.04 2160.48 1067.17 2052.01 1193.04C1992.04 1262.64 1942.58 1316.46 1896.35 1362.43C1830.99 1427.44 1751.29 1490.88 1652.68 1556.39C1560.82 1617.42 1459.43 1675.31 1335.19 1700H1339.38H1339.37Z" fill="url(#paint14_radial_202_67)"/>
<path d="M580.27 1503.03C606.13 1515.15 632.52 1527.77 658.04 1539.98C793.46 1604.74 933.22 1671.57 1068.87 1700H1073.29C936.55 1672.09 795.44 1604.64 658.75 1539.27C633.23 1527.06 606.83 1514.44 580.97 1502.32C553.32 1489.36 523.43 1476.23 492.13 1463.29C313.68 1389.51 151.67 1351.26 -0.0100098 1347.3V1348.16C151.45 1352.13 313.24 1390.34 491.49 1464.03C522.77 1476.96 552.63 1490.08 580.27 1503.03Z" fill="url(#paint15_radial_202_67)"/>
<path d="M2400 886.75C2349.24 911.26 2298.09 947.76 2244.5 997.71C2188.92 1049.51 2137.95 1108.03 2077.08 1179.16C2020.33 1245.47 1968.78 1300.4 1919.49 1347.08C1853.06 1409.99 1770.85 1470.24 1668.18 1531.28C1507.4 1626.85 1383.94 1665.45 1242.04 1664.49C1191.88 1664.15 1150.27 1660.28 1111.11 1652.3C979.11 1625.42 841.96 1559.39 709.34 1495.54C674.91 1478.96 639.3 1461.82 604.34 1445.63C576.55 1432.76 546.51 1419.89 515.07 1407.38C413.03 1366.78 313.14 1338.11 218.19 1322.15C143.99 1309.68 70.89 1304.66 0.0100098 1307.11V1307.95C161.59 1302.08 330.64 1335.09 514.38 1408.18C545.8 1420.68 575.81 1433.54 603.59 1446.4C638.53 1462.58 674.14 1479.72 708.56 1496.3C841.27 1560.19 978.5 1626.26 1110.71 1653.18C1149.99 1661.18 1191.71 1665.07 1242 1665.41C1318.37 1665.92 1391.28 1654.15 1464.91 1629.42C1527.97 1608.24 1592.83 1577.27 1669.03 1531.97C1771.79 1470.89 1854.06 1410.58 1920.56 1347.61C1969.89 1300.9 2021.46 1245.94 2078.23 1179.61C2176.08 1065.27 2277.04 947.37 2400.02 887.85V886.75H2400Z" fill="url(#paint16_radial_202_67)"/>
<path d="M2400 877.16C2295.45 937.56 2207.61 1041.01 2115.27 1149.81L2102.14 1165.27C2047.64 1229.4 1993.97 1285.4 1942.61 1331.72C1874.59 1393.07 1789.89 1450.13 1683.66 1506.16C1524.87 1589.92 1397.25 1622.99 1256.92 1616.76C1206.65 1614.53 1165.82 1609.42 1128.44 1600.7C1006.73 1572.3 880.15 1510.65 757.74 1451.03C715.14 1430.28 671.08 1408.82 627.67 1388.96C599.71 1376.17 569.52 1363.56 537.95 1351.49C351.6 1280.23 170.89 1252.67 -0.0100098 1269.28V1270.27C170.63 1253.65 351.1 1281.17 537.24 1352.35C568.78 1364.41 598.94 1377.01 626.87 1389.78C670.27 1409.63 714.31 1431.08 756.91 1451.83C879.4 1511.49 1006.06 1573.18 1127.96 1601.62C1165.46 1610.37 1206.4 1615.49 1256.8 1617.73C1332.84 1621.11 1405.45 1612.79 1478.77 1592.3C1542.48 1574.49 1607.85 1547.37 1684.51 1506.93C1790.84 1450.85 1875.63 1393.72 1943.73 1332.3C1995.13 1285.95 2048.84 1229.91 2103.37 1165.75L2116.5 1150.29C2208.52 1041.88 2296.05 938.77 2400.01 878.41V877.15L2400 877.16Z" fill="url(#paint17_radial_202_67)"/>
<path d="M2400 869.96C2313.11 929.37 2238.04 1019.04 2159.38 1113.05C2148.74 1125.77 2138.03 1138.57 2127.21 1151.39C2073.74 1214.75 2019.41 1270.26 1965.74 1316.36C1895.71 1376.51 1808.52 1430.38 1699.16 1481.04C1540.69 1554.45 1412.88 1580.76 1271.81 1569.02C1220.75 1564.77 1181.88 1558.62 1145.78 1549.09C1033.68 1519.49 917.07 1461.76 804.29 1405.94C754.17 1381.13 702.34 1355.47 651.01 1332.28C622.86 1319.56 592.52 1307.22 560.85 1295.59C369.47 1225.34 180.91 1204.65 -0.0100098 1233.91V1234.98C180.65 1205.7 368.96 1226.36 560.12 1296.52C591.76 1308.13 622.05 1320.46 650.17 1333.17C701.47 1356.35 753.29 1382 803.4 1406.81C916.25 1462.67 1032.94 1520.44 1145.22 1550.08C1181.44 1559.64 1220.41 1565.8 1271.6 1570.06C1347.41 1576.37 1419.73 1571.52 1492.7 1555.23C1557.22 1540.83 1623.08 1517.53 1699.98 1481.9C1809.46 1431.18 1896.78 1377.24 1966.9 1317C2020.62 1270.85 2074.99 1215.3 2128.5 1151.89C2139.32 1139.07 2150.03 1126.27 2160.67 1113.55C2238.96 1019.98 2313.7 930.71 2399.99 871.4V869.95L2400 869.96Z" fill="url(#paint18_radial_202_67)"/>
<path d="M2400 865.42C2329.49 921.83 2266.79 998.26 2201.36 1078.08C2185.42 1097.52 2168.93 1117.63 2152.28 1137.51C2099.59 1200.39 2044.62 1255.4 1988.88 1301.01C1916.52 1360.21 1826.84 1410.89 1714.68 1455.92C1556.96 1519.26 1428.97 1538.81 1286.72 1521.29C1252.3 1517.05 1207.14 1510.52 1163.14 1497.49C1060.08 1466.99 957.66 1415.25 849.23 1360.47C792.17 1331.65 733.17 1301.84 674.37 1275.6C646.02 1262.95 615.54 1250.87 583.77 1239.69C388.02 1170.81 192.19 1157.68 1.74001 1200.66C1.16001 1200.79 0.59001 1200.93 0.0100098 1201.06V1202.23C0.74001 1202.06 1.47001 1201.88 2.20001 1201.72C192.24 1158.83 387.66 1171.94 583.03 1240.68C614.75 1251.84 645.19 1263.9 673.5 1276.54C732.27 1302.76 791.25 1332.56 848.29 1361.37C956.8 1416.18 1059.29 1467.96 1162.51 1498.5C1206.66 1511.57 1251.92 1518.12 1286.43 1522.37C1429.08 1539.94 1557.4 1520.35 1715.48 1456.86C1827.8 1411.76 1917.63 1361 1990.11 1301.7C2045.91 1256.04 2100.94 1200.98 2153.68 1138.04C2170.34 1118.16 2186.83 1098.05 2202.77 1078.6C2267.8 999.29 2330.11 923.31 2400.03 867.07V865.4L2400 865.42Z" fill="url(#paint19_radial_202_67)"/>
<path d="M2400 863.96C2344.67 915.23 2294.01 978.64 2241.37 1044.54C2220.7 1070.42 2199.33 1097.19 2177.34 1123.62C2125.27 1186.2 2069.65 1240.71 2012.01 1285.64C1937.06 1344.05 1844.88 1391.53 1730.2 1430.8C1573.63 1484.4 1445.46 1497.19 1301.63 1473.56C1265.06 1467.55 1222.08 1459.57 1180.5 1445.89C1085.98 1414.79 992.09 1366.2 892.69 1314.76C829.23 1281.92 763.61 1247.96 697.72 1218.93C669.16 1206.34 638.52 1194.52 606.68 1183.8C414.17 1118.96 218.96 1112.12 26.48 1163.46C17.64 1165.82 8.81001 1168.35 0.0100098 1171.02V1172.28C8.97001 1169.56 17.99 1166.98 27.05 1164.56C219.07 1113.34 413.83 1120.17 605.91 1184.86C637.7 1195.57 668.28 1207.37 696.79 1219.93C762.63 1248.94 828.22 1282.89 891.66 1315.72C991.13 1367.2 1085.08 1415.82 1179.75 1446.96C1221.47 1460.68 1264.56 1468.69 1301.21 1474.71C1445.46 1498.41 1573.97 1485.59 1730.92 1431.86C1845.81 1392.53 1938.17 1344.96 2013.26 1286.42C2070.98 1241.43 2126.68 1186.85 2178.8 1124.2C2200.8 1097.76 2222.18 1070.99 2242.85 1045.1C2295.03 979.77 2345.27 916.88 2400 865.9V863.96Z" fill="url(#paint20_radial_202_67)"/>
<path d="M2400 865.99C2358.73 909.85 2319.78 960.19 2279.56 1012.19C2254.84 1044.15 2229.28 1077.19 2202.41 1109.73C2150.88 1172.12 2094.6 1226.14 2035.15 1270.27C1958.46 1327.2 1861.09 1372.75 1745.73 1405.66C1590.66 1449.91 1462.3 1455.93 1316.54 1425.81C1278.17 1417.88 1237.24 1408.58 1197.86 1394.27C1111.44 1362.87 1025.67 1317.24 934.86 1268.93C865.47 1232.01 793.72 1193.84 721.06 1162.24C692.27 1149.72 661.49 1138.16 629.57 1127.88C439.81 1066.81 245.23 1066.25 51.21 1126.24C33.98 1131.57 16.9 1137.46 0.0100098 1143.88V1145.28C17.13 1138.76 34.44 1132.77 51.91 1127.37C245.43 1067.53 439.53 1068.08 628.8 1129C660.66 1139.25 691.37 1150.79 720.1 1163.28C792.68 1194.85 864.4 1233.01 933.76 1269.91C1024.63 1318.26 1110.46 1363.92 1197.01 1395.37C1236.52 1409.72 1277.55 1419.05 1316 1427C1391.59 1442.62 1463.16 1448.29 1534.81 1444.33C1601.57 1440.65 1670.78 1428.37 1746.38 1406.8C1861.98 1373.82 1959.57 1328.16 2036.44 1271.1C2096 1226.89 2152.36 1172.8 2203.96 1110.32C2230.85 1077.77 2256.42 1044.71 2281.14 1012.75C2320.86 961.39 2359.33 911.66 2400.02 868.22V865.99H2400Z" fill="url(#paint21_radial_202_67)"/>
<path d="M2400 871.97C2371.68 906.09 2344.19 942.99 2316 980.84C2287.89 1018.58 2258.83 1057.61 2227.47 1095.85C2176.41 1158.12 2119.48 1211.64 2058.28 1254.91C1978.63 1311.22 1878.7 1353.49 1761.26 1380.54C1610 1415.39 1477.44 1414.63 1331.44 1378.09C1295.77 1369.16 1254.42 1358.32 1215.2 1342.68C1136.52 1311.28 1058.49 1268.47 975.88 1223.13C900.98 1182.03 823.54 1139.54 744.39 1105.56C715.36 1093.1 684.42 1081.8 652.45 1071.98C464.99 1014.42 271.02 1020.16 75.92 1089.04C50.47 1098.02 25.1 1108.4 -0.0100098 1119.96V1121.48C25.21 1109.83 50.84 1099.35 76.74 1090.2C271.31 1021.51 464.74 1015.78 651.67 1073.18C683.57 1082.97 714.42 1094.24 743.38 1106.67C822.45 1140.61 899.85 1183.09 974.7 1224.16C1057.36 1269.52 1135.44 1312.37 1214.24 1343.81C1253.59 1359.51 1295.02 1370.37 1330.77 1379.32C1477.18 1415.97 1610.12 1416.73 1761.81 1381.78C1879.54 1354.65 1979.73 1312.27 2059.6 1255.81C2120.92 1212.45 2177.95 1158.84 2229.09 1096.47C2260.47 1058.2 2289.54 1019.17 2317.66 981.41C2345.3 944.29 2372.27 908.08 2400 874.54V871.96V871.97Z" fill="url(#paint22_radial_202_67)"/>
<path d="M2400 882.26C2383.61 904.29 2367.34 927.11 2350.79 950.32C2319.93 993.61 2288.01 1038.38 2252.54 1081.96C2201.9 1144.18 2144.33 1197.19 2081.42 1239.54C1998.66 1295.25 1896.17 1334.24 1776.8 1355.42C1627.47 1381.91 1494.72 1374.19 1346.36 1330.37C1309.18 1319.39 1269.78 1307.31 1232.57 1291.08C1161.28 1259.99 1090.66 1219.9 1015.9 1177.45C935.9 1132.03 853.17 1085.06 767.75 1048.87C738.5 1036.48 707.42 1025.44 675.36 1016.07C489.77 961.81 296.42 973.85 100.67 1051.83C66.92 1065.28 33.21 1081.17 0.0100098 1099.18V1100.7C33.15 1082.76 67.09 1066.77 101.62 1053.02C296.8 975.26 489.57 963.25 674.57 1017.34C706.54 1026.69 737.53 1037.69 766.7 1050.05C852.01 1086.19 934.69 1133.13 1014.64 1178.52C1089.45 1220.99 1160.12 1261.11 1231.51 1292.24C1268.84 1308.52 1308.33 1320.62 1345.57 1331.63C1494.35 1375.57 1627.49 1383.32 1777.26 1356.74C1896.97 1335.5 1999.76 1296.4 2082.78 1240.51C2145.83 1198.07 2203.52 1144.94 2254.25 1082.61C2289.75 1039 2321.68 994.21 2352.56 950.9C2368.52 928.52 2384.22 906.5 2400.01 885.2V882.25L2400 882.26Z" fill="url(#paint23_radial_202_67)"/>
<path d="M2400 896.98C2394.69 904.77 2389.37 912.6 2384.01 920.5C2350.99 969.17 2316.85 1019.5 2277.6 1068.08C2227.35 1130.28 2169.13 1182.8 2104.56 1224.18C2019.76 1278.53 1911.8 1315.22 1792.36 1330.31C1645.04 1348.91 1512.09 1334.22 1361.28 1282.66C1321.34 1269.01 1285.39 1256.33 1249.93 1239.5C1185.75 1209.03 1122.23 1171.61 1054.98 1132C970.22 1082.08 882.58 1030.45 791.09 992.21C761.58 979.88 730.34 969.1 698.26 960.19C514.13 909.04 321.39 927.37 125.39 1014.66C82.81 1033.62 40.84 1056.16 0 1081.72V1083.62C41.17 1057.76 83.51 1034.98 126.47 1015.85C321.87 928.83 513.98 910.55 697.46 961.52C729.45 970.4 760.58 981.14 790 993.44C881.36 1031.63 968.94 1083.21 1053.63 1133.1C1120.92 1172.74 1184.47 1210.17 1248.74 1240.68C1284.31 1257.57 1320.33 1270.26 1360.33 1283.94C1511.56 1335.64 1644.89 1350.37 1792.67 1331.71C1912.5 1316.58 2020.83 1279.75 2105.92 1225.22C2170.66 1183.73 2229.02 1131.09 2279.37 1068.76C2318.66 1020.13 2352.81 969.78 2385.85 921.09C2390.58 914.11 2395.29 907.19 2399.98 900.29V896.98H2400Z" fill="url(#paint24_radial_202_67)"/>
<path d="M2400 915.75C2370.21 961.93 2338.94 1008.97 2302.67 1054.2C2252.78 1116.42 2193.91 1168.44 2127.71 1208.82C2016.38 1276.72 1892.36 1298.71 1807.92 1305.2C1662.58 1316.37 1529.43 1294.7 1376.21 1234.95C1342.29 1221.72 1303.84 1206.73 1267.3 1187.91C1209.96 1158.38 1153.27 1123.64 1093.25 1086.86C1004.07 1032.21 911.86 975.7 814.44 935.54C784.69 923.27 753.3 912.76 721.16 904.3C624.9 878.95 524.66 873.85 423.24 889.14C333.21 902.71 241.33 932.43 150.13 977.48C99.39 1002.54 49.01 1033.09 0.0200195 1068.13V1070.25C49.39 1034.83 100.19 1003.96 151.35 978.7C346.59 882.26 538.04 857.7 720.37 905.71C752.4 914.14 783.68 924.61 813.33 936.84C910.58 976.94 1002.72 1033.4 1091.83 1088.01C1151.88 1124.81 1208.6 1159.57 1266.02 1189.14C1302.67 1208.01 1341.18 1223.03 1375.15 1236.28C1528.79 1296.19 1662.32 1317.91 1808.13 1306.71C1892.87 1300.2 2017.36 1278.13 2129.13 1209.96C2195.52 1169.47 2254.55 1117.31 2304.56 1054.94C2340.09 1010.63 2370.8 964.63 2400.02 919.39V915.77L2400 915.75Z" fill="url(#paint25_radial_202_67)"/>
<path d="M2400 937.51C2377.94 972.23 2354.37 1006.85 2327.73 1040.32C2278.18 1102.58 2218.67 1154.1 2150.85 1193.45C2035.19 1260.56 1908.98 1277.6 1823.48 1280.08C1679.99 1284.24 1546.64 1255.6 1391.12 1187.22C1355.98 1171.77 1319.64 1155.79 1284.65 1136.31C1233.91 1108.05 1183.81 1076.02 1130.76 1042.11C1037.46 982.47 940.98 920.81 837.77 878.84C807.77 866.65 776.24 856.4 744.04 848.38C647.89 824.44 547.59 821.93 445.91 840.92C356.44 857.63 265.24 891.06 174.84 940.26C115.82 972.39 57.1 1012.02 0 1057.85V1060.2C57.53 1013.88 116.71 973.86 176.19 941.48C370.93 835.48 561.71 804.64 743.24 849.84C775.32 857.83 806.73 868.04 836.61 880.19C939.62 922.07 1036.01 983.68 1129.22 1043.27C1182.3 1077.2 1232.43 1109.24 1283.23 1137.54C1318.3 1157.08 1354.7 1173.08 1389.89 1188.55C1545.81 1257.11 1679.55 1285.82 1823.51 1281.64C1909.37 1279.15 2036.1 1262.03 2152.25 1194.64C2220.29 1155.16 2279.99 1103.48 2329.67 1041.05C2355.52 1008.57 2378.49 975.01 2399.98 941.34V937.51H2400Z" fill="url(#paint26_radial_202_67)"/>
<path d="M2400 960.51C2385.36 982.85 2369.78 1004.93 2352.8 1026.43C2303.58 1088.76 2243.42 1139.78 2174 1178.08C2053.9 1244.34 1925.56 1256.46 1839.05 1254.97C1697.18 1252.52 1563.64 1216.91 1406.05 1139.51L1405.15 1139.07C1371.04 1122.32 1335.78 1105 1302.02 1084.72C1257.66 1058.06 1213.89 1028.81 1167.56 997.85C1070.43 932.94 970 865.82 861.11 822.16C830.86 810.03 799.17 800.04 766.93 792.48C670.83 769.92 570.46 770 468.58 792.72C379.54 812.57 289.03 849.7 199.56 903.08C132.92 942.84 65.96 992.8 0 1051.67V1054.27C66.45 994.79 133.92 944.36 201.05 904.31C394.95 788.63 585.07 751.52 766.13 794.03C798.23 801.57 829.79 811.51 859.91 823.59C968.56 867.15 1068.89 934.2 1165.92 999.05C1212.28 1030.03 1256.06 1059.29 1300.47 1085.98C1334.31 1106.31 1369.62 1123.65 1403.77 1140.42L1404.66 1140.86C1562.64 1218.45 1696.57 1254.15 1838.92 1256.61C1925.83 1258.11 2054.75 1245.93 2175.4 1179.36C2245.07 1140.92 2305.44 1089.73 2354.81 1027.2C2371.01 1006.68 2385.93 985.66 2399.98 964.39V960.52L2400 960.51Z" fill="url(#paint27_radial_202_67)"/>
<path d="M2400 982.72C2392.9 992.78 2385.56 1002.74 2377.86 1012.56C2328.96 1074.97 2268.16 1125.49 2197.15 1162.72C2099.92 1213.71 1978.27 1237.55 1854.61 1229.87C1714.05 1221.14 1580.31 1178.56 1420.97 1091.81L1420.26 1091.43C1386.89 1073.26 1352.37 1054.48 1319.39 1033.14C1281.2 1008.44 1243.56 982.08 1203.72 954.17C1103.04 883.65 998.94 810.73 884.46 765.49C853.93 753.43 822.09 743.71 789.82 736.58C693.73 715.38 593.27 718.04 491.22 744.51C402.52 767.51 312.71 808.35 224.29 865.9C150.69 913.8 76.3 974.63 0 1049.41V1052.29C76.88 976.73 151.81 915.35 225.92 867.12C358.45 780.86 563.73 688.48 789.04 738.2C821.15 745.28 852.84 754.97 883.22 766.97C997.42 812.1 1101.41 884.94 1201.98 955.38C1241.84 983.3 1279.49 1009.67 1317.72 1034.4C1350.78 1055.78 1385.33 1074.59 1418.75 1092.78L1419.46 1093.17C1579.18 1180.12 1713.31 1222.81 1854.35 1231.57C1978.61 1239.29 2100.86 1215.32 2198.58 1164.08C2269.87 1126.69 2330.91 1075.99 2379.98 1013.36C2386.91 1004.52 2393.55 995.57 2400 986.54V982.74V982.72Z" fill="url(#paint28_radial_202_67)"/>
<path d="M2400 1002.33C2351.87 1063.11 2291.46 1111.91 2220.3 1147.35C2119.47 1197.57 1995.13 1217.96 1870.19 1204.77C1730.56 1190.02 1596.62 1140.47 1435.9 1044.1C1404.77 1025.44 1369.5 1004.29 1336.77 981.55C1304.55 959.17 1272.84 935.84 1239.27 911.14C1135.31 834.64 1027.8 755.53 907.8 708.81C877.02 696.82 845.03 687.36 812.7 680.68C586.05 633.84 381.06 735.33 249.01 828.71C160.33 891.42 77.2 969.04 0 1050.71V1053.86C77.71 971.47 161.43 893.1 250.78 829.92C382.34 736.89 586.49 635.76 811.94 682.35C844.09 688.99 875.91 698.41 906.53 710.33C1026.21 756.93 1133.58 835.94 1237.42 912.35C1271 937.06 1302.72 960.4 1334.96 982.8C1367.76 1005.58 1403.07 1026.75 1434.22 1045.43C1595.31 1142.02 1729.63 1191.69 1869.75 1206.49C1995.35 1219.75 2120.35 1199.25 2221.73 1148.76C2292.13 1113.7 2352.04 1065.63 2399.99 1005.89V1002.33H2400Z" fill="url(#paint29_radial_202_67)"/>
<path d="M2400 1017.93C2356.49 1065.08 2304 1103.36 2243.46 1131.98C2138.98 1181.38 2011.95 1198.32 1885.76 1179.67C1746.63 1159.11 1612.49 1102.59 1450.82 996.4C1416.09 973.59 1384.85 952.85 1354.13 929.97C1327.7 910.29 1300.51 889.22 1274.21 868.85C1167.23 785.97 1056.6 700.26 931.13 652.12C900.07 640.21 867.93 631.01 835.58 624.77C608.39 580.98 404.64 691.28 273.73 791.52C176.18 866.22 86.23 958.9 0 1055.62V1059.03C86.83 961.49 177.4 867.95 275.64 792.72C406.05 692.86 608.93 582.97 834.83 626.51C866.99 632.71 898.95 641.86 929.83 653.71C1054.93 701.7 1165.41 787.3 1272.25 870.07C1298.56 890.45 1325.75 911.52 1352.2 931.22C1382.97 954.14 1414.25 974.9 1449 997.73C1611.03 1104.15 1745.55 1160.81 1885.16 1181.44C2012.05 1200.19 2139.8 1183.15 2244.88 1133.47C2304.72 1105.18 2356.71 1067.51 2399.99 1021.21V1017.93H2400Z" fill="url(#paint30_radial_202_67)"/>
<path d="M2400 1029.23C2361.73 1064.68 2317.12 1093.96 2266.62 1116.61C2158.44 1165.12 2028.72 1178.6 1901.34 1154.57C1762.26 1128.33 1627.92 1064.84 1465.74 948.69C1436.91 928.04 1403.48 903.88 1371.5 878.38C1350.9 861.96 1329.74 844.67 1309.28 827.96C1199.27 738.1 1085.51 645.17 954.47 595.44C922.88 583.55 890.58 574.61 858.47 568.87C762.16 551.63 661.41 562.06 559.01 599.85C470.74 632.43 383.08 684.41 298.47 754.35C190.95 843.21 93.78 954.17 0 1062.95V1066.56C94.44 957 192.26 845.01 300.5 755.54C429.61 648.82 631.09 530.13 857.74 570.69C889.64 576.4 921.74 585.28 953.14 597.1C1083.75 646.67 1197.35 739.47 1307.2 829.2C1327.67 845.92 1348.83 863.21 1369.44 879.64C1401.46 905.17 1434.92 929.36 1463.78 950.02C1626.3 1066.41 1761.01 1130.06 1900.57 1156.39C2028.7 1180.56 2159.2 1166.99 2268.03 1118.19C2317.88 1095.84 2362 1067.06 2399.99 1032.31V1029.24L2400 1029.23Z" fill="url(#paint31_radial_202_67)"/>
<path d="M2400 1036.51C2367.32 1062.26 2330.52 1083.93 2289.78 1101.24C2179.49 1148.11 2043.59 1158.4 1916.91 1129.48C1777.42 1097.63 1642.88 1027.16 1480.66 901C1442.96 871.67 1414.65 848.79 1388.86 826.81C1373.66 813.85 1358.07 800.38 1343 787.35C1230.54 690.17 1114.25 589.68 977.81 538.76C945.82 526.89 913.36 518.22 881.35 512.97C784.98 496.91 684.12 509.89 581.6 551.54C493.35 587.39 406.41 643.11 323.19 717.17C229.38 800.66 144.71 900.79 62.84 997.63C42.19 1022.05 21.25 1046.8 0.0100098 1071.48V1075.21C22.07 1049.61 43.81 1023.92 65.23 998.58C147.06 901.8 231.68 801.72 325.37 718.34C430 625.22 641.28 474.97 880.65 514.86C912.44 520.07 944.67 528.69 976.45 540.48C1112.4 591.22 1228.51 691.56 1340.81 788.59C1355.89 801.62 1371.48 815.09 1386.69 828.06C1412.5 850.06 1440.84 872.97 1478.57 902.31C1641.12 1028.74 1776.02 1099.37 1915.99 1131.33C2043.44 1160.43 2180.2 1150.07 2291.19 1102.89C2331.32 1085.84 2367.65 1064.6 2400 1039.42V1036.51Z" fill="url(#paint32_radial_202_67)"/>
<path d="M2400 1040.17C2373.42 1057.88 2344.39 1073.17 2312.94 1085.87C2198.74 1131.68 2060.07 1138.43 1932.48 1104.39C1752.6 1056.39 1604.5 944.99 1495.58 853.3C1463.82 826.57 1433.76 800.3 1406.23 775.23C1396.2 766.1 1386.14 756.88 1376.03 747.62C1261.42 642.64 1142.91 534.09 1001.15 482.08C969.07 470.35 936.46 461.94 904.23 457.07C661.75 420.11 451.6 580.87 347.91 679.99C268.27 756.12 196.4 843.92 126.89 928.84C85.88 978.94 43.92 1030.18 0 1079.54V1083.32C44.84 1033.09 87.6 980.85 129.38 929.81C198.85 844.95 270.68 757.19 350.22 681.15C453.48 582.44 662.68 422.32 903.55 459.03C935.53 463.86 967.9 472.22 999.76 483.86C1140.98 535.66 1259.3 644.04 1373.72 748.86C1383.84 758.12 1393.9 767.34 1403.93 776.47C1431.48 801.56 1461.56 827.84 1493.34 854.6C1602.48 946.48 1750.9 1058.11 1931.39 1106.27C2059.79 1140.53 2199.36 1133.73 2314.33 1087.61C2345.21 1075.15 2373.78 1060.21 2399.99 1042.94V1040.19L2400 1040.17Z" fill="url(#paint33_radial_202_67)"/>
<path d="M2400 1041.03C2261.53 1118.76 2083.97 1120.65 1948.05 1079.3C1745.41 1017.66 1576.24 871.94 1423.6 723.65L1408.41 708.87C1266.38 570.66 1119.51 427.76 927.11 401.16C830.3 387.78 729.2 405.96 626.62 455.2C539.36 497.09 451.53 561.96 372.64 642.81C303.65 713.5 241.54 792.59 181.48 869.07C124.21 941.99 65.25 1017.02 0 1085.21V1088.91C66.3 1019.96 126.05 943.9 184.08 870.02C244.11 793.58 306.18 714.55 375.09 643.93C453.77 563.3 541.32 498.62 628.27 456.88C730.15 407.97 830.48 389.91 926.47 403.18C1117.75 429.63 1264.28 572.21 1405.98 710.09L1421.17 724.87C1574.04 873.39 1743.53 1019.35 1946.81 1081.19C2050.84 1112.83 2164.79 1117.19 2267.67 1093.44C2315.91 1082.31 2360.28 1065.44 2400 1043.36V1041.01V1041.03Z" fill="url(#paint34_radial_202_67)"/>
<path d="M2400 993.79C2259.37 1077.13 2073.21 1079.65 1932.92 1037.58C1834.01 1007.96 1735.14 957.41 1630.66 883.05C1545.79 822.88 1466.85 753.34 1407.55 699.47L1391.4 684.78C1325.58 624.84 1257.51 562.86 1184.05 511.81C1090.86 446.52 1002.3 409.46 913.3 398.52C800.23 384.54 681.63 412.4 560.81 481.32C491.47 520.68 423.98 572 360.21 633.83C290.76 701.03 227.84 775.76 167 848.03C113.8 911.21 59.18 976.04 -0.0100098 1036.06V1039.67C60.18 978.9 115.6 913.13 169.55 849.05C230.36 776.82 293.24 702.14 362.6 635.02C426.21 573.34 493.52 522.16 562.65 482.92C682.75 414.41 800.53 386.7 912.71 400.57C1001.1 411.43 1089.15 448.31 1181.92 513.3C1255.25 564.27 1323.25 626.19 1389.02 686.08L1405.17 700.77C1464.51 754.68 1543.53 824.29 1628.5 884.53C1733.25 959.08 1832.42 1009.78 1931.68 1039.5C2034.8 1070.42 2147.59 1075.52 2249.27 1053.83C2304.95 1041.96 2355.61 1022.59 2399.99 996.49V993.8L2400 993.79Z" fill="url(#paint35_radial_202_67)"/>
<path d="M2400 947.38C2258.77 1036.75 2067.24 1040.02 1917.79 995.84C1820.05 967.03 1721.2 918.54 1615.59 847.6C1531.09 791.28 1454.9 728.88 1391.51 675.26L1379.15 664.79C1311.97 607.85 1242.5 548.98 1168.1 500.42C1073.32 438.55 987.97 405.32 899.51 395.84C788.47 383.78 670.79 411.49 549.75 478.21C479.94 516.69 411.99 566.02 347.8 624.82C278.06 688.44 214.49 758.71 153.01 826.68C103.89 880.98 53.59 936.56 0 988.84V992.34C54.54 939.34 105.64 882.89 155.52 827.75C216.96 759.83 280.5 689.59 350.15 626.05C414.19 567.39 481.95 518.2 551.56 479.82C671.91 413.48 788.8 385.92 898.99 397.89C986.84 407.31 1071.7 440.38 1166.04 501.96C1240.3 550.43 1309.71 609.25 1376.83 666.14L1389.19 676.61C1452.64 730.27 1528.9 792.73 1613.5 849.12C1719.36 920.23 1818.5 968.85 1916.57 997.76C2018.77 1027.97 2130.4 1033.79 2230.89 1014.17C2294.23 1001.8 2351.22 979.93 2400 949.65V947.4V947.38Z" fill="url(#paint36_radial_202_67)"/>
<path d="M2400 900.38C2257.31 995.31 2056.78 999 1902.66 954.12C1806.08 926.11 1710.07 881.01 1600.52 812.17C1513.48 757.48 1434.52 697.35 1375.46 651.07L1365.33 643.12C1297.34 589.74 1227.04 534.54 1152.14 489.07C1057.49 431.61 972.83 401.14 885.72 393.19C776.5 382.99 659.74 410.56 538.7 475.12C468.64 512.49 400.24 559.83 335.4 615.82C265.58 675.74 201.55 741.47 139.62 805.03C94.51 851.33 48.43 898.62 0.0100098 943.69V947.09C49.33 901.33 96.2 853.24 142.06 806.16C203.95 742.63 267.95 676.95 337.69 617.1C402.38 561.23 470.61 514.01 540.47 476.75C660.85 412.54 776.86 385.12 885.27 395.24C971.79 403.13 1055.96 433.45 1150.16 490.64C1224.92 536.03 1295.16 591.18 1363.08 644.51L1373.21 652.46C1432.32 698.77 1511.35 758.95 1598.5 813.71C1708.3 882.71 1804.57 927.93 1901.47 956.02C2002.75 985.51 2113.22 992.07 2212.53 974.48C2283.73 961.87 2347.15 937.55 2400.01 902.97V900.36L2400 900.38Z" fill="url(#paint37_radial_202_67)"/>
<path d="M2400 853.52C2272.08 942 2075.37 966.24 1887.52 912.39C1793 885.44 1697.01 842.33 1585.43 776.73C1497.56 725.07 1418.47 669.51 1359.39 626.88L1352.34 621.78C1283.29 571.84 1211.88 520.19 1136.17 477.71C1041.63 424.67 957.66 396.97 871.92 390.54C764.55 382.2 648.72 409.62 527.63 472.04C458.05 507.91 389.19 553.26 322.98 606.84C254.04 662.62 190.23 723.21 128.53 781.8C86.78 821.44 44.23 861.83 0.0100098 900.74V904.04C45.1 864.47 88.41 823.35 130.91 782.99C192.58 724.43 256.35 663.88 325.22 608.16C391.29 554.71 459.97 509.46 529.37 473.68C649.82 411.59 764.94 384.3 871.54 392.59C956.71 398.98 1040.2 426.54 1134.29 479.33C1209.87 521.73 1281.21 573.33 1350.2 623.23L1357.25 628.33C1416.38 670.99 1495.54 726.6 1583.51 778.32C1695.33 844.06 1791.56 887.27 1886.37 914.31C1986.73 943.08 2096.05 950.36 2194.18 934.82C2273.47 922.26 2343.43 895.55 2400.03 856.62V853.53L2400 853.52Z" fill="url(#paint38_radial_202_67)"/>
<path d="M2400 807.68C2272.06 901.4 2070.26 926.49 1872.39 870.67C1779.03 844.5 1685.88 804.6 1570.35 741.29C1501.13 703.36 1431.11 660.61 1343.32 602.68L1340.56 600.86C1270.06 554.21 1197.17 505.96 1120.19 466.35C1026.03 417.9 942.75 392.97 858.11 387.88C752.33 381.53 637.41 408.8 516.56 468.94C446.94 503.59 377.63 546.95 310.56 597.84C242.37 649.57 178.84 705.24 117.41 759.07C77.8 793.78 39.25 827.55 0 860V863.18C40.05 830.14 79.33 795.72 119.72 760.34C181.12 706.53 244.61 650.89 312.73 599.22C379.66 548.45 448.81 505.18 518.26 470.62C638.5 410.78 752.74 383.63 857.79 389.95C941.87 395 1024.68 419.81 1118.39 468.03C1195.23 507.57 1268.06 555.77 1338.49 602.38L1341.25 604.21C1429.11 662.19 1499.19 704.98 1568.49 742.95C1684.24 806.38 1777.61 846.37 1871.23 872.61C1970.67 900.67 2078.83 908.67 2175.8 895.14C2263.42 882.92 2340.03 853.93 2400 810.64V807.7V807.68Z" fill="url(#paint39_radial_202_67)"/>
<path d="M2400 762.16C2273.2 859.47 2062.28 885.83 1857.26 828.94C1741.48 797.05 1635.05 746.41 1555.27 705.85C1485.36 670.31 1415.03 631.02 1327.25 578.47C1259.66 537.87 1183.06 491.84 1104.21 454.97C1010.17 410.99 927.58 388.82 844.3 385.21C740.39 380.7 626.4 407.82 505.49 465.83C435.84 499.25 366.08 540.63 298.14 588.82C231.2 636.31 168.42 686.9 107.7 735.84C71.34 765.14 35.83 793.75 -0.0100098 821.37V824.43C36.6 796.27 72.82 767.08 109.93 737.17C170.61 688.26 233.36 637.7 300.23 590.25C368.03 542.15 437.65 500.86 507.13 467.52C627.47 409.78 740.82 382.78 844.04 387.26C926.78 390.85 1008.9 412.91 1102.51 456.68C1181.21 493.48 1257.75 539.46 1325.27 580.03C1413.12 632.62 1483.5 671.94 1553.47 707.51C1633.39 748.13 1740.01 798.87 1856.09 830.84C2061.11 887.74 2272.09 861.78 2399.98 765.17V762.14L2400 762.16Z" fill="url(#paint40_radial_202_67)"/>
<path d="M2400 717.51C2397.3 719.61 2394.53 721.73 2391.64 723.92C2265.65 819.08 2049.95 843.92 1842.13 787.21C1732.15 757.46 1632.02 713.49 1540.19 670.41C1469.51 637.25 1398.88 601.43 1311.18 554.27C1233.72 512.43 1163.47 475.23 1088.24 443.61C994.27 404.12 912.37 384.72 830.51 382.56C727.1 379.82 617.18 406.05 494.44 462.75C424.78 494.93 354.56 534.32 285.75 579.84C220.7 622.86 159.29 668.2 99.9 712.06C66.18 736.96 33.16 761.33 0.0100098 784.97V787.89C33.88 763.78 67.59 738.9 102.04 713.47C161.41 669.64 222.79 624.32 287.78 581.33C356.47 535.9 426.54 496.59 496.06 464.48C618.25 408.04 727.59 381.92 830.34 384.64C911.69 386.79 993.14 406.1 1086.67 445.41C1161.77 476.97 1231.95 514.14 1309.34 555.94C1397.1 603.13 1467.78 638.97 1538.51 672.16C1630.48 715.31 1730.78 759.34 1841.01 789.16C1940.01 816.17 2043.12 825.35 2139.2 815.7C2241.03 805.47 2329.07 774.22 2393.83 725.32C2395.95 723.72 2398 722.15 2400.02 720.59V717.53L2400 717.51Z" fill="url(#paint41_radial_202_67)"/>
<path d="M2400 674.88C2391.92 680.92 2382.83 687.35 2372.15 694.58C2243.61 781.67 2034.72 801.18 1827 745.48C1718.36 716.64 1618.29 675.07 1525.1 634.97C1454.42 604.56 1381.33 571.22 1295.09 530.07C1225.14 496.52 1150.32 461.32 1072.24 432.25C977 396.79 898.19 380.64 816.7 379.9C715.33 378.98 606.3 405.07 483.38 459.65C413.72 490.58 343.05 527.99 273.34 570.83C211.09 609.09 151.9 648.95 94.65 687.5C62.7 709.01 31.35 730.11 0 750.64V753.44C32.04 732.49 64.05 710.95 96.69 688.97C153.91 650.44 213.08 610.59 275.28 572.37C344.87 529.6 415.41 492.26 484.94 461.39C607.35 407.03 715.83 381.05 816.6 381.97C897.6 382.71 976 398.78 1070.8 434.08C1148.75 463.1 1223.49 498.26 1293.38 531.79C1379.67 572.96 1452.79 606.31 1523.51 636.74C1616.82 676.89 1717.02 718.51 1825.9 747.42C1923.95 773.71 2025.97 783.57 2120.94 775.95C2221.39 767.88 2308.97 740.25 2374.22 696.05C2383.99 689.43 2392.45 683.48 2400.02 677.88V674.89L2400 674.88Z" fill="url(#paint42_radial_202_67)"/>
<path d="M2400 634.54C2384.95 645.56 2368.36 655.8 2352.67 665.23C2223.59 742.84 2016.37 757.6 1811.86 703.75C1704.78 675.86 1605.76 637.06 1510 599.53C1437.65 571.18 1364.25 541.42 1278.99 505.86C1209.43 476.67 1134.29 446.17 1056.24 420.88C960.97 390.01 882.83 376.55 802.89 377.24C703.66 378.1 595.53 404.04 472.31 456.56C402.69 486.23 331.57 521.65 260.94 561.83C202.73 594.95 146.96 629.04 93.03 662.01C61.64 681.2 30.79 700.06 0 718.43V721.11C31.43 702.38 62.91 683.14 94.96 663.55C148.88 630.59 204.62 596.51 262.79 563.42C333.32 523.3 404.32 487.94 473.83 458.31C596.56 406 704.19 380.16 802.87 379.31C882.35 378.62 960.09 392.02 1054.95 422.76C1132.88 448.01 1207.93 478.48 1277.43 507.64C1362.71 543.2 1436.14 572.98 1508.51 601.33C1604.37 638.89 1703.49 677.74 1810.77 705.68C2016.29 759.79 2224.67 744.88 2354.59 666.77C2369.61 657.74 2385.44 647.96 2400 637.46V634.53V634.54Z" fill="url(#paint43_radial_202_67)"/>
<path d="M2400 596.8C2393.93 600.89 2387.75 604.93 2381.43 608.9C2366.89 618.04 2350.98 626.53 2333.2 635.89C2203.69 704.05 1998.13 714.07 1796.73 662.03C1703.04 638.1 1614.17 606.49 1528.23 575.93C1517.07 571.96 1505.97 568.01 1494.91 564.1C1408.35 533.48 1332.46 506.51 1262.89 481.67C1203.13 460.17 1123.82 432.53 1040.23 409.53C976.01 391.85 889.43 371.91 789.08 374.6C692.12 377.2 584.88 403 461.26 453.48C391.75 481.86 320.18 515.29 248.55 552.85C196.21 580.29 145.64 608.21 96.74 635.21C64.1 653.23 32 670.95 0 688.2V690.79C32.6 673.23 65.29 655.18 98.55 636.82C147.44 609.83 197.99 581.92 250.3 554.49C321.84 516.98 393.31 483.59 462.72 455.25C585.91 404.95 692.68 379.25 789.14 376.66C888.94 373.99 975.14 393.85 1039.1 411.45C1122.57 434.42 1201.79 462.03 1261.5 483.51C1331.07 508.36 1406.97 535.32 1493.53 565.95C1504.59 569.86 1515.69 573.81 1526.84 577.78C1612.86 608.37 1701.81 640 1795.66 663.97C1997.99 716.25 2204.64 706.12 2334.96 637.53C2352.8 628.14 2368.76 619.62 2383.39 610.42C2389.03 606.87 2394.55 603.27 2400 599.62V596.8Z" fill="url(#paint44_radial_202_67)"/>
<path d="M2400 562.3C2387.96 569.5 2375.62 576.52 2362.81 583.31C2349.07 590.59 2334.46 597.19 2318.99 604.18L2313.74 606.55C2183.91 665.31 1980.01 670.58 1781.6 620.31C1701.18 600.18 1623.86 575.14 1549.09 550.93C1526.29 543.55 1502.71 535.91 1479.81 528.68C1391.9 500.89 1312.67 477.1 1246.78 457.49C1164.12 432.66 1093.4 413.81 1024.22 398.18C959.83 383.63 873.35 367.51 775.28 371.95C679.43 376.29 576.14 401.22 450.2 450.39C380.89 477.45 308.87 508.9 236.15 543.86C192.49 564.85 149.88 585.99 108.67 606.43C71.98 624.63 35.92 642.52 -0.0100098 659.89V662.38C36.48 644.76 73.09 626.59 110.36 608.11C151.56 587.67 194.16 566.53 237.8 545.56C310.44 510.64 382.37 479.23 451.6 452.2C577.13 403.19 680.02 378.35 775.4 374.03C872.98 369.61 959.11 385.67 1023.25 400.16C1092.33 415.77 1162.97 434.59 1245.56 459.4C1311.45 479.01 1390.65 502.8 1478.54 530.58C1501.43 537.82 1525 545.45 1547.8 552.83C1622.63 577.06 1700.01 602.12 1780.55 622.28C1979.81 672.77 2184.73 667.42 2315.33 608.3L2320.57 605.93C2336.09 598.92 2350.75 592.3 2364.58 584.97C2376.77 578.51 2388.52 571.85 2400 565.02V562.33V562.3Z" fill="url(#paint45_radial_202_67)"/>
<path d="M2400 531.26C2381.99 540.46 2363.51 549.31 2344.21 557.71C2332.12 562.97 2319.45 567.73 2306.04 572.77C2302.16 574.23 2298.24 575.7 2294.29 577.2C2162.34 627.37 1965.03 627.88 1766.47 578.57C1699.29 562.1 1633.88 542.73 1570.63 523.99C1534.1 513.17 1499.6 502.95 1464.71 493.23C1373.29 467.75 1291.6 447.81 1230.66 433.28C1155.36 415.12 1082.59 399.92 1008.21 386.81C939.55 374.72 856.54 363.18 761.47 369.29C668.33 375.28 565.91 400.06 439.14 447.29C370.25 472.95 297.79 502.41 223.76 534.85C193.3 548.2 163.17 561.58 134.03 574.51C88.73 594.62 44.28 614.34 0 633.35V635.75C44.8 616.54 89.76 596.59 135.59 576.25C164.72 563.31 194.85 549.94 225.31 536.59C299.28 504.18 371.68 474.74 440.51 449.1C566.91 402.01 668.96 377.31 761.69 371.34C856.31 365.26 939.01 376.76 1007.43 388.81C1081.73 401.9 1154.42 417.08 1229.64 435.23C1290.56 449.75 1372.2 469.69 1463.56 495.15C1498.42 504.87 1532.91 515.08 1569.42 525.9C1632.71 544.65 1698.16 564.03 1765.42 580.52C1859.73 603.94 1957.59 616.55 2048.43 616.98C2143.67 617.43 2229.16 604.3 2295.67 579.01C2299.61 577.51 2303.53 576.04 2307.4 574.58C2320.86 569.53 2333.57 564.75 2345.74 559.45C2364.49 551.29 2382.47 542.7 2399.99 533.78V531.25L2400 531.26Z" fill="url(#paint46_radial_202_67)"/>
<path d="M2400 503.66C2375.95 513.72 2351.4 523.23 2325.63 532.12C2314.94 535.81 2303.86 539.12 2292.13 542.63C2286.45 544.33 2280.69 546.06 2274.86 547.86C2143.57 588.44 1947.86 584.32 1751.34 536.85C1698.12 523.99 1645.65 509.71 1594.9 495.89C1544.71 482.23 1497.3 469.32 1449.6 457.8C1356.87 435.39 1275.26 419.99 1214.53 409.09C1146.38 396.66 1075.72 385.98 992.18 375.46C923.08 366.76 839.99 358.91 747.67 366.64C656.36 374.28 557.79 398.2 428.09 444.2C359.27 468.6 288.39 495.31 211.38 525.86L183.56 536.9C121.4 561.58 60.58 585.71 0 608.55V610.88C61.06 587.87 122.34 563.57 184.99 538.69L212.8 527.65C289.76 497.12 360.61 470.43 429.39 446.04C558.76 400.16 657.01 376.31 747.96 368.7C839.89 361.01 922.71 368.83 991.6 377.51C1075.07 388.01 1145.65 398.69 1213.73 411.11C1274.42 422.01 1355.96 437.38 1448.58 459.77C1496.22 471.28 1543.6 484.18 1593.77 497.84C1644.54 511.66 1697.04 525.95 1750.31 538.82C1947.52 586.47 2144.04 590.56 2276.01 549.77C2281.83 547.97 2287.58 546.25 2293.25 544.55C2305.01 541.03 2316.13 537.7 2326.9 533.99C2352.22 525.25 2376.36 515.92 2400 506.07V503.69V503.66Z" fill="url(#paint47_radial_202_67)"/>
<path d="M2400 479.41C2368.32 489.73 2338.29 498.46 2307.06 506.54C2297.54 509 2287.77 511.19 2277.43 513.5C2270.23 515.11 2262.89 516.75 2255.44 518.53C2124.66 549.81 1930.55 541.06 1736.22 495.13C1696.91 485.84 1657.74 475.93 1619.87 466.35C1555.75 450.13 1495.18 434.81 1434.51 422.37C1340.72 403.14 1259.06 392.24 1198.41 384.91C1128.44 376.25 1058.96 370.33 976.17 364.12C902.86 358.62 822.76 354.79 733.87 363.99C622.15 375.56 511.02 409.46 417.05 441.11C350.86 463.4 281.57 487.47 199.01 516.87C132.67 540.49 66.69 563.64 0.0200195 585.47V587.73C67.14 565.77 133.55 542.47 200.32 518.7C282.86 489.31 352.13 465.24 418.3 442.96C512.07 411.39 622.94 377.56 734.25 366.03C822.81 356.86 902.68 360.68 975.79 366.17C1058.52 372.38 1127.94 378.29 1197.84 386.94C1258.42 394.27 1339.97 405.15 1433.62 424.35C1494.2 436.77 1554.73 452.08 1618.8 468.29C1656.69 477.87 1695.87 487.78 1735.22 497.08C1930.15 543.15 2124.97 551.9 2256.36 520.48C2263.8 518.7 2271.12 517.06 2278.3 515.46C2288.67 513.14 2298.47 510.95 2308.06 508.47C2338.98 500.47 2368.71 491.84 2400.02 481.67V479.41H2400Z" fill="url(#paint48_radial_202_67)"/>
<path d="M2400 458.13C2363.65 466.71 2327.2 474.16 2288.5 480.97C2279.97 482.47 2271.3 483.76 2262.13 485.12C2253.67 486.38 2244.92 487.68 2236.02 489.2C2106.26 511.3 1913.76 497.92 1721.08 453.4C1695.91 447.58 1670.6 441.57 1646.13 435.75C1567.61 417.08 1493.44 399.44 1419.39 386.95C1345.48 374.47 1272.34 366.39 1182.26 360.74C1116.17 356.41 1051.75 354.91 983.54 353.33L960.12 352.78C890.74 351.13 809.26 350.3 720.04 361.35C614.32 374.44 506.61 405.94 405.97 438.02L347.33 456.73C291.23 474.63 238.24 491.54 186.61 507.88C119.44 529.13 57.88 547.61 0 563.82V566.03C58.23 549.73 120.18 531.14 187.79 509.75C239.43 493.41 292.42 476.5 348.52 458.6L407.16 439.89C507.62 407.86 615.11 376.43 720.5 363.38C809.43 352.37 890.73 353.2 959.95 354.84L983.38 355.39C1051.54 356.97 1115.92 358.47 1181.92 362.79C1271.86 368.44 1344.86 376.5 1418.63 388.95C1492.55 401.42 1566.66 419.05 1645.11 437.7C1669.59 443.52 1694.9 449.54 1720.08 455.36C1913.26 500 2106.38 513.4 2236.66 491.21C2245.52 489.7 2254.25 488.4 2262.69 487.15C2271.89 485.78 2280.59 484.48 2289.17 482.97C2327.63 476.21 2363.87 468.81 2400 460.3V458.13Z" fill="url(#paint49_radial_202_67)"/>
<path d="M2400 439.65C2360.31 445.68 2318.24 450.75 2269.95 455.4C2262.29 456.14 2254.58 456.72 2246.4 457.34C2236.77 458.07 2226.81 458.82 2216.6 459.87C2086.81 473.18 1900.68 455.61 1705.94 411.66C1695.22 409.24 1684.53 406.82 1673.87 404.4C1580.44 383.2 1492.2 363.18 1404.27 351.51C1329.69 341.61 1256.23 336.99 1166.11 336.55C1110.53 336.13 1056.83 337.86 999.99 339.7C981.56 340.29 962.96 340.9 944.08 341.43C866.52 343.61 789.96 346.57 706.23 358.68C603.28 373.57 495.99 404.51 394.92 434.91C317.94 458.07 243.69 479.59 174.23 498.87C114.12 515.55 56.32 530.41 0 543.62V545.78C56.66 532.5 114.8 517.56 175.28 500.78C244.77 481.49 319.05 459.97 396.05 436.8C496.98 406.43 604.11 375.55 706.78 360.69C790.28 348.61 866.71 345.66 944.14 343.48C963.03 342.95 981.64 342.35 1000.07 341.75C1056.87 339.92 1110.52 338.18 1166.02 338.6C1255.96 339.04 1329.25 343.64 1403.66 353.52C1491.4 365.17 1579.56 385.17 1672.9 406.35C1683.56 408.77 1694.25 411.19 1704.97 413.61C1900.13 457.65 2086.75 475.25 2216.97 461.9C2227.12 460.86 2237.05 460.1 2246.66 459.38C2254.85 458.76 2262.59 458.17 2270.29 457.43C2318.43 452.79 2360.4 447.74 2400 441.73V439.63V439.65Z" fill="url(#paint50_radial_202_67)"/>
<path d="M2400 423.65C2353.17 427.14 2305.72 428.76 2251.4 429.85C2244.5 429.99 2237.47 430.02 2230.3 430.06C2219.62 430.11 2208.59 430.16 2197.2 430.57C2069.69 435.14 1885.12 413.04 1690.81 369.94C1591.53 348.23 1488.87 325.77 1389.16 316.09C1313.93 308.78 1240.16 307.64 1149.97 312.39C1100.21 314.89 1052.41 319.18 1001.81 323.71C977.84 325.86 953.06 328.08 928.05 330.1L919.43 330.8C848.04 336.54 774.22 342.47 692.43 356.04C593.9 372.39 491.34 401.42 392.15 429.49L383.87 431.83C309.33 452.92 234.63 472.45 161.86 489.89C107.21 502.98 53.51 514.6 0 524.87V527.01C53.81 516.69 107.81 505.01 162.77 491.85C235.6 474.4 310.35 454.85 384.94 433.75L393.22 431.41C492.3 403.37 594.75 374.38 693.06 358.06C774.68 344.52 848.41 338.59 919.71 332.86L928.33 332.17C953.36 330.15 978.15 327.93 1002.13 325.78C1052.69 321.24 1100.45 316.96 1150.13 314.47C1240.1 309.73 1313.67 310.87 1388.69 318.15C1488.16 327.81 1590.7 350.24 1689.86 371.93C1884.49 415.1 2069.44 437.23 2197.29 432.65C2208.61 432.24 2219.61 432.19 2230.25 432.15C2237.45 432.12 2244.5 432.08 2251.42 431.94C2305.72 430.84 2353.18 429.23 2400 425.75V423.67V423.65Z" fill="url(#paint51_radial_202_67)"/>
<path d="M2400 409.81C2340.4 410.01 2284.16 407.04 2232.84 404.32C2226.63 403.99 2220.33 403.58 2213.92 403.17C2202.29 402.42 2190.27 401.64 2177.79 401.27C2054.81 397.58 1876.49 371.64 1675.67 328.22C1583.35 308.53 1476.3 286.99 1374.05 280.67C1298.2 275.98 1224.11 278.31 1133.83 288.24C1087.6 293.21 1043.38 299.76 996.57 306.69C969.13 310.75 940.75 314.95 912.01 318.79C900.38 320.34 888.59 321.89 876.63 323.46C813.94 331.67 749.13 340.17 678.61 353.41C595.98 368.92 509.63 392.1 426.11 414.51C408.35 419.28 390.58 424.05 372.81 428.75C299.06 448.29 223.92 465.84 149.47 480.91C99.93 490.94 50.31 499.71 -0.0100098 507.31V509.41C50.58 501.78 100.45 492.97 150.24 482.89C224.76 467.8 299.98 450.24 373.81 430.67C391.59 425.96 409.36 421.19 427.12 416.42C510.56 394.03 596.84 370.87 679.32 355.39C749.72 342.17 814.48 333.68 877.11 325.48C889.07 323.91 900.87 322.37 912.5 320.81C941.26 316.97 969.66 312.77 997.12 308.7C1043.89 301.78 1088.07 295.24 1134.22 290.28C1224.26 280.38 1298.12 278.06 1373.71 282.73C1475.68 289.03 1582.56 310.54 1674.73 330.19C1875.78 373.66 2054.37 399.64 2177.59 403.33C2189.99 403.7 2201.98 404.48 2213.57 405.23C2220 405.65 2226.31 406.05 2232.54 406.38C2283.94 409.11 2340.27 412.07 2400 411.88V409.81Z" fill="url(#paint52_radial_202_67)"/>
<path d="M2400 398.03C2339.78 394.3 2282.32 387.2 2222.37 379.79L2214.27 378.79C2208.72 378.1 2203.11 377.36 2197.41 376.61C2184.86 374.96 2171.89 373.25 2158.38 371.96C2008.56 357.75 1802.5 316.37 1660.54 286.48C1569.97 267.66 1463.3 248.04 1358.93 245.24C1282.46 243.19 1208.05 249 1117.69 264.07C1073.65 271.32 1031.67 280 987.23 289.19C957.63 295.31 927.02 301.64 895.97 307.45C873.11 311.73 849.95 315.87 825.42 320.26C774.17 329.42 721.16 338.9 664.79 350.75C599.44 364.48 531.1 382.19 465.01 399.31C431.21 408.07 396.26 417.12 361.75 425.65C288.34 443.78 212.75 459.35 137.09 471.92C91.88 479.43 46.46 485.78 -0.0200195 491.02V493.11C46.67 487.85 92.3 481.48 137.72 473.94C213.48 461.35 289.17 445.76 362.69 427.61C397.23 419.08 432.19 410.02 465.99 401.26C532.04 384.14 600.33 366.45 665.59 352.74C721.9 340.91 774.87 331.43 826.1 322.28C850.63 317.89 873.81 313.75 896.68 309.47C927.77 303.65 958.4 297.32 988.02 291.2C1032.42 282.02 1074.35 273.35 1118.32 266.11C1208.41 251.08 1282.56 245.28 1358.75 247.33C1462.8 250.12 1569.23 269.7 1659.63 288.49C1801.68 318.4 2007.88 359.81 2157.91 374.04C2171.35 375.32 2184.29 377.02 2196.79 378.67C2202.49 379.42 2208.12 380.16 2213.68 380.85L2221.78 381.85C2281.91 389.28 2339.54 396.4 2399.99 400.13V398.05L2400 398.03Z" fill="url(#paint53_radial_202_67)"/>
<path d="M2400 387.96C2336.07 380.17 2275.66 368.61 2212.49 356.5L2195.68 353.28C2190.78 352.34 2185.83 351.37 2180.84 350.39C2167.39 347.74 2153.47 345 2138.96 342.69C2036.18 326.36 1910.87 300.13 1778.21 272.36C1734.6 263.23 1689.52 253.8 1645.41 244.76C1522.65 219.93 1429.64 209.16 1343.82 209.83C1266.74 210.44 1192.03 219.72 1101.57 239.94C1058.92 249.39 1016.5 260.66 975.48 271.55C944.5 279.78 912.47 288.29 879.95 296.14C841.41 305.44 801.21 314.36 758.66 323.8C723.96 331.5 688.07 339.46 650.99 348.1C604.96 358.83 559.12 370.58 510.59 383.03C458.4 396.42 404.43 410.26 350.71 422.56C277.44 439.34 201.4 452.92 124.73 462.93C82.49 468.45 40.87 472.63 -0.0100098 475.75V477.83C41.02 474.7 82.8 470.5 125.21 464.96C202.01 454.93 278.18 441.32 351.58 424.51C405.35 412.2 459.34 398.35 511.56 384.96C560.07 372.52 605.88 360.77 651.88 350.05C688.93 341.41 724.81 333.46 759.5 325.76C802.08 316.32 842.29 307.39 880.87 298.08C913.43 290.22 945.48 281.71 976.48 273.47C1017.46 262.58 1059.83 251.32 1102.41 241.89C1192.58 221.74 1267.02 212.48 1343.79 211.88C1429.3 211.21 1522.05 221.96 1644.52 246.73C1688.62 255.76 1733.7 265.2 1777.3 274.32C1910.01 302.1 2035.36 328.33 2138.24 344.68C2152.68 346.98 2166.56 349.71 2179.98 352.35C2184.98 353.34 2189.94 354.31 2194.84 355.25L2211.65 358.47C2275.08 370.63 2335.73 382.24 2400 390.05V387.94V387.96Z" fill="url(#paint54_radial_202_67)"/>
<path d="M2400 379.47C2330.26 367.13 2265.1 350.39 2196.76 332.82L2177.08 327.76C2172.91 326.69 2168.7 325.6 2164.47 324.5C2150.03 320.75 2135.1 316.87 2119.53 313.41C2071.29 302.7 2018.2 290.21 1961.98 276.98C1859.29 252.82 1742.89 225.44 1630.27 203.04C1512.19 179.82 1416.37 170.72 1328.7 174.42C1251.03 177.7 1176 190.46 1085.44 215.8C1043.61 227.43 1002.12 240.91 962 253.94C930.19 264.27 897.3 274.95 863.93 284.83C800.67 303.57 731.9 321.19 659.1 339.84L637.19 345.46C613.46 351.55 588.96 357.98 565.26 364.2C491.95 383.44 416.15 403.34 339.67 419.47C266.42 434.92 189.95 446.53 112.37 453.96C74.55 457.58 37.09 460.07 0 461.63V463.7C37.19 462.13 74.77 459.64 112.71 456.01C190.45 448.56 267.08 436.94 340.47 421.45C417.04 405.29 492.89 385.38 566.25 366.13C589.94 359.91 614.44 353.48 638.16 347.4L660.07 341.78C732.91 323.12 801.72 305.49 865.04 286.73C898.46 276.83 931.37 266.14 963.2 255.8C1003.29 242.78 1044.74 229.32 1086.49 217.71C1176.74 192.46 1251.48 179.74 1328.81 176.48C1416.13 172.8 1511.65 181.87 1629.39 205.02C1741.94 227.41 1858.3 254.79 1960.96 278.94C2017.19 292.17 2070.29 304.66 2118.55 315.38C2134.06 318.82 2148.96 322.7 2163.36 326.44C2167.6 327.54 2171.81 328.64 2175.99 329.71L2195.66 334.76C2264.33 352.42 2329.8 369.23 2399.98 381.61V379.47H2400Z" fill="url(#paint55_radial_202_67)"/>
<path d="M2400 372.39C2322.22 354.61 2248.38 331.01 2176.72 308.09L2148.63 299.1C2133.03 294.09 2116.89 288.91 2100.09 284.13L2084.68 279.75C1949.2 241.2 1780.58 193.23 1615.14 161.31C1499.53 139.22 1403.71 132.13 1313.59 139.01C1235.33 144.98 1159.99 161.21 1069.33 191.66C1027.91 205.51 986.93 221.24 947.3 236.46C915.05 248.84 881.7 261.65 847.92 273.53C786.81 295.02 717.56 316.39 623.38 342.82C538.59 366.62 433.06 396.24 328.62 416.39C255.33 430.53 178.41 440.15 100 444.99C66.44 447.06 33.08 448.16 0 448.48V450.55C33.14 450.22 66.56 449.12 100.19 447.05C178.78 442.2 255.88 432.56 329.35 418.38C433.96 398.2 539.57 368.56 624.43 344.74C718.69 318.29 788.01 296.89 849.21 275.37C883.04 263.47 916.42 250.66 948.69 238.27C988.28 223.07 1029.23 207.35 1070.57 193.52C1160.92 163.18 1235.95 147 1313.85 141.07C1403.59 134.23 1499.05 141.3 1614.29 163.31C1779.56 195.2 1948.09 243.15 2083.51 281.67L2098.92 286.05C2115.66 290.81 2131.76 295.98 2147.34 300.98L2175.43 309.97C2247.47 333.01 2321.71 356.74 2400 374.58V372.39Z" fill="url(#paint56_radial_202_67)"/>
<path d="M2400 366.63C2313.54 342.76 2231.86 311.71 2152.69 281.62L2133.74 274.42C2116.65 267.92 2098.97 261.2 2080.63 254.86C1947.44 208.8 1772.44 151.8 1600 119.58C1488.02 98.82 1389.39 93.59 1298.48 103.59C1219.64 112.26 1144 131.98 1053.22 167.51C1011.92 183.63 971.14 201.7 931.7 219.18C899.29 233.54 865.78 248.39 831.9 262.21C765.81 289.16 693.08 314.66 609.56 340.16C530.89 364.19 426.61 394.21 317.56 413.28C244.21 426.1 166.85 433.75 87.61 435.99C58.26 436.82 29.04 436.87 -0.0100098 436.28V438.35C29.06 438.94 58.29 438.89 87.67 438.06C167.11 435.81 244.68 428.15 318.23 415.29C427.5 396.18 531.93 366.11 610.7 342.05C694.33 316.51 767.16 290.97 833.36 263.98C867.28 250.15 900.82 235.28 933.26 220.91C972.66 203.45 1013.4 185.4 1054.63 169.3C1145.08 133.89 1220.41 114.25 1298.87 105.62C1389.37 95.66 1487.6 100.88 1599.17 121.56C1771.35 153.74 1946.19 210.68 2079.26 256.7C2097.54 263.03 2115.2 269.74 2132.27 276.23L2151.22 283.43C2230.81 313.68 2312.96 344.9 2400 368.85V366.62V366.63Z" fill="url(#paint57_radial_202_67)"/>
<path d="M2400 362C2303.39 331.04 2212.58 291.28 2124.71 252.77L2121.21 251.24C2101.94 242.8 2082.02 234.07 2061.17 225.6C1943.86 177.93 1766.85 110.74 1584.87 77.8599C1474.66 58.0599 1376.03 54.8999 1283.37 68.1899C1203.96 79.5799 1128.02 102.77 1037.13 143.39C995.71 161.87 954.89 182.37 915.42 202.2C883.07 218.45 849.62 235.26 815.91 250.91C748.12 282.4 674.05 311.54 595.77 337.53C489.38 372.6 394.77 396.37 306.53 410.2C232.63 421.79 156.97 427.29 75.25 427.03C50.02 426.89 24.95 426.17 0 424.95V427.02C24.92 428.24 49.96 428.95 75.16 429.09C157.11 429.36 232.98 423.84 307.11 412.21C395.57 398.34 490.38 374.52 596.98 339.38C675.4 313.35 749.6 284.16 817.51 252.61C851.26 236.93 884.74 220.12 917.11 203.85C956.55 184.04 997.34 163.55 1038.69 145.1C1129.25 104.63 1204.88 81.5299 1283.9 70.1899C1376.12 56.9599 1474.3 60.1199 1584.07 79.8399C1765.7 112.66 1942.47 179.76 2059.63 227.37C2080.44 235.83 2100.34 244.55 2119.59 252.98L2123.09 254.51C2211.43 293.22 2302.74 333.21 2400 364.28V361.98V362Z" fill="url(#paint58_radial_202_67)"/>
<path d="M2400 358.49C2398.45 357.93 2396.91 357.38 2395.36 356.82C2295.03 320.12 2199.61 273.88 2102.56 225.74C2083.2 216.19 2062.55 206.05 2041.7 196.33C1859.55 111.43 1709.58 60.52 1569.74 36.13C1461.38 17.29 1362.76 16.2 1268.26 32.78C1188.01 47.04 1111.76 73.71 1021.04 119.25C979.29 140.19 938.23 163.25 898.52 185.55C866.42 203.58 833.24 222.21 799.91 239.61C729.81 276.19 656.48 308.25 581.95 334.89C483.41 369.99 387.02 394.29 295.48 407.11C221.59 417.26 143.33 420.94 62.87 418.05C41.88 417.27 20.92 416.04 0 414.45V416.53C20.85 418.12 41.73 419.34 62.65 420.11C143.35 423 221.86 419.31 296 409.13C387.82 396.27 484.47 371.9 583.26 336.71C657.95 310.01 731.43 277.89 801.66 241.24C835.03 223.83 868.24 205.17 900.36 187.14C940.04 164.85 981.07 141.81 1022.75 120.91C1113.15 75.53 1189.07 48.97 1268.94 34.78C1362.95 18.28 1461.09 19.38 1568.97 38.13C1708.48 62.46 1858.16 113.28 2040.02 198.05C2060.85 207.75 2081.47 217.89 2100.82 227.42C2197.95 275.6 2293.46 321.89 2393.95 358.64C2395.97 359.38 2397.99 360.1 2400.01 360.83V358.48L2400 358.49Z" fill="url(#paint59_radial_202_67)"/>
<path d="M1586 0H1574.9C1754.81 34.13 1927.38 116.93 2082.03 201.86C2187.83 259.95 2293.14 315.16 2399.99 358.15V355.74C2293.8 312.9 2189.09 257.99 2083.9 200.23C1931.93 116.77 1762.67 35.37 1586 0Z" fill="url(#paint60_radial_202_67)"/>
<path d="M1241.22 0C1103.09 31.49 990.29 101.51 881.12 169.3C849.44 188.97 816.69 209.31 783.93 228.3C617.07 325.06 449.02 384.18 284.44 404.03C189.38 415.49 93.84 414.1 0.0100098 404.65V406.75C93.95 416.18 189.64 417.55 284.88 406.06C449.99 386.15 618.53 326.87 785.8 229.87C818.6 210.85 851.37 190.5 883.07 170.82C994.35 101.73 1109.41 30.31 1251.02 0H1241.23H1241.22Z" fill="url(#paint61_radial_202_67)"/>
</g>
<defs>
<radialGradient id="paint0_radial_202_67" cx="0" cy="0" r="1" gradientUnits="userSpaceOnUse" gradientTransform="translate(411.19 218.569) scale(2188.6 2197.32)">
<stop stop-color="white"/>
<stop offset="1" stop-color="#188F81"/>
</radialGradient>
<radialGradient id="paint1_radial_202_67" cx="0" cy="0" r="1" gradientUnits="userSpaceOnUse" gradientTransform="translate(411.191 218.562) scale(2188.6 2197.33)">
<stop stop-color="white"/>
<stop offset="1" stop-color="#188F81"/>
</radialGradient>
<radialGradient id="paint2_radial_202_67" cx="0" cy="0" r="1" gradientUnits="userSpaceOnUse" gradientTransform="translate(411.19 218.569) scale(2188.81 2197.52)">
<stop stop-color="white"/>
<stop offset="1" stop-color="#188F81"/>
</radialGradient>
<radialGradient id="paint3_radial_202_67" cx="0" cy="0" r="1" gradientUnits="userSpaceOnUse" gradientTransform="translate(411.191 218.57) scale(2188.6 2197.32)">
<stop stop-color="white"/>
<stop offset="1" stop-color="#188F81"/>
</radialGradient>
<radialGradient id="paint4_radial_202_67" cx="0" cy="0" r="1" gradientUnits="userSpaceOnUse" gradientTransform="translate(411.19 218.57) scale(2188.6 2197.32)">
<stop stop-color="white"/>
<stop offset="1" stop-color="#188F81"/>
</radialGradient>
<radialGradient id="paint5_radial_202_67" cx="0" cy="0" r="1" gradientUnits="userSpaceOnUse" gradientTransform="translate(411.19 218.368) scale(2188.81 2197.52)">
<stop stop-color="white"/>
<stop offset="1" stop-color="#188F81"/>
</radialGradient>
<radialGradient id="paint6_radial_202_67" cx="0" cy="0" r="1" gradientUnits="userSpaceOnUse" gradientTransform="translate(411.191 218.57) scale(2188.6 2197.32)">
<stop stop-color="white"/>
<stop offset="1" stop-color="#188F81"/>
</radialGradient>
<radialGradient id="paint7_radial_202_67" cx="0" cy="0" r="1" gradientUnits="userSpaceOnUse" gradientTransform="translate(411.191 218.57) scale(2188.81 2197.52)">
<stop stop-color="white"/>
<stop offset="1" stop-color="#188F81"/>
</radialGradient>
<radialGradient id="paint8_radial_202_67" cx="0" cy="0" r="1" gradientUnits="userSpaceOnUse" gradientTransform="translate(411.19 218.57) scale(2188.6 2197.32)">
<stop stop-color="white"/>
<stop offset="1" stop-color="#188F81"/>
</radialGradient>
<radialGradient id="paint9_radial_202_67" cx="0" cy="0" r="1" gradientUnits="userSpaceOnUse" gradientTransform="translate(411.191 218.57) scale(2188.81 2197.52)">
<stop stop-color="white"/>
<stop offset="1" stop-color="#188F81"/>
</radialGradient>
<radialGradient id="paint10_radial_202_67" cx="0" cy="0" r="1" gradientUnits="userSpaceOnUse" gradientTransform="translate(411.19 218.57) scale(2188.6 2197.32)">
<stop stop-color="white"/>
<stop offset="1" stop-color="#188F81"/>
</radialGradient>
<radialGradient id="paint11_radial_202_67" cx="0" cy="0" r="1" gradientUnits="userSpaceOnUse" gradientTransform="translate(411.19 218.57) scale(2188.81 2197.52)">
<stop stop-color="white"/>
<stop offset="1" stop-color="#188F81"/>
</radialGradient>
<radialGradient id="paint12_radial_202_67" cx="0" cy="0" r="1" gradientUnits="userSpaceOnUse" gradientTransform="translate(411.191 218.57) scale(2188.6 2197.32)">
<stop stop-color="white"/>
<stop offset="1" stop-color="#188F81"/>
</radialGradient>
<radialGradient id="paint13_radial_202_67" cx="0" cy="0" r="1" gradientUnits="userSpaceOnUse" gradientTransform="translate(411.191 218.57) scale(2188.81 2197.52)">
<stop stop-color="white"/>
<stop offset="1" stop-color="#188F81"/>
</radialGradient>
<radialGradient id="paint14_radial_202_67" cx="0" cy="0" r="1" gradientUnits="userSpaceOnUse" gradientTransform="translate(411.19 218.57) scale(2188.6 2197.32)">
<stop stop-color="white"/>
<stop offset="1" stop-color="#188F81"/>
</radialGradient>
<radialGradient id="paint15_radial_202_67" cx="0" cy="0" r="1" gradientUnits="userSpaceOnUse" gradientTransform="translate(411.191 218.57) scale(2188.81 2197.52)">
<stop stop-color="white"/>
<stop offset="1" stop-color="#188F81"/>
</radialGradient>
<radialGradient id="paint16_radial_202_67" cx="0" cy="0" r="1" gradientUnits="userSpaceOnUse" gradientTransform="translate(411.191 218.57) scale(2188.6 2197.32)">
<stop stop-color="white"/>
<stop offset="1" stop-color="#188F81"/>
</radialGradient>
<radialGradient id="paint17_radial_202_67" cx="0" cy="0" r="1" gradientUnits="userSpaceOnUse" gradientTransform="translate(411.19 218.57) scale(2188.6 2197.32)">
<stop stop-color="white"/>
<stop offset="1" stop-color="#188F81"/>
</radialGradient>
<radialGradient id="paint18_radial_202_67" cx="0" cy="0" r="1" gradientUnits="userSpaceOnUse" gradientTransform="translate(411.19 218.57) scale(2188.6 2197.32)">
<stop stop-color="white"/>
<stop offset="1" stop-color="#188F81"/>
</radialGradient>
<radialGradient id="paint19_radial_202_67" cx="0" cy="0" r="1" gradientUnits="userSpaceOnUse" gradientTransform="translate(411.191 218.57) scale(2188.6 2197.32)">
<stop stop-color="white"/>
<stop offset="1" stop-color="#188F81"/>
</radialGradient>
<radialGradient id="paint20_radial_202_67" cx="0" cy="0" r="1" gradientUnits="userSpaceOnUse" gradientTransform="translate(411.191 218.57) scale(2188.6 2197.32)">
<stop stop-color="white"/>
<stop offset="1" stop-color="#188F81"/>
</radialGradient>
<radialGradient id="paint21_radial_202_67" cx="0" cy="0" r="1" gradientUnits="userSpaceOnUse" gradientTransform="translate(411.191 218.166) scale(2188.81 2197.52)">
<stop stop-color="white"/>
<stop offset="1" stop-color="#188F81"/>
</radialGradient>
<radialGradient id="paint22_radial_202_67" cx="0" cy="0" r="1" gradientUnits="userSpaceOnUse" gradientTransform="translate(411.19 218.57) scale(2188.6 2197.32)">
<stop stop-color="white"/>
<stop offset="1" stop-color="#188F81"/>
</radialGradient>
<radialGradient id="paint23_radial_202_67" cx="0" cy="0" r="1" gradientUnits="userSpaceOnUse" gradientTransform="translate(411.191 218.57) scale(2188.6 2197.32)">
<stop stop-color="white"/>
<stop offset="1" stop-color="#188F81"/>
</radialGradient>
<radialGradient id="paint24_radial_202_67" cx="0" cy="0" r="1" gradientUnits="userSpaceOnUse" gradientTransform="translate(411.191 218.57) scale(2188.6 2197.32)">
<stop stop-color="white"/>
<stop offset="1" stop-color="#188F81"/>
</radialGradient>
<radialGradient id="paint25_radial_202_67" cx="0" cy="0" r="1" gradientUnits="userSpaceOnUse" gradientTransform="translate(411.19 218.57) scale(2188.6 2197.32)">
<stop stop-color="white"/>
<stop offset="1" stop-color="#188F81"/>
</radialGradient>
<radialGradient id="paint26_radial_202_67" cx="0" cy="0" r="1" gradientUnits="userSpaceOnUse" gradientTransform="translate(411.191 218.57) scale(2188.6 2197.32)">
<stop stop-color="white"/>
<stop offset="1" stop-color="#188F81"/>
</radialGradient>
<radialGradient id="paint27_radial_202_67" cx="0" cy="0" r="1" gradientUnits="userSpaceOnUse" gradientTransform="translate(411.191 218.569) scale(2188.6 2197.32)">
<stop stop-color="white"/>
<stop offset="1" stop-color="#188F81"/>
</radialGradient>
<radialGradient id="paint28_radial_202_67" cx="0" cy="0" r="1" gradientUnits="userSpaceOnUse" gradientTransform="translate(411.191 218.57) scale(2188.6 2197.32)">
<stop stop-color="white"/>
<stop offset="1" stop-color="#188F81"/>
</radialGradient>
<radialGradient id="paint29_radial_202_67" cx="0" cy="0" r="1" gradientUnits="userSpaceOnUse" gradientTransform="translate(411.191 218.57) scale(2188.6 2197.32)">
<stop stop-color="white"/>
<stop offset="1" stop-color="#188F81"/>
</radialGradient>
<radialGradient id="paint30_radial_202_67" cx="0" cy="0" r="1" gradientUnits="userSpaceOnUse" gradientTransform="translate(411.191 218.57) scale(2188.6 2197.32)">
<stop stop-color="white"/>
<stop offset="1" stop-color="#188F81"/>
</radialGradient>
<radialGradient id="paint31_radial_202_67" cx="0" cy="0" r="1" gradientUnits="userSpaceOnUse" gradientTransform="translate(411.191 218.57) scale(2188.6 2197.32)">
<stop stop-color="white"/>
<stop offset="1" stop-color="#188F81"/>
</radialGradient>
<radialGradient id="paint32_radial_202_67" cx="0" cy="0" r="1" gradientUnits="userSpaceOnUse" gradientTransform="translate(411.191 218.57) scale(2188.6 2197.32)">
<stop stop-color="white"/>
<stop offset="1" stop-color="#188F81"/>
</radialGradient>
<radialGradient id="paint33_radial_202_67" cx="0" cy="0" r="1" gradientUnits="userSpaceOnUse" gradientTransform="translate(411.191 218.57) scale(2188.6 2197.32)">
<stop stop-color="white"/>
<stop offset="1" stop-color="#188F81"/>
</radialGradient>
<radialGradient id="paint34_radial_202_67" cx="0" cy="0" r="1" gradientUnits="userSpaceOnUse" gradientTransform="translate(411.191 218.57) scale(2188.6 2197.32)">
<stop stop-color="white"/>
<stop offset="1" stop-color="#188F81"/>
</radialGradient>
<radialGradient id="paint35_radial_202_67" cx="0" cy="0" r="1" gradientUnits="userSpaceOnUse" gradientTransform="translate(411.19 218.57) scale(2188.6 2197.32)">
<stop stop-color="white"/>
<stop offset="1" stop-color="#188F81"/>
</radialGradient>
<radialGradient id="paint36_radial_202_67" cx="0" cy="0" r="1" gradientUnits="userSpaceOnUse" gradientTransform="translate(411.191 218.57) scale(2188.6 2197.32)">
<stop stop-color="white"/>
<stop offset="1" stop-color="#188F81"/>
</radialGradient>
<radialGradient id="paint37_radial_202_67" cx="0" cy="0" r="1" gradientUnits="userSpaceOnUse" gradientTransform="translate(411.191 218.57) scale(2188.6 2197.32)">
<stop stop-color="white"/>
<stop offset="1" stop-color="#188F81"/>
</radialGradient>
<radialGradient id="paint38_radial_202_67" cx="0" cy="0" r="1" gradientUnits="userSpaceOnUse" gradientTransform="translate(411.191 218.57) scale(2188.6 2197.32)">
<stop stop-color="white"/>
<stop offset="1" stop-color="#188F81"/>
</radialGradient>
<radialGradient id="paint39_radial_202_67" cx="0" cy="0" r="1" gradientUnits="userSpaceOnUse" gradientTransform="translate(411.191 218.57) scale(2188.6 2197.32)">
<stop stop-color="white"/>
<stop offset="1" stop-color="#188F81"/>
</radialGradient>
<radialGradient id="paint40_radial_202_67" cx="0" cy="0" r="1" gradientUnits="userSpaceOnUse" gradientTransform="translate(411.19 218.57) scale(2188.6 2197.32)">
<stop stop-color="white"/>
<stop offset="1" stop-color="#188F81"/>
</radialGradient>
<radialGradient id="paint41_radial_202_67" cx="0" cy="0" r="1" gradientUnits="userSpaceOnUse" gradientTransform="translate(411.191 218.57) scale(2188.6 2197.32)">
<stop stop-color="white"/>
<stop offset="1" stop-color="#188F81"/>
</radialGradient>
<radialGradient id="paint42_radial_202_67" cx="0" cy="0" r="1" gradientUnits="userSpaceOnUse" gradientTransform="translate(411.191 218.57) scale(2188.6 2197.32)">
<stop stop-color="white"/>
<stop offset="1" stop-color="#188F81"/>
</radialGradient>
<radialGradient id="paint43_radial_202_67" cx="0" cy="0" r="1" gradientUnits="userSpaceOnUse" gradientTransform="translate(411.191 218.57) scale(2188.6 2197.32)">
<stop stop-color="white"/>
<stop offset="1" stop-color="#188F81"/>
</radialGradient>
<radialGradient id="paint44_radial_202_67" cx="0" cy="0" r="1" gradientUnits="userSpaceOnUse" gradientTransform="translate(411.191 218.57) scale(2188.6 2197.32)">
<stop stop-color="white"/>
<stop offset="1" stop-color="#188F81"/>
</radialGradient>
<radialGradient id="paint45_radial_202_67" cx="0" cy="0" r="1" gradientUnits="userSpaceOnUse" gradientTransform="translate(411.19 218.57) scale(2188.6 2197.32)">
<stop stop-color="white"/>
<stop offset="1" stop-color="#188F81"/>
</radialGradient>
<radialGradient id="paint46_radial_202_67" cx="0" cy="0" r="1" gradientUnits="userSpaceOnUse" gradientTransform="translate(411.191 218.57) scale(2188.6 2197.32)">
<stop stop-color="white"/>
<stop offset="1" stop-color="#188F81"/>
</radialGradient>
<radialGradient id="paint47_radial_202_67" cx="0" cy="0" r="1" gradientUnits="userSpaceOnUse" gradientTransform="translate(411.191 218.57) scale(2188.6 2197.32)">
<stop stop-color="white"/>
<stop offset="1" stop-color="#188F81"/>
</radialGradient>
<radialGradient id="paint48_radial_202_67" cx="0" cy="0" r="1" gradientUnits="userSpaceOnUse" gradientTransform="translate(411.19 218.57) scale(2188.6 2197.32)">
<stop stop-color="white"/>
<stop offset="1" stop-color="#188F81"/>
</radialGradient>
<radialGradient id="paint49_radial_202_67" cx="0" cy="0" r="1" gradientUnits="userSpaceOnUse" gradientTransform="translate(411.191 218.57) scale(2188.6 2197.32)">
<stop stop-color="white"/>
<stop offset="1" stop-color="#188F81"/>
</radialGradient>
<radialGradient id="paint50_radial_202_67" cx="0" cy="0" r="1" gradientUnits="userSpaceOnUse" gradientTransform="translate(411.191 218.57) scale(2188.6 2197.32)">
<stop stop-color="white"/>
<stop offset="1" stop-color="#188F81"/>
</radialGradient>
<radialGradient id="paint51_radial_202_67" cx="0" cy="0" r="1" gradientUnits="userSpaceOnUse" gradientTransform="translate(411.191 218.57) scale(2188.6 2197.32)">
<stop stop-color="white"/>
<stop offset="1" stop-color="#188F81"/>
</radialGradient>
<radialGradient id="paint52_radial_202_67" cx="0" cy="0" r="1" gradientUnits="userSpaceOnUse" gradientTransform="translate(411.19 218.57) scale(2188.6 2197.32)">
<stop stop-color="white"/>
<stop offset="1" stop-color="#188F81"/>
</radialGradient>
<radialGradient id="paint53_radial_202_67" cx="0" cy="0" r="1" gradientUnits="userSpaceOnUse" gradientTransform="translate(411.19 218.57) scale(2188.6 2197.32)">
<stop stop-color="white"/>
<stop offset="1" stop-color="#188F81"/>
</radialGradient>
<radialGradient id="paint54_radial_202_67" cx="0" cy="0" r="1" gradientUnits="userSpaceOnUse" gradientTransform="translate(411.19 218.57) scale(2188.6 2197.32)">
<stop stop-color="white"/>
<stop offset="1" stop-color="#188F81"/>
</radialGradient>
<radialGradient id="paint55_radial_202_67" cx="0" cy="0" r="1" gradientUnits="userSpaceOnUse" gradientTransform="translate(411.191 218.57) scale(2188.6 2197.32)">
<stop stop-color="white"/>
<stop offset="1" stop-color="#188F81"/>
</radialGradient>
<radialGradient id="paint56_radial_202_67" cx="0" cy="0" r="1" gradientUnits="userSpaceOnUse" gradientTransform="translate(411.191 218.57) scale(2188.6 2197.32)">
<stop stop-color="white"/>
<stop offset="1" stop-color="#188F81"/>
</radialGradient>
<radialGradient id="paint57_radial_202_67" cx="0" cy="0" r="1" gradientUnits="userSpaceOnUse" gradientTransform="translate(411.19 218.57) scale(2188.6 2197.32)">
<stop stop-color="white"/>
<stop offset="1" stop-color="#188F81"/>
</radialGradient>
<radialGradient id="paint58_radial_202_67" cx="0" cy="0" r="1" gradientUnits="userSpaceOnUse" gradientTransform="translate(411.191 218.57) scale(2188.6 2197.32)">
<stop stop-color="white"/>
<stop offset="1" stop-color="#188F81"/>
</radialGradient>
<radialGradient id="paint59_radial_202_67" cx="0" cy="0" r="1" gradientUnits="userSpaceOnUse" gradientTransform="translate(411.191 218.57) scale(2188.6 2197.32)">
<stop stop-color="white"/>
<stop offset="1" stop-color="#188F81"/>
</radialGradient>
<radialGradient id="paint60_radial_202_67" cx="0" cy="0" r="1" gradientUnits="userSpaceOnUse" gradientTransform="translate(411.19 218.57) scale(2188.6 2197.32)">
<stop stop-color="white"/>
<stop offset="1" stop-color="#188F81"/>
</radialGradient>
<radialGradient id="paint61_radial_202_67" cx="0" cy="0" r="1" gradientUnits="userSpaceOnUse" gradientTransform="translate(411.191 218.57) scale(2188.6 2197.32)">
<stop stop-color="white"/>
<stop offset="1" stop-color="#188F81"/>
</radialGradient>
</defs>
</svg>
