<?xml version="1.0" encoding="UTF-8"?><svg id="Camada_1" xmlns="http://www.w3.org/2000/svg" viewBox="0 0 1069 1069"><defs><style>.cls-1{fill:#fff;}.cls-2{fill:#1e8e81;}.cls-3{fill:#0d4256;}</style></defs><circle class="cls-3" cx="534.5" cy="534.5" r="534.5"/><g><path class="cls-1" d="m283.2,167.62c.53-3.96,3.96-7.13,8.98-7.13h7.66c3.96,0,6.6,2.11,8.19,4.49l106.14,227.61h1.59l105.62-227.08c1.59-3.43,3.96-4.49,8.19-4.49h7.66c5.02,0,8.19,3.96,8.98,7.13l57.04,324.51c1.59,6.6-2.64,11.09-8.98,11.09h-43.83c-3.96,0-8.19-3.96-9.51-7.13l-27.72-182.72h-1.59l-84.76,189.32c-1.06,3.43-3.96,5.02-8.19,5.02h-8.98c-3.96,0-6.6-2.64-8.19-5.02l-84.5-189.32h-1.59l-27.72,182.72c-.53,3.96-3.96,7.13-8.98,7.13h-43.57c-6.07,0-10.56-3.96-9.51-11.09l57.57-325.04h0Z"/><path class="cls-1" d="m612.74,174.75c0-4.49,3.96-9.51,9.51-9.51h113.28c59.14,0,107.99,48.06,107.99,106.94s-48.59,108.52-107.2,108.52h-60.73v113.54c0,4.49-3.96,9.51-9.51,9.51h-44.36c-5.02,0-9.51-3.96-9.51-9.51V174.75h.53Zm118.02,146.81c26.67,0,49.91-21.66,49.91-49.91,0-26.67-22.7-47-49.91-47h-55.98v96.91h55.98Z"/><g><path class="cls-2" d="m225.65,766.21c19.8-26.14,70.76-95.85,91.36-126.21,4.49-6.6,8.98-16.64,8.98-26.14,0-13.21-11.09-24.82-30.36-24.82-14.25,0-26.67,10.03-33.27,17.17-2.64,2.64-6.6,2.64-9.51,0l-21.13-21.66c-2.11-2.11-2.64-6.07-.53-8.98,0,0,27.72-33.8,69.18-33.8,49.12,0,77.89,30.89,77.89,69.71,0,18.21-5.02,28.78-13.73,44.89-11.09,19.8-39.34,56.51-55.18,79.21h60.2c3.43,0,6.6,3.43,6.6,6.6v30.89c0,3.43-3.43,6.6-6.6,6.6h-137.31c-3.96,0-6.6-3.43-6.6-6.6v-6.86h0Z"/><path class="cls-2" d="m713.07,544.15c-36.44,0-69.18,15.05-92.95,39.34,16.11,16.11,27.72,36.44,33.27,59.67l.53,3.43v.53c11.09-22.7,33.8-38.28,60.73-38.28,37.5,0,67.59,30.36,67.59,67.59s-30.36,67.59-67.59,67.59-65.75-28.25-68.12-63.63c-.53-3.43-1.06-9.51-1.06-9.51,0,0-.53-43.83-32.21-80.8l-.53.53c-23.23-28.25-59.14-46.47-99.01-46.47-71.82,0-129.91,58.09-129.91,130.17s58.09,130.17,129.91,130.17c25.35,0,49.12-7.66,69.71-20.6h-.53v3.43c-4.49,33.8-33.27,59.14-67.59,59.14-19.8,0-37.5-8.19-50.43-22.18l-43.83,44.36c23.76,24.82,57.04,39.87,94,39.87,65.22,0,120.14-48.85,128.86-111.43h0c-27.72-9.51-62.05-53.08-68.65-94.79-11.09,23.23-34.32,39.34-61.53,39.34-37.5,0-67.59-30.36-67.59-67.59s30.36-67.59,67.59-67.59,65.22,28.25,67.59,63.63v-1.06c0,.53.53,5.02,1.06,11.09,3.43,69.18,60.2,123.57,129.39,123.57s129.91-58.09,129.91-130.17c1.32-70.76-56.77-129.39-128.59-129.39v.03Z"/></g></g></svg>