<svg width="46" height="46" viewBox="0 0 46 46" fill="none" xmlns="http://www.w3.org/2000/svg">
<path d="M34.4938 32.3525C34.3443 32.3525 34.1919 32.305 34.0625 32.2072C33.7448 31.9686 33.6816 31.5187 33.9202 31.201C35.7099 28.822 36.6558 25.9857 36.6558 23.0001C36.6558 22.0629 36.5594 21.1241 36.3697 20.2114C36.2892 19.8217 36.5393 19.4422 36.9274 19.3617C37.3142 19.2812 37.6965 19.5314 37.777 19.9195C37.9869 20.9286 38.0933 21.9651 38.0933 23.0001C38.0933 26.2991 37.0468 29.4357 35.0688 32.0664C34.9264 32.2547 34.7108 32.3525 34.4938 32.3525Z" fill="#188F81"/>
<path d="M8.9355 26.7143C8.60344 26.7143 8.30444 26.4814 8.23256 26.1437C8.01694 25.1129 7.90625 24.0549 7.90625 22.9998C7.90625 19.7152 8.94269 16.5914 10.9049 13.9694C11.1421 13.6503 11.5935 13.5842 11.9111 13.8243C12.2289 14.0629 12.295 14.5128 12.0564 14.8305C10.281 17.2024 9.34375 20.027 9.34375 22.9998C9.34375 23.9558 9.44294 24.9145 9.63987 25.8475C9.72181 26.2357 9.47313 26.6165 9.085 26.6985C9.03469 26.71 8.98438 26.7143 8.9355 26.7143Z" fill="#188F81"/>
<path d="M25.1562 30.1875H20.8438C20.447 30.1875 20.125 29.8655 20.125 29.4688V25.875H16.5312C16.1345 25.875 15.8125 25.553 15.8125 25.1562V20.8438C15.8125 20.447 16.1345 20.125 16.5312 20.125H20.125V16.5312C20.125 16.1345 20.447 15.8125 20.8438 15.8125H25.1562C25.553 15.8125 25.875 16.1345 25.875 16.5312V20.125H29.4688C29.8655 20.125 30.1875 20.447 30.1875 20.8438V25.1562C30.1875 25.553 29.8655 25.875 29.4688 25.875H25.875V29.4688C25.875 29.8655 25.553 30.1875 25.1562 30.1875ZM21.5625 28.75H24.4375V25.1562C24.4375 24.7595 24.7595 24.4375 25.1562 24.4375H28.75V21.5625H25.1562C24.7595 21.5625 24.4375 21.2405 24.4375 20.8438V17.25H21.5625V20.8438C21.5625 21.2405 21.2405 21.5625 20.8438 21.5625H17.25V24.4375H20.8438C21.2405 24.4375 21.5625 24.7595 21.5625 25.1562V28.75Z" fill="#188F81"/>
<path d="M26.0776 43.125H18.5437C17.1393 43.125 15.7679 42.8117 14.467 42.1935L9.43144 39.7469C8.14056 39.1273 6.76487 38.8125 5.34894 38.8125H2.15625C1.7595 38.8125 1.4375 38.4905 1.4375 38.0938C1.4375 37.697 1.7595 37.375 2.15625 37.375H5.34894C6.98194 37.375 8.56606 37.7373 10.0567 38.4532L15.0909 40.8983C16.192 41.4202 17.3549 41.6875 18.5437 41.6875H25.9339L32.2115 39.0972C32.2115 39.0368 32.2963 38.4804 32.0203 38.0075C31.5991 37.283 30.6259 37.26 29.8885 37.3678C28.8175 37.5332 27.932 37.8307 27.1515 38.0938L26.8554 38.1929C26.4773 38.3152 26.0719 38.1153 25.9469 37.7373C25.8218 37.3607 26.0259 36.9538 26.4025 36.8288L26.6929 36.7324C27.5295 36.4507 28.4769 36.1315 29.6757 35.9475C32.6399 35.5163 33.3801 37.3678 33.5397 37.9443C33.8028 38.8944 33.5843 40.0833 32.7635 40.4268L26.3508 43.0733C26.2645 43.1063 26.1711 43.125 26.0776 43.125Z" fill="#188F81"/>
<path d="M16.7254 32.8857C16.4551 32.8857 16.1949 32.7318 16.0726 32.4702C14.6639 29.4385 11.0041 29.0044 8.28287 30.1328C8.19519 30.1688 8.10175 30.1874 8.00688 30.1874H2.15625C1.7595 30.1874 1.4375 29.8654 1.4375 29.4687C1.4375 29.0719 1.7595 28.7499 2.15625 28.7499H7.86744C11.7587 27.2047 15.8254 28.5314 17.3779 31.865C17.5446 32.2244 17.3894 32.6528 17.0286 32.8209C16.9294 32.864 16.8274 32.8857 16.7254 32.8857Z" fill="#188F81"/>
<path d="M23.5374 39.7083C23.4439 39.7083 23.3506 39.6896 23.2628 39.6537L15.0317 36.2367C14.6652 36.0843 14.4912 35.6646 14.6436 35.2966C14.7959 34.9301 15.2172 34.7576 15.5837 34.9085L23.0918 38.025C23.4066 36.543 22.5958 35.3901 20.6696 34.5922L16.4391 32.8356C16.0724 32.6832 15.8986 32.2621 16.0509 31.8955C16.2033 31.529 16.6244 31.355 16.9911 31.5073L21.2202 33.264C24.1828 34.4916 25.2696 36.6781 24.2016 39.2612C24.1282 39.4381 23.9888 39.579 23.8119 39.6508C23.7243 39.6896 23.6308 39.7083 23.5374 39.7083Z" fill="#188F81"/>
<path d="M15.4833 10.1186C13.222 10.1186 12.6039 8.57469 12.4601 8.05719C12.1971 7.107 12.4156 5.91819 13.2364 5.57462L19.6491 2.92819C19.7354 2.89369 19.8288 2.875 19.9223 2.875H27.4548C28.8591 2.875 30.2305 3.18837 31.5315 3.8065L36.567 6.25312C37.8594 6.87269 39.235 7.1875 40.651 7.1875H43.8436C44.2404 7.1875 44.5624 7.5095 44.5624 7.90625C44.5624 8.303 44.2404 8.625 43.8436 8.625H40.651C39.018 8.625 37.4339 8.26275 35.9431 7.54688L30.909 5.10312C29.8079 4.57987 28.645 4.3125 27.4561 4.3125H20.066L13.787 6.90287C13.787 6.96325 13.7021 7.51956 13.9781 7.9925C14.4008 8.717 15.3711 8.74 16.11 8.63219C17.1809 8.46687 18.0664 8.16931 18.847 7.90625L19.1431 7.80706C19.5211 7.68344 19.9265 7.88469 20.0516 8.26275C20.1766 8.63937 19.9725 9.04619 19.5959 9.17125L19.3055 9.26756C18.4689 9.54931 17.5216 9.86844 16.3228 10.0524C16.0209 10.0984 15.7405 10.1186 15.4833 10.1186Z" fill="#188F81"/>
<path d="M34.8719 17.8898C32.155 17.8898 29.7371 16.5327 28.6216 14.135C28.4549 13.7756 28.6101 13.3472 28.9709 13.179C29.3318 13.0123 29.7586 13.169 29.9269 13.5284C31.3341 16.5586 34.9926 16.9913 37.7166 15.8657C37.8044 15.8312 37.8978 15.8125 37.9926 15.8125H43.8433C44.24 15.8125 44.562 16.1345 44.562 16.5313C44.562 16.928 44.24 17.25 43.8433 17.25H38.1321C37.0396 17.6827 35.9328 17.8898 34.8719 17.8898Z" fill="#188F81"/>
<path d="M29.2841 14.5475C29.1921 14.5475 29.0987 14.5302 29.0081 14.4928L24.779 12.7362C21.8164 11.5086 20.7296 9.32212 21.7976 6.73893C21.871 6.56212 22.0104 6.42124 22.1872 6.34937C22.364 6.27749 22.561 6.27606 22.7377 6.34937L30.9689 9.76631C31.3355 9.91868 31.5094 10.3384 31.357 10.7064C31.2046 11.0744 30.7864 11.2455 30.4169 11.0946L22.9089 7.97806C22.594 9.46012 23.4047 10.613 25.331 11.4108L29.5616 13.1675C29.9281 13.3198 30.1021 13.741 29.9497 14.1076C29.8332 14.3807 29.5659 14.5475 29.2841 14.5475Z" fill="#188F81"/>
<path d="M32.3654 34.5501C32.1814 34.5501 31.9974 34.4798 31.8565 34.3403C31.5761 34.06 31.5761 33.6043 31.8565 33.324C32.1383 33.0436 32.6428 32.9934 32.9231 33.2736C33.2034 33.554 33.2538 33.9594 32.9734 34.2396L32.8728 34.3403C32.7334 34.4798 32.5494 34.5501 32.3654 34.5501Z" fill="#188F81"/>
<path d="M13.6777 12.9878C13.4923 12.9878 13.3068 12.9159 13.1659 12.7736C12.8871 12.4904 12.8899 12.0361 13.1732 11.7573L13.2752 11.6566C13.5569 11.3778 14.0127 11.3807 14.2915 11.6639C14.5704 11.947 14.5675 12.4013 14.2843 12.6801L14.1823 12.7808C14.0428 12.9188 13.8603 12.9878 13.6777 12.9878Z" fill="#188F81"/>
</svg>
