<svg width="46" height="46" viewBox="0 0 46 46" fill="none" xmlns="http://www.w3.org/2000/svg">
<g clip-path="url(#clip0_49_10434)">
<path d="M38.3099 21.3596V13.1935C38.3099 12.2779 37.9759 11.3937 37.3705 10.7067L33.2476 6.02856H28.5688L27.3847 7.37209M25.3014 9.73579L24.4458 10.7067C24.3142 10.8564 24.1948 11.0164 24.0886 11.185" stroke="#188F81" stroke-width="1.5" stroke-miterlimit="10" stroke-linecap="round" stroke-linejoin="round"/>
<path d="M27.4519 16.6406V13.6598C27.4519 13.4691 27.5276 13.2863 27.6624 13.1515C27.7972 13.0167 27.98 12.941 28.1706 12.941H33.6456C33.8363 12.941 34.0191 13.0167 34.1539 13.1515C34.2887 13.2863 34.3644 13.4691 34.3644 13.6598V16.6406M27.4519 16.6406H34.3644M27.4519 16.6406V21.3596H34.3644V16.6406M7.67603 16.2617V21.3596H24.0887V8.44531C24.0887 7.20484 23.0831 6.19922 21.8426 6.19922H9.92212C8.68165 6.19922 7.67603 7.20484 7.67603 8.44531V13.1172" stroke="#188F81" stroke-width="1.5" stroke-miterlimit="10" stroke-linecap="round" stroke-linejoin="round"/>
<path d="M19.0765 13.2059C19.8716 13.2059 20.5162 12.5613 20.5162 11.7662C20.5162 10.971 19.8716 10.3264 19.0765 10.3264C18.2813 10.3264 17.6367 10.971 17.6367 11.7662C17.6367 12.5613 18.2813 13.2059 19.0765 13.2059Z" stroke="#188F81" stroke-width="1.5" stroke-miterlimit="10" stroke-linecap="round" stroke-linejoin="round"/>
<path d="M12.688 13.2059C13.4832 13.2059 14.1278 12.5613 14.1278 11.7662C14.1278 10.971 13.4832 10.3264 12.688 10.3264C11.8929 10.3264 11.2483 10.971 11.2483 11.7662C11.2483 12.5613 11.8929 13.2059 12.688 13.2059Z" stroke="#188F81" stroke-width="1.5" stroke-miterlimit="10" stroke-linecap="round" stroke-linejoin="round"/>
<path d="M12.688 18.7C13.4832 18.7 14.1278 18.0555 14.1278 17.2603C14.1278 16.4652 13.4832 15.8206 12.688 15.8206C11.8929 15.8206 11.2483 16.4652 11.2483 17.2603C11.2483 18.0555 11.8929 18.7 12.688 18.7Z" stroke="#188F81" stroke-width="1.5" stroke-miterlimit="10" stroke-linecap="round" stroke-linejoin="round"/>
<path d="M19.0765 18.7C19.8716 18.7 20.5162 18.0555 20.5162 17.2603C20.5162 16.4652 19.8716 15.8206 19.0765 15.8206C18.2813 15.8206 17.6367 16.4652 17.6367 17.2603C17.6367 18.0555 18.2813 18.7 19.0765 18.7Z" stroke="#188F81" stroke-width="1.5" stroke-miterlimit="10" stroke-linecap="round" stroke-linejoin="round"/>
<path d="M31.7358 45.3262H39.9018C40.398 45.3262 40.8003 44.924 40.8003 44.4278V28.6755" stroke="#188F81" stroke-width="1.5" stroke-miterlimit="10" stroke-linecap="round" stroke-linejoin="round"/>
<path d="M5.04834 28.6755V44.4277C5.04834 44.9239 5.45057 45.3262 5.94678 45.3262H31.8268V21.3596M40.8002 36.6562H35.4883C35.4168 36.6562 35.3483 36.6846 35.2977 36.7352C35.2472 36.7857 35.2188 36.8543 35.2188 36.9258V40.8789C35.2188 40.9504 35.2472 41.0189 35.2977 41.0695C35.3483 41.12 35.4168 41.1484 35.4883 41.1484H40.8002V36.6562Z" stroke="#188F81" stroke-width="1.5" stroke-miterlimit="10" stroke-linecap="round" stroke-linejoin="round"/>
<path d="M11.0233 36.836C11.796 39.8608 14.5389 42.0974 17.8045 42.0974C21.6698 42.0974 24.8034 38.9639 24.8034 35.0985C24.8034 32.2218 23.0673 29.7515 20.5861 28.6755H15.0228C12.9575 29.5712 11.4095 31.4334 10.9482 33.6914" stroke="#188F81" stroke-width="1.5" stroke-miterlimit="10" stroke-linecap="round" stroke-linejoin="round"/>
<path d="M31.8268 21.3596L34.9886 28.156C35.0608 28.3112 35.1758 28.4426 35.3201 28.5346C35.4644 28.6266 35.632 28.6755 35.8032 28.6755H43.4992C43.8277 28.6755 44.0451 28.3346 43.9066 28.0368L40.9936 21.7752C40.9358 21.6511 40.8438 21.546 40.7283 21.4724C40.6129 21.3987 40.4788 21.3596 40.3418 21.3596H31.8268ZM31.8268 21.3596L5.51625 21.3597C5.37702 21.3597 5.24079 21.4001 5.1241 21.4761C5.00742 21.552 4.9153 21.6602 4.85895 21.7876L2.08996 28.0445C1.95852 28.3415 2.17595 28.6755 2.50073 28.6755H28.0043C28.1783 28.6755 28.3486 28.625 28.4944 28.5301C28.6403 28.4351 28.7554 28.2999 28.8258 28.1408L31.8268 21.3596ZM21.2695 33.7187H19.4641C19.3899 33.7187 19.3187 33.6892 19.2662 33.6367C19.2137 33.5842 19.1842 33.513 19.1842 33.4388V31.6334C19.1842 31.5592 19.1547 31.488 19.1022 31.4355C19.0497 31.383 18.9785 31.3535 18.9042 31.3535H16.7047C16.6679 31.3535 16.6315 31.3607 16.5975 31.3748C16.5636 31.3889 16.5327 31.4095 16.5067 31.4355C16.4807 31.4615 16.4601 31.4923 16.446 31.5263C16.432 31.5603 16.4247 31.5967 16.4247 31.6334V33.4388C16.4247 33.4755 16.4175 33.5119 16.4034 33.5459C16.3893 33.5799 16.3687 33.6107 16.3427 33.6367C16.3167 33.6627 16.2859 33.6833 16.2519 33.6974C16.2179 33.7115 16.1815 33.7187 16.1448 33.7187H14.3394C14.2652 33.7187 14.194 33.7482 14.1415 33.8007C14.089 33.8532 14.0595 33.9244 14.0595 33.9987V36.1982C14.0595 36.2725 14.089 36.3437 14.1415 36.3962C14.194 36.4487 14.2652 36.4782 14.3394 36.4782H16.1448C16.219 36.4782 16.2902 36.5077 16.3427 36.5602C16.3952 36.6127 16.4247 36.6839 16.4247 36.7581V38.5635C16.4247 38.6002 16.432 38.6366 16.446 38.6706C16.4601 38.7046 16.4807 38.7354 16.5067 38.7614C16.5327 38.7874 16.5636 38.808 16.5975 38.8221C16.6315 38.8362 16.6679 38.8434 16.7047 38.8434H18.9042C18.941 38.8434 18.9774 38.8362 19.0114 38.8221C19.0453 38.808 19.0762 38.7874 19.1022 38.7614C19.1282 38.7354 19.1488 38.7046 19.1629 38.6706C19.1769 38.6366 19.1842 38.6002 19.1842 38.5635V36.7581C19.1842 36.6839 19.2137 36.6127 19.2662 36.5602C19.3187 36.5077 19.3899 36.4782 19.4641 36.4782H21.2695C21.3437 36.4782 21.4149 36.4487 21.4674 36.3962C21.5199 36.3437 21.5494 36.2725 21.5494 36.1982V33.9987C21.5494 33.9244 21.5199 33.8532 21.4674 33.8007C21.4149 33.7482 21.3437 33.7187 21.2695 33.7187ZM27.4519 5.54174V1.64738C27.4519 1.10966 27.8878 0.673828 28.4254 0.673828H33.3907C33.9284 0.673828 34.3643 1.10975 34.3643 1.64738V5.54174C34.3643 5.67084 34.313 5.79466 34.2217 5.88594C34.1304 5.97723 34.0066 6.02852 33.8775 6.02852H27.9386C27.8095 6.02852 27.6857 5.97723 27.5944 5.88594C27.5032 5.79466 27.4519 5.67084 27.4519 5.54174Z" stroke="#188F81" stroke-width="1.5" stroke-miterlimit="10" stroke-linecap="round" stroke-linejoin="round"/>
</g>
<defs>
<clipPath id="clip0_49_10434">
<rect width="46" height="46" fill="white"/>
</clipPath>
</defs>
</svg>
