<?xml version="1.0" encoding="utf-8"?>
<!-- Generator: Adobe Illustrator 21.0.2, SVG Export Plug-In . SVG Version: 6.00 Build 0)  -->
<svg version="1.1" id="Layer_1" xmlns="http://www.w3.org/2000/svg" xmlns:xlink="http://www.w3.org/1999/xlink" x="0px" y="0px"
	 viewBox="0 0 794.4 135.3" style="enable-background:new 0 0 794.4 135.3;" xml:space="preserve">
<style type="text/css">
	.st0{fill:#0B4256;}
	.st1{fill:#188F81;}
</style>
<g>
	<g>
		<path class="st0" d="M15,23.3c0.1-0.8,0.7-1.4,1.7-1.4h1.5c0.8,0,1.3,0.4,1.6,1l21,45c0.2,0,0.2,0,0.3,0l21-45
			c0.3-0.6,0.8-1,1.6-1h1.5c1,0,1.6,0.7,1.7,1.4l11.2,64.1c0.3,1.3-0.5,2.2-1.7,2.2h-8.7c-0.9,0-1.6-0.8-1.8-1.4L60.4,52
			c-0.1,0-0.3,0-0.3,0L43.4,89.5c-0.2,0.6-0.8,1-1.6,1h-1.7c-0.9,0-1.3-0.5-1.6-1L21.6,52c0,0-0.2,0-0.3,0l-5.5,36.1
			c-0.1,0.7-0.9,1.4-1.7,1.4H5.5c-1.2,0-2-0.9-1.8-2.2L15,23.3z"/>
		<path class="st0" d="M102.6,57.5L80.9,25.6c-0.8-1.2,0-2.8,1.5-2.8h9.7c0.8,0,1.2,0.5,1.5,0.9l15.3,21.9l15.3-21.9
			c0.3-0.4,0.8-0.9,1.5-0.9h9.8c1.5,0,2.3,1.5,1.5,2.8l-22,31.7v30.4c0,1-0.9,1.8-1.8,1.8h-8.8c-1,0-1.8-0.9-1.8-1.8V57.5z"/>
	</g>
	<g>
		<path class="st0" d="M151.4,24.7c0-1,0.8-1.8,1.8-1.8h22.4c11.7,0,21.4,9.5,21.4,21.1c0,11.8-9.6,21.5-21.3,21.5h-11.9v22.4
			c0,1-0.9,1.8-1.8,1.8h-8.8c-1,0-1.8-0.9-1.8-1.8V24.7z M174.9,53.7c5.3,0,9.8-4.3,9.8-9.9c0-5.2-4.5-9.2-9.8-9.2h-11.1v19.2H174.9
			z"/>
		<path class="st0" d="M207.9,24.7c0-1,0.9-1.8,1.8-1.8h8.9c1,0,1.8,0.9,1.8,1.8v25.3h31.1V24.7c0-1,0.8-1.8,1.8-1.8h8.8
			c1,0,1.8,0.9,1.8,1.8v63.1c0,1-0.9,1.8-1.8,1.8h-8.8c-1,0-1.8-0.9-1.8-1.8V61.5h-31.1v26.3c0,1-0.8,1.8-1.8,1.8h-8.9
			c-1,0-1.8-0.9-1.8-1.8V24.7z"/>
		<path class="st0" d="M272.5,87.1L302.1,23c0.3-0.6,0.8-1,1.6-1h1c1,0,1.3,0.5,1.6,1l29.4,64.2c0.6,1.2-0.2,2.5-1.6,2.5h-8.3
			c-1.4,0-2.1-0.6-2.8-1.9l-4.7-10.3h-28.5l-4.7,10.3c-0.4,1-1.2,1.9-2.8,1.9h-8.3C272.7,89.6,271.9,88.4,272.5,87.1z M313.7,66.8
			l-9.5-21h-0.3l-9.3,21H313.7z"/>
		<path class="st0" d="M344.4,24.7c0-1,0.8-1.8,1.8-1.8h27.3c11.4,0,20.8,9.2,20.8,20.5c0,8.8-5.8,15.9-14.1,19.3l13.1,24.2
			c0.7,1.2,0,2.8-1.6,2.8h-10c-0.9,0-1.3-0.5-1.5-0.9l-12.7-25.3h-10.6v24.3c0,1-0.9,1.8-1.8,1.8h-8.8c-1,0-1.8-0.9-1.8-1.8V24.7z
			 M372.4,53.3c5.1,0,9.4-4.4,9.4-9.7c0-5.1-4.4-9.2-9.4-9.2h-15.5v19H372.4z"/>
		<path class="st0" d="M414.8,23.3c0.1-0.8,0.7-1.4,1.7-1.4h1.5c0.8,0,1.3,0.4,1.6,1l21,45c0.2,0,0.2,0,0.3,0l21-45
			c0.3-0.6,0.8-1,1.6-1h1.5c1,0,1.6,0.7,1.7,1.4L478,87.4c0.3,1.3-0.5,2.2-1.7,2.2h-8.7c-0.9,0-1.6-0.8-1.8-1.4L460.2,52
			c-0.1,0-0.3,0-0.3,0l-16.7,37.5c-0.2,0.6-0.8,1-1.6,1h-1.7c-0.9,0-1.3-0.5-1.6-1L421.4,52c0,0-0.2,0-0.3,0l-5.5,36.1
			c-0.1,0.7-0.9,1.4-1.7,1.4h-8.6c-1.2,0-2-0.9-1.8-2.2L414.8,23.3z"/>
		<path class="st0" d="M482.4,87.1L512.1,23c0.3-0.6,0.8-1,1.6-1h1c1,0,1.3,0.5,1.6,1l29.4,64.2c0.6,1.2-0.2,2.5-1.6,2.5h-8.3
			c-1.4,0-2.1-0.6-2.8-1.9l-4.7-10.3h-28.5l-4.7,10.3c-0.4,1-1.2,1.9-2.8,1.9H484C482.6,89.6,481.8,88.4,482.4,87.1z M523.6,66.8
			l-9.5-21h-0.3l-9.3,21H523.6z"/>
	</g>
	<g>
		<g>
			<path class="st1" d="M567.3,82.7c7-9.2,25-33.6,32.1-44.5c1.6-2.4,3.2-5.8,3.2-9.2c0-4.6-3.9-8.7-10.7-8.7c-5,0-9.5,3.5-11.8,6.1
				c-1,1-2.4,1-3.4,0l-7.4-7.5c-0.8-0.7-1-2.2-0.1-3.2c0,0,9.8-11.9,24.2-11.9c17.3,0,27.5,11,27.5,24.5c0,6.4-1.8,10.1-4.7,15.8
				C612.4,51,602.5,64,596.8,72h21.3c1.2,0,2.3,1.1,2.3,2.3v10.9c0,1.2-1.1,2.3-2.3,2.3h-48.5c-1.3,0-2.3-1.1-2.3-2.3V82.7z"/>
		</g>
	</g>
	<path class="st1" d="M743.7,4.8c-12.8,0-24.3,5.3-32.6,13.7c5.6,5.7,9.8,13,11.8,21l0.2,1c0,0,0,0,0,0.1c3.8-8,12-13.5,21.5-13.5
		c13.2,0,23.8,10.7,23.8,23.8s-10.7,23.8-23.8,23.8c-12.7,0-23.2-9.9-24-22.4c-0.3-1.2-0.4-3.2-0.4-3.2s-0.4-15.3-11.3-28.3
		c0,0-0.1,0.1-0.1,0.1c-8.4-9.9-20.9-16.3-35-16.3c-25.3,0-45.8,20.5-45.8,45.8c0,25.3,20.5,45.8,45.8,45.8c9,0,17.4-2.6,24.5-7.1
		c0,0-0.1,0-0.1,0l-0.1,1.1c-1.5,11.8-11.6,20.9-23.8,20.9c-7,0-13.3-3-17.7-7.8l-15.5,15.4c8.3,8.7,20.1,14.2,33.1,14.2
		c23.1,0,42.2-17.1,45.3-39.3c0,0,0,0,0,0c0,0,0,0,0,0.1c-9.8-3.3-21.8-18.8-24.2-33.3c-3.8,8.2-12,13.9-21.6,13.9
		c-13.2,0-23.8-10.7-23.8-23.8c0-13.2,10.7-23.8,23.8-23.8c12.7,0,23.1,10,23.8,22.5c0-0.2,0-0.4,0-0.4c0,0.1,0.2,1.9,0.5,4
		c1.2,24.2,21.1,43.6,45.7,43.6c25.3,0,45.8-20.5,45.8-45.8C789.5,25.3,769,4.8,743.7,4.8z"/>
</g>
</svg>
