<?xml version="1.0" encoding="utf-8"?>
<!-- Generator: Adobe Illustrator 21.0.2, SVG Export Plug-In . SVG Version: 6.00 Build 0)  -->
<svg version="1.1" id="Layer_1" xmlns="http://www.w3.org/2000/svg" xmlns:xlink="http://www.w3.org/1999/xlink" x="0px" y="0px"
	 viewBox="0 0 841.9 135.3" style="enable-background:new 0 0 841.9 135.3;" xml:space="preserve">
<style type="text/css">
	.st0{fill:#0B4256;}
	.st1{fill:#188F81;}
</style>
<path class="st0" d="M190.8,47.4c0.1-0.9,0.9-1.5,1.7-1.5h1.5c0.5,0,1.3,0.4,1.6,0.9l21.9,40.8h0.2l21.9-40.8
	c0.3-0.6,1.1-0.9,1.6-0.9h1.5c0.8,0,1.6,0.7,1.7,1.5l10.7,63.4c0.2,1.2-0.7,2.1-1.8,2.1h-11.1c-0.8,0-1.7-0.8-1.8-1.5l-4.3-29.2
	h-0.2L220,112.8c-0.3,0.6-1.1,1-1.6,1h-1.7c-0.6,0-1.3-0.5-1.6-1l-16-30.6H199l-4.2,29.2c-0.1,0.8-0.9,1.5-1.8,1.5h-11.1
	c-1.1,0-2-0.9-1.8-2.1L190.8,47.4z"/>
<path class="st0" d="M266.2,48.6c0-0.9,0.9-1.8,1.8-1.8h11.6c1,0,1.8,0.9,1.8,1.8v38.2c0,6.6,4.9,11.9,11.6,11.9
	c6.8,0,11.8-5.3,11.8-11.9V48.6c0-0.9,0.8-1.8,1.8-1.8h11.6c0.9,0,1.8,0.9,1.8,1.8v39c0,14.4-12.1,26.2-27,26.2
	c-14.8,0-26.8-11.9-26.8-26.2V48.6z"/>
<path class="st0" d="M335.2,47.6c0-0.9,0.8-1.7,1.8-1.7h2.4L377,82.1h0.1V48.6c0-0.9,0.8-1.8,1.8-1.8h11.3c0.9,0,1.8,0.9,1.8,1.8
	v63.5c0,0.9-0.9,1.7-1.8,1.7h-1.5c-0.3,0-1-0.3-1.2-0.5l-37.3-37.5h-0.1v35.2c0,0.9-0.8,1.8-1.8,1.8h-11.2c-0.9,0-1.8-0.9-1.8-1.8
	L335.2,47.6z"/>
<path class="st0" d="M408.3,48.6c0-0.9,0.8-1.8,1.7-1.8h23c18.2,0,33.1,14.8,33.1,32.9c0,18.3-14.9,33.1-33.1,33.1h-23
	c-0.9,0-1.7-0.9-1.7-1.8V48.6z M432.1,98.9c10.7,0,18.4-8.4,18.4-19.2c0-10.7-7.7-19.1-18.4-19.1H423v38.2H432.1z"/>
<g>
	<path class="st1" d="M550.7,48.6c0-0.9,0.8-1.8,1.8-1.8h39.1c1,0,1.8,0.9,1.8,1.8v10.3c0,0.9-0.8,1.8-1.8,1.8h-26.2v11.7h21.5
		c0.9,0,1.8,0.9,1.8,1.8v10.3c0,1-0.9,1.8-1.8,1.8h-21.5V99h26.2c1,0,1.8,0.9,1.8,1.8v10.3c0,0.9-0.8,1.8-1.8,1.8h-39.1
		c-1,0-1.8-0.9-1.8-1.8V48.6z"/>
	<path class="st1" d="M597.5,110.4l29.6-63.5c0.3-0.6,0.9-1,1.6-1h0.9c0.7,0,1.3,0.5,1.6,1l29.6,63.5c0.6,1.2-0.2,2.5-1.6,2.5h-10.5
		c-1.7,0-2.5-0.6-3.3-2.4l-3.4-7.5h-25.7l-3.4,7.6c-0.5,1.1-1.5,2.3-3.4,2.3h-10.4C597.7,112.9,596.9,111.7,597.5,110.4z
		 M636.3,90.2l-7.2-15.6H629L622,90.2H636.3z"/>
	<path class="st1" d="M668.5,48.6c0-0.9,0.8-1.8,1.8-1.8h11.2c0.9,0,1.8,0.9,1.8,1.8V99h22.5c1,0,1.8,0.9,1.8,1.8v10.3
		c0,0.9-0.8,1.8-1.8,1.8h-35.5c-1,0-1.8-0.9-1.8-1.8V48.6z"/>
	<path class="st1" d="M721.7,60.7h-13.5c-1,0-1.8-0.9-1.8-1.8V48.6c0-0.9,0.8-1.8,1.8-1.8h41.9c1,0,1.8,0.9,1.8,1.8v10.3
		c0,0.9-0.8,1.8-1.8,1.8h-13.5v50.4c0,0.9-0.8,1.8-1.8,1.8h-11.3c-0.9,0-1.8-0.9-1.8-1.8V60.7z"/>
	<path class="st1" d="M761.4,48.6c0-0.9,0.9-1.8,1.8-1.8h11.2c1,0,1.8,0.9,1.8,1.8v23.8h27V48.6c0-0.9,0.8-1.8,1.8-1.8h11.2
		c0.9,0,1.8,0.9,1.8,1.8v62.5c0,0.9-0.8,1.8-1.8,1.8H805c-1,0-1.8-0.9-1.8-1.8V86.3h-27v24.8c0,0.9-0.8,1.8-1.8,1.8h-11.2
		c-0.9,0-1.8-0.9-1.8-1.8V48.6z"/>
	<path class="st1" d="M492.6,72.4h27V48.6c0-0.9,0.8-1.8,1.8-1.8h11.2c0.9,0,1.8,0.9,1.8,1.8v49.1l-14.8,13.4V86.3h-27V72.4z"/>
</g>
<g>
	<g>
		<path class="st0" d="M124.5,95.6c0.1,0.7,0.1,1.4,0.1,2.1c0,9-7.3,16.4-16.4,16.4s-16.4-7.3-16.4-16.4l-0.1-1.8
			c0-8-5.9-14.9-13.6-16c0,0-1.3-0.1-1.7-0.1c-5.9-0.9-10.4-5.9-10.4-12.1c0-6.7,5.5-12.2,12.2-12.2c5.8,0,10.7,4.1,11.9,9.5l0,0.1
			c1.3,8.6,8.6,15.1,17.5,15.1c9.8,0,17.7-7.9,17.7-17.7l0-0.9c0-10.1,8.2-18.3,18.3-18.3c10.1,0,18.3,8.2,18.3,18.3
			S154,80,143.9,80c0,0-1.3,0-2.2-0.2c-0.4-0.1-1-0.1-1.3-0.1c-8.5,0-15.4,6.4-15.9,14.6c0,0.3,0,0.6,0,0.8
			C124.5,95.3,124.5,95.5,124.5,95.6"/>
	</g>
	<circle class="st0" cx="144.4" cy="98.2" r="12.8"/>
	<g>
		<path class="st1" d="M62.4,35.6c-0.1-0.7-0.1-1.4-0.1-2.1c0-9,7.3-16.4,16.4-16.4s16.4,7.3,16.4,16.4l0.1,1.8
			c0,8,5.9,14.9,13.6,16c0,0,1.3,0.1,1.7,0.1c5.9,0.9,10.4,5.9,10.4,12.1c0,6.7-5.5,12.2-12.2,12.2c-5.8,0-10.7-4.1-11.9-9.5l0-0.1
			c-1.3-8.6-8.6-15.1-17.5-15.1c-9.8,0-17.7,7.9-17.7,17.7l0,0.9c0,10.1-8.2,18.3-18.3,18.3s-18.3-8.2-18.3-18.3S32.9,51.2,43,51.2
			c0,0,1.3,0,2.2,0.2c0.4,0.1,1,0.1,1.3,0.1C55,51.5,62,45.1,62.4,37c0-0.3,0-0.6,0-0.8C62.4,36,62.4,35.8,62.4,35.6"/>
	</g>
	<circle class="st1" cx="42.5" cy="33" r="12.8"/>
</g>
<g>
	<path class="st0" d="M492.6,58v-9.4c0-0.9-0.9-1.8-1.8-1.8h-11.3c-0.9,0-1.8,0.8-1.8,1.8V58H492.6z"/>
	<path class="st0" d="M477.7,65.2v45.9c0,0.9,0.9,1.8,1.8,1.8h11.3c0.9,0,1.8-0.9,1.8-1.8V65.2H477.7z"/>
</g>
</svg>
