<?xml version="1.0" encoding="utf-8"?>
<!-- Generator: Adobe Illustrator 22.0.0, SVG Export Plug-In . SVG Version: 6.00 Build 0)  -->
<svg version="1.1" id="Camada_1" xmlns="http://www.w3.org/2000/svg" xmlns:xlink="http://www.w3.org/1999/xlink" x="0px" y="0px"
	 viewBox="0 0 440 49.5" style="enable-background:new 0 0 440 49.5;" xml:space="preserve">
<style type="text/css">
	.st0{fill:#E7226C;}
	.st1{fill:#EB612E;}
</style>
<g>
	<g>
		<path class="st0" d="M78.5,0.6c0.6,0,1.3,0.2,2,0.5c0.8,0.4,1.3,0.8,1.7,1.4l16.7,25.7L95.4,28l17.1-25.5c0.9-1.2,2-1.9,3.4-1.9
			c1.1,0,2.1,0.4,3,1.2c0.9,0.8,1.3,1.8,1.3,3v39.8c0,1.2-0.4,2.2-1.2,3c-0.8,0.8-1.8,1.2-3.1,1.2c-1.3,0-2.3-0.4-3.1-1.2
			c-0.8-0.8-1.2-1.8-1.2-3V12.2l2.7,0.6l-14.1,21.4c-0.4,0.5-0.9,0.9-1.5,1.3c-0.6,0.4-1.2,0.5-1.9,0.5c-0.6,0-1.2-0.1-1.8-0.5
			c-0.6-0.4-1.1-0.8-1.5-1.3L80.3,13.5l1.8-3.6v34.8c0,1.2-0.4,2.2-1.1,3c-0.7,0.8-1.7,1.2-2.9,1.2c-1.1,0-2.1-0.4-2.8-1.2
			c-0.7-0.8-1.1-1.8-1.1-3V4.8c0-1.1,0.4-2.1,1.3-3C76.3,1,77.3,0.6,78.5,0.6z"/>
		<path class="st0" d="M161.1,0.5c1.1,0,2,0.4,2.9,1.2c0.8,0.8,1.2,1.8,1.2,3c0,0.5,0,0.9-0.1,1.3c-0.1,0.4-0.3,0.9-0.6,1.3
			l-15.6,22.3l1.2-4.7v19.7c0,1.2-0.4,2.2-1.2,3c-0.8,0.8-1.7,1.2-2.8,1.2c-1.1,0-2.1-0.4-2.9-1.2c-0.8-0.8-1.2-1.8-1.2-3V25.4
			l0.5,2.2L127.7,7.9c-0.5-0.6-0.8-1.2-1-1.7s-0.3-1.1-0.3-1.5c0-1.2,0.5-2.2,1.4-3c1-0.8,1.9-1.2,3-1.2c1.3,0,2.4,0.6,3.4,1.9
			l13.2,18.2l-1.9-0.3l12.2-17.8C158.6,1.2,159.8,0.5,161.1,0.5z"/>
		<path class="st0" d="M192.3,49.5c-3.5,0-6.7-0.6-9.8-1.9c-3-1.3-5.7-3.1-8-5.3c-2.3-2.3-4.1-4.9-5.4-7.9s-2-6.2-2-9.6
			s0.7-6.6,2-9.6s3.1-5.6,5.4-7.9c2.3-2.3,4.9-4,8-5.3c3-1.3,6.3-1.9,9.8-1.9c2.2,0,4.2,0.2,6.3,0.7c2,0.5,3.9,1.1,5.6,2.1
			c0.7,0.4,1.2,0.9,1.5,1.5s0.5,1.2,0.5,1.9c0,1.1-0.4,2.1-1.1,3c-0.7,0.9-1.7,1.3-2.8,1.3c-0.4,0-0.7,0-1.1-0.1
			c-0.4-0.1-0.8-0.2-1.1-0.4c-1.1-0.5-2.4-0.9-3.6-1.2c-1.3-0.3-2.6-0.4-4.1-0.4c-3,0-5.7,0.7-8.1,2.2c-2.5,1.5-4.4,3.5-5.8,6
			c-1.4,2.5-2.2,5.3-2.2,8.3s0.7,5.7,2.2,8.2c1.4,2.5,3.4,4.5,5.8,6c2.5,1.5,5.2,2.2,8.1,2.2c1.4,0,2.9-0.1,4.5-0.4s3-0.6,4.1-1.1
			l-0.6,2.1V30l1.2,1H194c-1.2,0-2.2-0.4-3-1.2c-0.8-0.8-1.2-1.8-1.2-3s0.4-2.2,1.2-3c0.8-0.8,1.8-1.2,3-1.2h11.3
			c1.2,0,2.2,0.4,3,1.2c0.8,0.8,1.2,1.8,1.2,3v14.6c0,0.9-0.2,1.7-0.7,2.3c-0.4,0.6-0.9,1.1-1.5,1.4c-2.1,1.3-4.4,2.3-6.9,3.1
			C197.7,49.1,195.1,49.5,192.3,49.5z"/>
		<path class="st0" d="M251.6,0.6c1.2,0,2.2,0.4,2.9,1.2s1.1,1.8,1.1,3v24.9c0,3.8-0.8,7.2-2.4,10.1c-1.6,2.9-3.9,5.2-6.7,6.9
			c-2.8,1.6-6.1,2.5-9.9,2.5c-3.8,0-7.1-0.8-9.9-2.5c-2.9-1.6-5.1-3.9-6.7-6.9c-1.6-2.9-2.4-6.3-2.4-10.1V4.8c0-1.2,0.4-2.2,1.2-3
			s1.9-1.2,3.2-1.2c1.1,0,2,0.4,2.9,1.2c0.8,0.8,1.3,1.8,1.3,3v24.9c0,2.3,0.5,4.3,1.5,5.9c1,1.7,2.3,3,3.9,3.9
			c1.6,0.9,3.4,1.4,5.2,1.4c2,0,3.8-0.5,5.5-1.4s3.1-2.2,4.1-3.9c1.1-1.7,1.6-3.7,1.6-5.9V4.8c0-1.2,0.3-2.2,1-3
			C249.5,1,250.4,0.6,251.6,0.6z"/>
		<path class="st0" d="M267,8.6c-1.2,0-2.2-0.4-3-1.1s-1.2-1.7-1.2-2.9s0.4-2.1,1.2-2.9c0.8-0.7,1.8-1.1,3-1.1h30.5
			c1.2,0,2.2,0.4,3,1.1s1.2,1.7,1.2,2.9s-0.4,2.1-1.2,2.9s-1.8,1.1-3,1.1H267z M282.2,48.8c-1.3,0-2.3-0.4-3.2-1.2
			c-0.8-0.8-1.2-1.8-1.2-3V4.7h8.9v39.9c0,1.2-0.4,2.2-1.3,3C284.6,48.4,283.5,48.8,282.2,48.8z"/>
	</g>
</g>
<g>
	<path class="st1" d="M334.7,41.2c1.1,0,2,0.4,2.7,1.1c0.7,0.7,1.1,1.6,1.1,2.7c0,1.1-0.4,1.9-1.1,2.6c-0.7,0.7-1.6,1.1-2.7,1.1
		h-23.4c-1.2,0-2.1-0.4-2.8-1.1c-0.7-0.7-1-1.7-1-2.8s0.4-2.2,1.2-3l15-16c1.6-1.8,3-3.6,4-5.5s1.5-3.6,1.5-5.2c0-1.4-0.3-2.7-1-3.8
		c-0.7-1.1-1.6-2.1-2.7-2.7c-1.1-0.7-2.3-1-3.6-1s-2.7,0.4-4.1,1.3c-1.4,0.9-2.6,2.1-3.6,3.5c-0.5,0.7-1.1,1.2-1.6,1.4
		s-1.1,0.3-1.5,0.3c-1,0-1.9-0.4-2.8-1.1c-0.8-0.8-1.3-1.6-1.3-2.6c0-0.8,0.3-1.5,0.8-2.3c0.5-0.7,1.2-1.5,2-2.3
		c1.7-1.7,3.8-3.1,6-4.2c2.3-1.1,4.5-1.6,6.6-1.6c3.1,0,5.8,0.6,8,1.9c2.2,1.3,4,3,5.2,5.3c1.2,2.2,1.9,4.8,1.9,7.6
		c0,1.9-0.4,3.9-1.1,5.9s-1.7,3.9-2.9,5.8c-1.2,1.9-2.7,3.7-4.3,5.4l-9.3,9.9l-0.8-0.6H334.7z"/>
	<path class="st1" d="M368.4,49.5c-3.5,0-6.7-0.6-9.8-1.9c-3-1.3-5.7-3.1-8-5.3c-2.3-2.3-4.1-4.9-5.4-7.9s-2-6.2-2-9.6
		s0.7-6.6,2-9.6s3.1-5.6,5.4-7.9s4.9-4,8-5.3c3-1.3,6.3-1.9,9.8-1.9c2.2,0,4.2,0.2,6.3,0.7c2,0.5,3.9,1.1,5.6,2.1
		c0.7,0.4,1.2,0.9,1.5,1.5s0.5,1.2,0.5,1.9c0,1.1-0.4,2.1-1.1,3c-0.7,0.9-1.7,1.3-2.8,1.3c-0.4,0-0.7,0-1.1-0.1
		c-0.4-0.1-0.8-0.2-1.1-0.4c-1.1-0.5-2.4-0.9-3.6-1.2c-1.3-0.3-2.6-0.4-4.1-0.4c-3,0-5.7,0.7-8.1,2.2c-2.5,1.5-4.4,3.5-5.8,6
		c-1.4,2.5-2.2,5.3-2.2,8.3s0.7,5.7,2.2,8.2c1.4,2.5,3.4,4.5,5.8,6c2.5,1.5,5.2,2.2,8.1,2.2c1.4,0,2.9-0.1,4.5-0.4
		c1.6-0.3,3-0.6,4.1-1.1l-0.6,2.1V30l1.2,1h-7.6c-1.2,0-2.2-0.4-3-1.2c-0.8-0.8-1.2-1.8-1.2-3s0.4-2.2,1.2-3s1.8-1.2,3-1.2h11.1
		c1.2,0,2.2,0.4,3,1.2c0.8,0.8,1.2,1.8,1.2,3v14.6c0,0.9-0.2,1.7-0.7,2.3c-0.4,0.6-0.9,1.1-1.5,1.4c-2.1,1.3-4.4,2.3-6.9,3.1
		C373.8,49.1,371.2,49.5,368.4,49.5z"/>
	<path class="st1" d="M437.8,24.7c0,3.4-0.6,6.6-1.7,9.6c-1.1,3-2.8,5.6-4.8,7.9c-2.1,2.3-4.6,4-7.4,5.3c-2.9,1.3-6,1.9-9.4,1.9
		c-3.4,0-6.5-0.6-9.3-1.9c-2.8-1.3-5.3-3.1-7.4-5.3c-2.1-2.3-3.7-4.9-4.8-7.9c-1.1-3-1.7-6.2-1.7-9.6s0.6-6.6,1.7-9.6
		c1.1-3,2.8-5.6,4.8-7.9c2.1-2.3,4.5-4,7.4-5.3c2.8-1.3,6-1.9,9.3-1.9c3.4,0,6.5,0.6,9.4,1.9c2.9,1.3,5.3,3.1,7.4,5.3
		c2.1,2.3,3.7,4.9,4.8,7.9C437.3,18.1,437.8,21.3,437.8,24.7z M428.9,24.7c0-3.1-0.6-5.9-1.9-8.3c-1.2-2.5-2.9-4.5-5.1-5.9
		c-2.2-1.5-4.7-2.2-7.5-2.2s-5.3,0.7-7.5,2.2s-3.8,3.4-5.1,5.9c-1.2,2.5-1.8,5.3-1.8,8.4s0.6,5.9,1.8,8.3c1.2,2.5,2.9,4.5,5.1,5.9
		c2.2,1.5,4.6,2.2,7.5,2.2c2.8,0,5.3-0.7,7.5-2.2s3.8-3.4,5.1-5.9S428.9,27.8,428.9,24.7z"/>
</g>
<path id="XMLID_23_" class="st1" d="M57.5,15.2c3,1.8,4.1,3.8,4,6.4c-0.1,2.8-1.6,4.7-4.1,5.8c-6.2,2.7-8.3,6.7-7.1,13.5
	c0.7,3.7-1.4,7-5,7.9c-3.3,0.8-6.5-0.9-7.7-4c-1.3-3.6,0.1-7.1,3.6-8.6c6.5-2.9,8.3-6.5,7.2-13.7c-0.4-2.8,0.5-5.2,2.9-6.8
	C53.5,14.3,55.9,14.3,57.5,15.2z"/>
<path id="XMLID_22_" class="st1" d="M5.9,19.2c2.8-2,5.1-2.3,7.5-1.2c2.5,1.2,3.7,3.3,3.8,6.1c0.1,6.8,3,10.3,9.7,11.8
	c3.7,0.8,5.9,4,5.3,7.7c-0.5,3.3-3.4,5.7-6.7,5.5c-3.8-0.2-6.5-2.8-6.6-6.6c-0.2-7.1-2.8-10.2-9.9-12c-2.8-0.7-4.6-2.5-5.1-5.3
	C3.5,22.5,4.5,20.4,5.9,19.2z"/>
<path id="XMLID_20_" class="st0" d="M3.8,25.4c-0.2-3.4,0.8-5.5,3.1-6.9c2.4-1.5,4.8-1.4,7.2,0.1c5.8,3.6,10.3,3.1,15.1-1.8
	c2.6-2.6,6.6-2.8,9.3-0.3c2.5,2.2,3,5.9,1.1,8.6c-2.2,3.1-5.9,3.9-9.1,2c-6.1-3.7-10.1-3.2-15.4,1.8c-2.1,2-4.6,2.5-7.2,1.4
	C5.3,29.2,4,27.2,3.8,25.4z"/>
<path id="XMLID_15_" class="st0" d="M50.8,6.2c-0.1,3.4-1.4,5.4-3.8,6.5c-2.5,1.2-4.9,0.8-7.1-0.9c-5.3-4.2-9.9-4.2-15.3,0.1
	c-2.9,2.3-6.8,2-9.3-0.7C13.1,8.7,13,5,15.3,2.5c2.6-2.9,6.3-3.3,9.3-0.9c5.6,4.3,9.7,4.3,15.5-0.1c2.3-1.7,4.8-2,7.4-0.6
	C49.7,2.2,50.8,4.3,50.8,6.2z"/>
</svg>
